<svg width="86" height="97" viewBox="0 0 86 97" fill="none" xmlns="http://www.w3.org/2000/svg">
<g clip-path="url(#clip0_76_434)">
<path d="M46.7587 81.668C53.8665 78.5536 58.7639 72.1338 61.268 64.7552C63.1074 59.0336 63.9324 53.0421 63.7071 47.044C63.3951 39.0444 60.8591 31.2834 56.3759 24.6093C52.4366 18.5852 45.4315 11.454 37.6352 10.7338C30.455 10.0676 24.0377 14.7182 21.7513 21.3039C18.4936 30.6892 21.9455 39.5249 23.9152 48.7503C24.6702 52.4869 25.0214 56.2919 24.9631 60.1015C24.9311 65.8143 23.2544 72.5293 26.5834 77.6456C29.9059 82.7521 37.0395 84.3658 42.7915 82.9959C44.152 82.6731 45.48 82.2286 46.7587 81.668Z" fill="#65CAFD"/>
<g style="mix-blend-mode:screen" opacity="0.52">
<path d="M40.7445 78.2375C41.5532 78.3824 42.381 78.3892 43.192 78.2575C43.2023 78.2502 43.2136 78.2443 43.2256 78.2401C48.7127 76.57 53.3334 72.8742 56.123 67.9244C59.0464 62.5703 60.1874 56.4449 59.3842 50.4158C59.0546 46.9843 58.3552 43.5972 57.298 40.3117C57.1554 39.9026 56.4247 37.6061 55.674 38.2248C54.816 38.9318 55.131 40.5274 55.232 41.4791C55.3596 42.6791 55.613 43.8869 55.6446 45.0943C55.6728 46.8037 55.547 48.5121 55.2689 50.1996C54.6443 53.8998 53.3993 57.4717 51.5852 60.7689C49.9299 63.8425 47.7577 66.8851 44.7674 68.827C42.8858 70.0488 40.6841 70.9158 39.1212 72.5671C38.7023 72.9377 38.3797 73.402 38.1805 73.921C37.9814 74.4401 37.9113 74.9987 37.9765 75.5499C38.1122 76.2195 38.4484 76.8336 38.9419 77.3127C39.4353 77.7918 40.0634 78.1139 40.7445 78.2375Z" fill="#65CAFD"/>
</g>
<g style="mix-blend-mode:multiply" opacity="0.5">
<path d="M26.5834 77.6458C29.9059 82.7523 37.0395 84.366 42.7915 82.9961C44.152 82.6732 45.48 82.2287 46.7587 81.668C53.8665 78.5536 58.7639 72.1338 61.268 64.7552C63.1074 59.0336 63.9324 53.0421 63.7071 47.044C63.3951 39.0444 60.8591 31.2834 56.3759 24.6093C52.4366 18.5852 45.4315 11.454 37.6352 10.7338C30.455 10.0676 24.0377 14.7182 21.7513 21.3039C18.4936 30.6892 21.9455 39.5249 23.9152 48.7503C24.6702 52.4869 25.0214 56.2919 24.9631 60.1015C24.9311 65.8144 23.2544 72.5296 26.5834 77.6458ZM33.3754 62.3988C34.2671 56.8795 33.9483 51.2358 32.441 45.8481C31.2687 41.4175 29.722 36.8301 29.7964 32.2015C29.8575 28.4125 30.9464 23.9596 34.4031 21.76C37.4973 19.7904 41.3533 19.7691 44.7403 21.0311C47.9571 22.2296 51.4305 25.374 53.532 27.987C57.2951 32.6668 58.9374 38.5667 60.173 44.3091C61.3352 49.7094 61.7594 55.3594 60.3314 60.7581C59.2115 64.9884 57.2126 68.9431 54.4613 72.3714C50.8139 76.727 44.5945 80.953 38.5335 80.1079C29.7265 78.8775 32.3701 68.2966 33.3754 62.3988Z" fill="#65CAFD"/>
</g>
<g style="mix-blend-mode:multiply" opacity="0.5">
<path d="M26.5834 77.6457C29.9059 82.7522 37.0395 84.3659 42.7915 82.996C44.152 82.6731 45.48 82.2286 46.7587 81.6679C47.6451 81.2788 48.5053 80.8346 49.3345 80.3379C48.6999 80.6094 48.0656 80.8817 47.4228 81.1347C47.377 81.1526 47.3311 81.1693 47.2851 81.1868C45.8696 81.7587 44.3861 82.1503 42.8703 82.3524C42.2215 82.461 41.567 82.5499 40.9071 82.6242C38.9707 82.9225 36.9893 82.7256 35.1523 82.0523C33.4722 81.3449 31.9463 80.3246 30.6583 79.0471C29.3502 77.8202 28.3045 76.3476 27.5823 74.716C26.8682 72.8105 26.7057 70.7467 27.1134 68.7555C27.3226 67.4745 27.6678 66.2187 28.1429 65.0088C28.3426 64.273 28.5811 63.548 28.8575 62.8367C29.4082 61.3878 30.0449 59.9634 30.4631 58.4689C30.94 56.8446 31.0637 55.1394 30.8262 53.4646C30.5142 51.5555 29.9415 49.697 29.1231 47.9397C28.4015 46.3362 27.5688 44.7995 26.9739 43.1412C26.747 42.5086 26.5422 41.8682 26.3591 41.2199C25.9677 40.4034 25.6259 39.5648 25.3348 38.7085C24.3683 35.8827 23.9487 32.903 24.0983 29.9244C24.2229 26.9248 25.169 24.0145 26.8357 21.5022C28.7477 18.6981 31.4127 16.4735 34.5331 15.0772C37.2233 13.9024 40.2188 13.5864 43.1001 14.1733C45.63 14.75 48.005 15.8551 50.0649 17.414C50.6518 17.8449 51.2208 18.3012 51.7721 18.7827C47.9109 14.7063 42.9584 11.2251 37.6352 10.7338C30.455 10.0676 24.0377 14.7182 21.7513 21.3039C18.4936 30.6892 21.9455 39.5249 23.9152 48.7503C24.6702 52.4869 25.0214 56.2919 24.9631 60.1015C24.9311 65.8143 23.2544 72.5295 26.5834 77.6457Z" fill="#65CAFD"/>
</g>
<g style="mix-blend-mode:multiply" opacity="0.5">
<path d="M26.0118 59.2706C26.6982 58.6607 27.8336 58.5362 28.3746 57.7928C28.933 57.0013 29.2587 56.0731 29.3157 55.1106C29.3288 52.7766 28.7895 50.4718 27.7407 48.3794C26.844 46.5551 25.8455 45.5074 24.9749 43.6708C24.1209 41.8084 23.4445 39.8717 22.9543 37.8858C22.0143 34.2657 21.3643 30.3296 21.8415 26.5907C22.6368 20.3617 26.9677 13.8769 33.3393 12.1024C38.5475 10.6519 43.7862 12.5496 48.1518 15.4437C45.0047 12.9388 41.4135 11.0831 37.6352 10.734C30.455 10.0678 24.0377 14.7185 21.7513 21.3042C18.4936 30.6895 21.9455 39.5252 23.9152 48.7505C24.6702 52.4872 25.0214 56.2922 24.9631 60.1018C24.9581 60.9929 24.9133 61.9084 24.8534 62.8385C24.9818 61.6614 25.0602 60.1158 26.0118 59.2706Z" fill="#65CAFD"/>
</g>
<path d="M26.1474 56.5275C27.1816 57.6024 28.1518 57.1282 28.7891 55.8887C30.2327 53.082 28.3674 47.5669 25.8933 44.0019C25.2758 43.4038 24.6081 43.0158 24.1341 43.4743C23.7866 43.9081 23.6081 44.4501 23.6303 45.0024C23.8576 46.4492 24.0087 47.908 24.1791 49.3623C24.2653 51.0238 24.5048 52.674 24.894 54.2927C25.1304 55.1234 25.5595 55.8885 26.1474 56.5275Z" fill="#F1F2C4"/>
<g style="mix-blend-mode:screen" opacity="0.52">
<path d="M26.515 55.3209C26.515 55.3209 26.6856 56.7957 27.8896 55.6486C29.0936 54.5015 28.4844 51.3596 27.3673 50.2805C27.0317 49.9562 25.9944 52.8927 26.515 55.3209Z" fill="#65CAFD"/>
</g>
<path d="M64.5015 43.7613C64.3297 43.7616 64.1611 43.7183 64.0112 43.6357C63.8613 43.553 63.7352 43.4338 63.6455 43.2894C63.5765 43.1787 63.5303 43.0557 63.5096 42.9273C63.4888 42.799 63.4936 42.6678 63.5243 42.5414C63.5549 42.415 63.6108 42.2958 63.6882 42.1905C63.7656 42.0853 63.8632 41.9962 63.9755 41.9282C69.1606 38.7824 74.6505 36.1537 80.364 34.0811C80.4886 34.0387 80.6207 34.0208 80.7522 34.0287C80.8838 34.0365 81.0124 34.0699 81.1309 34.1269C81.2493 34.1838 81.3552 34.2633 81.4425 34.3607C81.5298 34.4581 81.5968 34.5715 81.6395 34.6944C81.6825 34.8173 81.7002 34.9473 81.6922 35.077C81.6842 35.2067 81.6505 35.3336 81.5928 35.4504C81.535 35.5672 81.4543 35.6716 81.3556 35.7577C81.2569 35.8438 81.142 35.9099 81.0174 35.9522C75.4473 37.9885 70.0917 40.5547 65.026 43.6146C64.8684 43.7105 64.6866 43.7613 64.5015 43.7613Z" fill="#133441"/>
<path d="M84.6876 38.3335C84.6022 38.3335 84.5175 38.3228 84.4349 38.3016C84.3104 38.2697 81.371 37.497 80.0396 35.3434C79.1155 33.9058 78.8038 32.1669 79.1718 30.5039C79.2448 30.2516 79.4163 30.0381 79.6488 29.9105C79.8813 29.7829 80.1556 29.7515 80.4116 29.8233C80.6663 29.8947 80.8823 30.0626 81.012 30.2903C81.1417 30.518 81.1747 30.787 81.1041 31.0387C80.8855 32.172 81.1182 33.3448 81.7538 34.3133C82.6523 35.7668 84.9163 36.3802 84.9391 36.3858C85.1967 36.4518 85.4171 36.6159 85.552 36.8421C85.6869 37.0684 85.7253 37.3381 85.6585 37.5922C85.6026 37.8042 85.4769 37.992 85.3012 38.1262C85.1255 38.2603 84.9097 38.3333 84.6876 38.3335Z" fill="#133441"/>
<path d="M81.6769 36.1366C81.3423 36.1713 81.0049 36.1079 80.7067 35.9545C80.4085 35.801 80.1627 35.5642 80.0002 35.2738C79.2201 33.7472 81.291 32.1596 83.1656 31.0967C83.2799 31.0319 83.4059 30.9899 83.5366 30.9731C83.6673 30.9563 83.8001 30.9651 83.9274 30.999C84.0546 31.0328 84.1736 31.0911 84.278 31.1704C84.3824 31.2497 84.4702 31.3485 84.5358 31.4612C84.6016 31.5739 84.6441 31.6982 84.6611 31.827C84.6781 31.9559 84.6692 32.0868 84.6349 32.2122C84.6006 32.3377 84.5415 32.4553 84.4611 32.5583C84.3807 32.6612 84.2803 32.7475 84.166 32.8123C83.5406 33.1677 82.9499 33.5793 82.401 34.0416C83.1438 33.84 83.8666 33.5724 84.5605 33.2423C84.8003 33.1285 85.0762 33.1132 85.3274 33.1998C85.5786 33.2864 85.7844 33.4678 85.9001 33.704C86.0157 33.9403 86.0313 34.2122 85.9436 34.4599C85.8559 34.7076 85.6723 34.9107 85.4327 35.0247C84.2709 35.6442 82.9926 36.0226 81.6769 36.1366Z" fill="#133441"/>
<path d="M21.4986 45.5734C21.3346 45.5733 21.173 45.5336 21.0282 45.4576C12.9526 41.2241 4.98559 37.7695 4.90601 37.7352C4.78532 37.683 4.67644 37.6079 4.5852 37.5141C4.49395 37.4204 4.42242 37.3098 4.37451 37.1888C4.3266 37.0677 4.30327 36.9385 4.306 36.8086C4.30873 36.6787 4.3374 36.5505 4.39035 36.4316C4.49737 36.1913 4.69676 36.0028 4.94469 35.9073C5.19261 35.8119 5.46888 35.8175 5.71266 35.9228C5.79284 35.9574 13.8257 39.4404 21.9704 43.7099C22.0868 43.7709 22.1897 43.8539 22.2735 43.9542C22.3574 44.0545 22.4207 44.1701 22.4592 44.2944C22.4977 44.4187 22.5109 44.5492 22.4982 44.6786C22.4856 44.808 22.4471 44.9337 22.3852 45.0484C22.2996 45.207 22.1719 45.3397 22.0157 45.4322C21.8595 45.5247 21.6808 45.5735 21.4986 45.5734Z" fill="#133441"/>
<path d="M1.31277 40.1456C1.09059 40.1453 0.874793 40.0724 0.699129 39.9383C0.523464 39.8041 0.397693 39.6163 0.341848 39.4043C0.275085 39.1502 0.313389 38.8804 0.448295 38.6542C0.583202 38.428 0.803602 38.2638 1.0612 38.1978C1.08172 38.1926 3.34214 37.5886 4.24652 36.1253C4.87645 35.1573 5.10949 33.9893 4.89847 32.8582C4.86233 32.7332 4.85167 32.6024 4.86679 32.4733C4.88192 32.3442 4.92241 32.2193 4.9865 32.1058C5.05059 31.9922 5.13699 31.8922 5.24028 31.8115C5.34357 31.7308 5.46197 31.6709 5.58872 31.6354C5.8447 31.5635 6.11898 31.5948 6.35153 31.7225C6.58408 31.8501 6.7556 32.0637 6.82852 32.3161C7.19647 33.979 6.88485 35.7178 5.96074 37.1553C4.62932 39.3091 1.68991 40.0817 1.56544 40.1136C1.48286 40.1348 1.39808 40.1455 1.31277 40.1456Z" fill="#133441"/>
<path d="M4.32284 37.9487C3.00714 37.8347 1.72905 37.4562 0.567338 36.8366C0.327739 36.7226 0.144169 36.5194 0.0564636 36.2717C-0.0312418 36.024 -0.0156214 35.7522 0.0999266 35.5159C0.215689 35.2796 0.421489 35.0983 0.672681 35.0118C0.923873 34.9252 1.19976 34.9405 1.43955 35.0542C2.13211 35.3836 2.85342 35.6507 3.59465 35.8524C3.04719 35.3905 2.45762 34.9794 1.83366 34.6242C1.71941 34.5595 1.61941 34.4731 1.539 34.3702C1.45858 34.2672 1.39947 34.1496 1.36514 34.0241C1.33082 33.8987 1.322 33.7678 1.33899 33.6389C1.35598 33.5101 1.39851 33.3858 1.46422 33.2731C1.52994 33.1605 1.61725 33.0617 1.72169 32.9824C1.82612 32.9031 1.94545 32.8449 2.07271 32.811C2.19996 32.7772 2.3328 32.7684 2.46351 32.7851C2.59421 32.8019 2.72016 32.8438 2.83441 32.9086C4.70895 33.9715 6.77984 35.5591 5.99985 37.0857C5.83728 37.3761 5.59162 37.6129 5.29339 37.7664C4.99517 37.9198 4.65741 37.9833 4.32284 37.9487Z" fill="#133441"/>
<g style="mix-blend-mode:multiply">
<path d="M40.3418 97.0001C58.8149 97.0001 73.7904 94.7572 73.7904 91.9904C73.7904 89.2236 58.8149 86.9807 40.3418 86.9807C21.8687 86.9807 6.89325 89.2236 6.89325 91.9904C6.89325 94.7572 21.8687 97.0001 40.3418 97.0001Z" fill="#DBDACB"/>
</g>
<path d="M50.8203 92.3095C50.7977 92.3095 50.7752 92.3088 50.7525 92.3071C49.8026 92.2887 48.8779 92.0025 48.0877 91.4824C47.9622 91.3852 47.8621 91.2599 47.7956 91.1169C47.7291 90.9739 47.6978 90.8174 47.705 90.6602L48.2332 79.0198C48.2382 78.8897 48.2693 78.7619 48.3249 78.6437C48.3804 78.5256 48.4591 78.4195 48.5566 78.3316C48.654 78.2438 48.7682 78.1758 48.8925 78.1318C49.0167 78.0878 49.1488 78.0685 49.2807 78.0751C49.4124 78.0809 49.5414 78.1121 49.6608 78.1671C49.7802 78.2221 49.8875 78.2998 49.9765 78.3958C50.0654 78.4917 50.1345 78.6039 50.1794 78.7261C50.2244 78.8483 50.2446 78.978 50.2387 79.1079L49.7393 90.1139C50.1096 90.2379 50.4954 90.3114 50.8859 90.3323C51.0174 90.3409 51.146 90.3749 51.2642 90.4325C51.3823 90.4901 51.4879 90.57 51.5747 90.6679C51.6615 90.7657 51.7277 90.8793 51.7699 91.0025C51.8121 91.1256 51.8295 91.2558 51.8207 91.3855C51.8038 91.6358 51.6911 91.8704 51.5054 92.042C51.3197 92.2135 51.0748 92.3091 50.8203 92.3095Z" fill="#133441"/>
<path d="M30.9026 92.3095C30.6482 92.3092 30.4036 92.2136 30.2179 92.0421C30.0322 91.8707 29.9196 91.636 29.9026 91.3857C29.8938 91.256 29.9108 91.1259 29.953 91.0028C29.9953 90.8797 30.0615 90.7659 30.1483 90.6681C30.2351 90.5703 30.3406 90.4903 30.4588 90.4327C30.5769 90.3752 30.7055 90.3411 30.837 90.3325C31.2276 90.3117 31.6135 90.2379 31.9836 90.1132L31.4846 79.1082C31.4786 78.9783 31.4985 78.8486 31.5435 78.7264C31.5884 78.6042 31.6575 78.4919 31.7464 78.396C31.8354 78.3001 31.9427 78.2224 32.0621 78.1674C32.1815 78.1124 32.3109 78.0811 32.4426 78.0754C32.5743 78.0694 32.7057 78.0892 32.8297 78.1334C32.9537 78.1777 33.0676 78.2457 33.1649 78.3334C33.2622 78.4212 33.3412 78.527 33.3969 78.6448C33.4527 78.7627 33.4841 78.8902 33.4898 79.0201L34.0179 90.6605C34.0251 90.8176 33.9942 90.9742 33.9277 91.1172C33.8612 91.2602 33.7611 91.3854 33.6356 91.4826C32.8454 92.0029 31.9207 92.2892 30.9707 92.3075C30.948 92.3087 30.925 92.3095 30.9026 92.3095Z" fill="#133441"/>
<ellipse cx="7.16109" cy="3.3305" rx="7.16109" ry="3.3305" transform="matrix(0.923661 0.38321 -0.391883 0.920015 57.8961 10.85)" fill="#FFCB7D"/>
<path d="M56.6036 13.8849L57.3349 12.5858L61.1376 15.184L70.4981 18.0709L69.7668 19.5144L65.9641 20.2361L56.7498 15.3284L56.6036 13.8849Z" fill="#FFCB7D"/>
<ellipse cx="7.15267" cy="3.32659" rx="7.15267" ry="3.32659" transform="matrix(0.923661 0.38321 -0.391883 0.920015 58.6135 9.52686)" fill="#FFA928"/>
<ellipse cx="7.10052" cy="3.36315" rx="7.10052" ry="3.36315" transform="matrix(-0.275148 -0.960404 -0.963109 0.272617 19.7279 24.5508)" fill="#FFCB7D"/>
<path d="M16.5134 25.4642L17.9038 24.9004L15.7617 20.8555L14.0046 11.3164L12.4696 11.863L11.2852 15.5128L15.0849 25.1487L16.5134 25.4642Z" fill="#FFCB7D"/>
<ellipse cx="7.09218" cy="3.35919" rx="7.09218" ry="3.35919" transform="matrix(-0.275148 -0.960404 -0.963109 0.272617 21.1425 24.0056)" fill="#FFA928"/>
<ellipse cx="5.64431" cy="2.64625" rx="5.64431" ry="2.64625" transform="matrix(0.818282 -0.582079 0.586702 0.804634 64.7135 8.13354)" fill="#FFCB7D"/>
<path d="M66.255 10.2467L65.6712 9.22387L69.0205 7.75218L74.8698 2.6864L75.5522 3.76863L74.4693 6.60585L67.301 10.7427L66.255 10.2467Z" fill="#FFCB7D"/>
<ellipse cx="5.63768" cy="2.64314" rx="5.63768" ry="2.64314" transform="matrix(0.818282 -0.582079 0.586702 0.804634 64.1038 7.1084)" fill="#FFA928"/>
<ellipse cx="5.65063" cy="2.65296" rx="5.65063" ry="2.65296" transform="matrix(0.679475 -0.73045 -0.740193 -0.675954 2.48529 18.1941)" fill="#FFCB7D"/>
<path d="M0.544967 16.421L1.50443 17.1244L3.36813 14.0103L9.12814 8.88504L8.12044 8.07711L5.14738 8.78764L0.16771 15.3286L0.544967 16.421Z" fill="#FFCB7D"/>
<ellipse cx="5.64399" cy="2.64984" rx="5.64399" ry="2.64984" transform="matrix(0.679475 -0.73045 -0.740193 -0.675954 3.44116 18.9159)" fill="#FFA928"/>
<path d="M33.2206 35.4243C33.2532 32.5455 30.9096 30.1853 27.986 30.1531C25.0623 30.1209 22.6658 32.4289 22.6332 35.3077C22.6006 38.1865 24.9443 40.5462 27.8679 40.5784C30.7915 40.6106 33.188 38.3031 33.2206 35.4243Z" fill="white"/>
<path d="M31.5692 35.2099C31.5266 34.2579 31.1025 33.3615 30.3898 32.718C29.6771 32.0745 28.7342 31.7364 27.7688 31.7782C27.2907 31.7982 26.8211 31.9108 26.3872 32.1097C25.9532 32.3086 25.5635 32.5899 25.2398 32.9374C24.9161 33.2849 24.6648 33.6919 24.5006 34.1352C24.3364 34.5784 24.2626 35.0492 24.2829 35.5207C24.3256 36.4729 24.7501 37.3693 25.463 38.0128C26.176 38.6564 27.1192 38.9943 28.0848 38.9523C28.5628 38.9322 29.0322 38.8196 29.4661 38.6206C29.8999 38.4217 30.2894 38.1404 30.613 37.7929C30.9366 37.4453 31.1878 37.0384 31.3519 36.5952C31.516 36.152 31.5897 35.6812 31.5692 35.2099ZM27.48 34.9965C27.256 35.294 26.9227 35.493 26.5515 35.5507C26.1803 35.6085 25.8011 35.5203 25.4951 35.3053C25.2395 35.0341 25.1019 34.6747 25.1128 34.3047C25.1236 33.9346 25.2819 33.5836 25.5529 33.3275C25.7769 33.0299 26.1099 32.8309 26.4811 32.7732C26.8523 32.7154 27.2319 32.8035 27.5378 33.0186C27.7936 33.2897 27.9306 33.649 27.9198 34.0191C27.909 34.3892 27.7511 34.7403 27.48 34.9965ZM30.2863 37.385C30.1567 37.5571 29.9637 37.6723 29.7489 37.7057C29.5342 37.739 29.3146 37.688 29.1375 37.5636C28.9897 37.4067 28.9106 37.1987 28.9169 36.9845C28.9232 36.7704 29.0146 36.5674 29.1714 36.4192C29.3009 36.247 29.4937 36.1318 29.7084 36.0984C29.9232 36.065 30.1429 36.1161 30.3198 36.2406C30.4678 36.3975 30.547 36.6054 30.5408 36.8195C30.5347 37.0336 30.4431 37.2368 30.2863 37.385Z" fill="#133441"/>
<path d="M55.995 35.4285C56.0302 32.5497 53.6888 30.1878 50.7652 30.153C47.8416 30.1182 45.4429 32.4236 45.4077 35.3024C45.3724 38.1811 47.7139 40.5434 50.6375 40.5782C53.5611 40.613 55.9597 38.3072 55.995 35.4285Z" fill="white"/>
<path d="M54.3424 35.2099C54.2999 34.2579 53.8754 33.3615 53.1627 32.718C52.4499 32.0745 51.5071 31.7365 50.5416 31.7784C50.0635 31.7984 49.5943 31.911 49.1604 32.1099C48.7265 32.3089 48.3363 32.5901 48.0127 32.9376C47.689 33.2851 47.4379 33.6921 47.2738 34.1353C47.1096 34.5785 47.0358 35.0493 47.0561 35.5207C47.0988 36.4728 47.5234 37.3692 48.2362 38.0127C48.9491 38.6562 49.8917 38.9942 50.8573 38.9523C51.3353 38.9323 51.8046 38.8196 52.2385 38.6207C52.6724 38.4218 53.0622 38.1405 53.3859 37.793C53.7095 37.4455 53.9607 37.0385 54.1247 36.5953C54.2888 36.1521 54.3629 35.6813 54.3424 35.2099ZM50.3029 34.7863C50.0428 35.0537 49.6867 35.2099 49.311 35.2212C48.9354 35.2326 48.57 35.0982 48.2937 34.847C48.0746 34.5463 47.9842 34.1727 48.0421 33.8069C48.1 33.4411 48.3015 33.1124 48.6031 32.8918C48.8633 32.6244 49.2194 32.4682 49.595 32.4569C49.9706 32.4456 50.3361 32.58 50.6123 32.8312C50.8314 33.1319 50.9218 33.5055 50.8639 33.8713C50.806 34.2371 50.6045 34.5657 50.3029 34.7863ZM53.3041 37.255C53.1745 37.4272 52.9819 37.5423 52.7671 37.5757C52.5523 37.6091 52.3327 37.5581 52.1556 37.4336C52.0078 37.2767 51.9283 37.0687 51.9346 36.8546C51.9409 36.6405 52.0324 36.4374 52.1892 36.2892C52.3187 36.117 52.5118 36.0018 52.7265 35.9684C52.9413 35.935 53.1606 35.9861 53.3376 36.1107C53.4856 36.2675 53.5648 36.4754 53.5586 36.6896C53.5524 36.9037 53.4609 37.1068 53.3041 37.255Z" fill="#133441"/>
<path d="M46.8752 25.269C46.6791 26.1717 48.261 26.8339 50.0672 27.1757C51.6843 27.4816 53.2322 27.9223 53.7011 26.7857C54.6661 24.4467 47.4666 22.5511 46.8752 25.269Z" fill="#133441"/>
<path d="M24.903 26.6985C25.3411 27.8471 26.9003 27.4473 28.5252 27.1841C30.34 26.8899 31.9395 26.2696 31.7676 25.3616C31.25 22.6296 24.0016 24.3352 24.903 26.6985Z" fill="#133441"/>
<path d="M42.9691 38.5068C43.9741 39.7063 42.996 41.9404 39.6884 41.9404C36.3808 41.9404 35.5689 39.5263 36.4114 38.5068C36.8946 37.9224 38.0079 38.2141 39.6884 38.2141C41.3688 38.2141 42.4698 37.9119 42.9691 38.5068Z" fill="#AB1700"/>
<path d="M42.4984 38.7236C42.4984 38.9968 41.2824 39.2183 39.7819 39.2183C38.2815 39.2183 37.0651 38.9968 37.0651 38.7236C37.0651 38.4503 38.2815 38.5178 39.7819 38.5178C41.2824 38.5178 42.4984 38.4503 42.4984 38.7236Z" fill="white"/>
<path d="M37.4453 41.0347C38.1332 41.4146 38.915 41.5982 39.7028 41.5649C40.5693 41.6087 41.4292 41.3957 42.172 40.9536C40.2558 39.1299 38.4531 40.1347 37.4453 41.0347Z" fill="#FD6C6C"/>
</g>
<defs>
<clipPath id="clip0_76_434">
<rect width="86" height="97" fill="white"/>
</clipPath>
</defs>
</svg>
