<svg width="79" height="101" viewBox="0 0 79 101" fill="none" xmlns="http://www.w3.org/2000/svg">
<path d="M53.3031 75.1292C59.8591 69.3502 62.9538 60.68 63.1725 51.7534C63.337 45.0029 62.019 37.9034 59.8822 31.5138C56.947 22.7486 51.5326 15.267 44.582 9.34109C38.3685 4.04228 28.5115 -1.452 19.9434 0.349509C12.0514 2.00538 6.74429 9.24011 6.49426 17.2247C6.13852 28.6028 12.7673 37.1479 17.9425 46.613C20.0266 50.4265 21.5988 54.5474 22.8409 58.7167C24.7085 64.9939 25.1525 72.9174 30.412 77.4233C35.6611 81.9204 43.8189 81.3194 49.5074 77.9048C50.8533 77.0983 52.1238 76.1692 53.3031 75.1292Z" fill="#65CAFD"/>
<g style="mix-blend-mode:screen" opacity="0.52">
<path d="M45.7362 73.3652C46.6484 73.2554 47.535 72.9877 48.3576 72.5737C48.3661 72.5622 48.3763 72.5519 48.3877 72.5433C53.7254 68.9691 57.3526 63.2371 58.7314 56.9403C60.2054 50.207 59.1228 42.9264 56.3866 36.6499C54.8158 33.0465 53.0894 29.4531 50.7943 26.2596C50.5057 25.8581 48.9607 23.582 48.3648 24.5101C47.6835 25.5709 48.551 27.2166 48.9759 28.227C49.5116 29.5009 50.1844 30.7415 50.62 32.0556C51.2192 33.9214 51.6536 35.8373 51.9183 37.7808C52.5272 42.0116 52.2981 46.4067 51.5019 50.5993C50.7569 54.5211 49.4491 58.5809 46.9011 61.7052C45.2978 63.6709 43.2343 65.3538 42.1145 67.6847C41.5689 68.8203 41.2569 70.1612 41.8848 71.3371C42.2527 72.0266 42.8164 72.5884 43.503 72.9499C44.1896 73.3114 44.9676 73.4561 45.7362 73.3652Z" fill="#65CAFD"/>
</g>
<g style="mix-blend-mode:multiply" opacity="0.5">
<path d="M30.4119 77.4233C35.6611 81.9204 43.8189 81.3194 49.5073 77.9048C50.8533 77.0983 52.1238 76.1692 53.3032 75.1292C59.8591 69.3502 62.9538 60.68 63.1726 51.7534C63.3371 45.0029 62.0191 37.9034 59.8823 31.5138C56.947 22.7486 51.5327 15.267 44.5821 9.34109C38.3686 4.04228 28.5117 -1.452 19.9435 0.349509C12.0515 2.00538 6.74435 9.24011 6.49432 17.2247C6.13858 28.6028 12.7674 37.1479 17.9425 46.613C20.0267 50.4265 21.5989 54.5474 22.841 58.7167C24.7083 64.9939 25.1524 72.9174 30.4119 77.4233ZM32.5918 58.4403C31.7521 51.9974 29.4441 46.0999 26.084 40.5949C23.3569 36.1244 20.1772 31.6066 18.7158 26.5044C17.5197 22.3276 17.2008 17.0806 20.1613 13.5191C22.811 10.3298 26.9228 9.02476 30.9612 9.2837C34.7965 9.52916 39.5535 11.8239 42.6683 13.9917C48.2461 17.8743 51.9649 23.8004 55.1963 29.6889C58.2355 35.2265 60.5696 41.2833 60.841 47.6803C61.0439 52.4408 60.2439 57.9431 58.4361 62.3708C55.9897 68.3612 50.7527 75.0643 43.9967 76.1519C34.1795 77.7296 33.4811 65.244 32.5918 58.4403Z" fill="#65CAFD"/>
</g>
<g style="mix-blend-mode:multiply" opacity="0.5">
<path d="M30.4119 77.4232C35.6611 81.9204 43.8189 81.3194 49.5073 77.9047C51.7904 76.5382 53.85 74.8208 55.6122 72.8138C55.0247 73.3226 54.4378 73.8323 53.8353 74.3234C53.7923 74.3583 53.7488 74.3917 53.7055 74.4264C52.3838 75.5242 50.9294 76.447 49.3773 77.1725C48.7207 77.5072 48.0518 77.8241 47.3707 78.1233C45.3598 79.0129 43.2458 79.6212 41.0326 79.4089C39.0023 79.1914 37.0326 78.5793 35.2315 77.606C33.4611 76.6686 31.7784 75.4499 30.5036 73.8776C29.0345 72.0658 28.3253 69.7923 28.0188 67.4947C27.8158 66.02 27.7662 64.5279 27.8711 63.0427C27.8395 62.1692 27.8529 61.2945 27.9114 60.4224C28.0177 58.6498 28.2233 56.8756 28.1724 55.0973C28.1412 53.157 27.7059 51.2452 26.8947 49.487C25.9259 47.4965 24.695 45.6482 23.2358 43.9926C21.9312 42.4735 20.5303 41.0645 19.3429 39.4431C18.89 38.8246 18.458 38.1902 18.0466 37.54C17.3567 36.7744 16.7121 35.9681 16.116 35.1255C14.1429 32.347 12.7031 29.2177 11.8714 25.9007C11.0714 22.5766 10.9822 19.0419 11.9917 15.7519C13.1097 12.1069 15.2028 8.6398 18.0756 6.14531C20.5583 3.96231 23.6529 2.61993 26.9263 2.30604C29.8146 2.05194 32.725 2.56511 35.4453 3.5458C36.2157 3.8234 36.9755 4.13465 37.7247 4.47959C32.243 1.29151 25.7936 -0.8809 19.9435 0.349385C12.0515 2.00526 6.74435 9.24001 6.49432 17.2246C6.13858 28.6027 12.7673 37.1478 17.9425 46.6129C20.0266 50.4264 21.5988 54.5473 22.8409 58.7165C24.7083 64.9939 25.1524 72.9174 30.4119 77.4232Z" fill="#65CAFD"/>
</g>
<g style="mix-blend-mode:multiply" opacity="0.5">
<path d="M23.6845 57.4562C24.2152 56.5592 25.3862 56.0451 25.7165 55.0497C26.0496 53.9959 26.0885 52.8694 25.829 51.7947C25.2846 49.4416 23.5104 46.6805 21.9057 44.9343C20.3406 43.2312 18.9252 42.4138 17.3837 40.6881C15.8514 38.9291 14.484 37.0295 13.2992 35.014C11.0898 31.3553 9.08551 27.2536 8.35063 22.9934C7.12649 15.8962 9.5943 7.34293 15.81 3.27847C20.8908 -0.0435313 27.1184 0.296503 32.7455 2.02007C28.5498 0.318396 24.0959 -0.523597 19.9435 0.349468C12.0515 2.00534 6.74441 9.24007 6.49438 17.2246C6.13865 28.6028 12.7675 37.1478 17.9426 46.613C20.0267 50.4264 21.5989 54.5473 22.841 58.7166C23.1323 59.6958 23.389 60.7151 23.6347 61.7552C23.38 60.4213 22.9493 58.6997 23.6845 57.4562Z" fill="#65CAFD"/>
</g>
<path d="M22.916 54.4022C24.3785 55.2375 25.2572 54.3948 25.5254 52.8234C26.1332 49.2647 22.3047 43.8348 18.4749 40.7465C17.6161 40.2956 16.7738 40.092 16.4201 40.7524C16.1429 41.27 16.2357 41.9622 16.3903 42.5964C17.1148 44.108 17.762 45.6578 18.4283 47.1965C19.1247 48.8058 19.7744 50.7918 20.833 52.3674C21.3621 53.2001 22.0752 53.8967 22.916 54.4022Z" fill="#F1F2C4"/>
<g style="mix-blend-mode:screen" opacity="0.52">
<path d="M22.907 52.9565C22.907 52.9565 23.58 54.5176 24.4843 52.8591C25.3887 51.2007 23.692 47.9566 22.1394 47.1442C21.6729 46.9 21.5426 50.466 22.907 52.9565Z" fill="#65CAFD"/>
</g>
<g style="mix-blend-mode:multiply">
<path d="M42.8391 99.0003C60.0488 99.0003 74 96.8546 74 94.2077C74 91.5609 60.0488 89.4152 42.8391 89.4152C25.6294 89.4152 11.6782 91.5609 11.6782 94.2077C11.6782 96.8546 25.6294 99.0003 42.8391 99.0003Z" fill="#DBDACB"/>
</g>
<path d="M23.2542 88.9757C23.2154 88.9757 23.1759 88.9738 23.1352 88.9703C21.9071 88.8672 20.604 87.5268 20.3552 87.2592C20.271 87.1687 20.2053 87.0623 20.1618 86.946C20.1182 86.8298 20.0977 86.706 20.1014 86.5817C20.1051 86.4574 20.133 86.3351 20.1834 86.2217C20.2338 86.1084 20.3057 86.0062 20.3951 85.9209C20.4845 85.8357 20.5896 85.7692 20.7044 85.7251C20.8192 85.681 20.9415 85.6602 21.0642 85.664C21.1869 85.6677 21.3077 85.6959 21.4197 85.747C21.5317 85.798 21.6326 85.8709 21.7167 85.9614C22.0835 86.355 22.5041 86.6932 22.9657 86.9658C23.124 86.6541 23.3346 86.1548 23.527 85.6983C24.455 83.4963 26.0085 79.8109 29.3523 76.6739C29.5341 76.5033 29.7755 76.4128 30.0232 76.4223C30.271 76.4319 30.5049 76.5407 30.6734 76.7248C30.8419 76.909 30.9313 77.1534 30.9219 77.4043C30.9125 77.6552 30.805 77.892 30.6231 78.0626C27.5717 80.9255 26.1163 84.3783 25.2467 86.4415C24.5871 88.0059 24.1785 88.9757 23.2542 88.9757Z" fill="#133441"/>
<path d="M62.25 76.2164C61.935 76.2167 61.6215 76.1708 61.3195 76.0801C58.3957 75.2063 57.7983 70.4468 57.7397 69.907C57.7134 69.6579 57.7857 69.4084 57.9408 69.2131C58.0958 69.0178 58.321 68.8928 58.5669 68.8653C58.8128 68.8379 59.0595 68.9102 59.2528 69.0665C59.4462 69.2229 59.5704 69.4505 59.5984 69.6994C59.714 70.7443 60.3756 73.8257 61.8503 74.2646C62.9662 74.5968 64.6972 73.392 66.7237 70.8714C66.8275 70.7429 66.9628 70.6441 67.116 70.585C67.2692 70.5259 67.4351 70.5085 67.597 70.5344C68.334 70.6543 69.7238 71.2496 70.2586 72.7191C70.3011 72.8357 70.3204 72.9597 70.3156 73.084C70.3107 73.2082 70.2818 73.3302 70.2303 73.4431C70.1789 73.556 70.106 73.6576 70.0158 73.7419C69.9257 73.8263 69.82 73.8918 69.7048 73.9348C69.5896 73.9778 69.4671 73.9974 69.3444 73.9925C69.2218 73.9876 69.1013 73.9583 68.9898 73.9062C68.8783 73.8541 68.778 73.7804 68.6947 73.689C68.6114 73.5977 68.5467 73.4906 68.5042 73.374C68.3664 73.0195 68.0998 72.732 67.759 72.5705C65.6954 75.0132 63.8801 76.2164 62.25 76.2164Z" fill="#133441"/>
<path d="M11.4156 55.8898C10.3719 55.8957 9.35066 55.5831 8.48493 54.9929C5.5356 52.9644 4.63672 48.0156 6.52186 44.1858C6.57635 44.074 6.6521 43.9742 6.74476 43.8922C6.83742 43.8101 6.9452 43.7474 7.06186 43.7076C7.17851 43.6678 7.30174 43.6518 7.42455 43.6603C7.54735 43.6689 7.66728 43.7019 7.77744 43.7575C7.8876 43.8132 7.98582 43.8903 8.06649 43.9844C8.14715 44.0786 8.20868 44.1879 8.24751 44.3062C8.28633 44.4245 8.3017 44.5494 8.29275 44.6737C8.2838 44.798 8.25069 44.9193 8.19533 45.0306C6.73095 48.0052 7.35731 51.9287 9.53555 53.4266C11.5569 54.8165 14.4527 53.6515 17.4815 50.2312C17.647 50.0442 17.8791 49.9315 18.1267 49.9179C18.3742 49.9042 18.617 49.9906 18.8016 50.1582C18.9862 50.3258 19.0975 50.5608 19.111 50.8115C19.1245 51.0621 19.0392 51.308 18.8737 51.4949C15.8173 54.9468 13.2775 55.8898 11.4156 55.8898Z" fill="#133441"/>
<path d="M10.2536 43.5532C10.4097 42.9564 10.328 42.3215 10.0263 41.7851C9.80264 41.421 9.48345 41.127 9.10437 40.9359C8.72529 40.7448 8.30122 40.6642 7.87951 40.703C6.44336 40.8158 5.245 41.7922 5.0302 43.025C4.95375 43.4636 4.86427 44.9688 6.92108 45.9153C7.37732 46.1401 7.8758 46.2634 8.38301 46.277C8.7512 46.2919 9.11566 46.1975 9.43157 46.0054C9.74749 45.8133 10.0011 45.5319 10.1611 45.1958C10.3863 44.6774 10.4191 44.0941 10.2536 43.5532Z" fill="#133441"/>
<path d="M67.5996 40.7333C67.5455 40.7334 67.4915 40.7286 67.4383 40.7191C67.194 40.6761 66.9766 40.5366 66.834 40.3314C66.6913 40.1261 66.6349 39.8718 66.6774 39.6245C67.2402 36.3496 65.5319 32.7715 63.0217 31.9671C60.6928 31.2204 58.2457 33.176 56.3093 37.3333C56.203 37.5595 56.0125 37.7338 55.7795 37.8181C55.5465 37.9023 55.2901 37.8896 55.0663 37.7828C54.8425 37.6759 54.6697 37.4836 54.5857 37.248C54.5017 37.0123 54.5133 36.7526 54.6181 36.5256C57.9974 29.2711 62.0151 29.6581 63.586 30.1623C66.9848 31.2513 69.2443 35.7332 68.5197 39.9488C68.482 40.1683 68.369 40.3672 68.2007 40.5107C68.0325 40.6542 67.8196 40.733 67.5996 40.7333Z" fill="#133441"/>
<path d="M68.0261 43.7407C67.6522 43.8592 67.2543 43.8777 66.8712 43.7943C66.4881 43.7109 66.1329 43.5286 65.84 43.265C65.2802 42.267 64.9094 41.172 64.7466 40.0361C64.8857 39.1183 65.7286 38.1411 67.6483 38.4074C69.8865 38.7179 70.2261 40.1861 70.2769 40.6287C70.4197 41.8723 69.5474 43.1553 68.2028 43.6798C68.1445 43.7025 68.0854 43.7228 68.0261 43.7407Z" fill="#133441"/>
<path d="M16.741 33.7442C19.3847 33.1025 21.0149 30.4153 20.3822 27.7421C19.7494 25.0689 17.0933 23.4219 14.4495 24.0636C11.8058 24.7053 10.1755 27.3925 10.8083 30.0657C11.441 32.739 14.0972 34.3858 16.741 33.7442Z" fill="white"/>
<path d="M17.5578 27.474C17.3573 26.8257 16.9714 26.2521 16.4489 25.826C15.9264 25.3999 15.2908 25.1403 14.6225 25.08C13.9543 25.0198 13.2834 25.1617 12.6948 25.4877C12.1062 25.8137 11.6263 26.3093 11.3159 26.9115C11.0055 27.5138 10.8786 28.1958 10.9511 28.8712C11.0236 29.5465 11.2924 30.185 11.7233 30.7056C12.1543 31.2263 12.7281 31.6058 13.3721 31.7961C14.0162 31.9864 14.7015 31.9789 15.3414 31.7747C16.1984 31.5018 16.9132 30.8954 17.3288 30.089C17.7445 29.2825 17.8268 28.3419 17.5578 27.474ZM13.833 28.2736C13.4803 28.9935 12.716 29.3376 12.1254 29.0422C11.5347 28.7469 11.3421 27.9238 11.6946 27.204C12.0471 26.4841 12.8116 26.14 13.402 26.4354C13.9924 26.7308 14.1855 27.5538 13.833 28.2736ZM16.9365 29.7927C16.7326 30.2092 16.2902 30.4083 15.9484 30.2374C15.6067 30.0666 15.4955 29.5903 15.6993 29.1737C15.9032 28.7572 16.3456 28.5581 16.6871 28.7291C17.0286 28.9 17.1405 29.3761 16.9365 29.7927Z" fill="#133441"/>
<path d="M37.1942 28.1952C39.8379 27.5536 41.4681 24.8663 40.8354 22.1931C40.2026 19.5199 37.5465 17.873 34.9027 18.5147C32.259 19.1563 30.6287 21.8436 31.2615 24.5168C31.8943 27.19 34.5504 28.8369 37.1942 28.1952Z" fill="white"/>
<path d="M38.011 21.9249C37.8105 21.2766 37.4246 20.7032 36.9021 20.2771C36.3796 19.851 35.7441 19.5914 35.0758 19.5312C34.4076 19.471 33.7368 19.6129 33.1482 19.9389C32.5597 20.2649 32.0798 20.7604 31.7694 21.3626C31.4591 21.9649 31.3321 22.6468 31.4046 23.3221C31.4771 23.9975 31.7458 24.6358 32.1768 25.1565C32.6077 25.6771 33.1815 26.0566 33.8254 26.2469C34.4694 26.4372 35.1548 26.4298 35.7946 26.2256C36.6516 25.9528 37.3665 25.3464 37.7821 24.5399C38.1977 23.7334 38.2801 22.7929 38.011 21.9249ZM34.2797 22.5185C33.8404 23.188 33.0394 23.4321 32.4901 23.064C31.9409 22.6959 31.8519 21.8547 32.291 21.1854C32.7301 20.5161 33.5313 20.2719 34.0806 20.64C34.6298 21.0081 34.7187 21.8492 34.2797 22.5185ZM37.5779 24.0641C37.3741 24.4807 36.9316 24.6797 36.5899 24.5088C36.2482 24.3379 36.1368 23.8617 36.3408 23.4452C36.5447 23.0287 36.9871 22.8295 37.3286 23.0005C37.67 23.1715 37.7819 23.6476 37.5779 24.0641Z" fill="#133441"/>
<path d="M31.0375 19.4486C31.4931 20.1998 32.9884 19.6291 34.4258 18.6913C35.7128 17.8517 37.0409 17.1502 36.6163 16.0602C35.7427 13.8171 29.666 17.1869 31.0375 19.4486Z" fill="#133441"/>
<path d="M10.2518 23.9281C10.5904 25.0485 12.0609 24.7596 13.5843 24.6048C15.2858 24.4318 16.8067 23.9351 16.7009 23.0602C16.3822 20.4258 9.55518 21.6224 10.2518 23.9281Z" fill="#133441"/>
<path d="M23.7369 33.2288C22.5415 32.3673 22.8747 30.0686 25.8454 29.2626C28.8156 28.4568 30.1343 30.4852 29.6265 31.6309C29.3351 32.2875 28.2641 32.2897 26.7548 32.6993C25.2456 33.1089 24.3305 33.6558 23.7369 33.2288Z" fill="#AB1700"/>
<path d="M24.2374 30.4022C24.1707 30.1502 24.9225 29.7254 25.9166 29.4535C26.9107 29.1816 27.7706 29.1654 27.8373 29.4174C27.904 29.6694 27.0816 29.8277 26.0875 30.0997C25.0935 30.3716 24.3041 30.6542 24.2374 30.4022Z" fill="white"/>
<path d="M24.474 32.4988C25.0112 32.6637 25.7305 32.6819 26.6308 32.4377C27.6393 32.164 28.3099 31.7335 28.6994 31.2722C26.5333 30.0573 25.1595 31.4234 24.474 32.4988Z" fill="#FD6C6C"/>
</svg>
