<svg width="78" height="96" viewBox="0 0 78 96" fill="none" xmlns="http://www.w3.org/2000/svg">
<path d="M43.813 80.2984C51.692 76.6396 57.0429 69.2736 59.7041 60.8637C61.7156 54.5036 62.4002 47.3996 62.104 40.7414C61.6939 31.6065 58.552 22.9996 53.5084 15.4412C49.0001 8.68313 41.0487 0.725212 32.3307 0.0494011C24.3018 -0.576375 17.2217 4.81151 14.7891 12.3188C11.3233 23.017 15.3387 32.9712 17.7065 43.3939C18.6596 47.5928 19.0369 51.9411 19.084 56.2433C19.1525 62.7199 17.403 70.3625 21.2134 76.1025C25.0164 81.8314 33.0108 83.5322 39.4079 81.8755C40.9211 81.4849 42.3955 80.957 43.813 80.2984Z" fill="#65CAFD"/>
<g style="mix-blend-mode:screen" opacity="0.52">
<path d="M37.035 76.5179C37.9406 76.6677 38.8651 76.6605 39.7682 76.4966C39.7796 76.4881 39.7921 76.4812 39.8054 76.4762C45.9097 74.5705 50.9651 70.1409 54.0173 64.5494C57.281 58.5702 58.2411 51.36 57.3385 44.6422C56.8205 40.7854 56.1504 36.895 54.8246 33.2255C54.658 32.7641 53.8002 30.1741 52.9734 30.889C52.0283 31.706 52.409 33.5092 52.5393 34.5862C52.7037 35.9443 53.0087 37.3088 53.066 38.6771C53.1287 40.6144 53.0196 42.5534 52.7399 44.4714C52.1626 48.6557 50.7358 52.7626 48.8204 56.5195C47.0284 60.0337 44.6583 63.5221 41.355 65.7775C39.2765 67.1965 36.834 68.219 35.1193 70.1192C34.2837 71.0449 33.616 72.2306 33.8958 73.5212C34.0596 74.2778 34.4463 74.9679 35.0059 75.5021C35.5656 76.0363 36.2724 76.3902 37.035 76.5179Z" fill="#65CAFD"/>
</g>
<g style="mix-blend-mode:multiply" opacity="0.5">
<path d="M21.2134 76.1025C25.0164 81.8314 33.0108 83.5322 39.4079 81.8755C40.9211 81.4849 42.3955 80.957 43.813 80.2984C51.692 76.6396 57.0429 69.2736 59.7041 60.8637C61.7156 54.5036 62.4002 47.3996 62.104 40.7414C61.6939 31.6065 58.552 22.9996 53.5084 15.4412C49.0001 8.68313 41.0487 0.725212 32.3307 0.0494011C24.3018 -0.576375 17.2217 4.81151 14.7891 12.3188C11.3233 23.017 15.3387 32.9712 17.7065 43.3939C18.6596 47.5928 19.0369 51.9411 19.084 56.2433C19.1525 62.7199 17.4029 70.3625 21.2134 76.1025ZM28.5183 58.6956C29.4817 52.3479 28.886 46.1089 27.1727 39.9496C25.783 34.9481 23.9719 29.7756 23.9704 24.5271C23.9694 20.2306 25.104 15.1628 28.9235 12.6072C32.3423 10.3185 36.6469 10.2248 40.4516 11.5947C44.0651 12.8954 48.0005 16.3973 50.3946 19.3216C54.6817 24.5589 56.6234 31.2175 58.1079 37.7051C59.5041 43.8061 60.0809 50.2035 58.5849 56.3495C57.4724 60.9234 55.1938 65.922 52.243 69.6204C48.2501 74.6239 41.3833 79.5268 34.6006 78.678C24.7452 77.4421 27.5035 65.3996 28.5183 58.6956Z" fill="#65CAFD"/>
</g>
<g style="mix-blend-mode:multiply" opacity="0.5">
<path d="M21.2134 76.1025C25.0164 81.8315 33.0108 83.5322 39.4079 81.8755C40.9211 81.4849 42.3955 80.9571 43.813 80.2984C44.7956 79.8413 45.7481 79.3222 46.6649 78.7441C45.9612 79.0634 45.2581 79.3836 44.545 79.6819C44.4942 79.7031 44.4432 79.7228 44.3922 79.7436C42.8222 80.4174 41.173 80.8882 39.4841 81.1446C38.762 81.2794 38.0327 81.3921 37.2972 81.4881C35.123 81.7725 32.9271 81.7613 30.8612 80.9436C28.9725 80.172 27.2501 79.0428 25.7887 77.6178C24.347 76.2354 23.0667 74.6103 22.275 72.7635C21.3625 70.6352 21.3062 68.2803 21.643 66.0147C21.8531 64.5588 22.2153 63.129 22.7237 61.7489C22.9333 60.9111 23.1864 60.0849 23.482 59.2735C24.0708 57.6211 24.7552 55.9947 25.1947 54.293C25.6976 52.4431 25.8047 50.5077 25.509 48.6134C25.1258 46.4549 24.452 44.3583 23.5062 42.3809C22.6712 40.5762 21.7135 38.8491 21.0192 36.9799C20.7544 36.2668 20.5139 35.5445 20.2977 34.813C19.8458 33.8944 19.4485 32.9499 19.1078 31.9844C17.9771 28.7984 17.4546 25.428 17.5672 22.0488C17.7123 18.6717 18.5972 15.2927 20.4695 12.4517C22.5435 9.30421 25.5044 6.59674 28.9465 5.02937C31.9287 3.64901 35.2673 3.23671 38.4951 3.85016C41.3369 4.41309 43.9893 5.71024 46.3308 7.39829C46.994 7.87618 47.6377 8.38309 48.2621 8.91899C43.8765 4.36758 38.2832 0.510633 32.3307 0.0494011C24.3018 -0.576375 17.2217 4.81151 14.7891 12.3188C11.3233 23.017 15.3387 32.9712 17.7065 43.3939C18.6596 47.5928 19.0369 51.9411 19.084 56.2433C19.1525 62.7199 17.4029 70.3625 21.2134 76.1025Z" fill="#65CAFD"/>
</g>
<g style="mix-blend-mode:multiply" opacity="0.5">
<path d="M20.2396 55.282C20.9953 54.5785 22.2604 54.4167 22.8507 53.5641C23.4598 52.6568 23.8065 51.5987 23.8525 50.5066C23.9762 48.122 23.0316 45.008 21.971 42.9042C20.9366 40.8523 19.8026 39.6825 18.797 37.6159C17.8095 35.5201 17.0188 33.3368 16.4351 31.0944C15.3195 27.0074 14.5221 22.5571 14.9867 18.3099C15.7607 11.2341 20.4779 3.80461 27.5595 1.67812C33.348 -0.0597942 39.2315 1.99664 44.1587 5.19875C40.5991 2.41583 36.5557 0.376966 32.3308 0.0494011C24.3018 -0.576375 17.2217 4.81151 14.7892 12.3188C11.3234 23.017 15.3388 32.9712 17.7065 43.3939C18.6596 47.5928 19.0369 51.9411 19.084 56.2433C19.0947 57.2535 19.0613 58.2922 19.0114 59.3476C19.1332 58.0109 19.1925 56.2573 20.2396 55.282Z" fill="#65CAFD"/>
</g>
<path d="M20.3406 52.17C21.5149 53.3699 22.5896 52.8148 23.2786 51.3983C24.8391 48.1905 22.6556 41.972 19.8281 37.9751C19.1277 37.3082 18.3753 36.8805 17.8545 37.4086C17.4463 37.8226 17.3452 38.5053 17.3195 39.1501C17.5998 40.7862 17.7954 42.4371 18.0123 44.0827C18.2388 45.8037 18.3169 47.8692 18.9002 49.6591C19.1794 50.5966 19.6725 51.4563 20.3406 52.17Z" fill="#F1F2C4"/>
<g style="mix-blend-mode:screen" opacity="0.52">
<path d="M20.7291 50.7957C20.7291 50.7957 20.9463 52.4644 22.2697 51.1424C23.593 49.8203 22.8555 46.2696 21.5885 45.0664C21.2078 44.7048 20.1035 48.0524 20.7291 50.7957Z" fill="#65CAFD"/>
</g>
<path d="M38.0788 95.4987C54.3512 95.4987 67.5426 93.4927 67.5426 91.0181C67.5426 88.5436 54.3512 86.5376 38.0788 86.5376C21.8064 86.5376 8.61505 88.5436 8.61505 91.0181C8.61505 93.4927 21.8064 95.4987 38.0788 95.4987Z" fill="#DBDACB"/>
<path d="M66.7112 40.6526H66.6842C64.5577 40.637 62.6984 38.7802 61.1575 35.1338C61.1123 35.0268 61.0885 34.9119 61.0877 34.7956C61.0868 34.6794 61.1087 34.5641 61.1524 34.4564C61.196 34.3487 61.2604 34.2506 61.3418 34.1678C61.4233 34.085 61.5203 34.0191 61.6272 33.9738C61.8432 33.8826 62.0865 33.8809 62.3037 33.9691C62.5209 34.0573 62.6943 34.2282 62.7857 34.4443C63.6383 36.4616 65.0088 38.8694 66.6963 38.8827C69.0265 38.909 71.5276 34.462 72.2146 32.9056C72.3093 32.6909 72.4853 32.5226 72.7039 32.4378C72.9224 32.3529 73.1657 32.3585 73.3802 32.4532C73.5946 32.5479 73.7627 32.7239 73.8475 32.9427C73.9323 33.1614 73.9269 33.4049 73.8324 33.6196C73.515 34.3407 70.6236 40.6526 66.7112 40.6526Z" fill="#133441"/>
<path d="M76.8396 33.054C76.9273 33.0142 77.0147 32.9762 77.1027 32.9309C77.2058 32.8775 77.2975 32.8044 77.3723 32.7155C77.4472 32.6267 77.504 32.524 77.5392 32.4133C77.5744 32.3026 77.5875 32.186 77.5778 32.0702C77.568 31.9544 77.5355 31.8416 77.4822 31.7384C77.3746 31.5298 77.1886 31.3726 76.9652 31.3014C76.7418 31.2301 76.4993 31.2507 76.291 31.3584C75.6233 31.6899 74.8868 31.8584 74.1416 31.8503C73.9452 31.8506 73.7489 31.8394 73.5539 31.8167C73.3945 31.6765 73.2626 31.5079 73.1648 31.3195C73.097 31.1861 73.0612 31.0388 73.0602 30.8892C73.06 30.8085 73.0713 30.7282 73.0937 30.6507C73.0984 30.6343 73.1039 30.6181 73.1103 30.6022L73.1113 30.6002L73.1094 30.5994C73.2102 30.3926 73.2265 30.1546 73.1548 29.936C73.083 29.7174 72.9289 29.5355 72.7253 29.4288C72.5174 29.3202 72.2751 29.2987 72.0514 29.3691C71.8277 29.4394 71.6411 29.5958 71.5326 29.8039C71.4775 29.9138 71.4328 30.0285 71.3989 30.1467C71.328 30.3878 71.292 30.6378 71.2922 30.8891C71.2935 31.3083 71.3908 31.7215 71.5766 32.097C71.7863 32.5123 72.0759 32.8819 72.4287 33.1847C72.8013 34.1877 73.4261 35.0774 74.2427 35.7678C74.6247 36.0957 75.0582 36.3581 75.5256 36.5445C75.7466 36.6229 75.9896 36.6102 76.2012 36.5092C76.4128 36.4081 76.5757 36.2271 76.6539 36.0058C76.7316 35.7862 76.7195 35.5448 76.6204 35.334C76.5212 35.1232 76.343 34.9601 76.1244 34.8801L76.1247 34.8793C75.9706 34.8128 75.8232 34.7317 75.6845 34.637C75.9809 34.713 76.2824 34.7672 76.5866 34.7992C76.82 34.822 77.0528 34.751 77.2339 34.6018C77.415 34.4527 77.5294 34.2377 77.5522 34.0041C77.5729 33.7853 77.5115 33.5666 77.3797 33.3909C77.2479 33.2152 77.0552 33.095 76.8396 33.054Z" fill="#133441"/>
<path d="M11.4497 41.8853C7.53684 41.8853 4.64585 35.5735 4.32846 34.8524C4.23399 34.6376 4.22859 34.3941 4.31339 34.1754C4.39819 33.9567 4.5662 33.7806 4.78063 33.6859C4.99517 33.5916 5.23834 33.5862 5.45682 33.671C5.67529 33.7558 5.85128 33.9239 5.94625 34.1383C6.6318 35.6915 9.11128 40.1154 11.4498 40.1154H11.4646C13.1521 40.1022 14.5225 37.6943 15.3751 35.677C15.4666 35.461 15.64 35.2901 15.8572 35.2019C16.0744 35.1137 16.3177 35.1154 16.5337 35.2066C16.6406 35.2519 16.7375 35.3178 16.819 35.4006C16.9004 35.4834 16.9648 35.5814 17.0084 35.6892C17.052 35.7969 17.0741 35.9121 17.0732 36.0284C17.0723 36.1446 17.0486 36.2595 17.0034 36.3666C15.4624 40.0128 13.6031 41.8697 11.4766 41.8853H11.4497Z" fill="#133441"/>
<path d="M6.7618 31.3796C6.72794 31.2614 6.68319 31.1467 6.62809 31.0368C6.51962 30.8287 6.33309 30.6723 6.10942 30.6019C5.88575 30.5315 5.64331 30.553 5.43544 30.6615C5.23177 30.7681 5.07762 30.9501 5.00587 31.1687C4.93413 31.3873 4.95046 31.6253 5.05128 31.8321L5.04937 31.8329L5.05731 31.8535C5.08639 31.9401 5.10098 32.0308 5.10051 32.1222C5.09948 32.2717 5.06362 32.419 4.99583 32.5523C4.89813 32.7406 4.76635 32.9091 4.60715 33.0492C4.41202 33.0721 4.21563 33.0834 4.01916 33.083C3.274 33.0911 2.53758 32.9226 1.86994 32.5911C1.66165 32.4834 1.41906 32.4628 1.19566 32.5341C0.972257 32.6053 0.786346 32.7625 0.678693 32.971C0.625391 33.0743 0.592933 33.187 0.583156 33.3029C0.57338 33.4187 0.586495 33.5353 0.621732 33.646C0.65697 33.7567 0.713609 33.8594 0.788495 33.9482C0.863381 34.0371 0.954996 34.1102 1.05813 34.1636C1.146 34.2089 1.23356 34.2468 1.32123 34.2866C1.10555 34.3276 0.91289 34.4478 0.781061 34.6235C0.649231 34.7993 0.587755 35.018 0.608572 35.2368C0.631303 35.4705 0.745768 35.6855 0.926827 35.8346C1.10789 35.9837 1.34065 36.0547 1.57399 36.032C1.87912 35.9998 2.18151 35.9454 2.47872 35.8691C2.37997 35.9348 2.29207 35.986 2.22155 36.0238C2.15221 36.0608 2.09915 36.0853 2.06794 36.0989L2.03811 36.1112L2.0363 36.1119L2.0366 36.1127C1.81804 36.1927 1.63978 36.3558 1.54063 36.5666C1.44149 36.7774 1.42946 37.0188 1.50708 37.2385C1.58539 37.4597 1.74822 37.6408 1.95985 37.7418C2.17148 37.8428 2.41454 37.8555 2.63554 37.7771C3.10294 37.5907 3.53635 37.3283 3.9183 37.0004C4.73495 36.31 5.35978 35.4203 5.7323 34.4173C6.08504 34.1145 6.37454 33.7449 6.58409 33.3298C6.76993 32.9542 6.86723 32.541 6.86849 32.122C6.86877 31.8707 6.83282 31.6206 6.7618 31.3796Z" fill="#133441"/>
<path d="M47.382 91.3774C47.3623 91.3774 47.3424 91.3769 47.3224 91.3754C45.8248 91.2754 45.0574 90.703 44.9748 90.6378C44.8644 90.5508 44.7762 90.4388 44.7177 90.3109C44.6591 90.183 44.6318 90.043 44.6381 89.9025L45.1031 79.4917C45.1153 79.2578 45.2188 79.0381 45.3914 78.88C45.5641 78.722 45.7919 78.6383 46.0256 78.647C46.1416 78.6522 46.2554 78.6802 46.3606 78.7294C46.4657 78.7787 46.5601 78.8481 46.6384 78.9339C46.7168 79.0197 46.7775 79.1201 46.8171 79.2293C46.8566 79.3386 46.8744 79.4546 46.8692 79.5707L46.4296 89.4141C46.7558 89.5251 47.0957 89.5907 47.4398 89.6093C47.6686 89.6246 47.8824 89.7282 48.0363 89.8984C48.1902 90.0686 48.2721 90.292 48.2646 90.5214C48.2571 90.7508 48.1608 90.9684 47.9961 91.1281C47.8315 91.2878 47.6113 91.3772 47.382 91.3774Z" fill="#133441"/>
<path d="M25.1174 91.3774C24.8881 91.3772 24.6679 91.2878 24.5032 91.1281C24.3385 90.9683 24.2423 90.7508 24.2348 90.5214C24.2273 90.2919 24.3092 90.0686 24.463 89.8984C24.6169 89.7282 24.8308 89.6246 25.0596 89.6093C25.4037 89.5908 25.7437 89.5248 26.0698 89.4132L25.6302 79.5707C25.625 79.4546 25.6427 79.3386 25.6823 79.2293C25.7219 79.12 25.7825 79.0197 25.8608 78.9339C25.9392 78.8481 26.0336 78.7786 26.1388 78.7294C26.2439 78.6801 26.3578 78.6521 26.4737 78.6469C26.7078 78.6368 26.9364 78.7201 27.1093 78.8784C27.2823 79.0367 27.3854 79.2573 27.3962 79.4916L27.8613 89.9025C27.8676 90.043 27.8403 90.183 27.7817 90.3109C27.7231 90.4387 27.635 90.5508 27.5245 90.6377C27.4419 90.7029 26.6746 91.2754 25.177 91.3753C25.1572 91.3768 25.1372 91.3774 25.1174 91.3774Z" fill="#133441"/>
<path d="M29.4083 28.9875C29.4462 25.8484 26.9315 23.2728 23.7916 23.2348C20.6518 23.1969 18.0757 25.7109 18.0378 28.85C17.9999 31.9891 20.5146 34.5646 23.6545 34.6026C26.7944 34.6406 29.3704 32.1266 29.4083 28.9875Z" fill="white"/>
<path d="M27.6312 28.7492C27.5854 27.7111 27.1297 26.7337 26.3643 26.032C25.5989 25.3303 24.5864 24.9617 23.5495 25.0073C23.036 25.0291 22.5318 25.1519 22.0657 25.3687C21.5997 25.5856 21.1809 25.8923 20.8332 26.2712C20.4855 26.6502 20.2159 27.094 20.0396 27.5773C19.8633 28.0607 19.7837 28.574 19.8056 29.0881C19.8515 30.1264 20.3074 31.1039 21.0731 31.8057C21.8388 32.5074 22.8515 32.8759 23.8886 32.83C24.402 32.8082 24.9061 32.6853 25.3721 32.4684C25.838 32.2515 26.2566 31.9448 26.6042 31.5658C26.9517 31.1869 27.2213 30.7431 27.3975 30.2598C27.5737 29.7765 27.6531 29.2632 27.6312 28.7492ZM23.2394 28.5165C22.6333 29.2051 21.6791 29.3559 21.1074 28.8533C20.5359 28.3507 20.5638 27.3851 21.1695 26.6966C21.7753 26.0081 22.7299 25.8572 23.3013 26.3598C23.873 26.8623 23.8452 27.828 23.2394 28.5165ZM26.2534 31.1211C25.9028 31.5195 25.3506 31.6067 25.0197 31.3159C24.6889 31.0252 24.7054 30.4664 25.0559 30.068C25.4064 29.6695 25.9588 29.5823 26.2893 29.8731C26.6201 30.1639 26.6039 30.7226 26.2534 31.1211Z" fill="#133441"/>
<path d="M53.8663 28.9823C53.9013 25.8432 51.3843 23.2699 48.2444 23.2348C45.1045 23.1997 42.5307 25.7161 42.4957 28.8552C42.4607 31.9943 44.9777 34.5675 48.1176 34.6026C51.2575 34.6377 53.8313 32.1215 53.8663 28.9823Z" fill="white"/>
<path d="M52.0884 28.7493C52.0427 27.7112 51.587 26.7338 50.8215 26.0321C50.0561 25.3303 49.0435 24.9618 48.0066 25.0075C47.4932 25.0292 46.9891 25.1521 46.5231 25.369C46.057 25.5859 45.6383 25.8925 45.2906 26.2715C44.943 26.6504 44.6734 27.0942 44.4971 27.5775C44.3208 28.0608 44.2413 28.5742 44.2631 29.0882C44.3091 30.1264 44.765 31.1039 45.5306 31.8056C46.2962 32.5073 47.3088 32.8758 48.3458 32.8301C48.8592 32.8083 49.3633 32.6854 49.8293 32.4685C50.2952 32.2516 50.714 31.9449 51.0615 31.566C51.4091 31.187 51.6786 30.7432 51.8548 30.2599C52.031 29.7766 52.1104 29.2633 52.0884 28.7493ZM47.7503 28.2874C47.0625 28.8944 46.0967 28.9239 45.5926 28.3535C45.0885 27.7832 45.2376 26.8286 45.925 26.2216C46.6125 25.6145 47.5786 25.585 48.0827 26.1555C48.5865 26.726 48.4377 27.6805 47.7503 28.2874ZM50.9737 30.9794C50.6231 31.3779 50.0708 31.4651 49.74 31.1743C49.4092 30.8835 49.4256 30.3248 49.7761 29.9264C50.1267 29.528 50.679 29.4407 51.0095 29.7315C51.34 30.0223 51.3242 30.5811 50.9737 30.9794Z" fill="#133441"/>
<path d="M44.1329 19.184C44.2574 20.1831 46.0993 20.3049 48.0535 20.0174C49.8032 19.76 51.5309 19.666 51.5989 18.3297C51.7388 15.5795 43.758 16.1763 44.1329 19.184Z" fill="#133441"/>
<path d="M20.3034 18.3297C20.3714 19.666 22.0991 19.7601 23.8488 20.0174C25.803 20.3049 27.6448 20.183 27.7693 19.184C28.1442 16.1763 20.1635 15.5795 20.3034 18.3297Z" fill="#133441"/>
<path d="M39.8738 32.3443C40.9532 33.6523 39.9028 36.0883 36.3506 36.0883C32.799 36.0883 31.9265 33.456 32.8313 32.3443C33.3503 31.7071 34.5459 32.0251 36.3506 32.0251C38.1553 32.0251 39.3377 31.6956 39.8738 32.3443Z" fill="#AB1700"/>
<path d="M39.3683 32.5807C39.3683 32.8787 38.062 33.1202 36.4506 33.1202C34.8392 33.1202 33.533 32.8787 33.533 32.5807C33.533 32.2827 34.8392 32.3562 36.4506 32.3562C38.062 32.3562 39.3683 32.2827 39.3683 32.5807Z" fill="white"/>
<path d="M33.9417 35.1008C34.4923 35.4435 35.2895 35.6788 36.3659 35.6788C37.5719 35.6788 38.4472 35.4046 39.0179 35.0123C36.96 33.0238 35.024 34.1196 33.9417 35.1008Z" fill="#FD6C6C"/>
</svg>
