<svg width="115" height="117" viewBox="0 0 115 117" fill="none" xmlns="http://www.w3.org/2000/svg">
<path d="M75.0699 87.8418C82.2912 81.754 85.8011 72.5044 86.1907 62.9302C86.4842 55.6899 85.1728 48.0496 82.9599 41.157C79.9199 31.7015 74.1646 23.5807 66.7136 17.1027C60.0528 11.3102 49.4366 5.24519 40.0967 7.03058C31.4939 8.67134 25.6047 16.3426 25.1972 24.9055C24.6171 37.1078 31.6739 46.3906 37.1358 56.6357C39.3353 60.7632 40.9735 65.212 42.252 69.7069C44.1742 76.4743 44.5218 84.9837 50.1596 89.909C55.7863 94.8247 64.6599 94.3204 70.8985 90.7545C72.3746 89.9124 73.7708 88.9374 75.0699 87.8418Z" fill="#65CAFD" fill-opacity="0.2"/>
<path d="M107.153 46.4345C107.254 46.1775 107.249 45.8909 107.139 45.6377C107.029 45.3846 106.822 45.1856 106.565 45.0845C106.31 44.9845 106.026 44.9889 105.775 45.0968C105.523 45.2048 105.324 45.4076 105.221 45.6612L105.22 45.6606L105.22 45.661C105.185 45.7368 105.144 45.8098 105.097 45.8793C104.994 46.0376 104.871 46.1821 104.731 46.3091C104.599 46.4289 104.452 46.5306 104.293 46.6117C104.282 46.6175 104.269 46.6222 104.257 46.6279C104.362 46.3934 104.443 46.1488 104.498 45.8979C104.601 45.4041 104.622 44.8968 104.561 44.3961C104.536 44.1646 104.492 43.9355 104.429 43.7113C104.389 43.5803 104.325 43.4584 104.238 43.3524C104.152 43.2464 104.046 43.1584 103.925 43.0936C103.805 43.0287 103.673 42.9882 103.537 42.9744C103.401 42.9605 103.263 42.9735 103.132 43.0127C102.869 43.0917 102.648 43.2715 102.517 43.513C102.386 43.7545 102.355 44.0381 102.433 44.3018L102.432 44.3021L102.432 44.3024C102.485 44.5162 102.512 44.7355 102.512 44.9557C102.514 45.1357 102.495 45.3154 102.455 45.4908C102.416 45.6638 102.347 45.8287 102.252 45.9781C102.169 46.1046 102.066 46.2166 101.947 46.3094C101.889 46.354 101.829 46.3948 101.766 46.4318C101.704 46.2632 101.656 46.0898 101.622 45.9131C101.555 45.5596 101.513 45.2019 101.495 44.8425C101.486 44.6892 101.483 44.5601 101.481 44.4715C101.481 44.4272 101.48 44.3932 101.48 44.3712L101.481 44.3477L101.481 44.3432C101.484 44.0672 101.377 43.8011 101.185 43.6035C100.992 43.406 100.729 43.2931 100.453 43.2896C100.316 43.2879 100.18 43.313 100.053 43.3638C99.9261 43.4145 99.8104 43.4898 99.7125 43.5852C99.6146 43.6807 99.5364 43.7945 99.4825 43.9202C99.4286 44.0458 99.4 44.1809 99.3983 44.3176C99.3975 44.8276 99.4314 45.3371 99.4997 45.8425C99.5508 46.2307 99.6364 46.6135 99.7558 46.9865C99.5082 47.0574 99.2468 47.0658 98.9951 47.011C98.7631 46.9567 98.5427 46.8612 98.3444 46.729C98.2257 46.6516 98.114 46.5642 98.0104 46.4675C97.9733 46.4327 97.9465 46.4052 97.932 46.3897L97.9195 46.376L97.9189 46.3767C97.7404 46.1684 97.4867 46.039 97.2133 46.0167C96.9399 45.9944 96.6688 46.081 96.4589 46.2576C96.2476 46.4355 96.1156 46.6899 96.092 46.9651C96.0684 47.2402 96.1549 47.5135 96.3328 47.7247C96.5884 48.0137 96.8829 48.2659 97.2078 48.474C97.779 48.8545 98.4398 49.0788 99.1245 49.1247C99.5607 49.1489 99.9977 49.0953 100.415 48.9664C100.71 48.874 100.994 48.7501 101.262 48.5971C101.273 48.5995 101.284 48.6032 101.295 48.6054C101.315 48.6093 101.335 48.6109 101.354 48.6141C101.902 48.7936 102.472 48.8983 103.048 48.9254C103.525 48.9461 104.003 48.893 104.464 48.7682C105.029 48.6131 105.554 48.3383 106.003 47.9626C106.328 47.6905 106.611 47.3716 106.843 47.0162C106.965 46.8328 107.069 46.638 107.153 46.4345Z" fill="#133441"/>
<path d="M73.6091 92.746C80.8305 86.6582 84.3404 77.4086 84.7299 67.8344C85.0235 60.5941 83.7121 52.9537 81.4992 46.0612C78.4591 36.6056 72.7039 28.4849 65.2529 22.0069C58.592 16.2144 47.9759 10.1494 38.636 11.9348C30.0332 13.5755 24.144 21.2468 23.7365 29.8097C23.1564 42.012 30.2132 51.2948 35.675 61.5398C37.8746 65.6674 39.5127 70.1162 40.7913 74.6111C42.7134 81.3785 43.0611 89.8879 48.6989 94.8132C54.3256 99.7289 63.1992 99.2245 69.4378 95.6587C70.9138 94.8165 72.3101 93.8416 73.6091 92.746Z" fill="#65CAFD"/>
<g style="mix-blend-mode:screen" opacity="0.52">
<path d="M65.4175 90.7229C66.4105 90.6208 67.3785 90.3489 68.2793 89.9188C68.2887 89.9066 68.2998 89.8959 68.3123 89.8868C74.1726 86.1437 78.2112 80.0558 79.8162 73.3233C81.5323 66.124 80.4798 58.2935 77.6137 51.5119C75.9683 47.6184 74.1538 43.7332 71.7146 40.2671C71.4078 39.8312 69.7679 37.3624 69.1047 38.3481C68.3464 39.4745 69.2609 41.2551 69.7052 42.3467C70.2657 43.7228 70.9756 45.0655 71.4266 46.483C72.0458 48.4952 72.4852 50.5584 72.7397 52.6484C73.3294 57.1983 73.0057 61.9102 72.0693 66.395C71.1932 70.5904 69.7031 74.9237 66.8816 78.2322C65.1063 80.3137 62.8356 82.0838 61.5793 84.5655C60.9671 85.7746 60.6052 87.208 61.2675 88.4807C61.6555 89.2267 62.2584 89.8392 62.9983 90.2389C63.7381 90.6386 64.5809 90.8072 65.4175 90.7229Z" fill="#65CAFD"/>
</g>
<g style="mix-blend-mode:multiply" opacity="0.5">
<path d="M48.6991 94.8132C54.3258 99.7289 63.1994 99.2246 69.438 95.6587C70.9141 94.8166 72.3101 93.8416 73.6092 92.7459C80.8305 86.6581 84.3404 77.4086 84.7299 67.8344C85.0235 60.5941 83.7123 52.9538 81.4994 46.0612C78.4594 36.6057 72.7039 28.4848 65.2529 22.0069C58.5921 16.2144 47.976 10.1494 38.6361 11.9348C30.0333 13.5755 24.1441 21.2468 23.7366 29.8097C23.1565 42.012 30.2134 51.2948 35.6753 61.5399C37.8748 65.6674 39.5128 70.1162 40.7913 74.6111C42.7134 81.3785 43.0613 89.8879 48.6991 94.8132ZM51.3904 74.4825C50.5877 67.555 48.1803 61.1873 44.6232 55.2227C41.7363 50.3791 38.3584 45.4766 36.8574 39.977C35.6289 35.4749 35.3716 29.8395 38.6488 26.0691C41.582 22.6927 46.0717 21.3633 50.455 21.7107C54.6179 22.0401 59.7473 24.5842 63.0947 26.9639C69.0889 31.2259 73.0285 37.6485 76.4393 44.0223C79.6472 50.0164 82.08 56.5554 82.2662 63.4239C82.4055 68.5353 81.4428 74.4253 79.4034 79.1449C76.6435 85.5303 70.8394 92.6324 63.4806 93.683C52.7871 95.2067 52.2409 81.798 51.3904 74.4825Z" fill="#65CAFD"/>
</g>
<g style="mix-blend-mode:multiply" opacity="0.5">
<path d="M48.6991 94.8131C54.3258 99.7289 63.1994 99.2245 69.438 95.6586C70.914 94.8165 72.3101 93.8415 73.6091 92.7459C74.5095 91.9858 75.3607 91.1694 76.1574 90.3013C75.5105 90.8372 74.864 91.3739 74.2011 91.8905C74.1538 91.9272 74.1059 91.9624 74.0584 91.9988C72.6036 93.154 71.0078 94.1191 69.3091 94.8708C68.59 95.2187 67.8578 95.5471 67.1127 95.8563C64.9128 96.7763 62.6055 97.3926 60.2044 97.1266C58.0023 96.8583 55.8727 96.1676 53.9324 95.0923C52.0247 94.056 50.217 92.7193 48.8588 91.0103C47.2934 89.041 46.5617 86.5894 46.2677 84.1188C46.0722 82.5331 46.0438 80.9311 46.1829 79.3394C46.1635 78.4016 46.193 77.4633 46.2713 76.5285C46.417 74.6285 46.6706 72.7284 46.6456 70.8194C46.6448 68.737 46.2042 66.6782 45.3528 64.7777C44.334 62.6253 43.028 60.6209 41.4708 58.8193C40.0791 57.1669 38.5809 55.631 37.3184 53.8709C36.8369 53.1994 36.3783 52.5113 35.9425 51.8066C35.2059 50.9732 34.5192 50.0971 33.8859 49.1827C31.7894 46.1674 30.2782 42.785 29.431 39.2115C28.6185 35.6311 28.5816 31.8369 29.7344 28.3242C31.0112 24.4324 33.3443 20.7484 36.508 18.1214C39.2426 15.8218 42.6277 14.4348 46.1896 14.1544C49.332 13.9316 52.4854 14.5322 55.4243 15.6313C56.2566 15.9424 57.0769 16.2895 57.8852 16.6726C51.9835 13.1574 45.0132 10.7154 38.6361 11.9347C30.0333 13.5755 24.1441 21.2467 23.7366 29.8096C23.1565 42.012 30.2134 51.2948 35.6752 61.5398C37.8748 65.6674 39.5127 70.1161 40.7912 74.611C42.7134 81.3784 43.0613 89.8879 48.6991 94.8131Z" fill="#65CAFD"/>
</g>
<g style="mix-blend-mode:multiply" opacity="0.5">
<path d="M41.7292 73.2733C42.321 72.3198 43.6021 71.7884 43.978 70.7261C44.3578 69.6011 44.4193 68.3932 44.1556 67.2355C43.6041 64.7013 41.7234 61.7082 40.0096 59.8069C38.338 57.9524 36.8143 57.0511 35.1688 55.1729C33.5339 53.2592 32.0804 51.1974 30.8274 49.0144C28.4893 45.0507 26.3813 40.6151 25.6553 36.0314C24.446 28.3952 27.2727 19.2603 34.0953 15.0063C39.6721 11.5294 46.4326 12.0016 52.517 13.9478C47.9872 12.0497 43.1625 11.0695 38.6361 11.9348C30.0333 13.5755 24.1441 21.2468 23.7366 29.8097C23.1565 42.012 30.2134 51.2949 35.6753 61.5399C37.8748 65.6674 39.5127 70.1162 40.7913 74.6111C41.091 75.6667 41.3527 76.7648 41.6019 77.8849C41.3479 76.4493 40.9092 74.5948 41.7292 73.2733Z" fill="#65CAFD"/>
</g>
<path d="M40.9463 69.9831C42.5211 70.9046 43.4902 70.0156 43.8083 68.334C44.5292 64.5261 40.4618 58.6341 36.3533 55.2544C35.4279 54.7558 34.516 54.5228 34.1206 55.2253C33.8106 55.7759 33.8996 56.5202 34.0568 57.2033C34.8183 58.8376 35.4953 60.5118 36.193 62.1743C36.9223 63.913 37.5943 66.0551 38.7177 67.7639C39.2784 68.6665 40.0413 69.4262 40.9463 69.9831Z" fill="#F1F2C4"/>
<g style="mix-blend-mode:screen" opacity="0.52">
<path d="M40.9612 68.4318C40.9612 68.4318 41.6658 70.1184 42.6766 68.3544C43.6873 66.5905 41.8991 63.0805 40.2261 62.1819C39.7234 61.912 39.5211 65.736 40.9612 68.4318Z" fill="#65CAFD"/>
</g>
<path d="M83.8454 97.9977C83.8123 97.9883 83.7895 97.9812 83.7772 97.977C83.6409 97.9311 83.5154 97.8574 83.409 97.7606C83.3025 97.6638 83.2174 97.546 83.1587 97.4147C83.1001 97.2832 83.0694 97.1411 83.0685 96.9972C83.0675 96.8533 83.0963 96.7108 83.1532 96.5786C83.1635 96.5541 84.3027 93.8062 83.1074 91.7412C82.3311 90.4004 80.6913 89.5689 78.2332 89.2705C78.0974 89.2542 77.9661 89.2112 77.8469 89.1441C77.7277 89.0769 77.6229 88.987 77.5386 88.8793C77.4542 88.7716 77.3921 88.6484 77.3555 88.5166C77.3188 88.3848 77.3085 88.2471 77.3251 88.1113C77.3416 87.9756 77.3847 87.8445 77.4519 87.7254C77.5191 87.6063 77.6089 87.5015 77.7165 87.4172C77.8242 87.3329 77.9475 87.2707 78.0792 87.234C78.2109 87.1973 78.3487 87.1869 78.4844 87.2035C81.6347 87.5859 83.7996 88.7667 84.9183 90.7131C85.9864 92.571 85.804 94.6571 85.5002 95.9991C85.7057 95.9668 85.9088 95.9221 86.1089 95.8653C86.2405 95.8283 86.3782 95.8175 86.514 95.8337C86.6498 95.8498 86.7812 95.8926 86.9005 95.9595C87.0198 96.0264 87.1246 96.1162 87.2092 96.2237C87.2938 96.3311 87.3564 96.4542 87.3934 96.5859C87.4682 96.8517 87.4342 97.1363 87.2992 97.3772C87.1641 97.6181 86.939 97.7955 86.6732 97.8703C85.1501 98.2985 84.1274 98.0772 83.8454 97.9977Z" fill="#133441"/>
<path d="M40.3743 102.16C40.1203 102.088 39.9032 101.923 39.7667 101.697C39.6302 101.471 39.5846 101.201 39.6391 100.943C39.6674 100.809 39.7216 100.682 39.7989 100.57C39.8762 100.457 39.975 100.36 40.0896 100.286C40.2042 100.211 40.3324 100.16 40.4668 100.135C40.6013 100.11 40.7394 100.111 40.8732 100.14C40.9543 100.157 41.0327 100.172 41.1084 100.184C40.557 99.0912 40.0441 97.5453 40.3062 95.8544C40.61 93.8949 41.857 92.2218 44.0128 90.8825C44.1289 90.8103 44.2583 90.7617 44.3932 90.7394C44.5282 90.7171 44.6661 90.7217 44.7992 90.7527C44.9324 90.7838 45.0583 90.8409 45.1694 90.9206C45.2805 91.0003 45.3748 91.1011 45.4469 91.2173C45.5191 91.3335 45.5676 91.4627 45.5899 91.5976C45.6121 91.7325 45.6075 91.8704 45.5764 92.0036C45.5453 92.1367 45.4884 92.2625 45.4087 92.3736C45.3291 92.4847 45.2282 92.579 45.1121 92.6511C43.4953 93.6557 42.5709 94.8407 42.3643 96.1734C42.0225 98.3782 43.7167 100.433 43.7339 100.453C43.8408 100.578 43.9165 100.727 43.9549 100.887C43.9933 101.047 43.9931 101.214 43.9546 101.373C43.9162 101.533 43.8404 101.682 43.7335 101.807C43.6265 101.932 43.4915 102.03 43.3395 102.092C43.2252 102.139 42.1725 102.543 40.4426 102.177C40.4195 102.172 40.3967 102.167 40.3743 102.16Z" fill="#133441"/>
<path d="M91.9828 59.432C90.3479 58.9597 88.7404 58.3984 87.1689 57.751C86.9133 57.6474 86.7078 57.4556 86.5978 57.2178C86.4878 56.9801 86.4822 56.7158 86.5823 56.4831C86.6315 56.3677 86.7053 56.2635 86.7995 56.1765C86.8936 56.0895 87.0063 56.0214 87.1309 55.9762C87.2555 55.9309 87.3896 55.9094 87.5256 55.9129C87.6616 55.9164 87.7968 55.9448 87.9233 55.9965C94.3248 58.5914 98.6804 59.069 100.519 57.3765C102.826 55.254 101.03 49.8029 100.143 47.8819C100.034 47.6441 100.028 47.3799 100.128 47.1474C100.229 46.9148 100.426 46.733 100.678 46.6418C100.802 46.5965 100.936 46.5749 101.072 46.5781C101.208 46.5814 101.343 46.6094 101.469 46.6607C101.596 46.712 101.712 46.7855 101.809 46.877C101.907 46.9686 101.986 47.0762 102.04 47.194C102.193 47.5244 105.745 55.3285 102.013 58.7684C100.072 60.5575 96.7691 60.7816 91.9828 59.432Z" fill="#133441"/>
<path d="M23.7538 71.6725C22.1504 71.2529 20.6935 70.3998 19.543 69.2068C15.201 64.6084 17.5061 56.5599 17.6064 56.2192C17.6444 56.0878 17.708 55.9652 17.7937 55.8585C17.8793 55.7518 17.9853 55.6632 18.1054 55.5977C18.2256 55.5322 18.3575 55.4912 18.4935 55.477C18.6296 55.4628 18.7671 55.4756 18.8982 55.5149C19.163 55.5928 19.3861 55.7726 19.5185 56.0148C19.6509 56.257 19.6817 56.5418 19.6043 56.8067C19.5833 56.8787 17.5385 64.0583 21.0619 67.7816C23.3813 70.2339 27.6793 70.7482 33.8357 69.3137C33.9688 69.2826 34.1069 69.2781 34.2418 69.3004C34.3767 69.3227 34.5059 69.3713 34.622 69.4435C34.7381 69.5157 34.8389 69.6101 34.9185 69.7212C34.9981 69.8324 35.0551 69.9581 35.0861 70.0913C35.1172 70.2245 35.1217 70.3625 35.0994 70.4974C35.0771 70.6323 35.0285 70.7615 34.9563 70.8777C34.8841 70.9938 34.7898 71.0946 34.6786 71.1742C34.5674 71.2539 34.4417 71.3108 34.3085 71.3419C30.0316 72.3388 26.5023 72.4475 23.7538 71.6725Z" fill="#133441"/>
<path d="M20.919 53.574L20.918 53.5741C20.9155 53.764 20.8893 53.953 20.8401 54.1364C20.799 54.2958 20.7395 54.4497 20.6626 54.5952C20.581 54.7496 20.4747 54.8898 20.3481 55.0102C20.2381 55.1125 20.1143 55.1988 19.9802 55.2668C19.8899 55.0674 19.7882 54.8735 19.6755 54.6859C19.4324 54.2888 19.1612 53.9096 18.8641 53.5511C18.6248 53.2593 18.4487 53.0719 18.4367 53.0591C18.2473 52.8581 17.9858 52.7406 17.7098 52.7323C17.4337 52.7241 17.1657 52.8259 16.9647 53.0153C16.7638 53.2046 16.6463 53.4658 16.638 53.7417C16.6297 54.0176 16.7313 54.2855 16.9204 54.4866L16.9209 54.4871C16.9284 54.4951 17.0604 54.6367 17.2375 54.8516C17.3713 55.0138 17.5306 55.2179 17.6795 55.4331C17.7887 55.5891 17.8896 55.7509 17.9816 55.9176C18.0357 56.0145 18.0829 56.115 18.1232 56.2183C18.0345 56.2371 17.9444 56.2488 17.8539 56.2532C17.6139 56.2639 17.3753 56.211 17.1623 56.0998C16.9545 55.9895 16.767 55.8445 16.6079 55.6712C16.4871 55.5424 16.3784 55.4029 16.283 55.2543C16.2473 55.1987 16.2218 55.1543 16.207 55.1275L16.1929 55.1014L16.1921 55.0998L16.1914 55.1002C16.0698 54.8538 15.8557 54.6655 15.5958 54.5764C15.3359 54.4874 15.0513 54.5046 14.8041 54.6246C14.5557 54.7451 14.3653 54.9595 14.2749 55.2204C14.1845 55.4813 14.2013 55.7675 14.3219 56.016C14.5259 56.4121 14.7854 56.777 15.0926 57.0997C15.4649 57.5014 15.9148 57.8236 16.415 58.0468C16.1028 58.1384 15.7736 58.1563 15.4533 58.0991C15.3453 58.08 15.2389 58.0524 15.1352 58.0166C15.1006 58.0045 15.0765 57.9947 15.065 57.9898L15.0573 57.9866L15.0569 57.9877C14.8095 57.8709 14.526 57.8563 14.2678 57.947C14.0097 58.0377 13.7978 58.2264 13.6778 58.4723C13.6178 58.5952 13.5827 58.7287 13.5743 58.8652C13.566 59.0017 13.5847 59.1384 13.6292 59.2677C13.6737 59.397 13.7433 59.5162 13.8339 59.6186C13.9245 59.721 14.0345 59.8045 14.1574 59.8644C14.6368 60.0796 15.154 60.1981 15.6793 60.2132C16.1825 60.2332 16.6852 60.1604 17.1621 59.9985C17.7647 59.7887 18.3148 59.4512 18.7748 59.009C19.2214 58.5784 19.602 58.0842 19.9045 57.5425C19.9224 57.5195 19.9387 57.4961 19.9556 57.4722C20.228 57.41 20.4938 57.3218 20.7494 57.2087C21.1274 57.0397 21.4746 56.8088 21.7765 56.5254C22.084 56.2342 22.3394 55.8925 22.5314 55.5151C22.7474 55.088 22.8913 54.6282 22.9574 54.1542C22.9906 53.9356 23.0045 53.7146 22.9989 53.4936C22.9929 53.357 22.9601 53.2229 22.9024 53.099C22.8446 52.975 22.763 52.8637 22.6622 52.7713C22.5614 52.6789 22.4434 52.6073 22.3149 52.5605C22.1864 52.5138 22.05 52.4927 21.9134 52.4987C21.6394 52.5107 21.3812 52.6305 21.195 52.8319C21.0087 53.0332 20.9096 53.2999 20.919 53.574Z" fill="#133441"/>
<path d="M40.9003 51.058C44.1989 50.0502 46.0573 46.563 45.0509 43.2692C44.0446 39.9753 40.5546 38.1222 37.256 39.13C33.9574 40.1378 32.0993 43.6249 33.1056 46.9187C34.1119 50.2126 37.6017 52.0658 40.9003 51.058Z" fill="white"/>
<path d="M43.0886 43.55C42.6782 42.4865 41.8622 41.6294 40.82 41.1674C39.7779 40.7054 38.5949 40.6762 37.5312 41.0863C37.0042 41.2885 36.522 41.5925 36.1125 41.9811C35.703 42.3696 35.374 42.8351 35.1444 43.3508C34.9148 43.8665 34.7891 44.4224 34.7744 44.9867C34.7597 45.551 34.8564 46.1127 35.0588 46.6397C35.4694 47.7034 36.2855 48.5605 37.328 49.0225C38.3704 49.4844 39.5539 49.5134 40.6177 49.103C41.1446 48.9008 41.6264 48.5966 42.0358 48.2081C42.4451 47.8195 42.7739 47.3541 43.0033 46.8384C43.2328 46.3227 43.3585 45.7669 43.3731 45.2027C43.3877 44.6384 43.291 44.0769 43.0886 43.55ZM38.4346 44.8442C38.0441 45.7723 37.1031 46.2629 36.3321 45.9402C35.5612 45.6175 35.2532 44.6035 35.6433 43.6755C36.0335 42.7476 36.9747 42.2568 37.7453 42.5796C38.5159 42.9024 38.8248 43.9163 38.4346 44.8442ZM42.4828 46.4986C42.257 47.0355 41.7123 47.3194 41.2663 47.1327C40.8203 46.9461 40.642 46.3593 40.8678 45.8223C41.0936 45.2853 41.6383 45.0014 42.0841 45.1883C42.5298 45.3751 42.7086 45.9616 42.4828 46.4986Z" fill="#133441"/>
<path d="M66.4207 42.5983C69.7188 41.5888 71.5754 38.1007 70.5674 34.8073C69.5594 31.514 66.0684 29.6626 62.7703 30.6721C59.4722 31.6816 57.6158 35.1697 58.6239 38.463C59.6319 41.7564 63.1226 43.6078 66.4207 42.5983Z" fill="white"/>
<path d="M68.5542 34.9955C68.1439 33.9319 67.3279 33.0748 66.2857 32.6128C65.2435 32.1508 64.0603 32.1216 62.9966 32.5317C62.4696 32.734 61.9878 33.0381 61.5783 33.4267C61.1689 33.8152 60.8398 34.2806 60.6103 34.7963C60.3807 35.312 60.255 35.8678 60.2403 36.4321C60.2256 36.9964 60.3223 37.5581 60.5247 38.085C60.9353 39.1487 61.7516 40.0057 62.7939 40.4677C63.8363 40.9296 65.0193 40.9587 66.0831 40.5485C66.61 40.3462 67.092 40.0421 67.5014 39.6536C67.9108 39.265 68.2395 38.7996 68.469 38.2839C68.6984 37.7682 68.8241 37.2124 68.8387 36.6482C68.8533 36.0839 68.7567 35.5224 68.5542 34.9955ZM63.8758 36.0325C63.3717 36.9043 62.3764 37.2728 61.6522 36.8559C60.928 36.439 60.7497 35.3942 61.2534 34.5226C61.7571 33.6509 62.7527 33.2822 63.477 33.6992C64.2012 34.1161 64.3796 35.1608 63.8758 36.0325ZM68.1726 37.7046C67.9468 38.2416 67.4024 38.5256 66.9563 38.3388C66.5106 38.1521 66.332 37.5654 66.5578 37.0284C66.7836 36.4915 67.3281 36.2075 67.7738 36.3943C68.2199 36.5811 68.3984 37.1677 68.1726 37.7046Z" fill="#133441"/>
<path d="M58.6478 26.3982C58.7572 27.4973 60.7764 27.6815 62.9301 27.4197C64.8585 27.1854 66.7582 27.1296 66.8694 25.6658C67.0984 22.6535 58.3186 23.0893 58.6478 26.3982Z" fill="#133441"/>
<path d="M30.6588 37.83C31.6313 38.9296 33.1795 37.8273 34.8581 36.8498C36.733 35.7582 38.2314 34.3923 37.6551 33.4502C35.9195 30.6137 28.6574 35.5668 30.6588 37.83Z" fill="#133441"/>
<path d="M58.1893 43.4144C59.9378 44.0111 59.2498 46.4474 54.6721 47.9852C50.095 49.5228 48.2513 47.7593 49.1135 46.4632C49.6081 45.7202 51.5457 46.3838 53.8715 45.6025C56.1973 44.8212 57.3209 43.1188 58.1893 43.4144Z" fill="#133441"/>
<path d="M58.8907 43.8409C58.8907 43.8409 59.9195 46.2489 59.6165 46.6547C59.3136 47.0605 58.6517 45.4923 58.5456 45.5786C58.4395 45.665 59.7308 47.8495 59.1189 48.1902C58.5069 48.5309 57.2785 45.1765 57.2785 45.1765L58.8907 43.8409Z" fill="#133441"/>
</svg>
