<svg width="1280" height="76" viewBox="0 0 1280 76" fill="none" xmlns="http://www.w3.org/2000/svg">
<rect width="1280" height="78" fill="#373E67"/>
<g style="mix-blend-mode:color-dodge">
<mask id="mask0_39_8735" style="mask-type:alpha" maskUnits="userSpaceOnUse" x="0" y="0" width="1280" height="78">
<rect width="1280" height="78" fill="#373E67"/>
</mask>
<g mask="url(#mask0_39_8735)">
<path d="M233.799 84.9024L233.798 84.9023C229.253 78.3347 229.389 70.49 232.632 63.2555C235.279 57.6488 239.144 52.4287 244.063 47.824C250.612 41.7116 259.201 37.0863 268.911 34.4759L268.924 34.4726L268.924 34.4726C273.252 33.2625 278.561 32.2918 283.816 32.1335C289.08 31.9749 294.216 32.6332 298.266 34.6166L298.266 34.6167C305.739 38.273 308.297 45.5063 305.568 51.7233L233.799 84.9024ZM233.799 84.9024C234.619 86.0886 235.579 87.2152 236.666 88.2676L236.667 88.2682C238.937 90.4692 242.128 92.3066 245.645 93.3366C249.165 94.3676 252.938 94.5698 256.396 93.5963L256.593 94.4917L256.396 93.5963C259.837 92.6274 262.438 90.6567 264.778 88.2832C265.952 87.0923 267.043 85.819 268.144 84.5277L268.244 84.4112C269.302 83.1706 270.375 81.9119 271.505 80.7575C274.551 77.5873 278.014 74.6775 281.834 72.0759L281.834 72.0758M233.799 84.9024L281.834 72.0758M281.834 72.0758L281.845 72.0688M281.834 72.0758L281.845 72.0688M281.845 72.0688C283.618 70.8879 285.437 69.7471 287.232 68.6221M281.845 72.0688L287.232 68.6221M287.232 68.6221C287.828 68.2484 288.421 67.8765 289.009 67.5054M287.232 68.6221L289.009 67.5054M289.009 67.5054C291.379 66.0094 293.676 64.5177 295.805 62.9317M289.009 67.5054L295.805 62.9317M295.805 62.9317C300.058 59.7632 303.576 56.263 305.568 51.7234L295.805 62.9317Z" stroke="#133441" stroke-width="2"/>
<path d="M222.816 83.5871C223.155 83.6852 223.511 83.7445 223.872 83.7631C227.37 83.9473 229.927 80.1828 230.208 79.753C230.336 79.5544 230.358 79.3251 230.269 79.1151C230.181 78.9051 229.989 78.7315 229.736 78.6323C229.482 78.5331 229.188 78.5163 228.917 78.5857C228.647 78.6551 228.421 78.805 228.291 79.0025C227.746 79.8338 225.795 82.1857 224.031 82.0912C222.697 82.0198 221.319 80.4814 220.152 77.759C220.092 77.6201 219.986 77.496 219.845 77.3993C219.704 77.3026 219.532 77.2365 219.347 77.2077C218.67 77.1105 217.97 77.15 217.315 77.3225C216.66 77.4949 216.071 77.7946 215.605 78.1931C215.51 78.2766 215.438 78.3736 215.392 78.4786C215.346 78.5836 215.327 78.6945 215.337 78.8049C215.346 78.9153 215.383 79.023 215.447 79.1217C215.51 79.2205 215.598 79.3084 215.705 79.3804C215.812 79.4523 215.937 79.5069 216.072 79.541C216.207 79.575 216.349 79.5878 216.491 79.5787C216.633 79.5696 216.771 79.5388 216.898 79.4879C217.024 79.437 217.137 79.3672 217.229 79.2824C217.52 79.031 217.923 78.8753 218.354 78.8472C219.592 81.5168 221.062 83.0801 222.816 83.5871Z" fill="#133441"/>
<path d="M285.696 82.5279C286.817 82.8574 288.042 82.9157 289.211 82.695C293.2 81.9287 296.158 78.1008 295.67 74.3358C295.656 74.2264 295.614 74.1205 295.547 74.024C295.48 73.9274 295.389 73.8423 295.28 73.7733C295.171 73.7043 295.045 73.653 294.909 73.6221C294.774 73.5912 294.632 73.5814 294.491 73.5933C294.351 73.6052 294.214 73.6385 294.09 73.6913C293.966 73.7441 293.856 73.8155 293.766 73.9012C293.677 73.987 293.61 74.0855 293.569 74.1911C293.529 74.2967 293.515 74.4074 293.529 74.5168C293.909 77.4411 291.656 80.5028 288.71 81.0684C285.975 81.5933 283.328 79.7256 281.444 75.9447C281.341 75.7381 281.137 75.5724 280.876 75.484C280.615 75.3957 280.319 75.3919 280.053 75.4736C279.787 75.5553 279.573 75.7157 279.457 75.9196C279.342 76.1234 279.335 76.3541 279.438 76.5607C281.339 80.3761 283.692 81.9488 285.696 82.5279Z" fill="#133441"/>
<path d="M291.909 72.6497C291.981 72.1058 292.325 71.6043 292.865 71.253C293.252 71.0204 293.714 70.8756 294.199 70.8349C294.684 70.7943 295.172 70.8592 295.611 71.0226C296.312 71.2454 296.899 71.6404 297.284 72.148C297.668 72.6556 297.83 73.2481 297.743 73.836C297.649 74.2239 297.14 75.5011 294.545 75.6468C293.964 75.6915 293.378 75.6388 292.827 75.4923C292.424 75.3902 292.07 75.1985 291.808 74.9408C291.545 74.6831 291.385 74.3707 291.348 74.0419C291.314 73.5416 291.513 73.0473 291.909 72.6497Z" fill="#133441"/>
<path d="M231.331 52.4726C231.389 52.4895 231.45 52.5024 231.511 52.5111C231.791 52.5513 232.081 52.5032 232.317 52.3772C232.553 52.2512 232.716 52.0577 232.77 51.8392C233.481 48.946 236.759 46.5075 239.784 46.6209C242.59 46.7256 244.437 49.1098 244.849 53.1626C244.871 53.384 245.006 53.5888 245.223 53.7318C245.44 53.8748 245.721 53.9444 246.006 53.9252C246.29 53.9061 246.554 53.7998 246.739 53.6297C246.925 53.4597 247.016 53.2398 246.994 53.0184C246.275 45.9461 241.796 45.0176 239.902 44.9474C235.807 44.7941 231.573 47.8113 230.657 51.5356C230.609 51.7294 230.651 51.9296 230.774 52.101C230.898 52.2723 231.095 52.4039 231.331 52.4726Z" fill="#133441"/>
<path d="M229.663 54.8361C230.018 55.0507 230.438 55.1898 230.884 55.2398C231.33 55.2897 231.786 55.2489 232.207 55.1212C233.211 54.467 234.05 53.6735 234.682 52.7813C234.902 51.9764 234.388 50.903 232.215 50.527C229.681 50.0885 228.725 51.2015 228.492 51.5531C228.193 52.0983 228.13 52.7033 228.311 53.2765C228.492 53.8498 228.908 54.3601 229.497 54.7304C229.551 54.7676 229.606 54.8028 229.663 54.8361Z" fill="#133441"/>
<path d="M268.925 51.2964L277.492 53.7726M286.668 58.2596L292.777 63.0834" stroke="#133441" stroke-width="2" stroke-linecap="round"/>
<path d="M296.1 -24.4945L296.1 -24.4945C305.672 -25.4019 315.175 -22.4734 322.836 -17.469C328.695 -13.5156 333.636 -8.82084 337.445 -3.59133C342.497 3.3699 344.984 11.2431 344.638 19.1659L344.638 19.1766L344.638 19.1766C344.54 22.7272 343.8 26.8875 342.106 30.7093C340.409 34.5392 337.791 37.9497 334.008 40.1115L334.008 40.1117C327.051 44.0901 317.362 43.4418 310.644 39.1121L296.1 -24.4945ZM296.1 -24.4945C294.375 -24.3312 292.676 -24.0468 291.023 -23.6452L291.022 -23.6449C284.056 -21.9575 277.808 -17.1612 277.669 -11.5336L276.551 -11.5247L277.669 -11.5336C277.599 -8.70608 279.048 -6.09808 281.097 -3.52458C282.12 -2.24023 283.272 -0.987986 284.434 0.269875L284.536 0.380508C285.656 1.59227 286.783 2.81271 287.764 4.03568C290.483 7.35588 292.742 10.8853 294.502 14.5651L294.502 14.5651M296.1 -24.4945L294.502 14.5651M294.502 14.5651L294.506 14.5737M294.502 14.5651L294.506 14.5737M294.506 14.5737C295.311 16.3143 296.034 18.0376 296.747 19.739M294.506 14.5737L296.747 19.739M296.747 19.739C297.919 22.536 299.066 25.2737 300.516 27.9318M296.747 19.739L300.516 27.9318M300.516 27.9318C302.818 32.1493 305.806 35.9934 310.644 39.112L300.516 27.9318Z" stroke="#133441" stroke-width="2"/>
<path d="M280.514 13.7524C279.712 14.441 279.2 15.3023 279.045 16.224C278.533 19.3743 282.091 22.8846 286.814 23.8897C286.952 23.9189 287.095 23.927 287.235 23.9135C287.376 23.9001 287.512 23.8654 287.634 23.8114C287.757 23.7574 287.865 23.6852 287.951 23.5988C288.037 23.5125 288.1 23.4137 288.136 23.3082C288.172 23.2026 288.181 23.0924 288.162 22.9837C288.143 22.875 288.097 22.7701 288.025 22.6748C287.954 22.5796 287.859 22.4959 287.746 22.4285C287.633 22.3612 287.505 22.3115 287.367 22.2823C283.698 21.5017 280.812 18.7758 281.191 16.4493C281.542 14.2904 284.752 13.0561 289.998 13.0617C290.284 13.062 290.558 12.9745 290.759 12.8184C290.96 12.6623 291.071 12.4503 291.068 12.2292C291.065 12.0081 290.949 11.796 290.744 11.6394C290.539 11.4828 290.263 11.3947 289.977 11.3943C284.683 11.3887 281.935 12.5176 280.514 13.7524Z" fill="#133441"/>
<path d="M290.206 21.7878C290.837 22.0358 291.319 22.4639 291.549 22.9799C291.69 23.3426 291.699 23.7274 291.573 24.0913C291.447 24.4552 291.193 24.7839 290.838 25.0407C290.316 25.4654 289.627 25.7462 288.875 25.8404C288.124 25.9346 287.35 25.8372 286.671 25.5629C286.236 25.3553 284.877 24.5282 285.636 22.607C285.792 22.172 286.066 21.7688 286.442 21.4245C286.71 21.1715 287.069 20.9854 287.475 20.889C287.881 20.7926 288.316 20.7902 288.727 20.882C289.343 21.0379 289.869 21.3595 290.206 21.7878Z" fill="#133441"/>
<path d="M336.408 -14.5801C336.367 -14.5443 336.33 -14.5057 336.297 -14.4647C336.147 -14.2774 336.101 -14.0512 336.168 -13.8357C336.235 -13.6202 336.41 -13.4331 336.655 -13.3156C339.893 -11.7603 341.657 -8.52044 340.43 -6.38234C339.292 -4.3982 335.747 -3.92704 330.703 -5.09105C330.428 -5.15465 330.132 -5.13151 329.881 -5.02672C329.63 -4.92193 329.445 -4.74406 329.365 -4.53227C329.286 -4.32048 329.319 -4.0921 329.458 -3.89738C329.597 -3.70265 329.829 -3.55753 330.105 -3.49393C338.906 -1.46288 341.642 -4.35509 342.409 -5.69373C344.07 -8.58886 341.951 -12.7264 337.783 -14.7285C337.566 -14.8325 337.309 -14.8747 337.058 -14.8475C336.806 -14.8204 336.576 -14.7257 336.408 -14.5801Z" fill="#133441"/>
<path d="M324.281 12.9253L318.203 18.2045M309.476 23.198L301.448 25.8608" stroke="#133441" stroke-width="2" stroke-linecap="round"/>
<path d="M384.8 94.8539L384.8 94.8538C386.165 94.0247 387.424 93.1043 388.562 92.1052L388.563 92.1045C393.335 87.9229 395.398 81.4742 391.804 76.6864C389.961 74.2305 386.946 72.5625 383.439 71.1694C381.695 70.4762 379.861 69.8633 378.025 69.2523L377.866 69.1996C376.093 68.6099 374.316 68.0191 372.664 67.3681C368.127 65.6213 363.841 63.512 359.877 61.0746L359.877 61.0746L359.87 61.0699C358.027 59.9114 356.247 58.7229 354.485 57.5471C346.932 52.5057 339.73 47.6982 329.488 46.494C320.656 45.4559 311.96 48.8724 308.746 54.9288L308.746 54.9293C307.007 58.2016 307.038 62.0886 308.149 66.0243C309.257 69.9475 311.406 73.7921 313.703 76.8691L313.703 76.8691L313.71 76.8787C318.726 83.7921 326.146 89.5501 335.177 93.502C341.967 96.4632 349.373 98.5112 357.069 99.5541C367.05 100.78 377.203 99.4692 384.8 94.8539Z" stroke="#133441" stroke-width="2"/>
<path d="M407.174 71.6769C407.182 71.6431 407.188 71.6082 407.193 71.5722C407.333 70.484 406.091 69.1313 405.841 68.8712C405.669 68.6962 405.414 68.5798 405.131 68.5475C404.848 68.5151 404.56 68.5693 404.33 68.6983C404.1 68.8273 403.946 69.0206 403.902 69.2364C403.857 69.4522 403.926 69.673 404.093 69.8508C404.461 70.2341 404.755 70.6555 404.967 71.1022C404.582 71.1901 403.975 71.2937 403.419 71.3882C399.316 71.9495 395.426 73.1893 392.021 75.0211C391.906 75.0858 391.809 75.1673 391.735 75.2609C391.662 75.3546 391.613 75.4585 391.592 75.5667C391.572 75.6749 391.579 75.7852 391.614 75.8914C391.65 75.9975 391.712 76.0974 391.798 76.1852C391.884 76.273 391.991 76.3471 392.115 76.4031C392.238 76.4591 392.374 76.496 392.516 76.5117C392.658 76.5273 392.802 76.5213 392.941 76.4942C393.079 76.467 393.209 76.4191 393.323 76.3533C396.488 74.666 400.096 73.5248 403.9 73.0084C405.802 72.6842 406.982 72.4838 407.174 71.6769Z" fill="#133441"/>
<path d="M372.304 56.0278C372.528 55.118 372.388 54.1766 371.903 53.3262C370.228 50.4265 364.831 48.8466 360.116 49.8761C359.979 49.906 359.851 49.9563 359.74 50.0241C359.628 50.0918 359.536 50.1757 359.467 50.271C359.398 50.3663 359.355 50.4711 359.339 50.5794C359.323 50.6876 359.336 50.7973 359.375 50.9021C359.415 51.0069 359.481 51.1048 359.57 51.1902C359.66 51.2756 359.77 51.3467 359.895 51.3997C360.02 51.4526 360.157 51.4863 360.299 51.4987C360.44 51.5112 360.584 51.5022 360.721 51.4723C364.383 50.6725 368.68 51.8498 369.916 53.9915C371.064 55.9788 369.145 58.3187 364.654 60.4119C364.409 60.5263 364.233 60.7107 364.166 60.9246C364.099 61.1384 364.146 61.3642 364.297 61.5522C364.448 61.7402 364.69 61.8751 364.97 61.9272C365.25 61.9793 365.545 61.9443 365.79 61.8299C370.323 59.7174 371.916 57.6527 372.304 56.0278Z" fill="#133441"/>
<path d="M358.624 53.0308C357.918 53.071 357.218 52.8976 356.676 52.548C356.312 52.2943 356.047 51.9685 355.91 51.607C355.773 51.2455 355.771 50.8625 355.902 50.5007C356.064 49.9286 356.465 49.413 357.045 49.0318C357.625 48.6505 358.352 48.4243 359.116 48.3874C359.627 48.3912 361.345 48.5551 361.984 50.5021C362.143 50.9364 362.178 51.3912 362.088 51.836C362.028 52.1597 361.845 52.4626 361.563 52.7074C361.28 52.9522 360.91 53.1282 360.497 53.2139C359.865 53.3271 359.2 53.2622 358.624 53.0308Z" fill="#133441"/>
<path d="M335.419 74.241L337.078 67.2938M341.194 59.5318L346.276 54.0428" stroke="#133441" stroke-width="2" stroke-linecap="round"/>
<path d="M496.799 84.9024L496.799 84.9023C492.254 78.3347 492.389 70.49 495.632 63.2555C498.279 57.6488 502.144 52.4287 507.063 47.824C513.612 41.7116 522.202 37.0863 531.911 34.4759L531.924 34.4726L531.924 34.4726C536.252 33.2625 541.561 32.2918 546.817 32.1335C552.08 31.9749 557.216 32.6332 561.266 34.6166L561.266 34.6167C568.739 38.273 571.297 45.5063 568.568 51.7233L496.799 84.9024ZM496.799 84.9024C497.619 86.0886 498.579 87.2152 499.666 88.2676L499.667 88.2682C501.937 90.4692 505.128 92.3066 508.645 93.3366C512.165 94.3676 515.938 94.5698 519.396 93.5963L519.593 94.4917L519.396 93.5963C522.837 92.6274 525.438 90.6567 527.778 88.2832C528.952 87.0923 530.043 85.819 531.144 84.5277L531.244 84.4112C532.302 83.1706 533.375 81.9119 534.506 80.7575C537.551 77.5873 541.014 74.6775 544.835 72.0759L544.834 72.0758M496.799 84.9024L544.834 72.0758M544.834 72.0758L544.845 72.0688M544.834 72.0758L544.845 72.0688M544.845 72.0688C546.618 70.8879 548.437 69.7471 550.232 68.6221M544.845 72.0688L550.232 68.6221M550.232 68.6221C550.828 68.2484 551.421 67.8765 552.009 67.5054M550.232 68.6221L552.009 67.5054M552.009 67.5054C554.379 66.0094 556.676 64.5177 558.805 62.9317M552.009 67.5054L558.805 62.9317M558.805 62.9317C563.058 59.7632 566.576 56.263 568.568 51.7234L558.805 62.9317Z" stroke="#133441" stroke-width="2"/>
<path d="M485.816 83.5871C486.155 83.6852 486.511 83.7445 486.872 83.7631C490.37 83.9473 492.927 80.1828 493.208 79.753C493.336 79.5544 493.358 79.3251 493.269 79.1151C493.181 78.9051 492.989 78.7315 492.736 78.6323C492.482 78.5331 492.188 78.5163 491.917 78.5857C491.647 78.6551 491.421 78.805 491.291 79.0025C490.746 79.8338 488.795 82.1857 487.031 82.0912C485.697 82.0198 484.319 80.4814 483.152 77.759C483.092 77.6201 482.986 77.496 482.845 77.3993C482.704 77.3026 482.532 77.2365 482.347 77.2077C481.67 77.1105 480.97 77.15 480.315 77.3225C479.66 77.4949 479.071 77.7946 478.605 78.1931C478.51 78.2766 478.438 78.3736 478.392 78.4786C478.346 78.5836 478.327 78.6945 478.337 78.8049C478.346 78.9153 478.383 79.023 478.447 79.1217C478.51 79.2205 478.598 79.3084 478.705 79.3804C478.812 79.4523 478.937 79.5069 479.072 79.541C479.207 79.575 479.349 79.5878 479.491 79.5787C479.633 79.5696 479.771 79.5388 479.898 79.4879C480.024 79.437 480.137 79.3672 480.229 79.2824C480.52 79.031 480.923 78.8753 481.354 78.8472C482.592 81.5168 484.062 83.0801 485.816 83.5871Z" fill="#133441"/>
<path d="M548.696 82.5279C549.817 82.8574 551.042 82.9157 552.211 82.695C556.2 81.9287 559.158 78.1008 558.67 74.3358C558.656 74.2264 558.614 74.1205 558.547 74.024C558.48 73.9274 558.389 73.8423 558.28 73.7733C558.171 73.7043 558.045 73.653 557.909 73.6221C557.774 73.5912 557.632 73.5814 557.491 73.5933C557.351 73.6052 557.214 73.6385 557.09 73.6913C556.966 73.7441 556.856 73.8155 556.766 73.9012C556.677 73.987 556.61 74.0855 556.569 74.1911C556.529 74.2967 556.515 74.4074 556.529 74.5168C556.909 77.4411 554.656 80.5028 551.71 81.0684C548.975 81.5933 546.328 79.7256 544.444 75.9447C544.341 75.7381 544.137 75.5724 543.876 75.484C543.615 75.3957 543.319 75.3919 543.053 75.4736C542.787 75.5553 542.573 75.7157 542.457 75.9196C542.342 76.1234 542.335 76.3541 542.438 76.5607C544.339 80.3761 546.692 81.9488 548.696 82.5279Z" fill="#133441"/>
<path d="M554.909 72.6497C554.981 72.1058 555.325 71.6043 555.865 71.253C556.252 71.0204 556.714 70.8756 557.199 70.8349C557.684 70.7943 558.172 70.8592 558.611 71.0226C559.312 71.2454 559.899 71.6404 560.284 72.148C560.668 72.6556 560.83 73.2481 560.743 73.836C560.649 74.2239 560.14 75.5011 557.545 75.6468C556.964 75.6915 556.378 75.6388 555.827 75.4923C555.424 75.3902 555.07 75.1985 554.808 74.9408C554.545 74.6831 554.385 74.3707 554.348 74.0419C554.314 73.5416 554.513 73.0473 554.909 72.6497Z" fill="#133441"/>
<path d="M494.331 52.4726C494.39 52.4895 494.45 52.5024 494.511 52.5111C494.791 52.5513 495.081 52.5032 495.317 52.3772C495.553 52.2512 495.716 52.0577 495.77 51.8392C496.481 48.946 499.759 46.5075 502.784 46.6209C505.59 46.7256 507.437 49.1098 507.849 53.1626C507.871 53.384 508.006 53.5888 508.223 53.7318C508.44 53.8748 508.721 53.9444 509.006 53.9252C509.29 53.9061 509.554 53.7998 509.739 53.6297C509.925 53.4597 510.016 53.2398 509.994 53.0184C509.275 45.9461 504.796 45.0176 502.902 44.9474C498.807 44.7941 494.573 47.8113 493.657 51.5356C493.609 51.7294 493.651 51.9296 493.774 52.101C493.898 52.2723 494.095 52.4039 494.331 52.4726Z" fill="#133441"/>
<path d="M492.663 54.8361C493.018 55.0507 493.438 55.1898 493.884 55.2398C494.33 55.2897 494.786 55.2489 495.207 55.1212C496.211 54.467 497.05 53.6735 497.682 52.7813C497.902 51.9764 497.388 50.903 495.215 50.527C492.681 50.0885 491.725 51.2015 491.492 51.5531C491.193 52.0983 491.13 52.7033 491.311 53.2765C491.492 53.8498 491.908 54.3601 492.497 54.7304C492.551 54.7676 492.606 54.8028 492.663 54.8361Z" fill="#133441"/>
<path d="M531.925 51.2964L540.492 53.7726M549.668 58.2596L555.777 63.0834" stroke="#133441" stroke-width="2" stroke-linecap="round"/>
<path d="M559.1 -24.4945L559.1 -24.4945C568.672 -25.4019 578.175 -22.4734 585.836 -17.469C591.695 -13.5156 596.636 -8.82084 600.445 -3.59133C605.497 3.3699 607.984 11.2431 607.638 19.1659L607.638 19.1766L607.638 19.1766C607.54 22.7272 606.8 26.8875 605.106 30.7093C603.409 34.5392 600.791 37.9497 597.008 40.1115L597.008 40.1117C590.051 44.0901 580.362 43.4418 573.644 39.1121L559.1 -24.4945ZM559.1 -24.4945C557.375 -24.3312 555.676 -24.0468 554.023 -23.6452L554.022 -23.6449C547.056 -21.9575 540.808 -17.1612 540.669 -11.5336L539.551 -11.5247L540.669 -11.5336C540.599 -8.70608 542.048 -6.09808 544.097 -3.52458C545.12 -2.24023 546.272 -0.987986 547.434 0.269875L547.536 0.380508C548.656 1.59227 549.783 2.81271 550.764 4.03568C553.483 7.35588 555.742 10.8853 557.502 14.5651L557.502 14.5651M559.1 -24.4945L557.502 14.5651M557.502 14.5651L557.506 14.5737M557.502 14.5651L557.506 14.5737M557.506 14.5737C558.311 16.3143 559.034 18.0376 559.747 19.739M557.506 14.5737L559.747 19.739M559.747 19.739C560.919 22.536 562.066 25.2737 563.516 27.9318M559.747 19.739L563.516 27.9318M563.516 27.9318C565.818 32.1493 568.806 35.9934 573.644 39.112L563.516 27.9318Z" stroke="#133441" stroke-width="2"/>
<path d="M543.514 13.7524C542.712 14.441 542.2 15.3023 542.045 16.224C541.533 19.3743 545.091 22.8846 549.814 23.8897C549.952 23.9189 550.095 23.927 550.235 23.9135C550.376 23.9001 550.512 23.8654 550.634 23.8114C550.757 23.7574 550.865 23.6852 550.951 23.5988C551.037 23.5125 551.1 23.4137 551.136 23.3082C551.172 23.2026 551.181 23.0924 551.162 22.9837C551.143 22.875 551.097 22.7701 551.025 22.6748C550.954 22.5796 550.859 22.4959 550.746 22.4285C550.633 22.3612 550.505 22.3115 550.367 22.2823C546.698 21.5017 543.812 18.7758 544.191 16.4493C544.542 14.2904 547.752 13.0561 552.998 13.0617C553.284 13.062 553.558 12.9745 553.759 12.8184C553.96 12.6623 554.071 12.4503 554.068 12.2292C554.065 12.0081 553.949 11.796 553.744 11.6394C553.54 11.4828 553.264 11.3947 552.977 11.3943C547.683 11.3887 544.935 12.5176 543.514 13.7524Z" fill="#133441"/>
<path d="M553.206 21.7878C553.837 22.0358 554.319 22.4639 554.549 22.9799C554.69 23.3426 554.699 23.7274 554.573 24.0913C554.448 24.4552 554.193 24.7839 553.838 25.0407C553.316 25.4654 552.627 25.7462 551.875 25.8404C551.124 25.9346 550.35 25.8372 549.671 25.5629C549.236 25.3553 547.877 24.5282 548.636 22.607C548.792 22.172 549.066 21.7688 549.442 21.4245C549.71 21.1715 550.07 20.9854 550.475 20.889C550.881 20.7926 551.316 20.7902 551.727 20.882C552.343 21.0379 552.869 21.3595 553.206 21.7878Z" fill="#133441"/>
<path d="M599.408 -14.5801C599.367 -14.5443 599.33 -14.5057 599.297 -14.4647C599.148 -14.2774 599.101 -14.0512 599.168 -13.8357C599.235 -13.6202 599.41 -13.4331 599.655 -13.3156C602.893 -11.7603 604.657 -8.52044 603.43 -6.38234C602.292 -4.3982 598.747 -3.92704 593.703 -5.09105C593.428 -5.15465 593.132 -5.13151 592.881 -5.02672C592.63 -4.92193 592.445 -4.74406 592.365 -4.53227C592.286 -4.32048 592.319 -4.0921 592.458 -3.89738C592.597 -3.70265 592.829 -3.55753 593.105 -3.49393C601.906 -1.46288 604.642 -4.35509 605.409 -5.69373C607.07 -8.58886 604.951 -12.7264 600.783 -14.7285C600.566 -14.8325 600.309 -14.8747 600.058 -14.8475C599.807 -14.8204 599.576 -14.7257 599.408 -14.5801Z" fill="#133441"/>
<path d="M587.281 12.9253L581.203 18.2045M572.476 23.198L564.448 25.8608" stroke="#133441" stroke-width="2" stroke-linecap="round"/>
<path d="M647.8 94.8539L647.8 94.8538C649.165 94.0247 650.424 93.1043 651.562 92.1052L651.563 92.1045C656.335 87.9229 658.398 81.4742 654.804 76.6864C652.961 74.2305 649.946 72.5625 646.439 71.1694C644.695 70.4762 642.861 69.8633 641.025 69.2523L640.866 69.1996C639.093 68.6099 637.316 68.0191 635.664 67.3681C631.127 65.6213 626.841 63.512 622.877 61.0746L622.877 61.0746L622.87 61.0699C621.027 59.9114 619.247 58.7229 617.485 57.5471C609.932 52.5057 602.73 47.6982 592.488 46.494C583.656 45.4559 574.96 48.8724 571.746 54.9288L571.746 54.9293C570.007 58.2016 570.038 62.0886 571.149 66.0243C572.257 69.9475 574.406 73.7921 576.703 76.8691L576.703 76.8691L576.71 76.8787C581.726 83.7921 589.146 89.5501 598.177 93.502C604.967 96.4632 612.373 98.5112 620.069 99.5541C630.05 100.78 640.203 99.4692 647.8 94.8539Z" stroke="#133441" stroke-width="2"/>
<path d="M670.174 71.6769C670.182 71.6431 670.188 71.6082 670.193 71.5722C670.333 70.484 669.091 69.1313 668.841 68.8712C668.669 68.6962 668.414 68.5798 668.131 68.5475C667.848 68.5151 667.56 68.5693 667.33 68.6983C667.1 68.8273 666.946 69.0206 666.901 69.2364C666.857 69.4522 666.926 69.673 667.093 69.8508C667.461 70.2341 667.755 70.6555 667.967 71.1022C667.582 71.1901 666.975 71.2937 666.419 71.3882C662.316 71.9495 658.426 73.1893 655.021 75.0211C654.906 75.0858 654.809 75.1673 654.735 75.2609C654.662 75.3546 654.613 75.4585 654.592 75.5667C654.572 75.6749 654.579 75.7852 654.614 75.8914C654.65 75.9975 654.712 76.0974 654.798 76.1852C654.884 76.273 654.991 76.3471 655.115 76.4031C655.238 76.4591 655.374 76.496 655.516 76.5117C655.658 76.5273 655.802 76.5213 655.941 76.4942C656.079 76.467 656.209 76.4191 656.323 76.3533C659.488 74.666 663.096 73.5248 666.9 73.0084C668.802 72.6842 669.982 72.4838 670.174 71.6769Z" fill="#133441"/>
<path d="M635.304 56.0278C635.528 55.118 635.388 54.1766 634.903 53.3262C633.228 50.4265 627.831 48.8466 623.116 49.8761C622.979 49.906 622.851 49.9563 622.74 50.0241C622.628 50.0918 622.536 50.1757 622.467 50.271C622.398 50.3663 622.355 50.4711 622.339 50.5794C622.323 50.6876 622.336 50.7973 622.375 50.9021C622.415 51.0069 622.481 51.1048 622.57 51.1902C622.66 51.2756 622.77 51.3467 622.895 51.3997C623.02 51.4526 623.157 51.4863 623.299 51.4987C623.44 51.5112 623.584 51.5022 623.721 51.4723C627.383 50.6725 631.68 51.8498 632.916 53.9915C634.064 55.9788 632.145 58.3187 627.654 60.4119C627.409 60.5263 627.233 60.7107 627.166 60.9246C627.099 61.1384 627.146 61.3642 627.297 61.5522C627.448 61.7402 627.69 61.8751 627.97 61.9272C628.25 61.9793 628.545 61.9443 628.79 61.8299C633.323 59.7174 634.916 57.6527 635.304 56.0278Z" fill="#133441"/>
<path d="M621.624 53.0308C620.918 53.071 620.218 52.8976 619.676 52.548C619.312 52.2943 619.047 51.9685 618.91 51.607C618.773 51.2455 618.771 50.8625 618.902 50.5007C619.064 49.9286 619.465 49.413 620.045 49.0318C620.625 48.6505 621.352 48.4243 622.116 48.3874C622.627 48.3912 624.345 48.5551 624.984 50.5021C625.143 50.9364 625.178 51.3912 625.088 51.836C625.028 52.1597 624.845 52.4626 624.563 52.7074C624.28 52.9522 623.91 53.1282 623.497 53.2139C622.865 53.3271 622.2 53.2622 621.624 53.0308Z" fill="#133441"/>
<path d="M598.419 74.241L600.078 67.2938M604.194 59.5318L609.276 54.0428" stroke="#133441" stroke-width="2" stroke-linecap="round"/>
<path d="M761.799 84.9024L761.799 84.9023C757.254 78.3347 757.389 70.49 760.632 63.2555C763.279 57.6488 767.144 52.4287 772.063 47.824C778.612 41.7116 787.202 37.0863 796.911 34.4759L796.924 34.4726L796.924 34.4726C801.252 33.2625 806.561 32.2918 811.817 32.1335C817.08 31.9749 822.216 32.6332 826.266 34.6166L826.266 34.6167C833.739 38.273 836.297 45.5063 833.568 51.7233L761.799 84.9024ZM761.799 84.9024C762.619 86.0886 763.579 87.2152 764.666 88.2676L764.667 88.2682C766.937 90.4692 770.128 92.3066 773.645 93.3366C777.165 94.3676 780.938 94.5698 784.396 93.5963L784.593 94.4917L784.396 93.5963C787.837 92.6274 790.438 90.6567 792.778 88.2832C793.952 87.0923 795.043 85.819 796.144 84.5277L796.244 84.4112C797.302 83.1706 798.375 81.9119 799.506 80.7575C802.551 77.5873 806.014 74.6775 809.835 72.0759L809.834 72.0758M761.799 84.9024L809.834 72.0758M809.834 72.0758L809.845 72.0688M809.834 72.0758L809.845 72.0688M809.845 72.0688C811.618 70.8879 813.437 69.7471 815.232 68.6221M809.845 72.0688L815.232 68.6221M815.232 68.6221C815.828 68.2484 816.421 67.8765 817.009 67.5054M815.232 68.6221L817.009 67.5054M817.009 67.5054C819.379 66.0094 821.676 64.5177 823.805 62.9317M817.009 67.5054L823.805 62.9317M823.805 62.9317C828.058 59.7632 831.576 56.263 833.568 51.7234L823.805 62.9317Z" stroke="#133441" stroke-width="2"/>
<path d="M750.816 83.5871C751.155 83.6852 751.511 83.7445 751.872 83.7631C755.37 83.9473 757.927 80.1828 758.208 79.753C758.336 79.5544 758.358 79.3251 758.269 79.1151C758.181 78.9051 757.989 78.7315 757.736 78.6323C757.482 78.5331 757.188 78.5163 756.917 78.5857C756.647 78.6551 756.421 78.805 756.291 79.0025C755.746 79.8338 753.795 82.1857 752.031 82.0912C750.697 82.0198 749.319 80.4814 748.152 77.759C748.092 77.6201 747.986 77.496 747.845 77.3993C747.704 77.3026 747.532 77.2365 747.347 77.2077C746.67 77.1105 745.97 77.15 745.315 77.3225C744.66 77.4949 744.071 77.7946 743.605 78.1931C743.51 78.2766 743.438 78.3736 743.392 78.4786C743.346 78.5836 743.327 78.6945 743.337 78.8049C743.346 78.9153 743.383 79.023 743.447 79.1217C743.51 79.2205 743.598 79.3084 743.705 79.3804C743.812 79.4523 743.937 79.5069 744.072 79.541C744.207 79.575 744.349 79.5878 744.491 79.5787C744.633 79.5696 744.771 79.5388 744.898 79.4879C745.024 79.437 745.137 79.3672 745.229 79.2824C745.52 79.031 745.923 78.8753 746.354 78.8472C747.592 81.5168 749.062 83.0801 750.816 83.5871Z" fill="#133441"/>
<path d="M813.696 82.5279C814.817 82.8574 816.042 82.9157 817.211 82.695C821.2 81.9287 824.158 78.1008 823.67 74.3358C823.656 74.2264 823.614 74.1205 823.547 74.024C823.48 73.9274 823.389 73.8423 823.28 73.7733C823.171 73.7043 823.045 73.653 822.909 73.6221C822.774 73.5912 822.632 73.5814 822.491 73.5933C822.351 73.6052 822.214 73.6385 822.09 73.6913C821.966 73.7441 821.856 73.8155 821.766 73.9012C821.677 73.987 821.61 74.0855 821.569 74.1911C821.529 74.2967 821.515 74.4074 821.529 74.5168C821.909 77.4411 819.656 80.5028 816.71 81.0684C813.975 81.5933 811.328 79.7256 809.444 75.9447C809.341 75.7381 809.137 75.5724 808.876 75.484C808.615 75.3957 808.319 75.3919 808.053 75.4736C807.787 75.5553 807.573 75.7157 807.457 75.9196C807.342 76.1234 807.335 76.3541 807.438 76.5607C809.339 80.3761 811.692 81.9488 813.696 82.5279Z" fill="#133441"/>
<path d="M819.909 72.6497C819.981 72.1058 820.325 71.6043 820.865 71.253C821.252 71.0204 821.714 70.8756 822.199 70.8349C822.684 70.7943 823.172 70.8592 823.611 71.0226C824.312 71.2454 824.899 71.6404 825.284 72.148C825.668 72.6556 825.83 73.2481 825.743 73.836C825.649 74.2239 825.14 75.5011 822.545 75.6468C821.964 75.6915 821.378 75.6388 820.827 75.4923C820.424 75.3902 820.07 75.1985 819.808 74.9408C819.545 74.6831 819.385 74.3707 819.348 74.0419C819.314 73.5416 819.513 73.0473 819.909 72.6497Z" fill="#133441"/>
<path d="M759.331 52.4726C759.39 52.4895 759.45 52.5024 759.511 52.5111C759.791 52.5513 760.081 52.5032 760.317 52.3772C760.553 52.2512 760.716 52.0577 760.77 51.8392C761.481 48.946 764.759 46.5075 767.784 46.6209C770.59 46.7256 772.437 49.1098 772.849 53.1626C772.871 53.384 773.006 53.5888 773.223 53.7318C773.44 53.8748 773.721 53.9444 774.006 53.9252C774.29 53.9061 774.554 53.7998 774.739 53.6297C774.925 53.4597 775.016 53.2398 774.994 53.0184C774.275 45.9461 769.796 45.0176 767.902 44.9474C763.807 44.7941 759.573 47.8113 758.657 51.5356C758.609 51.7294 758.651 51.9296 758.774 52.101C758.898 52.2723 759.095 52.4039 759.331 52.4726Z" fill="#133441"/>
<path d="M757.663 54.8361C758.018 55.0507 758.438 55.1898 758.884 55.2398C759.33 55.2897 759.786 55.2489 760.207 55.1212C761.211 54.467 762.05 53.6735 762.682 52.7813C762.902 51.9764 762.388 50.903 760.215 50.527C757.681 50.0885 756.725 51.2015 756.492 51.5531C756.193 52.0983 756.13 52.7033 756.311 53.2765C756.492 53.8498 756.908 54.3601 757.497 54.7304C757.551 54.7676 757.606 54.8028 757.663 54.8361Z" fill="#133441"/>
<path d="M796.925 51.2964L805.492 53.7726M814.668 58.2596L820.777 63.0834" stroke="#133441" stroke-width="2" stroke-linecap="round"/>
<path d="M824.1 -24.4945L824.1 -24.4945C833.672 -25.4019 843.175 -22.4734 850.836 -17.469C856.695 -13.5156 861.636 -8.82084 865.445 -3.59133C870.497 3.3699 872.984 11.2431 872.638 19.1659L872.638 19.1766L872.638 19.1766C872.54 22.7272 871.8 26.8875 870.106 30.7093C868.409 34.5392 865.791 37.9497 862.008 40.1115L862.008 40.1117C855.051 44.0901 845.362 43.4418 838.644 39.1121L824.1 -24.4945ZM824.1 -24.4945C822.375 -24.3312 820.676 -24.0468 819.023 -23.6452L819.022 -23.6449C812.056 -21.9575 805.808 -17.1612 805.669 -11.5336L804.551 -11.5247L805.669 -11.5336C805.599 -8.70608 807.048 -6.09808 809.097 -3.52458C810.12 -2.24023 811.272 -0.987986 812.434 0.269875L812.536 0.380508C813.656 1.59227 814.783 2.81271 815.764 4.03568C818.483 7.35588 820.742 10.8853 822.502 14.5651L822.502 14.5651M824.1 -24.4945L822.502 14.5651M822.502 14.5651L822.506 14.5737M822.502 14.5651L822.506 14.5737M822.506 14.5737C823.311 16.3143 824.034 18.0376 824.747 19.739M822.506 14.5737L824.747 19.739M824.747 19.739C825.919 22.536 827.066 25.2737 828.516 27.9318M824.747 19.739L828.516 27.9318M828.516 27.9318C830.818 32.1493 833.806 35.9934 838.644 39.112L828.516 27.9318Z" stroke="#133441" stroke-width="2"/>
<path d="M808.514 13.7524C807.712 14.441 807.2 15.3023 807.045 16.224C806.533 19.3743 810.091 22.8846 814.814 23.8897C814.952 23.9189 815.095 23.927 815.235 23.9135C815.376 23.9001 815.512 23.8654 815.634 23.8114C815.757 23.7574 815.865 23.6852 815.951 23.5988C816.037 23.5125 816.1 23.4137 816.136 23.3082C816.172 23.2026 816.181 23.0924 816.162 22.9837C816.143 22.875 816.097 22.7701 816.025 22.6748C815.954 22.5796 815.859 22.4959 815.746 22.4285C815.633 22.3612 815.505 22.3115 815.367 22.2823C811.698 21.5017 808.812 18.7758 809.191 16.4493C809.542 14.2904 812.752 13.0561 817.998 13.0617C818.284 13.062 818.558 12.9745 818.759 12.8184C818.96 12.6623 819.071 12.4503 819.068 12.2292C819.065 12.0081 818.949 11.796 818.744 11.6394C818.54 11.4828 818.264 11.3947 817.977 11.3943C812.683 11.3887 809.935 12.5176 808.514 13.7524Z" fill="#133441"/>
<path d="M818.206 21.7878C818.837 22.0358 819.319 22.4639 819.549 22.9799C819.69 23.3426 819.699 23.7274 819.573 24.0913C819.448 24.4552 819.193 24.7839 818.838 25.0407C818.316 25.4654 817.627 25.7462 816.875 25.8404C816.124 25.9346 815.35 25.8372 814.671 25.5629C814.236 25.3553 812.877 24.5282 813.636 22.607C813.792 22.172 814.066 21.7688 814.442 21.4245C814.71 21.1715 815.07 20.9854 815.475 20.889C815.881 20.7926 816.316 20.7902 816.727 20.882C817.343 21.0379 817.869 21.3595 818.206 21.7878Z" fill="#133441"/>
<path d="M864.408 -14.5801C864.367 -14.5443 864.33 -14.5057 864.297 -14.4647C864.148 -14.2774 864.101 -14.0512 864.168 -13.8357C864.235 -13.6202 864.41 -13.4331 864.655 -13.3156C867.893 -11.7603 869.657 -8.52044 868.43 -6.38234C867.292 -4.3982 863.747 -3.92704 858.703 -5.09105C858.428 -5.15465 858.132 -5.13151 857.881 -5.02672C857.63 -4.92193 857.445 -4.74406 857.365 -4.53227C857.286 -4.32048 857.319 -4.0921 857.458 -3.89738C857.597 -3.70265 857.829 -3.55753 858.105 -3.49393C866.906 -1.46288 869.642 -4.35509 870.409 -5.69373C872.07 -8.58886 869.951 -12.7264 865.783 -14.7285C865.566 -14.8325 865.309 -14.8747 865.058 -14.8475C864.807 -14.8204 864.576 -14.7257 864.408 -14.5801Z" fill="#133441"/>
<path d="M852.281 12.9253L846.203 18.2045M837.476 23.198L829.448 25.8608" stroke="#133441" stroke-width="2" stroke-linecap="round"/>
<path d="M912.8 94.8539L912.8 94.8538C914.165 94.0247 915.424 93.1043 916.562 92.1052L916.563 92.1045C921.335 87.9229 923.398 81.4742 919.804 76.6864C917.961 74.2305 914.946 72.5625 911.439 71.1694C909.695 70.4762 907.861 69.8633 906.025 69.2523L905.866 69.1996C904.093 68.6099 902.316 68.0191 900.664 67.3681C896.127 65.6213 891.841 63.512 887.877 61.0746L887.877 61.0746L887.87 61.0699C886.027 59.9114 884.247 58.7229 882.485 57.5471C874.932 52.5057 867.73 47.6982 857.488 46.494C848.656 45.4559 839.96 48.8724 836.746 54.9288L836.746 54.9293C835.007 58.2016 835.038 62.0886 836.149 66.0243C837.257 69.9475 839.406 73.7921 841.703 76.8691L841.703 76.8691L841.71 76.8787C846.726 83.7921 854.146 89.5501 863.177 93.502C869.967 96.4632 877.373 98.5112 885.069 99.5541C895.05 100.78 905.203 99.4692 912.8 94.8539Z" stroke="#133441" stroke-width="2"/>
<path d="M935.174 71.6769C935.182 71.6431 935.188 71.6082 935.193 71.5722C935.333 70.484 934.091 69.1313 933.841 68.8712C933.669 68.6962 933.414 68.5798 933.131 68.5475C932.848 68.5151 932.56 68.5693 932.33 68.6983C932.1 68.8273 931.946 69.0206 931.901 69.2364C931.857 69.4522 931.926 69.673 932.093 69.8508C932.461 70.2341 932.755 70.6555 932.967 71.1022C932.582 71.1901 931.975 71.2937 931.419 71.3882C927.316 71.9495 923.426 73.1893 920.021 75.0211C919.906 75.0858 919.809 75.1673 919.735 75.2609C919.662 75.3546 919.613 75.4585 919.592 75.5667C919.572 75.6749 919.579 75.7852 919.614 75.8914C919.65 75.9975 919.712 76.0974 919.798 76.1852C919.884 76.273 919.991 76.3471 920.115 76.4031C920.238 76.4591 920.374 76.496 920.516 76.5117C920.658 76.5273 920.802 76.5213 920.941 76.4942C921.079 76.467 921.209 76.4191 921.323 76.3533C924.488 74.666 928.096 73.5248 931.9 73.0084C933.802 72.6842 934.982 72.4838 935.174 71.6769Z" fill="#133441"/>
<path d="M900.304 56.0278C900.528 55.118 900.388 54.1766 899.903 53.3262C898.228 50.4265 892.831 48.8466 888.116 49.8761C887.979 49.906 887.851 49.9563 887.74 50.0241C887.628 50.0918 887.536 50.1757 887.467 50.271C887.398 50.3663 887.355 50.4711 887.339 50.5794C887.323 50.6876 887.336 50.7973 887.375 50.9021C887.415 51.0069 887.481 51.1048 887.57 51.1902C887.66 51.2756 887.77 51.3467 887.895 51.3997C888.02 51.4526 888.157 51.4863 888.299 51.4987C888.44 51.5112 888.584 51.5022 888.721 51.4723C892.383 50.6725 896.68 51.8498 897.916 53.9915C899.064 55.9788 897.145 58.3187 892.654 60.4119C892.409 60.5263 892.233 60.7107 892.166 60.9246C892.099 61.1384 892.146 61.3642 892.297 61.5522C892.448 61.7402 892.69 61.8751 892.97 61.9272C893.25 61.9793 893.545 61.9443 893.79 61.8299C898.323 59.7174 899.916 57.6527 900.304 56.0278Z" fill="#133441"/>
<path d="M886.624 53.0308C885.918 53.071 885.218 52.8976 884.676 52.548C884.312 52.2943 884.047 51.9685 883.91 51.607C883.773 51.2455 883.771 50.8625 883.902 50.5007C884.064 49.9286 884.465 49.413 885.045 49.0318C885.625 48.6505 886.352 48.4243 887.116 48.3874C887.627 48.3912 889.345 48.5551 889.984 50.5021C890.143 50.9364 890.178 51.3912 890.088 51.836C890.028 52.1597 889.845 52.4626 889.563 52.7074C889.28 52.9522 888.91 53.1282 888.497 53.2139C887.865 53.3271 887.2 53.2622 886.624 53.0308Z" fill="#133441"/>
<path d="M863.419 74.241L865.078 67.2938M869.194 59.5318L874.276 54.0428" stroke="#133441" stroke-width="2" stroke-linecap="round"/>
<path d="M1036.8 84.9024L1036.8 84.9023C1032.25 78.3347 1032.39 70.49 1035.63 63.2555C1038.28 57.6488 1042.14 52.4287 1047.06 47.824C1053.61 41.7116 1062.2 37.0863 1071.91 34.4759L1071.92 34.4726L1071.92 34.4726C1076.25 33.2625 1081.56 32.2918 1086.82 32.1335C1092.08 31.9749 1097.22 32.6332 1101.27 34.6166L1101.27 34.6167C1108.74 38.273 1111.3 45.5063 1108.57 51.7233L1036.8 84.9024ZM1036.8 84.9024C1037.62 86.0886 1038.58 87.2152 1039.67 88.2676L1039.67 88.2682C1041.94 90.4692 1045.13 92.3066 1048.65 93.3366C1052.16 94.3676 1055.94 94.5698 1059.4 93.5963L1059.59 94.4917L1059.4 93.5963C1062.84 92.6274 1065.44 90.6567 1067.78 88.2832C1068.95 87.0923 1070.04 85.819 1071.14 84.5277L1071.24 84.4112C1072.3 83.1706 1073.37 81.9119 1074.51 80.7575C1077.55 77.5873 1081.01 74.6775 1084.83 72.0759L1084.83 72.0758M1036.8 84.9024L1084.83 72.0758M1084.83 72.0758L1084.84 72.0688M1084.83 72.0758L1084.84 72.0688M1084.84 72.0688C1086.62 70.8879 1088.44 69.7471 1090.23 68.6221M1084.84 72.0688L1090.23 68.6221M1090.23 68.6221C1090.83 68.2484 1091.42 67.8765 1092.01 67.5054M1090.23 68.6221L1092.01 67.5054M1092.01 67.5054C1094.38 66.0094 1096.68 64.5177 1098.8 62.9317M1092.01 67.5054L1098.8 62.9317M1098.8 62.9317C1103.06 59.7632 1106.58 56.263 1108.57 51.7234L1098.8 62.9317Z" stroke="#133441" stroke-width="2"/>
<path d="M1025.82 83.5871C1026.15 83.6852 1026.51 83.7445 1026.87 83.7631C1030.37 83.9473 1032.93 80.1828 1033.21 79.753C1033.34 79.5544 1033.36 79.3251 1033.27 79.1151C1033.18 78.9051 1032.99 78.7315 1032.74 78.6323C1032.48 78.5331 1032.19 78.5163 1031.92 78.5857C1031.65 78.6551 1031.42 78.805 1031.29 79.0025C1030.75 79.8338 1028.79 82.1857 1027.03 82.0912C1025.7 82.0198 1024.32 80.4814 1023.15 77.759C1023.09 77.6201 1022.99 77.496 1022.84 77.3993C1022.7 77.3026 1022.53 77.2365 1022.35 77.2077C1021.67 77.1105 1020.97 77.15 1020.32 77.3225C1019.66 77.4949 1019.07 77.7946 1018.6 78.1931C1018.51 78.2766 1018.44 78.3736 1018.39 78.4786C1018.35 78.5836 1018.33 78.6945 1018.34 78.8049C1018.35 78.9153 1018.38 79.023 1018.45 79.1217C1018.51 79.2205 1018.6 79.3084 1018.7 79.3804C1018.81 79.4523 1018.94 79.5069 1019.07 79.541C1019.21 79.575 1019.35 79.5878 1019.49 79.5787C1019.63 79.5696 1019.77 79.5388 1019.9 79.4879C1020.02 79.437 1020.14 79.3672 1020.23 79.2824C1020.52 79.031 1020.92 78.8753 1021.35 78.8472C1022.59 81.5168 1024.06 83.0801 1025.82 83.5871Z" fill="#133441"/>
<path d="M1088.7 82.5279C1089.82 82.8574 1091.04 82.9157 1092.21 82.695C1096.2 81.9287 1099.16 78.1008 1098.67 74.3358C1098.66 74.2264 1098.61 74.1205 1098.55 74.024C1098.48 73.9274 1098.39 73.8423 1098.28 73.7733C1098.17 73.7043 1098.04 73.653 1097.91 73.6221C1097.77 73.5912 1097.63 73.5814 1097.49 73.5933C1097.35 73.6052 1097.21 73.6385 1097.09 73.6913C1096.97 73.7441 1096.86 73.8155 1096.77 73.9012C1096.68 73.987 1096.61 74.0855 1096.57 74.1911C1096.53 74.2967 1096.51 74.4074 1096.53 74.5168C1096.91 77.4411 1094.66 80.5028 1091.71 81.0684C1088.98 81.5933 1086.33 79.7256 1084.44 75.9447C1084.34 75.7381 1084.14 75.5724 1083.88 75.484C1083.61 75.3957 1083.32 75.3919 1083.05 75.4736C1082.79 75.5553 1082.57 75.7157 1082.46 75.9196C1082.34 76.1234 1082.33 76.3541 1082.44 76.5607C1084.34 80.3761 1086.69 81.9488 1088.7 82.5279Z" fill="#133441"/>
<path d="M1094.91 72.6497C1094.98 72.1058 1095.32 71.6043 1095.87 71.253C1096.25 71.0204 1096.71 70.8756 1097.2 70.8349C1097.68 70.7943 1098.17 70.8592 1098.61 71.0226C1099.31 71.2454 1099.9 71.6404 1100.28 72.148C1100.67 72.6556 1100.83 73.2481 1100.74 73.836C1100.65 74.2239 1100.14 75.5011 1097.55 75.6468C1096.96 75.6915 1096.38 75.6388 1095.83 75.4923C1095.42 75.3902 1095.07 75.1985 1094.81 74.9408C1094.54 74.6831 1094.39 74.3707 1094.35 74.0419C1094.31 73.5416 1094.51 73.0473 1094.91 72.6497Z" fill="#133441"/>
<path d="M1034.33 52.4726C1034.39 52.4895 1034.45 52.5024 1034.51 52.5111C1034.79 52.5513 1035.08 52.5032 1035.32 52.3772C1035.55 52.2512 1035.72 52.0577 1035.77 51.8392C1036.48 48.946 1039.76 46.5075 1042.78 46.6209C1045.59 46.7256 1047.44 49.1098 1047.85 53.1626C1047.87 53.384 1048.01 53.5888 1048.22 53.7318C1048.44 53.8748 1048.72 53.9444 1049.01 53.9252C1049.29 53.9061 1049.55 53.7998 1049.74 53.6297C1049.92 53.4597 1050.02 53.2398 1049.99 53.0184C1049.27 45.9461 1044.8 45.0176 1042.9 44.9474C1038.81 44.7941 1034.57 47.8113 1033.66 51.5356C1033.61 51.7294 1033.65 51.9296 1033.77 52.101C1033.9 52.2723 1034.09 52.4039 1034.33 52.4726Z" fill="#133441"/>
<path d="M1032.66 54.8361C1033.02 55.0507 1033.44 55.1898 1033.88 55.2398C1034.33 55.2897 1034.79 55.2489 1035.21 55.1212C1036.21 54.467 1037.05 53.6735 1037.68 52.7813C1037.9 51.9764 1037.39 50.903 1035.21 50.527C1032.68 50.0885 1031.73 51.2015 1031.49 51.5531C1031.19 52.0983 1031.13 52.7033 1031.31 53.2765C1031.49 53.8498 1031.91 54.3601 1032.5 54.7304C1032.55 54.7676 1032.61 54.8028 1032.66 54.8361Z" fill="#133441"/>
<path d="M1071.92 51.2964L1080.49 53.7726M1089.67 58.2596L1095.78 63.0834" stroke="#133441" stroke-width="2" stroke-linecap="round"/>
<path d="M1099.1 -24.4945L1099.1 -24.4945C1108.67 -25.4019 1118.18 -22.4734 1125.84 -17.469C1131.69 -13.5156 1136.64 -8.82084 1140.44 -3.59133C1145.5 3.3699 1147.98 11.2431 1147.64 19.1659L1147.64 19.1766L1147.64 19.1766C1147.54 22.7272 1146.8 26.8875 1145.11 30.7093C1143.41 34.5392 1140.79 37.9497 1137.01 40.1115L1137.01 40.1117C1130.05 44.0901 1120.36 43.4418 1113.64 39.1121L1099.1 -24.4945ZM1099.1 -24.4945C1097.38 -24.3312 1095.68 -24.0468 1094.02 -23.6452L1094.02 -23.6449C1087.06 -21.9575 1080.81 -17.1612 1080.67 -11.5336L1079.55 -11.5247L1080.67 -11.5336C1080.6 -8.70608 1082.05 -6.09808 1084.1 -3.52458C1085.12 -2.24023 1086.27 -0.987986 1087.43 0.269875L1087.54 0.380508C1088.66 1.59227 1089.78 2.81271 1090.76 4.03568C1093.48 7.35588 1095.74 10.8853 1097.5 14.5651L1097.5 14.5651M1099.1 -24.4945L1097.5 14.5651M1097.5 14.5651L1097.51 14.5737M1097.5 14.5651L1097.51 14.5737M1097.51 14.5737C1098.31 16.3143 1099.03 18.0376 1099.75 19.739M1097.51 14.5737L1099.75 19.739M1099.75 19.739C1100.92 22.536 1102.07 25.2737 1103.52 27.9318M1099.75 19.739L1103.52 27.9318M1103.52 27.9318C1105.82 32.1493 1108.81 35.9934 1113.64 39.112L1103.52 27.9318Z" stroke="#133441" stroke-width="2"/>
<path d="M1083.51 13.7524C1082.71 14.441 1082.2 15.3023 1082.05 16.224C1081.53 19.3743 1085.09 22.8846 1089.81 23.8897C1089.95 23.9189 1090.09 23.927 1090.24 23.9135C1090.38 23.9001 1090.51 23.8654 1090.63 23.8114C1090.76 23.7574 1090.86 23.6852 1090.95 23.5988C1091.04 23.5125 1091.1 23.4137 1091.14 23.3082C1091.17 23.2026 1091.18 23.0924 1091.16 22.9837C1091.14 22.875 1091.1 22.7701 1091.03 22.6748C1090.95 22.5796 1090.86 22.4959 1090.75 22.4285C1090.63 22.3612 1090.5 22.3115 1090.37 22.2823C1086.7 21.5017 1083.81 18.7758 1084.19 16.4493C1084.54 14.2904 1087.75 13.0561 1093 13.0617C1093.28 13.062 1093.56 12.9745 1093.76 12.8184C1093.96 12.6623 1094.07 12.4503 1094.07 12.2292C1094.07 12.0081 1093.95 11.796 1093.74 11.6394C1093.54 11.4828 1093.26 11.3947 1092.98 11.3943C1087.68 11.3887 1084.94 12.5176 1083.51 13.7524Z" fill="#133441"/>
<path d="M1093.21 21.7878C1093.84 22.0358 1094.32 22.4639 1094.55 22.9799C1094.69 23.3426 1094.7 23.7274 1094.57 24.0913C1094.45 24.4552 1094.19 24.7839 1093.84 25.0407C1093.32 25.4654 1092.63 25.7462 1091.88 25.8404C1091.12 25.9346 1090.35 25.8372 1089.67 25.5629C1089.24 25.3553 1087.88 24.5282 1088.64 22.607C1088.79 22.172 1089.07 21.7688 1089.44 21.4245C1089.71 21.1715 1090.07 20.9854 1090.48 20.889C1090.88 20.7926 1091.32 20.7902 1091.73 20.882C1092.34 21.0379 1092.87 21.3595 1093.21 21.7878Z" fill="#133441"/>
<path d="M1139.41 -14.5801C1139.37 -14.5443 1139.33 -14.5057 1139.3 -14.4647C1139.15 -14.2774 1139.1 -14.0512 1139.17 -13.8357C1139.24 -13.6202 1139.41 -13.4331 1139.65 -13.3156C1142.89 -11.7603 1144.66 -8.52044 1143.43 -6.38234C1142.29 -4.3982 1138.75 -3.92704 1133.7 -5.09105C1133.43 -5.15465 1133.13 -5.13151 1132.88 -5.02672C1132.63 -4.92193 1132.44 -4.74406 1132.37 -4.53227C1132.29 -4.32048 1132.32 -4.0921 1132.46 -3.89738C1132.6 -3.70265 1132.83 -3.55753 1133.1 -3.49393C1141.91 -1.46288 1144.64 -4.35509 1145.41 -5.69373C1147.07 -8.58886 1144.95 -12.7264 1140.78 -14.7285C1140.57 -14.8325 1140.31 -14.8747 1140.06 -14.8475C1139.81 -14.8204 1139.58 -14.7257 1139.41 -14.5801Z" fill="#133441"/>
<path d="M1127.28 12.9253L1121.2 18.2045M1112.48 23.198L1104.45 25.8608" stroke="#133441" stroke-width="2" stroke-linecap="round"/>
<path d="M1187.8 94.8539L1187.8 94.8538C1189.16 94.0247 1190.42 93.1043 1191.56 92.1052L1191.56 92.1045C1196.34 87.9229 1198.4 81.4742 1194.8 76.6864C1192.96 74.2305 1189.95 72.5625 1186.44 71.1694C1184.69 70.4762 1182.86 69.8633 1181.02 69.2523L1180.87 69.1996C1179.09 68.6099 1177.32 68.0191 1175.66 67.3681C1171.13 65.6213 1166.84 63.512 1162.88 61.0746L1162.88 61.0746L1162.87 61.0699C1161.03 59.9114 1159.25 58.7229 1157.49 57.5471C1149.93 52.5057 1142.73 47.6982 1132.49 46.494C1123.66 45.4559 1114.96 48.8724 1111.75 54.9288L1111.75 54.9293C1110.01 58.2016 1110.04 62.0886 1111.15 66.0243C1112.26 69.9475 1114.41 73.7921 1116.7 76.8691L1116.7 76.8691L1116.71 76.8787C1121.73 83.7921 1129.15 89.5501 1138.18 93.502C1144.97 96.4632 1152.37 98.5112 1160.07 99.5541C1170.05 100.78 1180.2 99.4692 1187.8 94.8539Z" stroke="#133441" stroke-width="2"/>
<path d="M1210.17 71.6769C1210.18 71.6431 1210.19 71.6082 1210.19 71.5722C1210.33 70.484 1209.09 69.1313 1208.84 68.8712C1208.67 68.6962 1208.41 68.5798 1208.13 68.5475C1207.85 68.5151 1207.56 68.5693 1207.33 68.6983C1207.1 68.8273 1206.95 69.0206 1206.9 69.2364C1206.86 69.4522 1206.93 69.673 1207.09 69.8508C1207.46 70.2341 1207.76 70.6555 1207.97 71.1022C1207.58 71.1901 1206.97 71.2937 1206.42 71.3882C1202.32 71.9495 1198.43 73.1893 1195.02 75.0211C1194.91 75.0858 1194.81 75.1673 1194.74 75.2609C1194.66 75.3546 1194.61 75.4585 1194.59 75.5667C1194.57 75.6749 1194.58 75.7852 1194.61 75.8914C1194.65 75.9975 1194.71 76.0974 1194.8 76.1852C1194.88 76.273 1194.99 76.3471 1195.11 76.4031C1195.24 76.4591 1195.37 76.496 1195.52 76.5117C1195.66 76.5273 1195.8 76.5213 1195.94 76.4942C1196.08 76.467 1196.21 76.4191 1196.32 76.3533C1199.49 74.666 1203.1 73.5248 1206.9 73.0084C1208.8 72.6842 1209.98 72.4838 1210.17 71.6769Z" fill="#133441"/>
<path d="M1175.3 56.0278C1175.53 55.118 1175.39 54.1766 1174.9 53.3262C1173.23 50.4265 1167.83 48.8466 1163.12 49.8761C1162.98 49.906 1162.85 49.9563 1162.74 50.0241C1162.63 50.0918 1162.54 50.1757 1162.47 50.271C1162.4 50.3663 1162.35 50.4711 1162.34 50.5794C1162.32 50.6876 1162.34 50.7973 1162.38 50.9021C1162.42 51.0069 1162.48 51.1048 1162.57 51.1902C1162.66 51.2756 1162.77 51.3467 1162.89 51.3997C1163.02 51.4526 1163.16 51.4863 1163.3 51.4987C1163.44 51.5112 1163.58 51.5022 1163.72 51.4723C1167.38 50.6725 1171.68 51.8498 1172.92 53.9915C1174.06 55.9788 1172.15 58.3187 1167.65 60.4119C1167.41 60.5263 1167.23 60.7107 1167.17 60.9246C1167.1 61.1384 1167.15 61.3642 1167.3 61.5522C1167.45 61.7402 1167.69 61.8751 1167.97 61.9272C1168.25 61.9793 1168.55 61.9443 1168.79 61.8299C1173.32 59.7174 1174.92 57.6527 1175.3 56.0278Z" fill="#133441"/>
<path d="M1161.62 53.0308C1160.92 53.071 1160.22 52.8976 1159.68 52.548C1159.31 52.2943 1159.05 51.9685 1158.91 51.607C1158.77 51.2455 1158.77 50.8625 1158.9 50.5007C1159.06 49.9286 1159.46 49.413 1160.04 49.0318C1160.62 48.6505 1161.35 48.4243 1162.12 48.3874C1162.63 48.3912 1164.34 48.5551 1164.98 50.5021C1165.14 50.9364 1165.18 51.3912 1165.09 51.836C1165.03 52.1597 1164.85 52.4626 1164.56 52.7074C1164.28 52.9522 1163.91 53.1282 1163.5 53.2139C1162.86 53.3271 1162.2 53.2622 1161.62 53.0308Z" fill="#133441"/>
<path d="M1138.42 74.241L1140.08 67.2938M1144.19 59.5318L1149.28 54.0428" stroke="#133441" stroke-width="2" stroke-linecap="round"/>
<path d="M91.7664 12.7947L91.7665 12.7946C94.3715 5.62548 101.528 -0.00978496 110.445 -3.53395C117.42 -6.18204 124.928 -7.89231 132.638 -8.5897C142.894 -9.50591 153.255 -8.24435 162.59 -4.94334L162.602 -4.93891L162.602 -4.93897C166.807 -3.50026 171.495 -1.36823 175.413 1.31436C179.338 4.00228 182.414 7.19029 183.543 10.7328L183.543 10.7331C185.623 17.2481 181.093 23.8912 173.364 26.9959L91.7664 12.7947ZM91.7664 12.7947C91.2967 14.0869 90.9811 15.4081 90.8238 16.742L90.8237 16.7428C90.1532 22.3676 93.4839 28.6915 100.173 30.9661C103.524 32.1055 107.192 32.0776 111.05 31.6104C112.977 31.377 114.915 31.0391 116.866 30.6959L117.039 30.6656C118.917 30.335 120.812 30.0016 122.653 29.7738C127.671 29.1159 132.762 28.8669 137.84 29.0309L137.84 29.0308M91.7664 12.7947L137.84 29.0308M137.84 29.0308L137.852 29.0313M137.84 29.0308L137.852 29.0313M137.852 29.0313C140.244 29.1287 142.582 29.2784 144.89 29.4262M137.852 29.0313L144.89 29.4262M144.89 29.4262C148.683 29.6691 152.393 29.9067 156.127 29.8979M144.89 29.4262L156.127 29.8979M156.127 29.8979C162.05 29.8839 167.785 29.2368 173.364 26.9959L156.127 29.8979Z" stroke="#133441" stroke-width="2"/>
<path d="M91.3302 41.916C91.3495 41.947 91.3712 41.9779 91.395 42.0091C92.1132 42.9515 94.1484 43.4788 94.549 43.575C94.8217 43.638 95.1167 43.6157 95.37 43.5129C95.6233 43.4102 95.8144 43.2353 95.9018 43.0263C95.9892 42.8173 95.9658 42.5911 95.8369 42.3966C95.7079 42.2022 95.4836 42.0553 95.2128 41.9878C94.6232 41.8457 94.0639 41.6393 93.552 41.3748C93.7956 41.1285 94.207 40.7683 94.5834 40.4391C97.469 38.1171 99.664 35.3443 101.015 32.3145C101.059 32.2098 101.075 32.0998 101.063 31.9906C101.051 31.8815 101.011 31.7754 100.945 31.6786C100.879 31.5818 100.789 31.4961 100.679 31.4264C100.57 31.3567 100.443 31.3044 100.307 31.2726C100.17 31.2408 100.027 31.23 99.8843 31.2409C99.742 31.2517 99.6036 31.2841 99.4771 31.3361C99.3507 31.388 99.2387 31.4585 99.1475 31.5436C99.0564 31.6286 98.9879 31.7265 98.946 31.8315C97.6787 34.6353 95.6359 37.2002 92.9583 39.3493C91.6693 40.4776 90.8697 41.1766 91.3302 41.916Z" fill="#133441"/>
<path d="M85.1059 5.83072C85.2626 6.08271 85.4662 6.31567 85.7104 6.52233C88.0702 8.52485 93.2898 7.17454 93.8772 7.01408C94.1475 6.93917 94.3691 6.78547 94.4934 6.58662C94.6178 6.38777 94.6349 6.15992 94.5409 5.95291C94.447 5.74591 94.2496 5.57658 93.992 5.48195C93.7344 5.38732 93.4375 5.3751 93.1663 5.44795C92.0282 5.75685 88.5119 6.4113 87.3237 5.40064C86.4244 4.63577 86.8084 2.78868 88.4058 0.200036C88.4871 0.06765 88.5218 -0.0784464 88.5067 -0.223695C88.4915 -0.368943 88.4269 -0.508274 88.3194 -0.6278C87.9174 -1.06019 87.377 -1.40561 86.7496 -1.63127C86.1222 -1.85693 85.4286 -1.95534 84.7347 -1.91713C84.5919 -1.90724 84.4529 -1.87576 84.3256 -1.82453C84.1983 -1.7733 84.0854 -1.70334 83.9932 -1.61867C83.901 -1.53399 83.8314 -1.43629 83.7885 -1.33122C83.7456 -1.22615 83.7302 -1.11578 83.7432 -1.00648C83.7561 -0.897193 83.7972 -0.791137 83.8641 -0.69446C83.9309 -0.597783 84.0223 -0.512406 84.1327 -0.443233C84.2432 -0.374061 84.3706 -0.322459 84.5076 -0.291445C84.6446 -0.260431 84.7886 -0.250621 84.9311 -0.262542C85.3663 -0.28856 85.7964 -0.185775 86.1331 0.0246535C84.6343 2.61333 84.2941 4.52711 85.1059 5.83072Z" fill="#133441"/>
<path d="M131.442 38.6752C131.955 39.5121 132.787 40.2087 133.829 40.6743C137.395 42.2537 142.961 41.0717 145.983 38.0932C146.07 38.0066 146.135 37.9078 146.173 37.8024C146.212 37.6969 146.222 37.5869 146.205 37.4787C146.188 37.3704 146.143 37.266 146.073 37.1714C146.003 37.0767 145.909 36.9938 145.797 36.9272C145.685 36.8607 145.557 36.8118 145.42 36.7835C145.283 36.7551 145.139 36.7478 144.998 36.7619C144.857 36.776 144.72 36.8114 144.596 36.8659C144.472 36.9204 144.363 36.993 144.275 37.0796C141.928 39.3931 137.559 40.3992 134.925 39.2324C132.481 38.1499 132.244 35.3866 134.273 31.6507C134.383 31.4466 134.384 31.2177 134.275 31.0145C134.166 30.8113 133.956 30.6503 133.691 30.5671C133.425 30.4838 133.127 30.4851 132.861 30.5706C132.595 30.6561 132.383 30.8188 132.272 31.0229C130.225 34.7929 130.515 37.1862 131.442 38.6752Z" fill="#133441"/>
<path d="M144.779 34.8661C145.318 34.5121 146.016 34.3336 146.721 34.369C147.209 34.408 147.672 34.5503 148.058 34.7801C148.444 35.0098 148.739 35.3179 148.909 35.6701C149.215 36.2057 149.285 36.8047 149.108 37.3767C148.931 37.9486 148.516 38.4625 147.927 38.8405C147.511 39.0702 145.999 39.7199 143.996 38.4386C143.536 38.1601 143.16 37.8088 142.894 37.4084C142.695 37.1197 142.611 36.792 142.652 36.4656C142.694 36.1391 142.858 35.8283 143.126 35.5712C143.55 35.1919 144.137 34.9416 144.779 34.8661Z" fill="#133441"/>
<path d="M147.325 7.16797L151.29 13.5343M153.892 21.6778L153.979 28.4251" stroke="#133441" stroke-width="2" stroke-linecap="round"/>
<path d="M234.887 -32.997L234.887 -32.997C242.608 -28.5366 246.838 -21.3487 247.881 -13.6514C248.567 -7.67065 247.927 -1.64442 245.99 4.16261C243.4 11.8823 238.141 18.8922 230.791 24.4268L230.781 24.4342L230.781 24.4343C227.528 26.9448 223.264 29.5534 218.613 31.4083C213.953 33.2669 208.997 34.3328 204.315 33.8697L204.315 33.8697C195.704 33.0207 189.307 27.3664 188.341 20.6723L234.887 -32.997ZM234.887 -32.997C233.496 -33.801 232.014 -34.5043 230.46 -35.0982L230.459 -35.0986C223.91 -37.6075 215.078 -37.4867 209.924 -33.4904L209.13 -34.0996L209.924 -33.4904C207.34 -31.4873 206.051 -28.8332 205.224 -25.8844C204.812 -24.412 204.521 -22.8934 204.233 -21.3642L204.207 -21.2294C203.93 -19.7567 203.65 -18.2722 203.261 -16.8642C202.248 -13.0124 200.714 -9.25597 198.686 -5.6576L198.686 -5.65758M234.887 -32.997L198.686 -5.65758M198.686 -5.65758L198.681 -5.64905M198.686 -5.65758L198.681 -5.64905M198.681 -5.64905C197.702 -3.96115 196.679 -2.33079 195.668 -0.721443M198.681 -5.64905L195.668 -0.721443M195.668 -0.721443C194.008 1.92314 192.384 4.51096 191.049 7.20403M195.668 -0.721443L191.049 7.20403M191.049 7.20403C188.931 11.4765 187.645 15.8428 188.341 20.6722L191.049 7.20403Z" stroke="#133441" stroke-width="2"/>
<path d="M189.132 -2.75632C189.365 -2.24012 189.329 -1.67343 189.032 -1.17832C188.81 -0.840888 188.471 -0.558662 188.054 -0.363117C187.637 -0.167571 187.159 -0.0664195 186.672 -0.0709496C185.915 -0.0432439 185.166 -0.208764 184.539 -0.542541C183.912 -0.876319 183.441 -1.3602 183.197 -1.92106C183.069 -2.3032 182.829 -3.62663 185.099 -4.60784C185.601 -4.83862 186.161 -4.98275 186.74 -5.03052C187.161 -5.06971 187.587 -5.01206 187.966 -4.86466C188.346 -4.71726 188.662 -4.48651 188.876 -4.20087C189.181 -3.75884 189.272 -3.24592 189.132 -2.75632Z" fill="#133441"/>
<path d="M255.073 -4.31189C255.011 -4.30814 254.949 -4.30014 254.889 -4.28798C254.613 -4.23273 254.377 -4.09418 254.232 -3.90276C254.088 -3.71134 254.046 -3.48276 254.118 -3.26726C255.061 -0.413904 253.431 2.86759 250.629 3.75508C248.03 4.57904 245.048 3.0241 242.451 -0.511865C242.309 -0.705025 242.075 -0.846399 241.8 -0.904894C241.525 -0.963389 241.232 -0.934197 240.984 -0.82376C240.737 -0.713324 240.557 -0.530681 240.482 -0.316006C240.408 -0.101331 240.446 0.127779 240.588 0.320939C245.12 6.49123 249.687 5.86583 251.44 5.30961C255.234 4.10777 257.413 -0.0110203 256.198 -3.68401C256.135 -3.87512 255.987 -4.0428 255.781 -4.15762C255.576 -4.27244 255.325 -4.32706 255.073 -4.31189Z" fill="#133441"/>
<path d="M221.67 9.05981L212.551 9.62154M201.777 8.56146L193.596 6.19243" stroke="#133441" stroke-width="2" stroke-linecap="round"/>
<path d="M191.665 100.535L191.665 100.535C193.394 100.666 195.134 100.675 196.861 100.562L196.862 100.562C204.144 100.088 211.611 96.455 213.34 90.9783C214.207 88.2312 213.529 85.4441 212.258 82.59C211.624 81.1651 210.853 79.7495 210.075 78.326L210.006 78.2007C209.256 76.8297 208.5 75.4481 207.888 74.0886C206.172 70.3888 204.965 66.5626 204.287 62.6738L204.287 62.6738L204.285 62.6646C203.991 60.8294 203.773 59.0255 203.558 57.2448C203.205 54.3183 202.859 51.4543 202.195 48.6164C201.141 44.1139 199.312 39.8628 195.476 36.0082C190.155 30.6626 180.889 28.3882 172.96 31.1037L172.96 31.1039C168.648 32.5789 165.125 35.4709 162.386 38.9241C159.652 42.3703 157.754 46.3068 156.655 49.7554L156.655 49.7554L156.651 49.7658C154.075 57.4403 154.278 65.5413 157.24 73.1828C159.478 78.9255 162.973 84.3372 167.57 89.18C173.627 95.3496 182.069 99.8075 191.665 100.535Z" stroke="#133441" stroke-width="2"/>
<path d="M217.704 65.8392C218.682 65.3023 219.424 64.548 219.836 63.6746C221.226 60.6866 218.746 56.6613 214.42 54.8844C214.294 54.8327 214.157 54.8008 214.016 54.7902C213.875 54.7795 213.733 54.7906 213.598 54.8226C213.463 54.8546 213.337 54.907 213.229 54.9767C213.121 55.0465 213.031 55.1322 212.966 55.2291C212.901 55.326 212.861 55.4321 212.849 55.5413C212.837 55.6506 212.852 55.7609 212.895 55.8659C212.938 55.9709 213.007 56.0685 213.098 56.1533C213.189 56.238 213.301 56.3082 213.426 56.3599C216.786 57.7399 218.833 60.8865 217.806 63.0932C216.853 65.1409 213.372 65.8044 208.254 64.9149C207.974 64.8663 207.682 64.9056 207.442 65.0241C207.202 65.1426 207.034 65.3307 206.974 65.5469C206.914 65.7632 206.968 65.9899 207.124 66.1772C207.279 66.3644 207.524 66.497 207.803 66.5456C212.968 67.4432 215.968 66.8046 217.704 65.8392Z" fill="#133441"/>
<path d="M210.516 56.3637C209.971 56.0154 209.621 55.5164 209.543 54.9741C209.507 54.5963 209.608 54.2194 209.833 53.8854C210.059 53.5515 210.4 53.2736 210.819 53.0829C211.448 52.7563 212.2 52.5984 212.96 52.6331C213.72 52.6678 214.448 52.8933 215.033 53.2754C215.398 53.5512 216.491 54.5874 215.208 56.3345C214.933 56.7328 214.551 57.0799 214.087 57.3527C213.754 57.5543 213.351 57.6754 212.927 57.7011C212.504 57.7267 212.079 57.6558 211.704 57.497C211.146 57.241 210.725 56.8386 210.516 56.3637Z" fill="#133441"/>
<path d="M155.151 84.0692C155.202 84.0412 155.249 84.0097 155.292 83.9753C155.491 83.8177 155.6 83.6047 155.596 83.3831C155.591 83.1614 155.473 82.9494 155.268 82.7935C152.547 80.73 151.741 77.2709 153.542 75.3911C155.214 73.6465 158.807 73.7842 163.4 75.7702C163.651 75.8787 163.946 75.9059 164.22 75.8459C164.495 75.786 164.726 75.6437 164.864 75.4504C165.001 75.257 165.033 75.0286 164.953 74.8152C164.872 74.6018 164.686 74.4209 164.435 74.3124C156.42 70.8471 152.933 73.2085 151.806 74.3856C149.367 76.9311 150.265 81.3259 153.767 83.9822C153.95 84.1203 154.189 84.2047 154.442 84.2206C154.695 84.2365 154.946 84.1829 155.151 84.0692Z" fill="#133441"/>
<path d="M174.758 59.2703L182.182 55.1426M192.109 51.7401L200.696 50.4945" stroke="#133441" stroke-width="2" stroke-linecap="round"/>
<path d="M354.766 12.7947L354.766 12.7946C357.371 5.62548 364.528 -0.00978496 373.445 -3.53395C380.42 -6.18204 387.928 -7.89231 395.638 -8.5897C405.894 -9.50591 416.255 -8.24435 425.59 -4.94334L425.602 -4.93891L425.602 -4.93897C429.807 -3.50026 434.495 -1.36823 438.413 1.31436C442.338 4.00228 445.414 7.19029 446.543 10.7328L446.543 10.7331C448.623 17.2481 444.093 23.8912 436.364 26.9959L354.766 12.7947ZM354.766 12.7947C354.297 14.0869 353.981 15.4081 353.824 16.742L353.824 16.7428C353.153 22.3676 356.484 28.6915 363.173 30.9661C366.524 32.1055 370.192 32.0776 374.05 31.6104C375.977 31.377 377.915 31.0391 379.866 30.6959L380.039 30.6656C381.917 30.335 383.812 30.0016 385.653 29.7738C390.671 29.1159 395.762 28.8669 400.84 29.0309L400.84 29.0308M354.766 12.7947L400.84 29.0308M400.84 29.0308L400.852 29.0313M400.84 29.0308L400.852 29.0313M400.852 29.0313C403.244 29.1287 405.582 29.2784 407.89 29.4262M400.852 29.0313L407.89 29.4262M407.89 29.4262C411.683 29.6691 415.393 29.9067 419.127 29.8979M407.89 29.4262L419.127 29.8979M419.127 29.8979C425.05 29.8839 430.785 29.2368 436.364 26.9959L419.127 29.8979Z" stroke="#133441" stroke-width="2"/>
<path d="M354.33 41.916C354.349 41.947 354.371 41.9779 354.395 42.0091C355.113 42.9515 357.148 43.4788 357.549 43.575C357.822 43.638 358.117 43.6157 358.37 43.5129C358.623 43.4102 358.814 43.2353 358.902 43.0263C358.989 42.8173 358.966 42.5911 358.837 42.3966C358.708 42.2022 358.484 42.0553 358.213 41.9878C357.623 41.8457 357.064 41.6393 356.552 41.3748C356.796 41.1285 357.207 40.7683 357.583 40.4391C360.469 38.1171 362.664 35.3443 364.015 32.3145C364.059 32.2098 364.075 32.0998 364.063 31.9906C364.051 31.8815 364.011 31.7754 363.945 31.6786C363.879 31.5818 363.789 31.4961 363.679 31.4264C363.57 31.3567 363.443 31.3044 363.307 31.2726C363.17 31.2408 363.027 31.23 362.884 31.2409C362.742 31.2517 362.604 31.2841 362.477 31.3361C362.351 31.388 362.239 31.4585 362.148 31.5436C362.056 31.6286 361.988 31.7265 361.946 31.8315C360.679 34.6353 358.636 37.2002 355.958 39.3493C354.669 40.4776 353.87 41.1766 354.33 41.916Z" fill="#133441"/>
<path d="M348.106 5.83072C348.263 6.08271 348.466 6.31567 348.71 6.52233C351.07 8.52485 356.29 7.17454 356.877 7.01408C357.148 6.93917 357.369 6.78547 357.493 6.58662C357.618 6.38777 357.635 6.15992 357.541 5.95291C357.447 5.74591 357.25 5.57658 356.992 5.48195C356.734 5.38732 356.438 5.3751 356.166 5.44795C355.028 5.75685 351.512 6.4113 350.324 5.40064C349.424 4.63577 349.808 2.78868 351.406 0.200036C351.487 0.06765 351.522 -0.0784464 351.507 -0.223695C351.492 -0.368943 351.427 -0.508274 351.319 -0.6278C350.917 -1.06019 350.377 -1.40561 349.75 -1.63127C349.122 -1.85693 348.429 -1.95534 347.735 -1.91713C347.592 -1.90724 347.453 -1.87576 347.326 -1.82453C347.198 -1.7733 347.085 -1.70334 346.993 -1.61867C346.901 -1.53399 346.831 -1.43629 346.789 -1.33122C346.746 -1.22615 346.73 -1.11578 346.743 -1.00648C346.756 -0.897193 346.797 -0.791137 346.864 -0.69446C346.931 -0.597783 347.022 -0.512406 347.133 -0.443233C347.243 -0.374061 347.371 -0.322459 347.508 -0.291445C347.645 -0.260431 347.789 -0.250621 347.931 -0.262542C348.366 -0.28856 348.796 -0.185775 349.133 0.0246535C347.634 2.61333 347.294 4.52711 348.106 5.83072Z" fill="#133441"/>
<path d="M394.442 38.6752C394.955 39.5121 395.787 40.2087 396.829 40.6743C400.395 42.2537 405.961 41.0717 408.983 38.0932C409.07 38.0066 409.135 37.9078 409.173 37.8024C409.212 37.6969 409.222 37.5869 409.205 37.4787C409.188 37.3704 409.143 37.266 409.073 37.1714C409.003 37.0767 408.909 36.9938 408.797 36.9272C408.685 36.8607 408.557 36.8118 408.42 36.7835C408.283 36.7551 408.139 36.7478 407.998 36.7619C407.857 36.776 407.72 36.8114 407.596 36.8659C407.472 36.9204 407.363 36.993 407.275 37.0796C404.928 39.3931 400.559 40.3992 397.925 39.2324C395.481 38.1499 395.244 35.3866 397.273 31.6507C397.383 31.4466 397.384 31.2177 397.275 31.0145C397.166 30.8113 396.956 30.6503 396.69 30.5671C396.425 30.4838 396.127 30.4851 395.861 30.5706C395.595 30.6561 395.383 30.8188 395.272 31.0229C393.225 34.7929 393.515 37.1862 394.442 38.6752Z" fill="#133441"/>
<path d="M407.779 34.8661C408.318 34.5121 409.016 34.3336 409.721 34.369C410.209 34.408 410.672 34.5503 411.058 34.7801C411.444 35.0098 411.739 35.3179 411.909 35.6701C412.215 36.2057 412.285 36.8047 412.108 37.3767C411.931 37.9486 411.516 38.4625 410.927 38.8405C410.511 39.0702 408.999 39.7199 406.996 38.4386C406.536 38.1601 406.16 37.8088 405.894 37.4084C405.695 37.1197 405.611 36.792 405.652 36.4656C405.694 36.1391 405.859 35.8283 406.126 35.5712C406.55 35.1919 407.137 34.9416 407.779 34.8661Z" fill="#133441"/>
<path d="M410.325 7.16797L414.29 13.5343M416.892 21.6778L416.979 28.4251" stroke="#133441" stroke-width="2" stroke-linecap="round"/>
<path d="M497.887 -32.997L497.888 -32.997C505.608 -28.5366 509.838 -21.3487 510.881 -13.6514C511.567 -7.67065 510.927 -1.64442 508.99 4.16261C506.4 11.8823 501.141 18.8922 493.791 24.4268L493.781 24.4342L493.781 24.4343C490.528 26.9448 486.264 29.5534 481.613 31.4083C476.953 33.2669 471.997 34.3328 467.315 33.8697L467.315 33.8697C458.704 33.0207 452.307 27.3664 451.341 20.6723L497.887 -32.997ZM497.887 -32.997C496.496 -33.801 495.014 -34.5043 493.46 -35.0982L493.459 -35.0986C486.91 -37.6075 478.078 -37.4867 472.924 -33.4904L472.13 -34.0996L472.924 -33.4904C470.34 -31.4873 469.051 -28.8332 468.224 -25.8844C467.812 -24.412 467.521 -22.8934 467.233 -21.3642L467.207 -21.2294C466.93 -19.7567 466.65 -18.2722 466.261 -16.8642C465.248 -13.0124 463.714 -9.25597 461.686 -5.6576L461.686 -5.65758M497.887 -32.997L461.686 -5.65758M461.686 -5.65758L461.682 -5.64905M461.686 -5.65758L461.682 -5.64905M461.682 -5.64905C460.702 -3.96115 459.679 -2.33079 458.668 -0.721443M461.682 -5.64905L458.668 -0.721443M458.668 -0.721443C457.008 1.92314 455.384 4.51096 454.049 7.20403M458.668 -0.721443L454.049 7.20403M454.049 7.20403C451.931 11.4765 450.645 15.8428 451.341 20.6722L454.049 7.20403Z" stroke="#133441" stroke-width="2"/>
<path d="M452.132 -2.75632C452.365 -2.24012 452.329 -1.67343 452.032 -1.17832C451.81 -0.840888 451.471 -0.558662 451.054 -0.363117C450.637 -0.167571 450.159 -0.0664195 449.672 -0.0709496C448.915 -0.0432439 448.166 -0.208764 447.539 -0.542541C446.912 -0.876319 446.441 -1.3602 446.197 -1.92106C446.069 -2.3032 445.829 -3.62663 448.099 -4.60784C448.601 -4.83862 449.161 -4.98275 449.74 -5.03052C450.161 -5.06971 450.587 -5.01206 450.966 -4.86466C451.346 -4.71726 451.662 -4.48651 451.876 -4.20087C452.181 -3.75884 452.272 -3.24592 452.132 -2.75632Z" fill="#133441"/>
<path d="M518.073 -4.31189C518.011 -4.30814 517.949 -4.30014 517.889 -4.28798C517.613 -4.23273 517.377 -4.09418 517.232 -3.90276C517.088 -3.71134 517.046 -3.48276 517.118 -3.26726C518.061 -0.413904 516.431 2.86759 513.629 3.75508C511.03 4.57904 508.048 3.0241 505.451 -0.511865C505.309 -0.705025 505.075 -0.846399 504.8 -0.904894C504.525 -0.963389 504.232 -0.934197 503.985 -0.82376C503.737 -0.713324 503.557 -0.530681 503.482 -0.316006C503.408 -0.101331 503.446 0.127779 503.588 0.320939C508.12 6.49123 512.687 5.86583 514.44 5.30961C518.234 4.10777 520.413 -0.0110203 519.198 -3.68401C519.135 -3.87512 518.987 -4.0428 518.781 -4.15762C518.576 -4.27244 518.325 -4.32706 518.073 -4.31189Z" fill="#133441"/>
<path d="M484.67 9.05981L475.551 9.62154M464.777 8.56146L456.596 6.19243" stroke="#133441" stroke-width="2" stroke-linecap="round"/>
<path d="M454.665 100.535L454.665 100.535C456.394 100.666 458.134 100.675 459.861 100.562L459.862 100.562C467.144 100.088 474.611 96.455 476.34 90.9783C477.207 88.2312 476.529 85.4441 475.258 82.59C474.624 81.1651 473.853 79.7495 473.075 78.326L473.006 78.2007C472.256 76.8297 471.5 75.4481 470.888 74.0886C469.172 70.3888 467.965 66.5626 467.287 62.6738L467.287 62.6738L467.285 62.6646C466.991 60.8294 466.773 59.0255 466.558 57.2448C466.205 54.3183 465.859 51.4543 465.195 48.6164C464.141 44.1139 462.312 39.8628 458.476 36.0082C453.155 30.6626 443.889 28.3882 435.96 31.1037L435.96 31.1039C431.648 32.5789 428.125 35.4709 425.386 38.9241C422.652 42.3703 420.754 46.3068 419.655 49.7554L419.655 49.7554L419.651 49.7658C417.075 57.4403 417.278 65.5413 420.24 73.1828C422.478 78.9255 425.973 84.3372 430.57 89.18C436.627 95.3496 445.069 99.8075 454.665 100.535Z" stroke="#133441" stroke-width="2"/>
<path d="M480.704 65.8392C481.682 65.3023 482.424 64.548 482.836 63.6746C484.226 60.6866 481.746 56.6613 477.42 54.8844C477.294 54.8327 477.157 54.8008 477.016 54.7902C476.875 54.7795 476.733 54.7906 476.598 54.8226C476.463 54.8546 476.337 54.907 476.229 54.9767C476.121 55.0465 476.031 55.1322 475.966 55.2291C475.901 55.326 475.861 55.4321 475.849 55.5413C475.837 55.6506 475.852 55.7609 475.895 55.8659C475.938 55.9709 476.007 56.0685 476.098 56.1533C476.189 56.238 476.301 56.3082 476.426 56.3599C479.786 57.7399 481.833 60.8865 480.806 63.0932C479.853 65.1409 476.372 65.8044 471.254 64.9149C470.974 64.8663 470.682 64.9056 470.442 65.0241C470.202 65.1426 470.034 65.3307 469.974 65.5469C469.914 65.7632 469.968 65.9899 470.124 66.1772C470.279 66.3644 470.524 66.497 470.803 66.5456C475.968 67.4432 478.968 66.8046 480.704 65.8392Z" fill="#133441"/>
<path d="M473.516 56.3637C472.971 56.0154 472.621 55.5164 472.543 54.9741C472.507 54.5963 472.608 54.2194 472.833 53.8854C473.059 53.5515 473.4 53.2736 473.819 53.0829C474.448 52.7563 475.2 52.5984 475.96 52.6331C476.72 52.6678 477.448 52.8933 478.033 53.2754C478.398 53.5512 479.491 54.5874 478.208 56.3345C477.933 56.7328 477.551 57.0799 477.087 57.3527C476.754 57.5543 476.351 57.6754 475.927 57.7011C475.504 57.7267 475.079 57.6558 474.704 57.497C474.146 57.241 473.725 56.8386 473.516 56.3637Z" fill="#133441"/>
<path d="M418.151 84.0692C418.202 84.0412 418.249 84.0097 418.292 83.9753C418.491 83.8177 418.6 83.6047 418.596 83.3831C418.591 83.1614 418.473 82.9494 418.268 82.7935C415.547 80.73 414.741 77.2709 416.542 75.3911C418.214 73.6465 421.807 73.7842 426.4 75.7702C426.651 75.8787 426.946 75.9059 427.22 75.8459C427.495 75.786 427.726 75.6437 427.864 75.4504C428.001 75.257 428.033 75.0286 427.953 74.8152C427.872 74.6018 427.686 74.4209 427.435 74.3124C419.42 70.8471 415.933 73.2085 414.806 74.3856C412.367 76.9311 413.265 81.3259 416.767 83.9822C416.95 84.1203 417.189 84.2047 417.442 84.2206C417.695 84.2365 417.946 84.1829 418.151 84.0692Z" fill="#133441"/>
<path d="M437.758 59.2703L445.182 55.1426M455.109 51.7401L463.696 50.4945" stroke="#133441" stroke-width="2" stroke-linecap="round"/>
<path d="M619.766 12.7947L619.766 12.7946C622.371 5.62548 629.528 -0.00978496 638.445 -3.53395C645.42 -6.18204 652.928 -7.89231 660.638 -8.5897C670.894 -9.50591 681.255 -8.24435 690.59 -4.94334L690.602 -4.93891L690.602 -4.93897C694.807 -3.50026 699.495 -1.36823 703.413 1.31436C707.338 4.00228 710.414 7.19029 711.543 10.7328L711.543 10.7331C713.623 17.2481 709.093 23.8912 701.364 26.9959L619.766 12.7947ZM619.766 12.7947C619.297 14.0869 618.981 15.4081 618.824 16.742L618.824 16.7428C618.153 22.3676 621.484 28.6915 628.173 30.9661C631.524 32.1055 635.192 32.0776 639.05 31.6104C640.977 31.377 642.915 31.0391 644.866 30.6959L645.039 30.6656C646.917 30.335 648.812 30.0016 650.653 29.7738C655.671 29.1159 660.762 28.8669 665.84 29.0309L665.84 29.0308M619.766 12.7947L665.84 29.0308M665.84 29.0308L665.852 29.0313M665.84 29.0308L665.852 29.0313M665.852 29.0313C668.244 29.1287 670.582 29.2784 672.89 29.4262M665.852 29.0313L672.89 29.4262M672.89 29.4262C676.683 29.6691 680.393 29.9067 684.127 29.8979M672.89 29.4262L684.127 29.8979M684.127 29.8979C690.05 29.8839 695.785 29.2368 701.364 26.9959L684.127 29.8979Z" stroke="#133441" stroke-width="2"/>
<path d="M619.33 41.916C619.349 41.947 619.371 41.9779 619.395 42.0091C620.113 42.9515 622.148 43.4788 622.549 43.575C622.822 43.638 623.117 43.6157 623.37 43.5129C623.623 43.4102 623.814 43.2353 623.902 43.0263C623.989 42.8173 623.966 42.5911 623.837 42.3966C623.708 42.2022 623.484 42.0553 623.213 41.9878C622.623 41.8457 622.064 41.6393 621.552 41.3748C621.796 41.1285 622.207 40.7683 622.583 40.4391C625.469 38.1171 627.664 35.3443 629.015 32.3145C629.059 32.2098 629.075 32.0998 629.063 31.9906C629.051 31.8815 629.011 31.7754 628.945 31.6786C628.879 31.5818 628.789 31.4961 628.679 31.4264C628.57 31.3567 628.443 31.3044 628.307 31.2726C628.17 31.2408 628.027 31.23 627.884 31.2409C627.742 31.2517 627.604 31.2841 627.477 31.3361C627.351 31.388 627.239 31.4585 627.148 31.5436C627.056 31.6286 626.988 31.7265 626.946 31.8315C625.679 34.6353 623.636 37.2002 620.958 39.3493C619.669 40.4776 618.87 41.1766 619.33 41.916Z" fill="#133441"/>
<path d="M613.106 5.83072C613.263 6.08271 613.466 6.31567 613.71 6.52233C616.07 8.52485 621.29 7.17454 621.877 7.01408C622.148 6.93917 622.369 6.78547 622.493 6.58662C622.618 6.38777 622.635 6.15992 622.541 5.95291C622.447 5.74591 622.25 5.57658 621.992 5.48195C621.734 5.38732 621.438 5.3751 621.166 5.44795C620.028 5.75685 616.512 6.4113 615.324 5.40064C614.424 4.63577 614.808 2.78868 616.406 0.200036C616.487 0.06765 616.522 -0.0784464 616.507 -0.223695C616.492 -0.368943 616.427 -0.508274 616.319 -0.6278C615.917 -1.06019 615.377 -1.40561 614.75 -1.63127C614.122 -1.85693 613.429 -1.95534 612.735 -1.91713C612.592 -1.90724 612.453 -1.87576 612.326 -1.82453C612.198 -1.7733 612.085 -1.70334 611.993 -1.61867C611.901 -1.53399 611.831 -1.43629 611.789 -1.33122C611.746 -1.22615 611.73 -1.11578 611.743 -1.00648C611.756 -0.897193 611.797 -0.791137 611.864 -0.69446C611.931 -0.597783 612.022 -0.512406 612.133 -0.443233C612.243 -0.374061 612.371 -0.322459 612.508 -0.291445C612.645 -0.260431 612.789 -0.250621 612.931 -0.262542C613.366 -0.28856 613.796 -0.185775 614.133 0.0246535C612.634 2.61333 612.294 4.52711 613.106 5.83072Z" fill="#133441"/>
<path d="M659.442 38.6752C659.955 39.5121 660.787 40.2087 661.829 40.6743C665.395 42.2537 670.961 41.0717 673.983 38.0932C674.07 38.0066 674.135 37.9078 674.173 37.8024C674.212 37.6969 674.222 37.5869 674.205 37.4787C674.188 37.3704 674.143 37.266 674.073 37.1714C674.003 37.0767 673.909 36.9938 673.797 36.9272C673.685 36.8607 673.557 36.8118 673.42 36.7835C673.283 36.7551 673.139 36.7478 672.998 36.7619C672.857 36.776 672.72 36.8114 672.596 36.8659C672.472 36.9204 672.363 36.993 672.275 37.0796C669.928 39.3931 665.559 40.3992 662.925 39.2324C660.481 38.1499 660.244 35.3866 662.273 31.6507C662.383 31.4466 662.384 31.2177 662.275 31.0145C662.166 30.8113 661.956 30.6503 661.69 30.5671C661.425 30.4838 661.127 30.4851 660.861 30.5706C660.595 30.6561 660.383 30.8188 660.272 31.0229C658.225 34.7929 658.515 37.1862 659.442 38.6752Z" fill="#133441"/>
<path d="M672.779 34.8661C673.318 34.5121 674.016 34.3336 674.721 34.369C675.209 34.408 675.672 34.5503 676.058 34.7801C676.444 35.0098 676.739 35.3179 676.909 35.6701C677.215 36.2057 677.285 36.8047 677.108 37.3767C676.931 37.9486 676.516 38.4625 675.927 38.8405C675.511 39.0702 673.999 39.7199 671.996 38.4386C671.536 38.1601 671.16 37.8088 670.894 37.4084C670.695 37.1197 670.611 36.792 670.652 36.4656C670.694 36.1391 670.859 35.8283 671.126 35.5712C671.55 35.1919 672.137 34.9416 672.779 34.8661Z" fill="#133441"/>
<path d="M675.325 7.16797L679.29 13.5343M681.892 21.6778L681.979 28.4251" stroke="#133441" stroke-width="2" stroke-linecap="round"/>
<path d="M762.887 -32.997L762.887 -32.997C770.608 -28.5366 774.838 -21.3487 775.881 -13.6514C776.567 -7.67065 775.927 -1.64442 773.99 4.16261C771.4 11.8823 766.141 18.8922 758.791 24.4268L758.781 24.4342L758.781 24.4343C755.528 26.9448 751.264 29.5534 746.613 31.4083C741.953 33.2669 736.997 34.3328 732.315 33.8697L732.315 33.8697C723.704 33.0207 717.307 27.3664 716.341 20.6723L762.887 -32.997ZM762.887 -32.997C761.496 -33.801 760.014 -34.5043 758.46 -35.0982L758.459 -35.0986C751.91 -37.6075 743.078 -37.4867 737.924 -33.4904L737.13 -34.0996L737.924 -33.4904C735.34 -31.4873 734.051 -28.8332 733.224 -25.8844C732.812 -24.412 732.521 -22.8934 732.233 -21.3642L732.207 -21.2294C731.93 -19.7567 731.65 -18.2722 731.261 -16.8642C730.248 -13.0124 728.714 -9.25597 726.686 -5.6576L726.686 -5.65758M762.887 -32.997L726.686 -5.65758M726.686 -5.65758L726.682 -5.64905M726.686 -5.65758L726.682 -5.64905M726.682 -5.64905C725.702 -3.96115 724.679 -2.33079 723.668 -0.721443M726.682 -5.64905L723.668 -0.721443M723.668 -0.721443C722.008 1.92314 720.384 4.51096 719.049 7.20403M723.668 -0.721443L719.049 7.20403M719.049 7.20403C716.931 11.4765 715.645 15.8428 716.341 20.6722L719.049 7.20403Z" stroke="#133441" stroke-width="2"/>
<path d="M717.132 -2.75632C717.365 -2.24012 717.329 -1.67343 717.032 -1.17832C716.81 -0.840888 716.471 -0.558662 716.054 -0.363117C715.637 -0.167571 715.159 -0.0664195 714.672 -0.0709496C713.915 -0.0432439 713.166 -0.208764 712.539 -0.542541C711.912 -0.876319 711.441 -1.3602 711.197 -1.92106C711.069 -2.3032 710.829 -3.62663 713.099 -4.60784C713.601 -4.83862 714.161 -4.98275 714.74 -5.03052C715.161 -5.06971 715.587 -5.01206 715.966 -4.86466C716.346 -4.71726 716.662 -4.48651 716.876 -4.20087C717.181 -3.75884 717.272 -3.24592 717.132 -2.75632Z" fill="#133441"/>
<path d="M783.073 -4.31189C783.011 -4.30814 782.949 -4.30014 782.889 -4.28798C782.613 -4.23273 782.377 -4.09418 782.232 -3.90276C782.088 -3.71134 782.046 -3.48276 782.118 -3.26726C783.061 -0.413904 781.431 2.86759 778.629 3.75508C776.03 4.57904 773.048 3.0241 770.451 -0.511865C770.309 -0.705025 770.075 -0.846399 769.8 -0.904894C769.525 -0.963389 769.232 -0.934197 768.985 -0.82376C768.737 -0.713324 768.557 -0.530681 768.482 -0.316006C768.408 -0.101331 768.446 0.127779 768.588 0.320939C773.12 6.49123 777.687 5.86583 779.44 5.30961C783.234 4.10777 785.413 -0.0110203 784.198 -3.68401C784.135 -3.87512 783.987 -4.0428 783.781 -4.15762C783.576 -4.27244 783.325 -4.32706 783.073 -4.31189Z" fill="#133441"/>
<path d="M749.67 9.05981L740.551 9.62154M729.777 8.56146L721.596 6.19243" stroke="#133441" stroke-width="2" stroke-linecap="round"/>
<path d="M719.665 100.535L719.665 100.535C721.394 100.666 723.134 100.675 724.861 100.562L724.862 100.562C732.144 100.088 739.612 96.455 741.34 90.9783C742.207 88.2312 741.529 85.4441 740.258 82.59C739.624 81.1651 738.853 79.7495 738.075 78.326L738.006 78.2007C737.256 76.8297 736.5 75.4481 735.888 74.0886C734.172 70.3888 732.965 66.5626 732.287 62.6738L732.287 62.6738L732.285 62.6646C731.991 60.8294 731.773 59.0255 731.558 57.2448C731.205 54.3183 730.859 51.4543 730.195 48.6164C729.141 44.1139 727.312 39.8628 723.476 36.0082C718.155 30.6626 708.889 28.3882 700.96 31.1037L700.96 31.1039C696.648 32.5789 693.125 35.4709 690.386 38.9241C687.652 42.3703 685.754 46.3068 684.655 49.7554L684.655 49.7554L684.651 49.7658C682.075 57.4403 682.278 65.5413 685.24 73.1828C687.478 78.9255 690.973 84.3372 695.57 89.18C701.627 95.3496 710.069 99.8075 719.665 100.535Z" stroke="#133441" stroke-width="2"/>
<path d="M745.704 65.8392C746.682 65.3023 747.424 64.548 747.836 63.6746C749.226 60.6866 746.746 56.6613 742.42 54.8844C742.294 54.8327 742.157 54.8008 742.016 54.7902C741.875 54.7795 741.733 54.7906 741.598 54.8226C741.463 54.8546 741.337 54.907 741.229 54.9767C741.121 55.0465 741.031 55.1322 740.966 55.2291C740.901 55.326 740.861 55.4321 740.849 55.5413C740.837 55.6506 740.852 55.7609 740.895 55.8659C740.938 55.9709 741.007 56.0685 741.098 56.1533C741.189 56.238 741.301 56.3082 741.426 56.3599C744.786 57.7399 746.833 60.8865 745.806 63.0932C744.853 65.1409 741.371 65.8044 736.254 64.9149C735.974 64.8663 735.682 64.9056 735.442 65.0241C735.202 65.1426 735.034 65.3307 734.974 65.5469C734.914 65.7632 734.968 65.9899 735.124 66.1772C735.279 66.3644 735.523 66.497 735.803 66.5456C740.968 67.4432 743.968 66.8046 745.704 65.8392Z" fill="#133441"/>
<path d="M738.516 56.3637C737.971 56.0154 737.621 55.5164 737.543 54.9741C737.507 54.5963 737.608 54.2194 737.833 53.8854C738.059 53.5515 738.4 53.2736 738.819 53.0829C739.448 52.7563 740.2 52.5984 740.96 52.6331C741.72 52.6678 742.448 52.8933 743.033 53.2754C743.398 53.5512 744.491 54.5874 743.208 56.3345C742.933 56.7328 742.551 57.0799 742.087 57.3527C741.754 57.5543 741.351 57.6754 740.927 57.7011C740.504 57.7267 740.079 57.6558 739.704 57.497C739.146 57.241 738.725 56.8386 738.516 56.3637Z" fill="#133441"/>
<path d="M683.151 84.0692C683.202 84.0412 683.249 84.0097 683.292 83.9753C683.491 83.8177 683.6 83.6047 683.596 83.3831C683.591 83.1614 683.473 82.9494 683.268 82.7935C680.547 80.73 679.741 77.2709 681.542 75.3911C683.214 73.6465 686.807 73.7842 691.4 75.7702C691.651 75.8787 691.946 75.9059 692.22 75.8459C692.495 75.786 692.726 75.6437 692.864 75.4504C693.001 75.257 693.033 75.0286 692.953 74.8152C692.872 74.6018 692.686 74.4209 692.435 74.3124C684.42 70.8471 680.933 73.2085 679.806 74.3856C677.367 76.9311 678.265 81.3259 681.767 83.9822C681.95 84.1203 682.189 84.2047 682.442 84.2206C682.695 84.2365 682.946 84.1829 683.151 84.0692Z" fill="#133441"/>
<path d="M702.758 59.2703L710.182 55.1426M720.109 51.7401L728.696 50.4945" stroke="#133441" stroke-width="2" stroke-linecap="round"/>
<path d="M894.766 12.7947L894.766 12.7946C897.371 5.62548 904.528 -0.00978496 913.445 -3.53395C920.42 -6.18204 927.928 -7.89231 935.638 -8.5897C945.894 -9.50591 956.255 -8.24435 965.59 -4.94334L965.602 -4.93891L965.602 -4.93897C969.807 -3.50026 974.495 -1.36823 978.413 1.31436C982.338 4.00228 985.414 7.19029 986.543 10.7328L986.543 10.7331C988.623 17.2481 984.093 23.8912 976.364 26.9959L894.766 12.7947ZM894.766 12.7947C894.297 14.0869 893.981 15.4081 893.824 16.742L893.824 16.7428C893.153 22.3676 896.484 28.6915 903.173 30.9661C906.524 32.1055 910.192 32.0776 914.05 31.6104C915.977 31.377 917.915 31.0391 919.866 30.6959L920.039 30.6656C921.917 30.335 923.812 30.0016 925.653 29.7738C930.671 29.1159 935.762 28.8669 940.84 29.0309L940.84 29.0308M894.766 12.7947L940.84 29.0308M940.84 29.0308L940.852 29.0313M940.84 29.0308L940.852 29.0313M940.852 29.0313C943.244 29.1287 945.582 29.2784 947.89 29.4262M940.852 29.0313L947.89 29.4262M947.89 29.4262C951.683 29.6691 955.393 29.9067 959.127 29.8979M947.89 29.4262L959.127 29.8979M959.127 29.8979C965.05 29.8839 970.785 29.2368 976.364 26.9959L959.127 29.8979Z" stroke="#133441" stroke-width="2"/>
<path d="M894.33 41.916C894.349 41.947 894.371 41.9779 894.395 42.0091C895.113 42.9515 897.148 43.4788 897.549 43.575C897.822 43.638 898.117 43.6157 898.37 43.5129C898.623 43.4102 898.814 43.2353 898.902 43.0263C898.989 42.8173 898.966 42.5911 898.837 42.3966C898.708 42.2022 898.484 42.0553 898.213 41.9878C897.623 41.8457 897.064 41.6393 896.552 41.3748C896.796 41.1285 897.207 40.7683 897.583 40.4391C900.469 38.1171 902.664 35.3443 904.015 32.3145C904.059 32.2098 904.075 32.0998 904.063 31.9906C904.051 31.8815 904.011 31.7754 903.945 31.6786C903.879 31.5818 903.789 31.4961 903.679 31.4264C903.57 31.3567 903.443 31.3044 903.307 31.2726C903.17 31.2408 903.027 31.23 902.884 31.2409C902.742 31.2517 902.604 31.2841 902.477 31.3361C902.351 31.388 902.239 31.4585 902.148 31.5436C902.056 31.6286 901.988 31.7265 901.946 31.8315C900.679 34.6353 898.636 37.2002 895.958 39.3493C894.669 40.4776 893.87 41.1766 894.33 41.916Z" fill="#133441"/>
<path d="M888.106 5.83072C888.263 6.08271 888.466 6.31567 888.71 6.52233C891.07 8.52485 896.29 7.17454 896.877 7.01408C897.148 6.93917 897.369 6.78547 897.493 6.58662C897.618 6.38777 897.635 6.15992 897.541 5.95291C897.447 5.74591 897.25 5.57658 896.992 5.48195C896.734 5.38732 896.438 5.3751 896.166 5.44795C895.028 5.75685 891.512 6.4113 890.324 5.40064C889.424 4.63577 889.808 2.78868 891.406 0.200036C891.487 0.06765 891.522 -0.0784464 891.507 -0.223695C891.492 -0.368943 891.427 -0.508274 891.319 -0.6278C890.917 -1.06019 890.377 -1.40561 889.75 -1.63127C889.122 -1.85693 888.429 -1.95534 887.735 -1.91713C887.592 -1.90724 887.453 -1.87576 887.326 -1.82453C887.198 -1.7733 887.085 -1.70334 886.993 -1.61867C886.901 -1.53399 886.831 -1.43629 886.789 -1.33122C886.746 -1.22615 886.73 -1.11578 886.743 -1.00648C886.756 -0.897193 886.797 -0.791137 886.864 -0.69446C886.931 -0.597783 887.022 -0.512406 887.133 -0.443233C887.243 -0.374061 887.371 -0.322459 887.508 -0.291445C887.645 -0.260431 887.789 -0.250621 887.931 -0.262542C888.366 -0.28856 888.796 -0.185775 889.133 0.0246535C887.634 2.61333 887.294 4.52711 888.106 5.83072Z" fill="#133441"/>
<path d="M934.442 38.6752C934.955 39.5121 935.787 40.2087 936.829 40.6743C940.395 42.2537 945.961 41.0717 948.983 38.0932C949.07 38.0066 949.135 37.9078 949.173 37.8024C949.212 37.6969 949.222 37.5869 949.205 37.4787C949.188 37.3704 949.143 37.266 949.073 37.1714C949.003 37.0767 948.909 36.9938 948.797 36.9272C948.685 36.8607 948.557 36.8118 948.42 36.7835C948.283 36.7551 948.139 36.7478 947.998 36.7619C947.857 36.776 947.72 36.8114 947.596 36.8659C947.472 36.9204 947.363 36.993 947.275 37.0796C944.928 39.3931 940.559 40.3992 937.925 39.2324C935.481 38.1499 935.244 35.3866 937.273 31.6507C937.383 31.4466 937.384 31.2177 937.275 31.0145C937.166 30.8113 936.956 30.6503 936.69 30.5671C936.425 30.4838 936.127 30.4851 935.861 30.5706C935.595 30.6561 935.383 30.8188 935.272 31.0229C933.225 34.7929 933.515 37.1862 934.442 38.6752Z" fill="#133441"/>
<path d="M947.779 34.8661C948.318 34.5121 949.016 34.3336 949.721 34.369C950.209 34.408 950.672 34.5503 951.058 34.7801C951.444 35.0098 951.739 35.3179 951.909 35.6701C952.215 36.2057 952.285 36.8047 952.108 37.3767C951.931 37.9486 951.516 38.4625 950.927 38.8405C950.511 39.0702 948.999 39.7199 946.996 38.4386C946.536 38.1601 946.16 37.8088 945.894 37.4084C945.695 37.1197 945.611 36.792 945.652 36.4656C945.694 36.1391 945.859 35.8283 946.126 35.5712C946.55 35.1919 947.137 34.9416 947.779 34.8661Z" fill="#133441"/>
<path d="M950.325 7.16797L954.29 13.5343M956.892 21.6778L956.979 28.4251" stroke="#133441" stroke-width="2" stroke-linecap="round"/>
<path d="M1037.89 -32.997L1037.89 -32.997C1045.61 -28.5366 1049.84 -21.3487 1050.88 -13.6514C1051.57 -7.67065 1050.93 -1.64442 1048.99 4.16261C1046.4 11.8823 1041.14 18.8922 1033.79 24.4268L1033.78 24.4342L1033.78 24.4343C1030.53 26.9448 1026.26 29.5534 1021.61 31.4083C1016.95 33.2669 1012 34.3328 1007.32 33.8697L1007.31 33.8697C998.704 33.0207 992.307 27.3664 991.341 20.6723L1037.89 -32.997ZM1037.89 -32.997C1036.5 -33.801 1035.01 -34.5043 1033.46 -35.0982L1033.46 -35.0986C1026.91 -37.6075 1018.08 -37.4867 1012.92 -33.4904L1012.13 -34.0996L1012.92 -33.4904C1010.34 -31.4873 1009.05 -28.8332 1008.22 -25.8844C1007.81 -24.412 1007.52 -22.8934 1007.23 -21.3642L1007.21 -21.2294C1006.93 -19.7567 1006.65 -18.2722 1006.26 -16.8642C1005.25 -13.0124 1003.71 -9.25597 1001.69 -5.6576L1001.69 -5.65758M1037.89 -32.997L1001.69 -5.65758M1001.69 -5.65758L1001.68 -5.64905M1001.69 -5.65758L1001.68 -5.64905M1001.68 -5.64905C1000.7 -3.96115 999.679 -2.33079 998.668 -0.721443M1001.68 -5.64905L998.668 -0.721443M998.668 -0.721443C997.008 1.92314 995.384 4.51096 994.049 7.20403M998.668 -0.721443L994.049 7.20403M994.049 7.20403C991.931 11.4765 990.645 15.8428 991.341 20.6722L994.049 7.20403Z" stroke="#133441" stroke-width="2"/>
<path d="M992.132 -2.75632C992.365 -2.24012 992.329 -1.67343 992.032 -1.17832C991.81 -0.840888 991.471 -0.558662 991.054 -0.363117C990.637 -0.167571 990.159 -0.0664195 989.672 -0.0709496C988.915 -0.0432439 988.166 -0.208764 987.539 -0.542541C986.912 -0.876319 986.441 -1.3602 986.197 -1.92106C986.069 -2.3032 985.829 -3.62663 988.099 -4.60784C988.601 -4.83862 989.161 -4.98275 989.74 -5.03052C990.161 -5.06971 990.587 -5.01206 990.966 -4.86466C991.346 -4.71726 991.662 -4.48651 991.876 -4.20087C992.181 -3.75884 992.272 -3.24592 992.132 -2.75632Z" fill="#133441"/>
<path d="M1058.07 -4.31189C1058.01 -4.30814 1057.95 -4.30014 1057.89 -4.28798C1057.61 -4.23273 1057.38 -4.09418 1057.23 -3.90276C1057.09 -3.71134 1057.05 -3.48276 1057.12 -3.26726C1058.06 -0.413904 1056.43 2.86759 1053.63 3.75508C1051.03 4.57904 1048.05 3.0241 1045.45 -0.511865C1045.31 -0.705025 1045.07 -0.846399 1044.8 -0.904894C1044.52 -0.963389 1044.23 -0.934197 1043.98 -0.82376C1043.74 -0.713324 1043.56 -0.530681 1043.48 -0.316006C1043.41 -0.101331 1043.45 0.127779 1043.59 0.320939C1048.12 6.49123 1052.69 5.86583 1054.44 5.30961C1058.23 4.10777 1060.41 -0.0110203 1059.2 -3.68401C1059.13 -3.87512 1058.99 -4.0428 1058.78 -4.15762C1058.58 -4.27244 1058.32 -4.32706 1058.07 -4.31189Z" fill="#133441"/>
<path d="M1024.67 9.05981L1015.55 9.62154M1004.78 8.56146L996.596 6.19243" stroke="#133441" stroke-width="2" stroke-linecap="round"/>
<path d="M994.665 100.535L994.665 100.535C996.394 100.666 998.134 100.675 999.861 100.562L999.862 100.562C1007.14 100.088 1014.61 96.455 1016.34 90.9783C1017.21 88.2312 1016.53 85.4441 1015.26 82.59C1014.62 81.1651 1013.85 79.7495 1013.07 78.326L1013.01 78.2007C1012.26 76.8297 1011.5 75.4481 1010.89 74.0886C1009.17 70.3888 1007.97 66.5626 1007.29 62.6738L1007.29 62.6738L1007.29 62.6646C1006.99 60.8294 1006.77 59.0255 1006.56 57.2448C1006.2 54.3183 1005.86 51.4543 1005.19 48.6164C1004.14 44.1139 1002.31 39.8628 998.476 36.0082C993.155 30.6626 983.889 28.3882 975.96 31.1037L975.96 31.1039C971.648 32.5789 968.125 35.4709 965.386 38.9241C962.652 42.3703 960.754 46.3068 959.655 49.7554L959.655 49.7554L959.651 49.7658C957.075 57.4403 957.278 65.5413 960.24 73.1828C962.478 78.9255 965.973 84.3372 970.57 89.18C976.627 95.3496 985.069 99.8075 994.665 100.535Z" stroke="#133441" stroke-width="2"/>
<path d="M1020.7 65.8392C1021.68 65.3023 1022.42 64.548 1022.84 63.6746C1024.23 60.6866 1021.75 56.6613 1017.42 54.8844C1017.29 54.8327 1017.16 54.8008 1017.02 54.7902C1016.87 54.7795 1016.73 54.7906 1016.6 54.8226C1016.46 54.8546 1016.34 54.907 1016.23 54.9767C1016.12 55.0465 1016.03 55.1322 1015.97 55.2291C1015.9 55.326 1015.86 55.4321 1015.85 55.5413C1015.84 55.6506 1015.85 55.7609 1015.89 55.8659C1015.94 55.9709 1016.01 56.0685 1016.1 56.1533C1016.19 56.238 1016.3 56.3082 1016.43 56.3599C1019.79 57.7399 1021.83 60.8865 1020.81 63.0932C1019.85 65.1409 1016.37 65.8044 1011.25 64.9149C1010.97 64.8663 1010.68 64.9056 1010.44 65.0241C1010.2 65.1426 1010.03 65.3307 1009.97 65.5469C1009.91 65.7632 1009.97 65.9899 1010.12 66.1772C1010.28 66.3644 1010.52 66.497 1010.8 66.5456C1015.97 67.4432 1018.97 66.8046 1020.7 65.8392Z" fill="#133441"/>
<path d="M1013.52 56.3637C1012.97 56.0154 1012.62 55.5164 1012.54 54.9741C1012.51 54.5963 1012.61 54.2194 1012.83 53.8854C1013.06 53.5515 1013.4 53.2736 1013.82 53.0829C1014.45 52.7563 1015.2 52.5984 1015.96 52.6331C1016.72 52.6678 1017.45 52.8933 1018.03 53.2754C1018.4 53.5512 1019.49 54.5874 1018.21 56.3345C1017.93 56.7328 1017.55 57.0799 1017.09 57.3527C1016.75 57.5543 1016.35 57.6754 1015.93 57.7011C1015.5 57.7267 1015.08 57.6558 1014.7 57.497C1014.15 57.241 1013.72 56.8386 1013.52 56.3637Z" fill="#133441"/>
<path d="M958.151 84.0692C958.202 84.0412 958.249 84.0097 958.292 83.9753C958.491 83.8177 958.6 83.6047 958.596 83.3831C958.591 83.1614 958.473 82.9494 958.268 82.7935C955.547 80.73 954.741 77.2709 956.542 75.3911C958.214 73.6465 961.807 73.7842 966.4 75.7702C966.651 75.8787 966.946 75.9059 967.22 75.8459C967.495 75.786 967.726 75.6437 967.864 75.4504C968.001 75.257 968.033 75.0286 967.953 74.8152C967.872 74.6018 967.686 74.4209 967.435 74.3124C959.42 70.8471 955.933 73.2085 954.806 74.3856C952.367 76.9311 953.265 81.3259 956.767 83.9822C956.95 84.1203 957.189 84.2047 957.442 84.2206C957.695 84.2365 957.946 84.1829 958.151 84.0692Z" fill="#133441"/>
<path d="M977.758 59.2703L985.182 55.1426M995.109 51.7401L1003.7 50.4945" stroke="#133441" stroke-width="2" stroke-linecap="round"/>
</g>
</g>
</svg>
