<svg width="61" height="59" viewBox="0 0 61 59" fill="none" xmlns="http://www.w3.org/2000/svg">
<path d="M29.7072 58.5204C46.1141 58.5204 59.4145 45.8941 59.4145 30.3186C59.4145 14.7432 46.1141 2.11687 29.7072 2.11687C13.3004 2.11687 0 14.7432 0 30.3186C0 45.8941 13.3004 58.5204 29.7072 58.5204Z" fill="#9BDFFF"/>
<path d="M17.5734 1.8576C17.3083 1.84383 17.0603 1.91539 16.8009 1.94854C16.5114 1.99296 16.2285 2.07295 15.9585 2.18671C15.4291 2.39645 14.908 2.63141 14.3948 2.87791C11.4254 4.30813 8.74333 6.27458 6.48238 8.67914C6.06152 9.14209 5.6686 9.62988 5.30572 10.1399C5.1319 10.3787 4.96976 10.6262 4.80811 10.8733C4.62885 11.1472 4.52248 11.4436 4.36499 11.7288C4.2326 11.9687 4.56208 12.2491 4.75777 12.031C4.94043 11.8274 5.16251 11.6737 5.34183 11.47C5.52109 11.2663 5.70421 11.0662 5.8912 10.8695C6.24872 10.4916 6.6041 10.1133 6.97141 9.74469C7.72635 8.98694 8.47009 8.22804 9.28351 7.53055C10.8931 6.15464 12.6636 4.98063 14.5558 4.03442C15.0678 3.77759 15.5881 3.53555 16.117 3.31489C16.421 3.18799 16.7351 3.0641 17.0221 2.90037C17.1534 2.82544 17.2644 2.74473 17.4002 2.67478C17.5433 2.599 17.677 2.50641 17.7984 2.39896C18.0212 2.20803 17.8282 1.87082 17.5734 1.8576Z" fill="#9BDFFF"/>
<path d="M21.5957 0.487195C21.444 0.398055 21.2652 0.402194 21.0942 0.410181C20.9347 0.418952 20.7764 0.442957 20.6215 0.481868C20.3511 0.549137 20.0882 0.652761 19.8249 0.742395C19.5375 0.840196 19.2395 0.924355 18.9648 1.05527C18.7074 1.17802 18.3842 1.34381 18.2883 1.63128C18.2452 1.76049 18.3204 1.87915 18.4194 1.95237C18.5556 2.05322 18.7336 2.04345 18.8944 2.04298C19.0514 2.04091 19.208 2.0249 19.3622 1.99513C19.6351 1.94462 19.9024 1.84492 20.1671 1.76371C20.4599 1.67391 20.7572 1.59058 21.0376 1.46615C20.9704 1.48051 21.0047 1.46433 21.1403 1.41761C21.1734 1.39961 21.2064 1.38147 21.2394 1.36319C21.3072 1.32331 21.3728 1.27967 21.4359 1.2325C21.5741 1.14584 21.6842 1.02076 21.753 0.872429C21.8107 0.735473 21.7142 0.556754 21.5957 0.487195Z" fill="#9BDFFF"/>
<path d="M60.8081 33.7944C60.7583 33.5129 60.2788 33.5747 60.3039 33.8624C60.3462 34.3478 60.2351 34.7742 60.1401 35.2456C60.0439 35.7108 59.9237 36.1707 59.78 36.6235C59.519 37.4593 59.2433 38.2912 58.9704 39.1232C58.4663 40.6599 57.9055 42.1871 57.0861 43.5883C56.8539 43.9846 56.6011 44.3683 56.3287 44.7379C56.2012 44.9113 56.0771 45.0887 55.9667 45.2733C55.8408 45.4841 55.6786 45.6788 55.6238 45.9218C55.5653 46.1819 55.7912 46.437 56.0637 46.3604C56.4674 46.247 56.8444 45.8442 57.1097 45.5315C57.3817 45.1984 57.629 44.8458 57.8499 44.4766C58.2925 43.7543 58.6791 42.9988 59.006 42.2168C59.7122 40.5649 60.2884 38.8599 60.7296 37.1176C60.8717 36.5715 60.9608 36.0129 60.9957 35.4495C61.0246 34.8986 60.9037 34.3354 60.8081 33.7944Z" fill="#9BDFFF"/>
<path d="M55.1025 46.9845C55.0488 46.9553 54.9873 46.9438 54.9267 46.9516C54.8661 46.9594 54.8095 46.9861 54.7649 47.0279C54.7415 47.0489 54.717 47.0685 54.6927 47.0884C54.6287 47.134 54.5636 47.1802 54.4968 47.2209C54.4665 47.2349 54.4374 47.2514 54.4098 47.2703C54.3794 47.2914 54.3483 47.3116 54.3166 47.3311C54.2505 47.3716 54.1817 47.4086 54.1132 47.4452C54.0465 47.4808 53.9769 47.5103 53.9115 47.5485C53.797 47.626 53.6979 47.7242 53.6192 47.8381C53.5444 47.9379 53.5534 48.0887 53.5989 48.1961C53.621 48.2529 53.6562 48.3036 53.7016 48.3441C53.7471 48.3846 53.8015 48.4137 53.8603 48.429C54.0017 48.4578 54.1477 48.4536 54.2872 48.4166C54.4361 48.3721 54.5538 48.2757 54.6735 48.1822C54.7363 48.1326 54.7949 48.0778 54.8484 48.0182C54.8738 47.9903 54.8984 47.9617 54.9222 47.9324C54.9565 47.8937 54.9883 47.8529 55.0176 47.8102C55.034 47.7821 55.0476 47.7525 55.0583 47.7218C55.1308 47.5873 55.1886 47.4452 55.2305 47.2982C55.2461 47.239 55.242 47.1764 55.2189 47.1198C55.1958 47.0631 55.1549 47.0156 55.1025 46.9845Z" fill="#9BDFFF"/>
<path d="M49.4395 37.1788C49.4763 37.1159 49.5127 37.0518 49.5493 36.9878C49.576 36.9407 49.6028 36.8946 49.6294 36.8467C50.5889 35.1293 51.3933 33.0252 51.3527 30.8444C51.3521 30.8098 51.3511 30.7752 51.3501 30.7405C51.3466 30.6287 51.3409 30.5168 51.3328 30.4047C51.3302 30.3676 51.3277 30.3305 51.3245 30.2936C51.3216 30.259 51.319 30.2244 51.3156 30.1897C51.2983 30.0149 51.277 29.8399 51.2477 29.6647C50.6361 25.9943 47.5103 23.2402 43.6463 22.9673C43.3611 22.9472 43.0719 22.9369 42.7869 22.9369C39.916 22.9369 37.4308 23.9569 35.0761 25.1681C34.4989 22.551 33.4014 19.9893 31.8271 17.623C31.1518 16.6165 30.3916 15.6701 29.5549 14.7942L29.5568 14.7922C29.4302 14.6605 29.2959 14.5261 29.158 14.3909C29.1069 14.3407 29.0546 14.2906 29.0024 14.2403C28.9626 14.2023 28.924 14.1645 28.8834 14.1263C27.4552 12.7775 25.6161 11.4866 23.4991 11.0002C23.4649 10.9923 23.4306 10.9848 23.3963 10.9773C23.2877 10.9538 23.1783 10.9324 23.0683 10.9133C23.032 10.907 22.9957 10.9005 22.9594 10.8947C22.9249 10.8891 22.8906 10.8833 22.8561 10.8782C22.6831 10.8529 22.5089 10.8315 22.3327 10.8178C22.1324 10.8022 21.9294 10.7942 21.7294 10.7942C18.2465 10.7942 15.1512 13.1318 14.0274 16.6111C13.558 18.064 13.396 19.4806 13.4244 20.8682C13.467 22.9495 13.9381 24.9655 14.4433 26.9411C14.4994 27.1606 14.5558 27.3796 14.6124 27.5982C14.8117 28.3704 15.0179 29.169 15.196 29.9545C15.2713 30.2876 15.3372 30.6291 15.3965 30.9774C15.4293 31.2755 15.4719 31.5854 15.5323 31.9001C15.6581 32.929 15.7251 33.9643 15.7328 35.0009C15.7343 35.1406 15.7331 35.2825 15.7306 35.4256C15.7302 35.449 15.73 35.4715 15.7295 35.4954C15.7267 35.6335 15.7224 35.7734 15.7169 35.9148C15.7155 35.9505 15.7137 35.9893 15.7122 36.0263C15.6997 36.3226 15.6834 36.6254 15.6662 36.937C15.5441 39.1531 15.4057 41.6648 16.787 43.752C18.075 45.6979 20.4619 46.8597 23.1719 46.8599H23.1723C23.3929 46.8599 23.6121 46.8498 23.8302 46.8342C25.304 47.4141 26.9297 47.7741 28.6664 47.8847C29.0861 47.9113 29.5192 47.9248 29.9541 47.9248H29.9543C32.2814 47.9248 34.8108 47.5383 37.2696 46.8069C40.8792 45.7314 44.23 43.5707 46.9598 40.5584C47.7698 39.6576 48.5012 38.6885 49.146 37.662L49.1483 37.6633C49.2449 37.5085 49.3422 37.3455 49.4395 37.1788Z" fill="white"/>
<path d="M26.9501 44.8689C30.1765 43.3662 32.3677 40.3409 33.4574 36.8869C34.2811 34.2747 34.5614 31.3571 34.4402 28.6225C34.2722 24.8706 32.9856 21.3357 30.9203 18.2314C29.0742 15.4558 25.8181 12.1874 22.2482 11.9098C18.9604 11.6528 16.0611 13.8656 15.065 16.949C13.6458 21.3428 15.2901 25.4312 16.2597 29.7119C16.65 31.4364 16.8045 33.2223 16.8237 34.9892C16.8518 37.6492 16.1354 40.7882 17.6957 43.1457C19.253 45.4986 22.5267 46.1971 25.1462 45.5167C25.7659 45.3563 26.3697 45.1395 26.9501 44.8689Z" fill="#65CAFD"/>
<g style="mix-blend-mode:screen" opacity="0.52">
<path d="M24.1744 43.3162C24.5452 43.3777 24.9238 43.3748 25.2936 43.3075C25.2983 43.304 25.3034 43.3012 25.3088 43.2991C27.8085 42.5164 29.8787 40.6971 31.1285 38.4006C32.465 35.9449 32.8581 32.9836 32.4886 30.2245C32.2764 28.6405 32.002 27.0426 31.4591 25.5356C31.3908 25.3461 31.0396 24.2823 30.701 24.5759C30.314 24.9115 30.4699 25.652 30.5232 26.0944C30.5906 26.6522 30.7155 27.2126 30.7389 27.7746C30.7646 28.5703 30.7199 29.3666 30.6053 30.1544C30.3689 31.8729 29.7847 33.5597 29.0003 35.1027C28.2665 36.546 27.296 37.9787 25.9433 38.905C25.0922 39.4878 24.092 39.9078 23.3898 40.6882C23.0476 41.0684 22.7743 41.5554 22.8888 42.0855C22.9559 42.3962 23.1143 42.6796 23.3434 42.899C23.5726 43.1184 23.8621 43.2638 24.1744 43.3162Z" fill="#65CAFD"/>
</g>
<g style="mix-blend-mode:multiply" opacity="0.5">
<path d="M17.6957 43.1456C19.253 45.4985 22.5267 46.1971 25.1462 45.5167C25.7659 45.3562 26.3697 45.1394 26.9501 44.8689C30.1765 43.3662 32.3677 40.3409 33.4574 36.8869C34.2811 34.2747 34.5614 31.357 34.4401 28.6224C34.2722 24.8706 32.9856 21.3357 30.9203 18.2314C29.0742 15.4557 25.8181 12.1873 22.2482 11.9098C18.9604 11.6528 16.0611 13.8656 15.065 16.949C13.6458 21.3428 15.2901 25.4311 16.2597 29.7118C16.65 31.4364 16.8045 33.2223 16.8237 34.9892C16.8518 37.6492 16.1354 40.7882 17.6957 43.1456ZM20.687 35.9964C21.0815 33.3893 20.8376 30.8269 20.1361 28.2972C19.567 26.2431 18.8253 24.1186 18.8247 21.963C18.8243 20.1984 19.289 18.117 20.853 17.0674C22.253 16.1274 24.0157 16.0889 25.5737 16.6516C27.0534 17.1858 28.6649 18.624 29.6453 19.8251C31.4008 21.9761 32.1959 24.7109 32.8038 27.3754C33.3755 29.8811 33.6118 32.5086 32.9991 35.0328C32.5435 36.9114 31.6105 38.9644 30.4021 40.4834C28.7671 42.5383 25.9552 44.552 23.1777 44.2034C19.142 43.6958 20.2715 38.7498 20.687 35.9964Z" fill="#65CAFD"/>
</g>
<g style="mix-blend-mode:multiply" opacity="0.5">
<path d="M17.6958 43.1457C19.253 45.4985 22.5267 46.1971 25.1463 45.5167C26.1972 45.2451 27.1997 44.8113 28.118 44.2306C27.8299 44.3617 27.5419 44.4932 27.2499 44.6157C27.2291 44.6244 27.2082 44.6325 27.1873 44.6411C26.5444 44.9178 25.869 45.1112 25.1775 45.2165C24.8818 45.2718 24.5831 45.3181 24.282 45.3576C23.3916 45.4744 22.4924 45.4697 21.6465 45.1339C20.8738 44.8271 20.168 44.3438 19.5693 43.768C18.9789 43.2002 18.4547 42.5328 18.1305 41.7742C17.7568 40.9001 17.7338 39.933 17.8717 39.0025C17.9577 38.4045 18.106 37.8173 18.3142 37.2504C18.4 36.9064 18.5036 36.567 18.6247 36.2338C18.8658 35.5551 19.1461 34.8871 19.3261 34.1882C19.5241 33.4197 19.5838 32.6411 19.4548 31.8556C19.3085 30.9654 19.0115 30.1125 18.6346 29.2958C18.2927 28.5546 17.9005 27.8452 17.6162 27.0776C17.5078 26.7847 17.4093 26.4881 17.3208 26.1876C17.1357 25.8103 16.973 25.4224 16.8335 25.0259C16.3834 23.7208 16.1434 22.3281 16.2026 20.9452C16.262 19.5582 16.6244 18.1704 17.3911 17.0036C18.2404 15.7108 19.4528 14.5988 20.8624 13.9551C22.0828 13.3979 23.4537 13.2089 24.7725 13.4708C25.9362 13.702 27.0223 14.2348 27.9811 14.9281C28.2527 15.1243 28.5163 15.3325 28.772 15.5526C26.9761 13.6833 24.6857 12.0992 22.2482 11.9098C18.9604 11.6528 16.0611 13.8656 15.065 16.949C13.6458 21.3428 15.2901 25.4312 16.2597 29.7119C16.65 31.4364 16.8045 33.2223 16.8237 34.9892C16.8518 37.6492 16.1354 40.7882 17.6958 43.1457Z" fill="#65CAFD"/>
</g>
<g style="mix-blend-mode:multiply" opacity="0.5">
<path d="M17.297 34.5945C17.6064 34.3055 18.1245 34.239 18.3662 33.8889C18.6156 33.5162 18.7576 33.0817 18.7764 32.6331C18.8271 31.6538 18.4403 30.3748 18.006 29.5107C17.5824 28.668 17.1181 28.1876 16.7063 27.3388C16.2927 26.4864 15.9877 25.5741 15.739 24.6603C15.2822 22.9818 14.9557 21.1539 15.1459 19.4096C15.4629 16.5035 17.3945 13.4521 20.2944 12.5787C22.6647 11.8649 25.074 12.7095 27.0916 14.0247C25.634 12.8817 23.9783 12.0443 22.2482 11.9098C18.9604 11.6528 16.0611 13.8656 15.065 16.9489C13.6458 21.3428 15.2901 25.4311 16.2597 29.7118C16.65 31.4364 16.8045 33.2223 16.8237 34.9892C16.8281 35.4041 16.8144 35.8307 16.794 36.2642C16.8439 35.7152 16.8682 34.995 17.297 34.5945Z" fill="#65CAFD"/>
</g>
<path d="M17.3383 33.3163C17.8192 33.8091 18.2593 33.5811 18.5414 32.9993C19.1804 31.6818 18.2863 29.1278 17.1285 27.4863C16.8417 27.2124 16.5335 27.0367 16.3203 27.2536C16.1531 27.4237 16.1117 27.7041 16.1012 27.9689C16.216 28.6409 16.2961 29.3189 16.3849 29.9948C16.4776 30.7016 16.5096 31.5499 16.7485 32.2851C16.8745 32.6728 17.0579 33.029 17.3383 33.3163Z" fill="#F1F2C4"/>
<g style="mix-blend-mode:screen" opacity="0.52">
<path d="M17.4974 32.7518C17.4974 32.7518 17.5864 33.4372 18.1283 32.8942C18.6702 32.3512 18.3682 30.8929 17.8493 30.3987C17.6935 30.2502 17.2412 31.6251 17.4974 32.7518Z" fill="#65CAFD"/>
</g>
<g style="mix-blend-mode:multiply" opacity="0.23">
<path d="M34.2164 26.4533C30.5362 28.6645 26.3362 29.8589 22.1468 30.7804C21.6059 30.8993 21.0608 31.0151 20.548 31.2251C19.4759 31.664 18.6099 32.4946 17.9552 33.4379C17.6256 33.9126 17.3769 34.3366 17.2155 34.8997C17.0562 35.4616 16.9684 36.0414 16.9542 36.6254C16.9091 38.2914 17.4135 39.9652 18.3065 41.3641C19.7007 43.5482 22.1179 44.8877 24.4962 45.9012C27.6674 39.6056 28.3919 30.8787 34.2313 26.9903C34.3213 26.9303 34.2415 26.6331 34.2164 26.4533Z" fill="#4D4D4D"/>
</g>
<path d="M19.4521 42.3742C21.6823 45.1562 25.1344 46.5622 28.7353 46.7915C31.4584 46.9645 34.3458 46.5342 36.9594 45.7567C40.5449 44.6885 43.651 42.5823 46.1532 39.8211C48.3907 37.3527 50.7644 33.3915 50.1719 29.8455C49.6276 26.5793 46.79 24.2873 43.57 24.0599C38.9813 23.7361 35.4266 26.3243 31.5233 28.3013C29.9507 29.0974 28.2619 29.6786 26.5589 30.1234C23.9949 30.7921 20.7886 30.8506 18.8864 32.9397C16.9878 35.0247 17.102 38.3834 18.3912 40.7723C18.6956 41.3376 19.0507 41.8737 19.4521 42.3742Z" fill="#65CAFD"/>
<g style="mix-blend-mode:screen" opacity="0.52">
<path d="M20.2836 39.2949C20.3135 39.6711 20.4077 40.0393 20.5619 40.3835C20.5664 40.3872 20.5704 40.3915 20.5737 40.3963C21.9328 42.6437 24.1901 44.2226 26.7109 44.887C29.4065 45.5974 32.3632 45.2666 34.9406 44.2412C36.4204 43.6525 37.8985 42.9998 39.2241 42.1074C39.3908 41.9952 40.3342 41.3964 39.9688 41.1373C39.5512 40.841 38.8731 41.1715 38.4583 41.3301C37.9355 41.5302 37.424 41.787 36.8865 41.9453C36.1238 42.1622 35.3433 42.3107 34.5544 42.389C32.8365 42.5729 31.0655 42.4102 29.3851 42.0178C27.8133 41.6506 26.1947 41.0502 24.9733 39.9553C24.2048 39.2663 23.5578 38.3928 22.6343 37.8966C22.1844 37.6548 21.6478 37.5058 21.1631 37.7452C20.879 37.8855 20.6433 38.1082 20.4865 38.3845C20.3297 38.6607 20.259 38.9778 20.2836 39.2949Z" fill="#65CAFD"/>
</g>
<g style="mix-blend-mode:multiply" opacity="0.5">
<path d="M18.8864 32.9397C16.9878 35.0246 17.102 38.3834 18.3912 40.7723C18.6956 41.3375 19.0507 41.8737 19.4521 42.3742C21.6823 45.1562 25.1344 46.5622 28.7352 46.7915C31.4584 46.9645 34.3458 46.5342 36.9594 45.7567C40.5449 44.6885 43.651 42.5823 46.1532 39.8211C48.3906 37.3527 50.7644 33.3915 50.1719 29.8455C49.6276 26.5793 46.79 24.2873 43.57 24.0599C38.9813 23.7361 35.4266 26.3243 31.5232 28.3013C29.9507 29.0974 28.2619 29.6786 26.5589 30.1234C23.9949 30.7921 20.7886 30.8506 18.8864 32.9397ZM26.5169 34.1312C29.1317 33.8871 31.5493 33.0316 33.825 31.738C35.6731 30.6881 37.5474 29.4532 39.6305 28.9329C41.3359 28.507 43.4595 28.4581 44.8509 29.7292C46.0969 30.8669 46.5591 32.5755 46.391 34.2296C46.2315 35.8005 45.23 37.7177 44.3056 38.9628C42.65 41.1922 40.1986 42.6265 37.7701 43.8613C35.4862 45.0226 33.0039 45.8863 30.4166 45.8979C28.4912 45.9068 26.2821 45.4924 24.5228 44.681C22.1426 43.583 19.5185 41.3281 19.1857 38.5372C18.7033 34.4818 23.7557 34.3901 26.5169 34.1312Z" fill="#65CAFD"/>
</g>
<g style="mix-blend-mode:multiply" opacity="0.5">
<path d="M18.8864 32.9397C16.9878 35.0246 17.102 38.3834 18.3912 40.7723C18.907 41.7311 19.568 42.6035 20.3506 43.3584C20.1544 43.1092 19.9579 42.8603 19.7691 42.6052C19.7556 42.5871 19.7428 42.5687 19.7295 42.5504C19.307 41.9905 18.9573 41.379 18.6888 40.7304C18.564 40.4556 18.4473 40.1757 18.3366 39.8917C18.009 39.0521 17.7967 38.1747 17.9173 37.2693C18.0276 36.4423 18.3244 35.6379 18.7366 34.9156C19.143 34.2034 19.6616 33.5315 20.3166 33.0327C21.0713 32.4578 22.0004 32.2021 22.933 32.1122C23.5316 32.0519 24.1349 32.0548 24.7329 32.1211C25.0861 32.1218 25.4391 32.141 25.7903 32.1786C26.5044 32.2499 27.2175 32.362 27.9364 32.369C28.7268 32.3766 29.4938 32.2471 30.2218 31.932C31.0468 31.5749 31.7996 31.0798 32.498 30.5155C33.1319 30.0036 33.7229 29.4504 34.3962 28.9882C34.6531 28.812 34.9161 28.6445 35.1851 28.4857C35.5051 28.2144 35.8408 27.9623 36.1904 27.7308C37.3432 26.9774 38.6313 26.4078 39.9821 26.1321C41.3369 25.8556 42.7655 25.8742 44.078 26.34C45.5322 26.856 46.8991 27.7696 47.8611 28.988C48.6939 30.0431 49.2071 31.3335 49.2719 32.6819C49.329 33.8718 49.076 35.0587 48.6371 36.1603C48.5129 36.4723 48.3753 36.7794 48.2242 37.0816C49.5978 34.8807 50.5765 32.2666 50.1719 29.8455C49.6276 26.5793 46.79 24.2873 43.57 24.0599C38.9813 23.7361 35.4266 26.3243 31.5233 28.3013C29.9507 29.0974 28.2619 29.6786 26.5589 30.1234C23.9949 30.7921 20.7886 30.8506 18.8864 32.9397Z" fill="#65CAFD"/>
</g>
<g style="mix-blend-mode:multiply" opacity="0.5">
<path d="M27.0546 30.4894C27.4085 30.7213 27.5976 31.2101 27.9943 31.3613C28.4146 31.5145 28.8688 31.5481 29.3069 31.4583C30.2656 31.2716 31.4084 30.5862 32.1387 29.9547C32.8511 29.3387 33.2034 28.7703 33.9245 28.1643C34.6486 27.5558 35.4567 27.0386 36.2799 26.576C37.792 25.726 39.4798 24.9672 41.2115 24.732C44.0965 24.3402 47.5112 25.487 49.0544 28.1026C50.3158 30.2406 50.0804 32.7922 49.2958 35.0756C50.049 33.3795 50.4591 31.564 50.172 29.8454C49.6277 26.5793 46.7901 24.2873 43.57 24.0599C38.9814 23.7361 35.4267 26.3243 31.5233 28.3013C29.9507 29.0974 28.262 29.6786 26.559 30.1234C26.159 30.2277 25.7434 30.3172 25.3196 30.4018C25.8622 30.3181 26.5641 30.1681 27.0546 30.4894Z" fill="#65CAFD"/>
</g>
<path d="M28.2999 30.2216C27.9395 30.809 28.266 31.1829 28.8963 31.3176C30.3236 31.6227 32.5764 30.1356 33.8837 28.6114C34.0793 28.2659 34.1747 27.9232 33.9137 27.7677C33.7091 27.6458 33.4281 27.6731 33.1696 27.7266C32.5478 28.0005 31.9118 28.242 31.2801 28.4915C30.6193 28.7523 29.8072 28.9881 29.1543 29.3981C28.81 29.6143 28.5099 29.879 28.2999 30.2216Z" fill="#F1F2C4"/>
<g style="mix-blend-mode:screen" opacity="0.52">
<path d="M28.8838 30.2405C28.8838 30.2405 28.2428 30.4924 28.8982 30.8896C29.5537 31.2869 30.8903 30.6409 31.2427 30.0161C31.3487 29.8284 29.9109 29.7192 28.8838 30.2405Z" fill="#65CAFD"/>
</g>
</svg>
