<svg width="95" height="219" viewBox="0 0 95 219" fill="none" xmlns="http://www.w3.org/2000/svg">
<mask id="path-1-inside-1_36_7927" fill="white">
<path fill-rule="evenodd" clip-rule="evenodd" d="M54.9355 0.166321C55.1056 0.166983 55.2454 0.300708 55.2535 0.470587C56.3792 23.9395 56.6371 47.4083 56.6169 70.9226C56.6002 71.9586 56.6028 73.1343 56.6055 74.3544L56.6055 74.3549L56.6055 74.3551C56.6107 76.7623 56.6164 79.3425 56.4754 81.3639C56.4264 82.0951 56.3514 82.8211 56.2516 83.54C56.4079 90.7128 58.0349 100.655 61.3355 104.763C65.2807 109.674 76.651 115.189 79.0443 115.456L78.9605 115.462C84.0794 116.099 89.1866 116.9 94.28 117.922C94.4655 117.959 94.5971 118.125 94.5918 118.314C94.5866 118.503 94.4458 118.661 94.2583 118.688C82.8093 120.317 71.3508 120.742 59.8764 120.824C51.6714 120.358 44.3473 128.361 43.8148 139.294C43.7419 140.612 43.6972 142.659 43.6555 144.574L43.6554 144.574C43.6274 145.862 43.6006 147.09 43.5673 147.997C43.3088 158.105 42.9644 168.211 42.5345 178.313C41.9266 191.688 41.2679 205.062 40.2118 218.435C40.1986 218.602 40.0591 218.731 39.8919 218.73C39.7219 218.729 39.5821 218.595 39.5739 218.426C38.4482 194.957 38.1904 171.488 38.2105 147.974C38.2272 146.937 38.2246 145.762 38.222 144.541C38.2167 142.134 38.211 139.554 38.352 137.532C38.4032 136.768 38.4829 136.009 38.5896 135.258C38.6385 134.543 38.7053 133.766 38.7758 132.945C39.2085 127.908 39.7857 121.188 37.2991 116.701C32.727 108.451 24.9729 105.124 20.3395 103.988C13.7427 103.321 7.16362 102.43 0.608834 101.12C0.385749 101.075 0.227474 100.876 0.233765 100.649C0.240062 100.421 0.409398 100.231 0.634841 100.199C12.062 98.5777 23.4985 98.1543 34.951 98.0718C43.156 98.5382 50.4801 90.5354 51.0126 79.6027C51.0856 78.2843 51.1302 76.2374 51.172 74.3227L51.172 74.3219C51.2001 73.0341 51.2268 71.8061 51.2601 70.8996C51.5187 60.7909 51.863 50.6854 52.293 40.5831C52.9012 27.2083 53.5595 13.8337 54.6157 0.460701C54.6288 0.294007 54.7683 0.16567 54.9355 0.166321Z"/>
</mask>
<path fill-rule="evenodd" clip-rule="evenodd" d="M54.9355 0.166321C55.1056 0.166983 55.2454 0.300708 55.2535 0.470587C56.3792 23.9395 56.6371 47.4083 56.6169 70.9226C56.6002 71.9586 56.6028 73.1343 56.6055 74.3544L56.6055 74.3549L56.6055 74.3551C56.6107 76.7623 56.6164 79.3425 56.4754 81.3639C56.4264 82.0951 56.3514 82.8211 56.2516 83.54C56.4079 90.7128 58.0349 100.655 61.3355 104.763C65.2807 109.674 76.651 115.189 79.0443 115.456L78.9605 115.462C84.0794 116.099 89.1866 116.9 94.28 117.922C94.4655 117.959 94.5971 118.125 94.5918 118.314C94.5866 118.503 94.4458 118.661 94.2583 118.688C82.8093 120.317 71.3508 120.742 59.8764 120.824C51.6714 120.358 44.3473 128.361 43.8148 139.294C43.7419 140.612 43.6972 142.659 43.6555 144.574L43.6554 144.574C43.6274 145.862 43.6006 147.09 43.5673 147.997C43.3088 158.105 42.9644 168.211 42.5345 178.313C41.9266 191.688 41.2679 205.062 40.2118 218.435C40.1986 218.602 40.0591 218.731 39.8919 218.73C39.7219 218.729 39.5821 218.595 39.5739 218.426C38.4482 194.957 38.1904 171.488 38.2105 147.974C38.2272 146.937 38.2246 145.762 38.222 144.541C38.2167 142.134 38.211 139.554 38.352 137.532C38.4032 136.768 38.4829 136.009 38.5896 135.258C38.6385 134.543 38.7053 133.766 38.7758 132.945C39.2085 127.908 39.7857 121.188 37.2991 116.701C32.727 108.451 24.9729 105.124 20.3395 103.988C13.7427 103.321 7.16362 102.43 0.608834 101.12C0.385749 101.075 0.227474 100.876 0.233765 100.649C0.240062 100.421 0.409398 100.231 0.634841 100.199C12.062 98.5777 23.4985 98.1543 34.951 98.0718C43.156 98.5382 50.4801 90.5354 51.0126 79.6027C51.0856 78.2843 51.1302 76.2374 51.172 74.3227L51.172 74.3219C51.2001 73.0341 51.2268 71.8061 51.2601 70.8996C51.5187 60.7909 51.863 50.6854 52.293 40.5831C52.9012 27.2083 53.5595 13.8337 54.6157 0.460701C54.6288 0.294007 54.7683 0.16567 54.9355 0.166321Z" fill="#3A426C"/>
<path d="M55.2535 0.470587L59.2489 0.278941L59.2489 0.278919L55.2535 0.470587ZM54.9355 0.166321L54.9199 4.16629L54.9355 0.166321ZM56.6169 70.9226L60.6164 70.987L60.6169 70.9565L60.6169 70.9261L56.6169 70.9226ZM56.6055 74.3544L60.6054 74.3741L60.6055 74.3599L60.6054 74.3456L56.6055 74.3544ZM56.6055 74.3549L60.6039 74.4655L60.6052 74.42L60.6054 74.3746L56.6055 74.3549ZM56.6055 74.3551L52.607 74.2444L52.6053 74.3041L52.6055 74.3638L56.6055 74.3551ZM56.4754 81.3639L52.4851 81.0856L52.4843 81.0968L56.4754 81.3639ZM56.2516 83.54L52.2896 82.9899L52.2456 83.307L52.2526 83.6271L56.2516 83.54ZM61.3355 104.763L64.4537 102.258L64.4537 102.258L61.3355 104.763ZM79.0443 115.456L79.3225 119.446L79.4866 111.48L79.0443 115.456ZM78.9605 115.462L78.6823 111.471L78.4659 119.431L78.9605 115.462ZM94.28 117.922L93.4932 121.844L93.4933 121.844L94.28 117.922ZM94.2583 118.688L94.8218 122.648L94.8218 122.648L94.2583 118.688ZM59.8764 120.824L59.6494 124.818L59.7772 124.825L59.9052 124.824L59.8764 120.824ZM43.8148 139.294L47.8087 139.515L47.8095 139.501L47.8101 139.488L43.8148 139.294ZM43.6555 144.574L47.6539 144.684L47.6542 144.673L47.6545 144.661L43.6555 144.574ZM43.6554 144.574L39.657 144.464L39.6566 144.475L39.6564 144.487L43.6554 144.574ZM43.5673 147.997L39.57 147.85L39.5692 147.872L39.5686 147.894L43.5673 147.997ZM42.5345 178.313L46.5303 178.495L46.5308 178.483L42.5345 178.313ZM40.2118 218.435L44.1993 218.75L44.1993 218.75L40.2118 218.435ZM39.8919 218.73L39.8764 222.73L39.8766 222.73L39.8919 218.73ZM39.5739 218.426L35.5785 218.617L35.5785 218.617L39.5739 218.426ZM38.2105 147.974L34.2111 147.909L34.2106 147.94L34.2105 147.97L38.2105 147.974ZM38.222 144.541L42.222 144.532L38.222 144.541ZM38.352 137.532L42.3424 137.811L42.3431 137.799L38.352 137.532ZM38.5896 135.258L42.5498 135.821L42.5703 135.677L42.5802 135.531L38.5896 135.258ZM38.7758 132.945L42.7612 133.287L42.7612 133.287L38.7758 132.945ZM37.2991 116.701L33.8005 118.64L37.2991 116.701ZM20.3395 103.988L21.2923 100.103L21.0203 100.036L20.7416 100.008L20.3395 103.988ZM0.608834 101.12L-0.175344 105.042L-0.175268 105.042L0.608834 101.12ZM0.634841 100.199L1.19674 104.159L1.19677 104.159L0.634841 100.199ZM34.951 98.0718L35.1781 94.0783L35.0502 94.071L34.9222 94.0719L34.951 98.0718ZM51.0126 79.6027L47.0187 79.3816L47.018 79.3948L47.0173 79.4081L51.0126 79.6027ZM51.172 74.3227L47.1735 74.212L47.1732 74.2237L47.1729 74.2354L51.172 74.3227ZM51.172 74.3219L55.1705 74.4326L55.1708 74.4209L55.171 74.4092L51.172 74.3219ZM51.2601 70.8996L55.2574 71.0461L55.2582 71.024L55.2588 71.0019L51.2601 70.8996ZM52.293 40.5831L48.2971 40.4014L48.2966 40.413L52.293 40.5831ZM54.6157 0.460701L58.6032 0.775625L58.6032 0.775591L54.6157 0.460701ZM59.2489 0.278919C59.1387 -2.01768 57.2492 -3.8247 54.9511 -3.83365L54.9199 4.16629C52.962 4.15867 51.352 2.61909 51.2581 0.662256L59.2489 0.278919ZM60.6169 70.9261C60.6371 47.3845 60.3792 23.8419 59.2489 0.278941L51.2581 0.662233C52.3793 24.037 52.6371 47.4321 52.6169 70.9192L60.6169 70.9261ZM60.6054 74.3456C60.6028 73.1157 60.6004 71.9791 60.6164 70.987L52.6174 70.8583C52.6 71.938 52.6028 73.1528 52.6055 74.3631L60.6054 74.3456ZM60.6054 74.3746L60.6054 74.3741L52.6055 74.3346L52.6055 74.3351L60.6054 74.3746ZM60.6039 74.4657L60.6039 74.4655L52.607 74.2443L52.607 74.2444L60.6039 74.4657ZM60.4657 81.6422C60.6188 79.4467 60.6106 76.7066 60.6054 74.3463L52.6055 74.3638C52.6108 76.818 52.6139 79.2383 52.4851 81.0856L60.4657 81.6422ZM60.2136 84.0901C60.3263 83.2783 60.4111 82.4579 60.4665 81.6309L52.4843 81.0968C52.4418 81.7324 52.3765 82.3639 52.2896 82.9899L60.2136 84.0901ZM52.2526 83.6271C52.3357 87.4419 52.8067 91.9752 53.7041 96.1429C54.5665 100.148 55.9496 104.446 58.2172 107.268L64.4537 102.258C63.4208 100.972 62.3401 98.2452 61.5248 94.4588C60.7445 90.8352 60.3239 86.8109 60.2507 83.4528L52.2526 83.6271ZM58.2172 107.268C60.7084 110.369 65.1315 113.286 68.8244 115.345C70.7487 116.417 72.639 117.347 74.2387 118.036C75.651 118.645 77.3283 119.289 78.602 119.431L79.4866 111.48C79.5636 111.489 78.9222 111.344 77.4061 110.69C76.0776 110.117 74.43 109.311 72.7193 108.357C69.1424 106.363 65.9078 104.068 64.4537 102.258L58.2172 107.268ZM78.7661 111.465L78.6823 111.471L79.2388 119.452L79.3225 119.446L78.7661 111.465ZM95.0667 114C89.8632 112.956 84.6573 112.14 79.4551 111.492L78.4659 119.431C83.5014 120.058 88.51 120.844 93.4932 121.844L95.0667 114ZM98.5903 118.424C98.6493 116.292 97.165 114.421 95.0666 114L93.4933 121.844C91.7659 121.497 90.5448 119.957 90.5934 118.203L98.5903 118.424ZM94.8218 122.648C96.9428 122.346 98.5312 120.559 98.5903 118.424L90.5934 118.203C90.6419 116.447 91.9487 114.976 93.6948 114.728L94.8218 122.648ZM59.9052 124.824C71.4464 124.741 83.1115 124.314 94.8218 122.648L93.6948 114.728C82.5072 116.32 71.2553 116.742 59.8476 116.825L59.9052 124.824ZM47.8101 139.488C48.279 129.861 54.4777 124.524 59.6494 124.818L60.1034 116.831C48.8651 116.192 40.4156 126.861 39.8196 139.099L47.8101 139.488ZM47.6545 144.661C47.6969 142.715 47.7404 140.75 47.8087 139.515L39.821 139.072C39.7434 140.474 39.6975 142.602 39.6564 144.486L47.6545 144.661ZM47.6539 144.685L47.6539 144.684L39.657 144.463L39.657 144.464L47.6539 144.685ZM47.5647 148.143C47.5992 147.2 47.6267 145.938 47.6545 144.662L39.6564 144.487C39.628 145.787 39.6019 146.98 39.57 147.85L47.5647 148.143ZM46.5308 178.483C46.9618 168.358 47.3069 158.23 47.566 148.099L39.5686 147.894C39.3107 157.98 38.9671 168.063 38.5381 178.143L46.5308 178.483ZM44.1993 218.75C45.2612 205.305 45.9223 191.873 46.5303 178.495L38.5386 178.132C37.9309 191.503 37.2746 204.82 36.2242 218.121L44.1993 218.75ZM39.8766 222.73C42.1359 222.739 44.0213 221.004 44.1993 218.75L36.2242 218.121C36.3759 216.2 37.9824 214.723 39.9073 214.73L39.8766 222.73ZM35.5785 218.617C35.6887 220.914 37.5785 222.721 39.8764 222.73L39.9075 214.73C41.8652 214.737 43.4754 216.277 43.5693 218.234L35.5785 218.617ZM34.2105 147.97C34.1903 171.512 34.4483 195.054 35.5785 218.617L43.5693 218.234C42.4481 194.859 42.1904 171.464 42.2105 147.977L34.2105 147.97ZM34.222 144.55C34.2247 145.78 34.227 146.917 34.2111 147.909L42.21 148.038C42.2274 146.958 42.2246 145.743 42.222 144.532L34.222 144.55ZM34.3617 137.254C34.2086 139.45 34.2168 142.19 34.222 144.55L42.222 144.532C42.2166 142.078 42.2135 139.658 42.3423 137.811L34.3617 137.254ZM34.6294 134.695C34.5089 135.543 34.4188 136.401 34.361 137.265L42.3431 137.799C42.3876 137.135 42.4569 136.475 42.5498 135.821L34.6294 134.695ZM42.5802 135.531C42.6264 134.857 42.6899 134.117 42.7612 133.287L34.7905 132.603C34.7207 133.416 34.6507 134.229 34.5989 134.985L42.5802 135.531ZM42.7612 133.287C42.9742 130.807 43.2529 127.621 43.1291 124.46C43.0068 121.337 42.484 117.805 40.7978 114.763L33.8005 118.64C34.6008 120.085 35.0327 122.156 35.1353 124.774C35.2363 127.354 35.0101 130.046 34.7905 132.603L42.7612 133.287ZM40.7978 114.763C35.4876 105.18 26.5357 101.389 21.2923 100.103L19.3867 107.873C23.4101 108.86 29.9665 111.722 33.8005 118.64L40.7978 114.763ZM-0.175268 105.042C6.54019 106.385 13.2527 107.292 19.9374 107.968L20.7416 100.008C14.2326 99.3506 7.78704 98.4757 1.39294 97.1975L-0.175268 105.042ZM-3.7647 100.538C-3.82474 102.709 -2.31396 104.615 -0.175344 105.042L1.39301 97.1976C3.08546 97.5359 4.27969 99.044 4.23224 100.759L-3.7647 100.538ZM0.0729471 96.2388C-2.0879 96.5454 -3.70461 98.3659 -3.7647 100.538L4.23224 100.759C4.18473 102.477 2.90669 103.917 1.19674 104.159L0.0729471 96.2388ZM34.9222 94.0719C23.4031 94.1549 11.7606 94.5804 0.0729148 96.2388L1.19677 104.159C12.3634 102.575 23.594 102.154 34.9799 102.072L34.9222 94.0719ZM47.0173 79.4081C46.5484 89.0354 40.3497 94.3722 35.1781 94.0783L34.724 102.065C45.9623 102.704 54.4118 92.0354 55.0078 79.7972L47.0173 79.4081ZM47.1729 74.2354C47.1305 76.181 47.0871 78.1466 47.0187 79.3816L55.0065 79.8237C55.0841 78.4219 55.1299 76.2939 55.171 74.4099L47.1729 74.2354ZM47.1735 74.2113L47.1735 74.212L55.1704 74.4333L55.1705 74.4326L47.1735 74.2113ZM47.2628 70.753C47.2282 71.696 47.2008 72.9586 47.1729 74.2347L55.171 74.4092C55.1994 73.1096 55.2255 71.9161 55.2574 71.0461L47.2628 70.753ZM48.2966 40.413C47.8657 50.5379 47.5206 60.666 47.2614 70.7973L55.2588 71.0019C55.5168 60.9158 55.8604 50.8329 56.2894 40.7532L48.2966 40.413ZM50.6281 0.145778C49.5662 13.5908 48.9055 27.0232 48.2971 40.4014L56.2888 40.7648C56.8969 27.3933 57.5528 14.0766 58.6032 0.775625L50.6281 0.145778ZM54.9511 -3.83365C52.6918 -3.84245 50.8061 -2.10828 50.6281 0.145811L58.6032 0.775591C58.4516 2.69629 56.8448 4.17378 54.9199 4.16629L54.9511 -3.83365Z" fill="black" mask="url(#path-1-inside-1_36_7927)"/>
</svg>
