<svg width="104" height="127" viewBox="0 0 104 127" fill="none" xmlns="http://www.w3.org/2000/svg">
<g clip-path="url(#clip0_4_1925)">
<path d="M50.6484 98.7476C78.6207 98.7476 101.297 77.2928 101.297 50.8271C101.297 24.3613 78.6207 2.90656 50.6484 2.90656C22.6761 2.90656 0 24.3613 0 50.8271C0 77.2928 22.6761 98.7476 50.6484 98.7476Z" fill="#FF6D66"/>
<path d="M29.9616 2.46606C29.5187 2.47759 29.0779 2.5293 28.6444 2.62061C28.1509 2.69609 27.6686 2.83208 27.2083 3.02539C26.3056 3.38203 25.4171 3.78103 24.5422 4.19986C19.4797 6.63005 14.9069 9.97139 11.0522 14.0572C10.3346 14.8438 9.66471 15.6726 9.04606 16.5393C8.74972 16.945 8.47327 17.3657 8.19796 17.7855C7.89236 18.2509 7.71099 18.7546 7.44252 19.2392C7.21681 19.6467 7.77862 20.1236 8.11244 19.7527C8.42388 19.4067 8.80253 19.1456 9.1082 18.7994C9.41387 18.4532 9.72695 18.1139 10.0449 17.779C10.6544 17.1371 11.2603 16.4942 11.8865 15.8678C13.1736 14.5802 14.4416 13.2907 15.8284 12.1055C18.5727 9.76758 21.5912 7.77265 24.8173 6.16483C25.6903 5.72846 26.5776 5.31726 27.4789 4.9423C28.0072 4.73916 28.5225 4.50391 29.0221 4.23791C29.246 4.1106 29.4355 3.97347 29.6668 3.85464C29.9108 3.72586 30.1387 3.56852 30.3457 3.38595C30.7251 3.06155 30.3959 2.48853 29.9616 2.46606Z" fill="#FF6D66"/>
<path d="M36.819 0.137862C36.5526 0.0120706 36.2555 -0.0333875 35.9638 0.00699797C35.6919 0.0219509 35.422 0.0627263 35.1579 0.128807C34.6967 0.24293 34.2487 0.419198 33.7996 0.571552C33.301 0.720268 32.8114 0.897721 32.3333 1.10311C31.8944 1.31167 31.3434 1.5934 31.18 2.08185C31.1537 2.18474 31.1611 2.29343 31.2014 2.39172C31.2416 2.49002 31.3125 2.5727 31.4034 2.62751C31.6498 2.76446 31.9338 2.81844 32.2133 2.78144C32.481 2.77795 32.748 2.75077 33.011 2.70021C33.4754 2.59514 33.9336 2.46384 34.3832 2.30692C34.8876 2.16811 35.3831 1.99925 35.8673 1.80131C35.7528 1.8257 35.8112 1.79822 36.0424 1.71886C36.0988 1.68828 36.1551 1.65737 36.2113 1.62613C36.327 1.55835 36.4388 1.48424 36.5463 1.4041C36.7819 1.25685 36.9697 1.04431 37.0869 0.792271C37.1208 0.668887 37.1129 0.537752 37.0644 0.419356C37.0159 0.300959 36.9296 0.201983 36.819 0.137862Z" fill="#FF6D66"/>
<path d="M103.673 56.7331C103.642 56.634 103.577 56.549 103.489 56.4933C103.401 56.4375 103.297 56.4145 103.194 56.4283C103.091 56.4421 102.997 56.4919 102.927 56.5688C102.857 56.6458 102.817 56.7449 102.813 56.8487C102.837 57.6416 102.743 58.4338 102.534 59.199C102.37 59.9895 102.165 60.771 101.92 61.5403C101.475 62.9605 101.005 64.3741 100.539 65.7878C99.7408 68.4239 98.6639 70.9672 97.3269 73.3749C96.931 74.0483 96.4999 74.7004 96.0355 75.3284C95.8183 75.6229 95.6066 75.9245 95.4185 76.2382C95.1662 76.5719 94.9689 76.9439 94.8341 77.34C94.808 77.4435 94.8093 77.5521 94.8378 77.655C94.8664 77.7578 94.9212 77.8514 94.9969 77.9266C95.0725 78.0018 95.1665 78.056 95.2694 78.0838C95.3724 78.1116 95.4808 78.1121 95.584 78.0853C96.295 77.7862 96.9115 77.2995 97.3674 76.6769C97.8311 76.1109 98.2528 75.5117 98.6293 74.8843C99.384 73.657 100.043 72.3733 100.6 71.0445C101.804 68.2375 102.787 65.3404 103.539 62.3799C103.781 61.452 103.933 60.5027 103.993 59.5455C103.992 58.599 103.885 57.6556 103.673 56.7331Z" fill="#FF6D66"/>
<path d="M93.9452 79.1458C93.8536 79.0962 93.7488 79.0765 93.6455 79.0898C93.5422 79.103 93.4457 79.1484 93.3695 79.2195C93.3296 79.2552 93.2879 79.2884 93.2465 79.3222C93.1373 79.3998 93.0264 79.4782 92.9125 79.5475C92.8608 79.5712 92.8112 79.5993 92.7643 79.6313C92.7123 79.6672 92.6593 79.7017 92.6053 79.7346C92.4926 79.8035 92.3753 79.8664 92.2586 79.9285C92.1446 79.9891 92.0261 80.0391 91.9146 80.1041C91.7195 80.2359 91.5506 80.4028 91.4163 80.5963C91.3605 80.6869 91.3281 80.7899 91.3221 80.8961C91.316 81.0023 91.3365 81.1084 91.3816 81.2047C91.4193 81.3012 91.4794 81.3874 91.5569 81.4562C91.6344 81.525 91.7271 81.5744 91.8274 81.6003C92.0684 81.6493 92.3174 81.6422 92.5552 81.5794C92.7979 81.4894 93.0214 81.3542 93.2138 81.181C93.3209 81.0969 93.4207 81.0039 93.512 80.9029C93.5553 80.8553 93.5973 80.8067 93.6379 80.757C93.6963 80.6911 93.7506 80.6218 93.8005 80.5494C93.8284 80.5016 93.8516 80.4513 93.8699 80.3991C93.9935 80.1705 94.092 79.9292 94.1635 79.6793C94.1902 79.5787 94.1833 79.4721 94.1439 79.3758C94.1045 79.2795 94.0348 79.1987 93.9452 79.1458Z" fill="#FF6D66"/>
<path d="M94.6161 64.4141C94.398 64.4139 94.1846 64.3516 94.0006 64.2345C93.8167 64.1173 93.6699 63.9502 93.5774 63.7526C93.4849 63.5549 93.4506 63.335 93.4784 63.1186C93.5062 62.9022 93.5951 62.6982 93.7345 62.5305C96.3131 59.4304 96.6582 54.6203 94.473 52.2368C92.4451 50.0256 88.6595 50.5839 84.0868 53.7697C83.9631 53.8559 83.8237 53.9168 83.6764 53.949C83.5292 53.9813 83.3771 53.9842 83.2287 53.9576C83.0803 53.931 82.9387 53.8754 82.8118 53.794C82.6849 53.7126 82.5753 53.6069 82.4892 53.4831C82.4031 53.3593 82.3422 53.2198 82.31 53.0724C82.2778 52.9251 82.2749 52.7728 82.3014 52.6243C82.328 52.4758 82.3836 52.3341 82.4649 52.2071C82.5463 52.0801 82.6518 51.9704 82.7755 51.8842C90.7563 46.3245 94.7975 49.1926 96.1646 50.6838C99.1233 53.9113 98.8185 60.0092 95.499 64.0005C95.3913 64.1302 95.2563 64.2345 95.1037 64.306C94.9511 64.3774 94.7846 64.4144 94.6161 64.4141Z" fill="#133441"/>
<path d="M95.5035 61.8451C93.623 60.3895 92.134 60.9003 91.4312 61.7808C90.9177 63.075 90.6503 64.4539 90.6427 65.8465C90.8085 66.3395 91.108 66.7767 91.5077 67.1092C91.9074 67.4418 92.3916 67.6565 92.9063 67.7295C93.1285 67.7642 93.3532 67.7815 93.5782 67.7816C94.2732 67.8109 94.9619 67.6387 95.5615 67.2855C96.161 66.9324 96.6459 66.4134 96.9577 65.791C97.1712 65.2948 97.6975 63.5427 95.5035 61.8451Z" fill="#133441"/>
<path d="M45.6054 105.038C55.9116 103.567 64.5968 96.9686 70.5556 88.2415C75.0443 81.4367 78.3271 73.9083 80.2597 65.9871C82.9441 55.3652 82.3108 44.4036 79.1328 33.987C76.2928 24.6737 69.9156 12.7922 60.1436 8.99988C51.1451 5.5033 41.1585 9.23422 35.7739 17.005C28.1012 28.0788 29.2718 40.8883 28.3894 53.665C27.9768 58.8244 27.0192 63.9256 25.5324 68.883C23.3742 76.3366 18.7267 84.4993 21.1174 92.4031C23.5034 100.292 32.091 105.009 40.0049 105.323C41.8765 105.398 43.7511 105.303 45.6054 105.038Z" fill="#65CAFD"/>
<g style="mix-blend-mode:screen" opacity="0.52">
<path d="M39.1321 98.3552C40.1197 98.8405 41.1832 99.1522 42.2764 99.2767C42.2924 99.2708 42.3092 99.2673 42.3262 99.2662C50.0106 99.0903 57.3301 95.9503 62.7562 90.5018C68.567 84.7719 72.1592 76.8323 73.4435 68.8131C74.2906 64.208 74.6452 59.5256 74.5014 54.8453C74.4694 54.2583 74.3796 50.9902 73.1837 51.5242C71.8169 52.1343 71.631 54.3344 71.4085 55.6155C71.1281 57.2304 71.0069 58.9014 70.5999 60.4909C70.0028 62.7351 69.2079 64.9219 68.2245 67.0255C66.0491 71.6328 63.1226 75.8455 59.5649 79.491C56.2945 82.9025 52.3698 86.0841 47.7996 87.5285C44.9241 88.4371 41.7676 88.7648 39.1433 90.3513C37.8647 91.1242 36.689 92.2533 36.5642 93.8308C36.4909 94.7555 36.6964 95.681 37.1542 96.4875C37.6119 97.2941 38.3009 97.9447 39.1321 98.3552Z" fill="#65CAFD"/>
</g>
<g style="mix-blend-mode:multiply" opacity="0.5">
<path d="M21.1174 92.4033C23.5034 100.292 32.091 105.01 40.0049 105.323C41.8765 105.399 43.7511 105.303 45.6054 105.038C55.9116 103.567 64.5968 96.9687 70.5556 88.2416C75.0443 81.4369 78.3271 73.9084 80.2597 65.9872C82.9441 55.3654 82.3108 44.4037 79.1328 33.9872C76.2928 24.6738 69.9156 12.7924 60.1436 9.00001C51.1451 5.50344 41.1585 9.23427 35.7739 17.005C28.1012 28.0789 29.2718 40.8885 28.3894 53.6651C27.9768 58.8245 27.0192 63.9256 25.5324 68.883C23.3742 76.3369 18.7267 84.4994 21.1174 92.4033ZM35.5131 74.9615C38.7065 68.0744 40.3877 60.5821 40.4433 52.9898C40.5757 46.7709 40.2837 40.2101 42.0947 34.188C43.5774 29.2587 46.6301 23.8372 51.896 22.2273C56.6102 20.7848 61.583 22.1669 65.4763 25.0553C69.1743 27.7981 72.4814 33.1776 74.2191 37.3611C77.3305 44.8531 77.2591 53.1642 76.7221 61.1206C76.2175 68.6028 74.67 76.142 70.8303 82.6751C67.8208 87.7939 63.7814 92.231 58.9682 95.7052C52.6576 100.063 43.0833 103.312 35.5922 99.9907C24.7081 95.1623 32.033 82.3013 35.5131 74.9615Z" fill="#65CAFD"/>
</g>
<g style="mix-blend-mode:multiply" opacity="0.5">
<path d="M21.1174 92.4033C23.5034 100.292 32.091 105.01 40.0049 105.323C43.1787 105.453 46.3534 105.088 49.4153 104.242C48.4975 104.365 47.5798 104.489 46.6583 104.584C46.5927 104.591 46.5275 104.596 46.4617 104.602C44.4272 104.832 42.3717 104.801 40.3449 104.511C39.4696 104.416 38.5936 104.292 37.7164 104.148C35.1126 103.83 32.6341 102.848 30.5183 101.296C28.6171 99.7572 27.0305 97.8657 25.8454 95.7251C24.6158 93.6433 23.8147 91.3364 23.4893 88.94C23.2759 86.1887 23.8318 83.4321 25.0948 80.9789C25.8387 79.3814 26.7483 77.8664 27.8085 76.459C28.3383 75.5704 28.9141 74.7101 29.5336 73.8816C30.7801 72.1897 32.1274 70.5607 33.2195 68.7604C34.4356 66.8121 35.227 64.6288 35.5418 62.3533C35.8475 59.7443 35.7984 57.1059 35.3958 54.51C35.0609 52.1506 34.5583 49.8381 34.4069 47.4532C34.3493 46.5434 34.3228 45.6316 34.3273 44.7176C34.1259 43.5073 33.9961 42.2862 33.9385 41.0607C33.7413 37.0143 34.3055 32.9668 35.6019 29.129C36.874 25.2545 39.1704 21.7969 42.2475 19.1233C45.7485 16.1579 50.0045 14.2254 54.5399 13.5418C58.4393 12.9903 62.4134 13.6728 65.906 15.4936C68.95 17.1725 71.5987 19.4853 73.6734 22.2759C74.2693 23.0536 74.8331 23.858 75.3646 24.6889C71.9033 17.9496 66.8161 11.589 60.1439 8.99988C51.1454 5.5033 41.1588 9.23422 35.7742 17.005C28.1015 28.0788 29.2721 40.8883 28.3897 53.665C27.9771 58.8244 27.0194 63.9256 25.5327 68.883C23.3742 76.337 18.7267 84.4994 21.1174 92.4033Z" fill="#65CAFD"/>
</g>
<g style="mix-blend-mode:multiply" opacity="0.5">
<path d="M27.1908 68.1804C28.301 67.6348 29.8088 67.8869 30.7808 67.113C31.7931 66.283 32.5564 65.1891 32.9865 63.9521C33.952 61.2593 33.9434 57.3598 33.4528 54.5792C32.9743 51.8672 32.0769 50.1329 31.6366 47.4138C31.227 44.6677 31.0736 41.8894 31.1782 39.1148C31.3093 34.04 31.9313 28.6582 33.9313 23.9465C37.2634 16.0969 45.2432 9.20599 54.1051 9.21754C61.3486 9.22703 67.3908 13.6224 71.9397 19.0012C68.8156 14.5767 64.8793 10.8383 60.1436 9.00031C51.145 5.50373 41.1584 9.23465 35.7738 17.0054C28.1012 28.0792 29.2717 40.8888 28.3894 53.6654C27.9768 58.8248 27.0191 63.926 25.5324 68.8834C25.1957 70.046 24.7983 71.2261 24.3768 72.4196C24.9782 70.9281 25.6522 68.9368 27.1908 68.1804Z" fill="#65CAFD"/>
</g>
<path d="M28.3816 64.645C29.3152 66.4281 30.74 66.1631 32.02 64.7764C34.9188 61.6363 34.5607 53.7466 32.696 48.1827C32.1225 47.1751 31.4066 46.4241 30.6265 46.8499C30.0182 47.2897 29.5871 47.9326 29.411 48.6626C29.1677 50.6365 28.8219 52.5982 28.5024 54.5614C28.168 56.6141 27.5443 59.0108 27.5956 61.2661C27.5922 62.4382 27.8613 63.5949 28.3816 64.645Z" fill="#F1F2C4"/>
<g style="mix-blend-mode:screen" opacity="0.52">
<path d="M29.3021 63.2027C29.3021 63.2027 28.975 65.1924 30.9505 64.1336C32.9259 63.0749 33.3057 58.7461 32.2671 56.9273C31.9554 56.3807 29.5314 59.839 29.3021 63.2027Z" fill="#65CAFD"/>
</g>
<path d="M19.1443 52.9595C18.2172 52.9838 17.2955 52.8109 16.4401 52.4525C15.5846 52.0941 14.8148 51.5582 14.1814 50.8802C11.2224 47.6524 11.5266 41.5546 14.8456 37.5642C15.0403 37.3301 15.32 37.1829 15.6232 37.1552C15.9263 37.1274 16.228 37.2214 16.462 37.4163C16.6959 37.6112 16.8429 37.8911 16.8707 38.1945C16.8984 38.4979 16.8046 38.7999 16.6098 39.034C14.0318 42.1333 13.6874 46.9435 15.8727 49.327C17.9003 51.5387 21.6848 50.9802 26.2565 47.7959C26.5064 47.6219 26.815 47.5543 27.1147 47.608C27.4143 47.6618 27.6803 47.8324 27.8542 48.0825C28.0281 48.3325 28.0956 48.6414 28.0419 48.9413C27.9882 49.2412 27.8177 49.5074 27.5679 49.6815C24.0178 52.1545 21.2464 52.9595 19.1443 52.9595Z" fill="#133441"/>
<path d="M19.7013 35.7187C19.5355 35.2256 19.236 34.7883 18.8363 34.4557C18.4366 34.123 17.9524 33.9081 17.4377 33.8349C16.6438 33.6737 15.8191 33.7757 15.0882 34.1252C14.3574 34.4748 13.7601 35.053 13.3868 35.7725C13.173 36.2691 12.6468 38.0214 14.8406 39.7193C15.4777 40.2707 16.2806 40.5932 17.1218 40.6355C17.4652 40.6389 17.8049 40.564 18.1151 40.4166C18.4254 40.2691 18.698 40.0529 18.9123 39.7844C19.4262 38.4902 19.6936 37.1113 19.7013 35.7187Z" fill="#133441"/>
<path d="M11.0959 106.44C10.9267 106.437 10.7602 106.396 10.6092 106.32C9.22372 105.711 8.23772 103.653 8.05413 103.247C7.92855 102.969 7.91826 102.653 8.02553 102.368C8.13279 102.083 8.34882 101.852 8.6261 101.726C8.90337 101.601 9.21918 101.59 9.50404 101.698C9.78891 101.805 10.0195 102.021 10.1451 102.299C10.4282 102.932 10.8105 103.516 11.2776 104.029C12.8277 103.198 17.9471 98.8904 22.3591 94.8845C22.5845 94.6798 22.8819 94.5731 23.1859 94.5879C23.4899 94.6027 23.7756 94.7377 23.9801 94.9633C24.1847 95.1888 24.2913 95.4865 24.2765 95.7908C24.2618 96.095 24.1269 96.3809 23.9015 96.5856C14.4416 105.175 12.0526 106.44 11.0959 106.44Z" fill="#133441"/>
<g style="mix-blend-mode:multiply">
<path d="M42.3396 127C63.4663 127 80.5929 124.397 80.5929 121.185C80.5929 117.974 63.4663 115.37 42.3396 115.37C21.213 115.37 4.08643 117.974 4.08643 121.185C4.08643 124.397 21.213 127 42.3396 127Z" fill="#DBDACB"/>
</g>
<path d="M65.909 112.133C65.7465 112.133 65.5859 112.098 65.4377 112.032C65.2895 111.965 65.1571 111.868 65.0493 111.746C64.9414 111.624 64.8606 111.481 64.8122 111.326C64.7637 111.171 64.7487 111.007 64.7681 110.846C64.8137 110.386 64.6814 109.926 64.3985 109.56C60.0929 111.329 57.1526 111.389 55.4239 109.742C52.7127 107.161 54.6914 101.687 54.9258 101.071C55.0341 100.786 55.251 100.556 55.5287 100.431C55.8064 100.307 56.1223 100.297 56.4067 100.406C56.6912 100.514 56.921 100.731 57.0456 101.009C57.1701 101.287 57.1793 101.603 57.071 101.888C56.6196 103.081 55.6385 106.779 57.0072 108.079C58.0432 109.063 60.5999 108.732 64.2066 107.146C64.391 107.065 64.5934 107.034 64.7935 107.056C64.9937 107.078 65.1845 107.152 65.3469 107.271C65.9346 107.715 66.3992 108.302 66.6967 108.976C66.9941 109.65 67.1145 110.388 67.0464 111.122C67.0127 111.4 66.8784 111.657 66.6689 111.843C66.4594 112.029 66.1891 112.132 65.909 112.133Z" fill="#133441"/>
<path d="M46.1464 38.1413C47.123 34.4468 44.9178 30.6583 41.2209 29.6795C37.5241 28.7006 33.7354 30.9021 32.7588 34.5966C31.7822 38.2912 33.9874 42.0797 37.6843 43.0585C41.3812 44.0374 45.1698 41.8359 46.1464 38.1413Z" fill="white"/>
<path d="M45.4119 37.272C45.618 36.3503 45.5462 35.3882 45.2057 34.5074C44.8651 33.6265 44.2712 32.8666 43.499 32.3238C42.7267 31.7809 41.811 31.4795 40.8675 31.4577C39.9241 31.4359 38.9954 31.6947 38.199 32.2013C37.4026 32.708 36.7742 33.4397 36.3935 34.3039C36.0127 35.1681 35.8967 36.1259 36.06 37.0561C36.2234 37.9863 36.6588 38.8471 37.3111 39.5296C37.9635 40.212 38.8034 40.6855 39.7247 40.89C40.9583 41.1648 42.2504 40.938 43.3169 40.2596C44.3834 39.5811 45.137 38.5064 45.4119 37.272ZM40.3191 35.6131C40.0209 35.7404 39.6926 35.7801 39.3727 35.7275C39.0528 35.6748 38.7545 35.532 38.5127 35.3158C38.2709 35.0996 38.0957 34.8191 38.0075 34.5068C37.9192 34.1946 37.9217 33.8637 38.0146 33.5528C38.1075 33.242 38.2869 32.964 38.5319 32.7514C38.7769 32.5389 39.0773 32.4006 39.3979 32.3528C39.7186 32.3049 40.0462 32.3495 40.3425 32.4812C40.6388 32.6129 40.8915 32.8264 41.0709 33.0966C41.299 33.5312 41.348 34.0379 41.2075 34.5082C41.067 34.9786 40.7481 35.3751 40.3191 35.6131ZM43.0448 39.6264C42.8722 39.7001 42.6823 39.7231 42.4972 39.6927C42.3121 39.6622 42.1395 39.5797 41.9996 39.4546C41.8597 39.3296 41.7582 39.1672 41.7071 38.9865C41.6561 38.8059 41.6575 38.6144 41.7112 38.4345C41.7649 38.2546 41.8687 38.0939 42.0104 37.9709C42.1521 37.8479 42.3259 37.7678 42.5114 37.74C42.697 37.7123 42.8865 37.7381 43.058 37.8143C43.2294 37.8905 43.3756 38.0139 43.4795 38.1703C43.6115 38.4217 43.6399 38.7149 43.5586 38.987C43.4774 39.2592 43.2929 39.4886 43.0448 39.6264Z" fill="#133441"/>
<path d="M74.9156 45.8566C75.8929 42.1623 73.6884 38.3734 69.9917 37.3938C66.2951 36.4143 62.5061 38.6151 61.5287 42.3094C60.5514 46.0038 62.7559 49.7927 66.4526 50.7723C70.1492 51.7518 73.9382 49.551 74.9156 45.8566Z" fill="white"/>
<path d="M74.1813 44.9864C74.3873 44.0648 74.3155 43.1028 73.975 42.222C73.6344 41.3412 73.0405 40.5813 72.2683 40.0385C71.4961 39.4957 70.5804 39.1944 69.637 39.1726C68.6936 39.1508 67.765 39.4096 66.9687 39.9162C66.1723 40.4229 65.544 41.1545 65.1633 42.0186C64.7825 42.8827 64.6665 43.8404 64.8298 44.7706C64.9931 45.7007 65.4285 46.5615 66.0807 47.244C66.733 47.9264 67.5729 48.3999 68.4941 48.6044C69.7277 48.8793 71.0198 48.6525 72.0863 47.974C73.1528 47.2955 73.9064 46.2209 74.1813 44.9864ZM69.2238 43.0748C68.9119 43.1636 68.5813 43.1617 68.2705 43.0692C67.9597 42.9767 67.6817 42.7976 67.469 42.5527C67.2563 42.3078 67.1176 42.0074 67.0693 41.6865C67.021 41.3657 67.065 41.0377 67.1962 40.741C67.3274 40.4442 67.5404 40.191 67.8101 40.011C68.0798 39.831 68.3953 39.7316 68.7194 39.7244C69.0435 39.7173 69.363 39.8028 69.6404 39.9708C69.9178 40.1387 70.1416 40.3824 70.2857 40.6731C70.4573 41.1329 70.4422 41.6416 70.2438 42.0905C70.0453 42.5394 69.6792 42.8926 69.2238 43.0748ZM72.1679 47.2571C71.9954 47.3308 71.8055 47.3537 71.6204 47.3233C71.4353 47.2928 71.2627 47.2103 71.1227 47.0852C70.9828 46.9602 70.8814 46.7979 70.8303 46.6172C70.7792 46.4366 70.7806 46.2451 70.8343 46.0652C70.888 45.8853 70.9918 45.7245 71.1336 45.6015C71.2753 45.4785 71.4491 45.3985 71.6346 45.3708C71.8201 45.343 72.0097 45.3688 72.1812 45.4449C72.3526 45.5211 72.4988 45.6446 72.6027 45.801C72.7347 46.0524 72.7632 46.3456 72.6819 46.6178C72.6007 46.8899 72.4162 47.1194 72.1679 47.2571Z" fill="#133441"/>
<path d="M67.2427 31.7632C66.6426 32.8315 68.3585 34.2848 70.4804 35.4186C72.3802 36.4338 74.1404 37.5929 75.173 36.3338C77.298 33.7425 69.0498 28.5473 67.2427 31.7632Z" fill="#133441"/>
<path d="M37.7719 25.5905C37.8547 27.2172 39.9587 27.3318 42.0896 27.6451C44.4694 27.995 46.7125 27.8466 46.8641 26.6306C47.3208 22.9695 37.6015 22.2427 37.7719 25.5905Z" fill="#133441"/>
<path d="M48.1223 47.2221C47.2645 45.3436 49.2671 42.8104 53.4456 43.9308C57.624 45.0512 57.8209 48.4216 56.4066 49.4435C55.5955 50.029 54.2892 49.2779 52.1662 48.7088C50.0431 48.1397 48.5489 48.1541 48.1223 47.2221Z" fill="#AB1700"/>
<path d="M50.6954 44.1713C50.7892 43.821 52 43.8387 53.3999 44.2109C54.7997 44.5831 55.8586 45.1689 55.7647 45.5192C55.6708 45.8696 54.5593 45.4814 53.1594 45.1092C51.7596 44.737 50.6016 44.5217 50.6954 44.1713Z" fill="white"/>
<path d="M49.5273 46.862C50.266 47.5821 51.1904 48.0822 52.197 48.3064C53.2767 48.656 54.4362 48.6744 55.5264 48.3591C53.7317 45.3718 51.1093 46.0496 49.5273 46.862Z" fill="#FD6C6C"/>
</g>
<defs>
<clipPath id="clip0_4_1925">
<rect width="104" height="127" fill="white"/>
</clipPath>
</defs>
</svg>
