<svg width="77" height="94" viewBox="0 0 77 94" fill="none" xmlns="http://www.w3.org/2000/svg">
<path d="M39.4997 73.8906C18.7869 73.8906 1.99588 57.8379 1.99588 38.0358C1.99588 18.2337 18.7869 2.18091 39.4997 2.18091C60.2125 2.18091 77.0035 18.2337 77.0035 38.0358C77.0035 57.8379 60.2125 73.8906 39.4997 73.8906Z" fill="#9FB3FF"/>
<path d="M54.8179 1.85132C55.1458 1.85992 55.4723 1.89861 55.7932 1.96696C56.1586 2.02329 56.5158 2.12488 56.8567 2.26941C57.525 2.53608 58.183 2.8348 58.8304 3.14819C62.5791 4.96655 65.9651 7.46665 68.8195 10.5237C69.3508 11.1123 69.8468 11.7325 70.305 12.381C70.5244 12.6845 70.7291 12.9993 70.933 13.3133C71.1592 13.6615 71.2935 14.0384 71.4923 14.401C71.6595 14.7059 71.2435 15.0625 70.9965 14.7852C70.7659 14.5262 70.4856 14.331 70.2592 14.0719C70.0328 13.8128 69.801 13.559 69.5656 13.3083C69.1143 12.8278 68.6656 12.347 68.2019 11.8783C67.2488 10.9149 66.31 9.95033 65.2831 9.0633C63.251 7.31403 61.0159 5.82142 58.6271 4.6184C57.9806 4.29192 57.3237 3.98418 56.6562 3.70353C56.265 3.55151 55.8834 3.37551 55.5135 3.17653C55.3477 3.08126 55.2075 2.97868 55.0361 2.88977C54.8554 2.79337 54.6867 2.67565 54.5334 2.5391C54.2524 2.29685 54.4961 1.8681 54.8179 1.85132Z" fill="#9FB3FF"/>
<path d="M49.7401 0.108919C49.9372 0.0146889 50.1573 -0.0194675 50.3733 0.0106253C50.5746 0.0216436 50.7744 0.05202 50.97 0.101351C51.3114 0.186939 51.6429 0.318655 51.9758 0.432595C52.3449 0.543904 52.7075 0.676734 53.0615 0.830384C53.3866 0.986439 53.7945 1.19721 53.9155 1.56269C53.935 1.63968 53.9295 1.72099 53.8997 1.79454C53.8699 1.86809 53.8174 1.92998 53.7501 1.97101C53.5676 2.07345 53.3574 2.1138 53.1504 2.08614C52.9522 2.08363 52.7545 2.06337 52.5598 2.02564C52.2159 1.94704 51.8766 1.84883 51.5437 1.73141C51.1702 1.62763 50.8032 1.50139 50.4447 1.35337C50.5294 1.37157 50.4862 1.351 50.3151 1.29167C50.2732 1.26879 50.2315 1.24569 50.19 1.22241C50.1043 1.17165 50.0215 1.11614 49.9419 1.05609C49.7674 0.945888 49.6284 0.786833 49.5415 0.598264C49.5166 0.505973 49.5225 0.407912 49.5584 0.319396C49.5944 0.230881 49.6582 0.156875 49.7401 0.108919Z" fill="#9FB3FF"/>
<path d="M0.236696 42.4547C0.259703 42.3806 0.307859 42.3171 0.37268 42.2754C0.437501 42.2337 0.514822 42.2165 0.590961 42.2268C0.6671 42.2372 0.737163 42.2744 0.788799 42.3319C0.840436 42.3894 0.87031 42.4635 0.87315 42.5412C0.855188 43.1345 0.924896 43.7272 1.07996 44.2997C1.20142 44.8912 1.35316 45.4759 1.53459 46.0515C1.864 47.1141 2.21209 48.1718 2.55668 49.2297C3.14806 51.202 3.9455 53.1049 4.93552 54.9064C5.22863 55.4102 5.54779 55.8981 5.89167 56.368C6.05256 56.5884 6.20927 56.8141 6.34863 57.0485C6.53549 57.2982 6.68163 57.5766 6.78151 57.873C6.80084 57.9504 6.79991 58.0316 6.77878 58.1085C6.75766 58.1855 6.71707 58.2555 6.66103 58.3118C6.60499 58.3681 6.53543 58.4086 6.45919 58.4294C6.38295 58.4502 6.30266 58.4506 6.22623 58.4305C5.69973 58.2068 5.24327 57.8426 4.90569 57.3768C4.56231 56.9533 4.24996 56.505 3.97114 56.0355C3.4123 55.1172 2.92433 54.1566 2.51159 53.1624C1.62021 51.0621 0.892776 48.8944 0.335969 46.6793C0.156588 45.9851 0.0440888 45.2749 2.38419e-06 44.5587C0.000403404 43.8506 0.0797982 43.1448 0.236696 42.4547Z" fill="#9FB3FF"/>
<path d="M7.4395 59.2243C7.5073 59.1872 7.5849 59.1726 7.66136 59.1825C7.73782 59.1924 7.80929 59.2263 7.86566 59.2795C7.89556 59.3061 7.92614 59.331 7.95672 59.3563C8.03761 59.4144 8.1197 59.4731 8.20411 59.5249C8.24239 59.5426 8.2791 59.5636 8.31386 59.5876C8.35229 59.6144 8.39152 59.6401 8.43154 59.6648C8.51498 59.7164 8.60185 59.7631 8.68828 59.8099C8.77254 59.8553 8.86023 59.8931 8.943 59.9414C9.08745 60.0399 9.21255 60.1647 9.31196 60.3095C9.35328 60.3772 9.37726 60.4543 9.38174 60.5338C9.38622 60.6133 9.37105 60.6926 9.3376 60.7646C9.30968 60.8369 9.26521 60.9014 9.20784 60.9529C9.15047 61.0043 9.08184 61.0413 9.00759 61.0607C8.82912 61.0974 8.64471 61.092 8.46862 61.0451C8.28894 60.9777 8.1235 60.8765 7.98102 60.7469C7.90167 60.684 7.82779 60.6142 7.76017 60.5385C7.72807 60.503 7.69698 60.4667 7.66693 60.4294C7.62372 60.3801 7.58349 60.3283 7.54648 60.2741C7.52586 60.2383 7.50867 60.2007 7.49512 60.1617C7.4036 59.9906 7.33073 59.8101 7.27779 59.6231C7.25811 59.5479 7.26325 59.4682 7.29244 59.3962C7.32163 59.3242 7.37327 59.2639 7.4395 59.2243Z" fill="#9FB3FF"/>
<g style="mix-blend-mode:multiply" opacity="0.5">
<path d="M22.8661 70.0026C22.7988 69.9194 22.7304 69.8363 22.6642 69.752C22.7726 69.8729 22.8828 69.9919 22.9932 70.1103C22.951 70.0743 22.9089 70.0385 22.8661 70.0026Z" fill="#764938"/>
</g>
<path d="M25.5347 72.7868C19.7204 67.6681 16.9758 59.9889 16.7819 52.0826C16.7284 45.9819 17.7155 39.9175 19.6999 34.1561C22.3572 26.4757 27.0513 19.6819 33.2691 14.5174C38.7796 9.82423 47.5213 4.95782 55.1202 6.55351C62.1192 8.0203 66.8259 14.428 67.0477 21.5C67.3632 31.5777 61.4843 39.1462 56.8948 47.5296C55.0765 50.9379 53.6204 54.5313 52.551 58.2498C50.8948 63.8096 50.501 70.8276 45.8365 74.8185C41.1812 78.8016 33.9464 78.2694 28.9016 75.2449C27.7077 74.5307 26.5808 73.7079 25.5347 72.7868Z" fill="#65CAFD"/>
<g style="mix-blend-mode:screen" opacity="0.52">
<path d="M32.2457 71.2246C31.4366 71.1274 30.6501 70.8903 29.9205 70.5236C29.9129 70.5134 29.9039 70.5043 29.8938 70.4967C25.1884 67.2586 21.9018 62.3073 20.7203 56.6769C19.5314 50.6142 20.2589 44.3269 22.7998 38.7055C24.1253 35.4686 25.7879 32.3836 27.7594 29.5027C28.0153 29.1474 29.3855 27.1311 29.914 27.9532C30.5182 28.8927 29.7489 30.3499 29.372 31.2453C28.8969 32.3737 28.3003 33.4723 27.9141 34.6363C27.3827 36.2888 26.9974 37.9858 26.7628 39.7072C26.262 43.4862 26.3868 47.3231 27.132 51.0606C27.7927 54.5343 28.9527 58.1299 31.2123 60.8971C32.6342 62.6382 34.4646 64.1288 35.4574 66.1933C35.7448 66.6767 35.9134 67.2228 35.9488 67.7857C35.9843 68.3486 35.8856 68.912 35.6611 69.4283C35.3348 70.0389 34.8349 70.5364 34.2261 70.8567C33.6172 71.1769 32.9273 71.3051 32.2457 71.2246Z" fill="#65CAFD"/>
</g>
<g style="mix-blend-mode:multiply" opacity="0.5">
<path d="M45.836 74.8189C41.1807 78.802 33.9459 78.2698 28.901 75.2453C27.7074 74.5311 26.5806 73.7082 25.5347 72.787C19.7204 67.6684 16.9758 59.9892 16.7819 52.0828C16.7284 45.9821 17.7155 39.9178 19.6999 34.1563C22.3572 26.4759 27.0513 19.6821 33.2691 14.5177C38.7796 9.82447 47.5213 4.95806 55.1202 6.55376C62.1192 8.02055 66.8259 14.4282 67.0477 21.5002C67.3632 31.578 61.4843 39.1464 56.8948 47.5298C55.0765 50.9381 53.6204 54.5316 52.551 58.2501C50.8943 63.81 50.5004 70.828 45.836 74.8189ZM43.9025 58.0055C44.6873 52.3803 46.6555 46.9906 49.6743 42.1997C52.0929 38.2401 54.9129 34.2383 56.2086 29.7196C57.2695 26.0202 57.5523 21.3728 54.9268 18.2183C52.5768 15.3936 48.9302 14.2377 45.3487 14.467C41.9473 14.6844 37.7285 16.7169 34.966 18.637C30.0193 22.0759 26.7213 27.3243 23.8555 32.5401C21.1601 37.4448 19.0901 42.8094 18.8494 48.4753C18.6614 52.9151 19.3877 57.3459 20.9822 61.4869C23.1517 66.7925 27.7962 72.7297 33.7878 73.6929C42.4947 75.0902 43.114 64.0314 43.9025 58.0055Z" fill="#65CAFD"/>
</g>
<g style="mix-blend-mode:multiply" opacity="0.5">
<path d="M45.836 74.8189C41.1807 78.8021 33.9459 78.2698 28.9011 75.2454C26.8763 74.0351 25.0497 72.5139 23.4869 70.7364C24.0078 71.187 24.5284 71.6384 25.0628 72.0734C25.1008 72.1043 25.1394 72.1339 25.1777 72.1647C26.35 73.137 27.6399 73.9543 29.0163 74.597C29.5987 74.8935 30.1918 75.1741 30.7957 75.439C32.5421 76.299 34.4776 76.6911 36.4168 76.5778C38.2173 76.3851 39.9641 75.8429 41.5615 74.9809C43.1629 74.174 44.5886 73.0511 45.7545 71.6786C46.9936 70.0374 47.7566 68.0799 47.9582 66.0252C48.1382 64.719 48.1821 63.3974 48.0892 62.082C48.1172 61.3082 48.1053 60.5334 48.0534 59.7609C47.9591 58.191 47.7768 56.6195 47.8217 55.0444C47.8493 53.3259 48.2354 51.6326 48.9548 50.0753C49.8139 48.3124 50.9055 46.6753 52.1995 45.2089C53.3566 43.8635 54.599 42.6155 55.652 41.179C56.0537 40.6311 56.4369 40.0691 56.8017 39.493C57.4135 38.8149 57.9852 38.1008 58.5138 37.3546C60.2637 34.8936 61.5406 32.1219 62.2782 29.184C63.0457 26.2329 63.0088 23.1267 62.1715 20.1951C61.188 16.9078 59.3199 13.9618 56.7759 11.6865C54.5741 9.75295 51.8296 8.564 48.9265 8.28601C46.3594 8.1014 43.7831 8.47582 41.3713 9.38403C40.6881 9.62991 40.0142 9.90562 39.3497 10.2111C44.2113 7.38741 49.931 5.46334 55.1193 6.55299C62.1184 8.01978 66.8251 14.4274 67.0468 21.4995C67.3623 31.5772 61.4835 39.1457 56.8939 47.529C55.0757 50.9373 53.6196 54.5308 52.5502 58.2493C50.8943 63.8101 50.5004 70.8281 45.836 74.8189Z" fill="#65CAFD"/>
</g>
<g style="mix-blend-mode:multiply" opacity="0.5">
<path d="M51.8024 57.1339C51.3317 56.3393 50.2932 55.884 50.0006 55.0023C49.7052 54.069 49.6707 53.0713 49.9008 52.1193C50.5775 49.8478 51.7689 47.7672 53.3803 46.0431C54.7683 44.5346 56.0235 43.8106 57.3907 42.2821C58.7496 40.7241 59.9623 39.0417 61.0131 37.2566C62.9724 34.0159 64.75 30.383 65.4017 26.6098C66.4873 20.3237 64.2988 12.748 58.7862 9.14801C54.2803 6.20574 48.7572 6.50687 43.7669 8.03346C47.4879 6.5263 51.4376 5.78033 55.1205 6.5538C62.1195 8.02059 66.8262 14.4283 67.048 21.5003C67.3635 31.5781 61.4847 39.1465 56.8951 47.5299C55.0768 50.9381 53.6208 54.5316 52.5513 58.2501C52.293 59.1174 52.0653 60.0202 51.8475 60.9418C52.0724 59.76 52.4544 58.2352 51.8024 57.1339Z" fill="#65CAFD"/>
</g>
<path d="M52.484 54.4293C51.1869 55.1691 50.4076 54.4228 50.1698 53.0306C49.6307 49.8786 53.0262 45.0691 56.4227 42.334C57.1843 41.9346 57.9313 41.7543 58.2449 42.3392C58.4461 42.8629 58.4555 43.4422 58.2714 43.9723C57.6289 45.311 57.0549 46.6838 56.464 48.0467C55.8917 49.6355 55.1779 51.1684 54.3314 52.6266C53.8622 53.3643 53.2297 53.9814 52.484 54.4293Z" fill="#F1F2C4"/>
<g style="mix-blend-mode:screen" opacity="0.52">
<path d="M52.4919 53.1486C52.4919 53.1486 51.8951 54.5313 51.093 53.0623C50.291 51.5933 51.7958 48.7201 53.1727 48.0005C53.5864 47.7843 53.7021 50.9427 52.4919 53.1486Z" fill="#65CAFD"/>
</g>
<g style="mix-blend-mode:multiply">
<path d="M34.8147 93.9299C19.5521 93.9299 7.17926 92.0294 7.17926 89.685C7.17926 87.3407 19.5521 85.4402 34.8147 85.4402C50.0773 85.4402 62.4501 87.3407 62.4501 89.685C62.4501 92.0294 50.0773 93.9299 34.8147 93.9299Z" fill="#DBDACB"/>
</g>
<path d="M52.1838 85.0511C52.2182 85.0511 52.2533 85.0494 52.2894 85.0463C53.3785 84.955 54.5342 83.7677 54.7549 83.5308C54.9028 83.3684 54.9814 83.1535 54.9736 82.9328C54.9658 82.7121 54.8722 82.5035 54.7132 82.3521C54.5542 82.2008 54.3426 82.119 54.1243 82.1245C53.906 82.13 53.6987 82.2224 53.5474 82.3815C53.2221 82.7301 52.849 83.0297 52.4397 83.2712C52.2993 82.9951 52.1125 82.5529 51.9419 82.1485C50.8158 79.1356 49.0526 76.4077 46.7757 74.1555C46.696 74.0799 46.6023 74.0209 46.4999 73.982C46.3976 73.9432 46.2887 73.9251 46.1794 73.929C46.0702 73.9328 45.9628 73.9585 45.8634 74.0045C45.764 74.0505 45.6745 74.116 45.6002 74.197C45.5259 74.2781 45.4682 74.3732 45.4304 74.477C45.3926 74.5807 45.3755 74.691 45.3799 74.8014C45.3844 74.9119 45.4105 75.0204 45.4566 75.1206C45.5027 75.2208 45.5679 75.3108 45.6486 75.3855C47.7499 77.4815 49.3767 80.0135 50.4167 82.8068C51.0017 84.1922 51.3638 85.0511 52.1838 85.0511Z" fill="#133441"/>
<path d="M17.6001 73.7498C17.8795 73.75 18.1574 73.7092 18.4253 73.6289C21.0183 72.8549 21.5482 68.6393 21.6001 68.1613C21.6231 67.9408 21.5588 67.7201 21.4213 67.5474C21.2838 67.3748 21.0843 67.2642 20.8664 67.2399C20.6485 67.2156 20.43 67.2795 20.2586 67.4177C20.0872 67.5559 19.9768 67.7571 19.9517 67.9774C19.8492 68.9028 19.2624 71.6322 17.9546 72.0209C16.9649 72.3151 15.4297 71.2479 13.6325 69.0154C13.5405 68.9016 13.4205 68.8141 13.2846 68.7618C13.1487 68.7094 13.0016 68.694 12.858 68.717C12.3341 68.8093 11.8422 69.0356 11.4291 69.3742C11.0159 69.7129 10.6953 70.1527 10.4976 70.652C10.4587 70.7555 10.4405 70.8659 10.4441 70.9766C10.4477 71.0873 10.4729 71.1962 10.5183 71.297C10.5638 71.3978 10.6285 71.4885 10.7088 71.5639C10.7891 71.6392 10.8833 71.6978 10.9861 71.7361C11.0889 71.7744 11.1981 71.7918 11.3076 71.7871C11.417 71.7825 11.5245 71.756 11.6237 71.7091C11.723 71.6622 11.8121 71.596 11.8858 71.5141C11.9596 71.4322 12.0166 71.3363 12.0535 71.232C12.1757 70.9181 12.4121 70.6634 12.7143 70.5203C14.5445 72.6842 16.1544 73.7498 17.6001 73.7498Z" fill="#133441"/>
<path d="M62.683 55.7464C63.6086 55.7517 64.5143 55.4748 65.2821 54.952C67.8977 53.1554 68.6949 48.7721 67.0231 45.3801C66.9745 45.2815 66.9072 45.1937 66.825 45.1214C66.7428 45.0492 66.6473 44.994 66.544 44.9591C66.4408 44.9241 66.3317 44.9101 66.2231 44.9178C66.1144 44.9255 66.0084 44.9548 65.9109 45.0039C65.8135 45.0531 65.7266 45.1211 65.6551 45.2043C65.5837 45.2874 65.5291 45.3839 65.4946 45.4883C65.4601 45.5928 65.4462 45.7031 65.4538 45.8129C65.4614 45.9228 65.4903 46.0301 65.5389 46.1286C66.8377 48.7633 66.2821 52.2384 64.3502 53.565C62.5576 54.7961 59.9893 53.7642 57.3032 50.7348C57.1564 50.5692 56.9506 50.4694 56.7311 50.4573C56.5115 50.4452 56.2962 50.5218 56.1325 50.6702C55.9688 50.8186 55.8701 51.0268 55.8581 51.2488C55.8461 51.4708 55.9218 51.6886 56.0686 51.8542C58.7793 54.9112 61.0317 55.7464 62.683 55.7464Z" fill="#133441"/>
<path d="M63.7138 44.8194C63.5754 44.2909 63.6479 43.7285 63.9156 43.2534C64.114 42.9309 64.397 42.6705 64.7332 42.5013C65.0694 42.3321 65.4455 42.2607 65.8195 42.295C66.4044 42.3139 66.9673 42.5248 67.4232 42.8958C67.8791 43.2668 68.2032 43.7778 68.3465 44.3515C68.4143 44.7401 68.4936 46.0733 66.6696 46.9116C66.2649 47.1107 65.8228 47.2199 65.373 47.2319C65.0465 47.2451 64.7232 47.1616 64.4431 46.9914C64.1629 46.8213 63.938 46.572 63.7961 46.2743C63.5963 45.8152 63.5671 45.2986 63.7138 44.8194Z" fill="#133441"/>
<path d="M12.8556 42.3222C12.9036 42.3223 12.9515 42.3181 12.9988 42.3096C13.2154 42.2715 13.4082 42.148 13.5347 41.9662C13.6612 41.7843 13.7112 41.5591 13.6735 41.3401C13.1744 38.4395 14.6894 35.2703 16.9156 34.5581C18.9811 33.8967 21.1513 35.6288 22.8686 39.311C22.9624 39.5121 23.1314 39.6674 23.3384 39.7425C23.5453 39.8177 23.7734 39.8066 23.9723 39.7117C24.1712 39.6169 24.3247 39.446 24.399 39.2367C24.4733 39.0274 24.4623 38.7968 24.3685 38.5957C21.3716 32.1702 17.8084 32.513 16.4152 32.9596C13.4009 33.9241 11.3972 37.8938 12.0396 41.6276C12.0733 41.8219 12.1735 41.998 12.3227 42.125C12.4719 42.252 12.6606 42.3218 12.8556 42.3222Z" fill="#133441"/>
<path d="M12.4774 44.9858C12.8091 45.0908 13.1619 45.1071 13.5017 45.0333C13.8414 44.9594 14.1565 44.7979 14.4162 44.5645C14.9127 43.6806 15.2415 42.7107 15.3858 41.7046C15.2625 40.8918 14.515 40.0261 12.8124 40.2621C10.8275 40.5371 10.5263 41.8375 10.4812 42.2295C10.4561 42.8208 10.622 43.4043 10.9538 43.8918C11.2856 44.3794 11.7653 44.7444 12.3204 44.9318C12.3725 44.952 12.4249 44.97 12.4774 44.9858Z" fill="#133441"/>
<path d="M57.9602 36.1323C55.6155 35.564 54.1697 33.1839 54.7309 30.8162C55.2921 28.4485 57.6477 26.9898 59.9924 27.5581C62.337 28.1264 63.7828 30.5066 63.2216 32.8743C62.6604 35.242 60.3048 36.7006 57.9602 36.1323Z" fill="white"/>
<path d="M57.236 30.5784C57.4138 30.0042 57.756 29.4962 58.2194 29.1188C58.6828 28.7413 59.2465 28.5114 59.8392 28.458C60.4318 28.4047 61.0268 28.5304 61.5488 28.8191C62.0708 29.1079 62.4964 29.5467 62.7717 30.0802C63.0469 30.6136 63.1595 31.2177 63.0952 31.8159C63.0309 32.4141 62.7926 32.9795 62.4104 33.4407C62.0282 33.9018 61.5193 34.2379 60.9481 34.4065C60.3769 34.575 59.7691 34.5685 59.2017 34.3876C58.4417 34.1458 57.8077 33.6087 57.4392 32.8944C57.0706 32.1802 56.9975 31.3471 57.236 30.5784ZM60.5394 31.2866C60.6622 31.4519 60.8289 31.5784 61.0202 31.6514C61.2114 31.7243 61.4193 31.7407 61.6194 31.6985C61.8195 31.6563 62.0036 31.5573 62.1501 31.4132C62.2966 31.269 62.3995 31.0857 62.4467 30.8845C62.494 30.6834 62.4835 30.4728 62.4167 30.2775C62.3499 30.0821 62.2294 29.9101 62.0694 29.7814C61.9094 29.6528 61.7165 29.5729 61.5132 29.5511C61.3099 29.5293 61.1047 29.5666 60.9216 29.6584C60.6602 29.8255 60.4738 30.0895 60.4024 30.3938C60.3309 30.698 60.3801 31.0185 60.5394 31.2866ZM57.787 32.6324C57.858 32.728 57.9545 32.8012 58.0651 32.8434C58.1758 32.8856 58.2961 32.8951 58.4118 32.8707C58.5276 32.8463 58.6341 32.789 58.7189 32.7056C58.8036 32.6222 58.8632 32.5161 58.8905 32.3998C58.9178 32.2834 58.9118 32.1616 58.8731 32.0485C58.8345 31.9355 58.7648 31.8359 58.6723 31.7615C58.5797 31.6871 58.4681 31.6409 58.3505 31.6282C58.2329 31.6156 58.1142 31.6371 58.0082 31.6903C57.857 31.7869 57.7492 31.9396 57.7078 32.1156C57.6665 32.2916 57.6949 32.4773 57.787 32.6324Z" fill="#133441"/>
<path d="M39.8208 31.2175C37.4762 30.6492 36.0304 28.2691 36.5916 25.9014C37.1528 23.5337 39.5084 22.075 41.853 22.6433C44.1977 23.2116 45.6435 25.5918 45.0823 27.9595C44.5211 30.3272 42.1655 31.7859 39.8208 31.2175Z" fill="white"/>
<path d="M39.0968 25.6634C39.2746 25.0892 39.6169 24.5813 40.0802 24.2039C40.5436 23.8264 41.1073 23.5965 41.6999 23.5432C42.2926 23.4899 42.8875 23.6155 43.4095 23.9043C43.9315 24.193 44.3571 24.6319 44.6323 25.1653C44.9076 25.6988 45.0202 26.3028 44.9559 26.9009C44.8916 27.4991 44.6533 28.0645 44.2711 28.5257C43.8889 28.9868 43.38 29.3229 42.8089 29.4915C42.2377 29.6601 41.6299 29.6535 41.0625 29.4726C40.3025 29.2308 39.6686 28.6938 39.3 27.9795C38.9314 27.2652 38.8583 26.4321 39.0968 25.6634ZM42.406 26.1892C42.5483 26.3376 42.7295 26.4419 42.9283 26.49C43.1271 26.538 43.3354 26.5277 43.5286 26.4604C43.7219 26.3931 43.8922 26.2716 44.0197 26.1099C44.1471 25.9483 44.2264 25.7533 44.2482 25.5478C44.27 25.3422 44.2335 25.1346 44.1429 24.9493C44.0523 24.764 43.9114 24.6086 43.7366 24.5014C43.5619 24.3941 43.3606 24.3394 43.1562 24.3436C42.9518 24.3479 42.7529 24.4109 42.5827 24.5254C42.3441 24.7244 42.1921 25.01 42.159 25.3209C42.126 25.6319 42.2147 25.9435 42.406 26.1892ZM39.4809 27.5582C39.552 27.6538 39.6484 27.727 39.7591 27.7692C39.8698 27.8114 39.99 27.8208 40.1058 27.7964C40.2216 27.772 40.3281 27.7148 40.4128 27.6314C40.4976 27.548 40.5572 27.4419 40.5845 27.3255C40.6118 27.2091 40.6058 27.0873 40.5671 26.9743C40.5284 26.8612 40.4587 26.7617 40.3662 26.6873C40.2736 26.6128 40.162 26.5666 40.0444 26.554C39.9268 26.5414 39.808 26.5629 39.7021 26.6161C39.5508 26.7127 39.4429 26.8655 39.4015 27.0416C39.3602 27.2177 39.3887 27.403 39.4809 27.5582Z" fill="#133441"/>
<path d="M45.2813 23.4702C44.8776 24.1355 43.5511 23.63 42.2764 22.7995C41.135 22.0558 39.9571 21.4345 40.3337 20.4691C41.1084 18.4823 46.4976 21.4669 45.2813 23.4702Z" fill="#133441"/>
<path d="M63.7148 27.4378C63.4146 28.4301 62.1104 28.1743 60.7593 28.0371C59.2503 27.8839 57.9015 27.444 57.9954 26.669C58.2783 24.3358 64.333 25.3956 63.7148 27.4378Z" fill="#133441"/>
<path d="M51.7558 35.6754C52.816 34.9124 52.5205 32.8764 49.8859 32.1626C47.2514 31.4488 46.0823 33.2454 46.5326 34.2602C46.791 34.8417 47.7408 34.8438 49.0794 35.2065C50.4179 35.5691 51.2294 36.0536 51.7558 35.6754Z" fill="#AB1700"/>
<path d="M51.3117 33.1719C51.3709 32.9487 50.7041 32.5725 49.8225 32.3316C48.9409 32.0907 48.1782 32.0764 48.1191 32.2996C48.06 32.5228 48.7892 32.663 49.6708 32.9039C50.5524 33.1447 51.2529 33.3952 51.3117 33.1719Z" fill="white"/>
<path d="M51.1024 35.029C50.4722 35.1908 49.8099 35.172 49.1897 34.9748C48.49 34.8236 47.8511 34.4641 47.3551 33.9426C49.2759 32.8665 50.4943 34.0765 51.1024 35.029Z" fill="#FD6C6C"/>
</svg>
