<svg width="323" height="331" viewBox="0 0 323 331" fill="none" xmlns="http://www.w3.org/2000/svg">
<path d="M159.474 330.322C245.026 330.322 314.379 264.018 314.379 182.228C314.379 100.438 245.026 34.134 159.474 34.134C73.9223 34.134 4.56891 100.438 4.56891 182.228C4.56891 264.018 73.9223 330.322 159.474 330.322Z" fill="#050505"/>
<path d="M96.2043 32.7728C94.8501 32.8084 93.5018 32.9681 92.176 33.2503C90.6668 33.4836 89.1916 33.9038 87.7837 34.5012C85.0224 35.6024 82.3057 36.8363 79.6299 38.1308C64.1464 45.6412 50.161 55.9675 38.3715 68.5944C36.1771 71.0255 34.1282 73.5871 32.2359 76.2654C31.3298 77.5193 30.4841 78.8193 29.6413 80.1163C28.7066 81.5547 28.1521 83.1112 27.3303 84.6086C26.6399 85.8679 28.3578 87.3405 29.378 86.1955C30.3304 85.1262 31.4884 84.3194 32.4237 83.2495C33.3589 82.1795 34.3146 81.131 35.2883 80.0959C37.1525 78.1114 39.0056 76.1255 40.9209 74.1895C44.8573 70.2104 48.7356 66.2253 52.977 62.564C61.3702 55.3387 70.6019 49.1737 80.4685 44.2049C83.1398 42.8566 85.8517 41.5854 88.6092 40.4268C90.2247 39.7989 91.8008 39.0718 93.3287 38.2498C94.0136 37.8552 94.5925 37.4326 95.3003 37.0659C96.0467 36.6679 96.7438 36.1818 97.3768 35.6176C98.5396 34.6128 97.5328 32.842 96.2043 32.7728Z" fill="#050505"/>
<path d="M117.177 25.5762C116.363 25.1876 115.454 25.0471 114.562 25.172C113.731 25.2181 112.905 25.344 112.097 25.5482C110.687 25.9016 109.317 26.4459 107.943 26.9164C106.419 27.3761 104.921 27.9246 103.459 28.5593C102.117 29.2041 100.431 30.0747 99.9315 31.5841C99.8509 31.9021 99.8738 32.2378 99.9969 32.5416C100.12 32.8453 100.337 33.1009 100.615 33.2702C101.368 33.6935 102.237 33.8603 103.092 33.7462C103.911 33.7352 104.727 33.6512 105.531 33.495C106.952 33.1707 108.353 32.7653 109.728 32.2807C111.271 31.8518 112.787 31.3301 114.268 30.7184C113.917 30.7937 114.095 30.7087 114.803 30.4635C114.975 30.3692 115.148 30.2739 115.319 30.1778C115.673 29.9683 116.015 29.7392 116.344 29.4916C117.065 29.0365 117.639 28.3796 117.997 27.6006C118.101 27.219 118.077 26.8134 117.928 26.4471C117.78 26.0809 117.516 25.7746 117.177 25.5762Z" fill="#050505"/>
<path d="M321.645 200.48C321.55 200.174 321.351 199.911 321.083 199.738C320.816 199.566 320.496 199.495 320.182 199.538C319.867 199.58 319.577 199.734 319.364 199.972C319.151 200.21 319.027 200.516 319.016 200.837C319.09 203.288 318.802 205.736 318.162 208.101C317.66 210.544 317.033 212.959 316.284 215.336C314.923 219.725 313.486 224.094 312.062 228.463C309.62 236.609 306.326 244.47 302.237 251.91C301.026 253.991 299.708 256.006 298.288 257.947C297.623 258.858 296.976 259.789 296.4 260.759C295.628 261.79 295.025 262.94 294.612 264.164C294.532 264.484 294.536 264.819 294.623 265.137C294.711 265.455 294.878 265.744 295.11 265.977C295.341 266.209 295.629 266.377 295.944 266.463C296.258 266.549 296.59 266.55 296.906 266.467C299.08 265.543 300.966 264.039 302.36 262.114C303.778 260.365 305.068 258.514 306.22 256.575C308.528 252.782 310.543 248.815 312.248 244.708C315.93 236.033 318.935 227.08 321.235 217.931C321.977 215.063 322.441 212.13 322.623 209.172C322.621 206.246 322.293 203.331 321.645 200.48Z" fill="#050505"/>
<path d="M291.894 269.745C291.614 269.591 291.293 269.531 290.977 269.572C290.662 269.613 290.366 269.753 290.133 269.973C290.011 270.083 289.884 270.185 289.757 270.29C289.423 270.53 289.084 270.772 288.737 270.986C288.579 271.059 288.427 271.146 288.283 271.245C288.125 271.356 287.963 271.462 287.797 271.564C287.453 271.777 287.094 271.972 286.737 272.164C286.388 272.351 286.026 272.506 285.686 272.706C285.09 273.113 284.573 273.629 284.162 274.227C283.992 274.507 283.893 274.825 283.874 275.153C283.856 275.481 283.918 275.809 284.056 276.107C284.172 276.405 284.355 276.672 284.592 276.884C284.829 277.097 285.113 277.25 285.419 277.33C286.157 277.481 286.918 277.459 287.646 277.265C288.388 276.987 289.071 276.569 289.659 276.034C289.987 275.774 290.293 275.486 290.572 275.173C290.704 275.026 290.832 274.876 290.957 274.722C291.135 274.519 291.301 274.305 291.454 274.081C291.539 273.933 291.611 273.778 291.666 273.616C292.045 272.91 292.346 272.164 292.564 271.392C292.645 271.081 292.623 270.752 292.502 270.455C292.382 270.157 292.168 269.908 291.894 269.745Z" fill="#050505"/>
<path d="M154.905 305.195C240.457 305.195 309.81 238.891 309.81 157.101C309.81 75.3104 240.457 9.00635 154.905 9.00635C69.3534 9.00635 0 75.3104 0 157.101C0 238.891 69.3534 305.195 154.905 305.195Z" fill="#9FB3FF"/>
<path d="M91.6355 7.64514C90.2812 7.68068 88.9329 7.84046 87.6072 8.12257C86.0979 8.35594 84.6228 8.77607 83.2149 9.37347C80.4535 10.4747 77.7368 11.7086 75.061 13.0032C59.5776 20.5135 45.5922 30.8398 33.8027 43.4667C31.6082 45.8978 29.5594 48.4594 27.6671 51.1377C26.7609 52.3916 25.9153 53.6916 25.0724 54.9886C24.1378 56.4271 23.5832 57.9835 22.7614 59.4809C22.0711 60.7403 23.789 62.2128 24.8092 61.0679C25.7616 59.9985 26.9196 59.1918 27.8548 58.1218C28.7901 57.0518 29.7458 56.0033 30.7195 54.9682C32.5837 52.9837 34.4368 50.9978 36.352 49.0618C40.2885 45.0828 44.1668 41.0976 48.4082 37.4363C56.8013 30.2111 66.0331 24.046 75.8997 19.0772C78.571 17.7289 81.2829 16.4577 84.0404 15.2991C85.6558 14.6712 87.2319 13.9441 88.7599 13.1221C89.4448 12.7275 90.0237 12.3049 90.7314 11.9383C91.4778 11.5402 92.1749 11.0541 92.808 10.4899C93.9707 9.48516 92.964 7.71435 91.6355 7.64514Z" fill="#9FB3FF"/>
<path d="M112.608 0.448535C111.794 0.0598714 110.885 -0.0805499 109.993 0.0442886C109.162 0.0904321 108.336 0.216347 107.528 0.42056C106.118 0.773876 104.748 1.31825 103.374 1.78873C101.85 2.24839 100.352 2.79687 98.8902 3.43165C97.5476 4.07637 95.8623 4.94697 95.3626 6.45646C95.282 6.77443 95.3049 7.11015 95.428 7.4139C95.551 7.71766 95.7677 7.9732 96.0457 8.14255C96.7996 8.56577 97.6681 8.73263 98.5229 8.61849C99.3418 8.60753 100.158 8.52353 100.963 8.36727C102.383 8.04306 103.784 7.63762 105.159 7.15305C106.702 6.72413 108.218 6.2024 109.699 5.59072C109.348 5.666 109.527 5.58106 110.234 5.3358C110.406 5.2415 110.579 5.14624 110.751 5.05012C111.104 4.84057 111.446 4.61153 111.775 4.3639C112.496 3.90885 113.07 3.25193 113.428 2.47291C113.532 2.09129 113.508 1.68569 113.36 1.31946C113.211 0.953227 112.947 0.646894 112.608 0.448535Z" fill="#9FB3FF"/>
<path d="M317.076 175.353C316.981 175.046 316.782 174.784 316.515 174.611C316.247 174.439 315.927 174.368 315.613 174.41C315.298 174.453 315.008 174.607 314.795 174.845C314.582 175.083 314.458 175.389 314.447 175.71C314.521 178.161 314.233 180.609 313.593 182.974C313.091 185.417 312.464 187.832 311.715 190.209C310.354 194.598 308.917 198.967 307.493 203.336C305.051 211.482 301.757 219.342 297.668 226.783C296.457 228.864 295.139 230.879 293.719 232.82C293.054 233.731 292.407 234.662 291.831 235.632C291.06 236.663 290.456 237.813 290.043 239.037C289.963 239.357 289.967 239.692 290.055 240.01C290.142 240.328 290.31 240.617 290.541 240.849C290.772 241.082 291.06 241.249 291.375 241.335C291.69 241.421 292.021 241.423 292.337 241.34C294.512 240.416 296.397 238.911 297.791 236.987C299.209 235.238 300.499 233.387 301.651 231.447C303.959 227.655 305.975 223.687 307.679 219.581C311.361 210.906 314.366 201.953 316.667 192.804C317.408 189.936 317.873 187.003 318.055 184.044C318.053 181.119 317.724 178.204 317.076 175.353Z" fill="#9FB3FF"/>
<path d="M287.325 244.617C287.045 244.464 286.725 244.403 286.409 244.444C286.093 244.485 285.798 244.625 285.565 244.845C285.443 244.955 285.315 245.058 285.188 245.163C284.855 245.402 284.515 245.644 284.168 245.858C284.01 245.932 283.858 246.019 283.715 246.118C283.556 246.228 283.394 246.335 283.229 246.437C282.884 246.649 282.525 246.844 282.168 247.036C281.82 247.224 281.457 247.378 281.117 247.579C280.521 247.986 280.004 248.501 279.594 249.099C279.423 249.379 279.324 249.697 279.305 250.026C279.287 250.354 279.35 250.681 279.488 250.979C279.603 251.278 279.786 251.544 280.023 251.757C280.26 251.969 280.544 252.122 280.851 252.202C281.588 252.353 282.35 252.331 283.077 252.137C283.819 251.859 284.502 251.441 285.091 250.906C285.419 250.646 285.724 250.358 286.003 250.046C286.135 249.899 286.264 249.748 286.388 249.595C286.567 249.391 286.733 249.177 286.885 248.953C286.971 248.806 287.042 248.65 287.098 248.489C287.476 247.782 287.777 247.037 287.995 246.264C288.076 245.953 288.055 245.624 287.934 245.327C287.813 245.03 287.599 244.78 287.325 244.617Z" fill="#9FB3FF"/>
</svg>
