<svg width="263" height="248" viewBox="0 0 263 248" fill="none" xmlns="http://www.w3.org/2000/svg">
<g clip-path="url(#clip0_25_5702)">
<path d="M128.082 248C198.82 248 256.164 194.117 256.164 127.65C256.164 61.1823 198.82 7.2998 128.082 7.2998C57.3443 7.2998 0 61.1823 0 127.65C0 194.117 57.3443 248 128.082 248Z" fill="#F0F0F0"/>
<path d="M75.7676 6.19336C74.6478 6.22227 73.5325 6.35213 72.4363 6.58138C71.1884 6.77057 69.9688 7.11157 68.8046 7.59657C66.5219 8.49167 64.2747 9.49435 62.0635 10.5463C57.815 12.5675 53.6973 14.848 49.732 17.3746C41.7498 22.4272 34.4325 28.4498 27.9503 35.3029C26.136 37.2785 24.4419 39.3601 22.8774 41.5365C22.128 42.5555 21.4293 43.612 20.733 44.6662C19.9601 45.8352 19.5007 47.1003 18.8217 48.3172C18.2508 49.3407 19.6724 50.5377 20.516 49.6065C21.3035 48.7376 22.2601 48.0821 23.0332 47.2126C23.8063 46.3431 24.598 45.4909 25.402 44.6494C26.9434 43.0366 28.4762 41.4229 30.0598 39.8494C33.3148 36.616 36.5205 33.3778 40.0275 30.4007C46.9674 24.5291 54.601 19.5192 62.7592 15.4811C64.967 14.3853 67.2102 13.3521 69.4903 12.4103C70.826 11.9001 72.1292 11.3093 73.3926 10.6414C73.9589 10.3214 74.4381 9.97699 75.0233 9.67854C75.6405 9.35527 76.2168 8.96013 76.7401 8.50148C77.6986 7.68861 76.866 6.2497 75.7676 6.19336Z" fill="#F0F0F0"/>
<path d="M93.1085 0.345058C92.4351 0.0290718 91.6843 -0.085171 90.9467 0.0163659C90.2591 0.0533495 89.5763 0.155311 88.9082 0.320894C87.7421 0.607923 86.6102 1.05029 85.4735 1.43275C84.2126 1.80632 82.9747 2.25218 81.7657 2.76796C80.6555 3.29177 79.2627 3.99923 78.8496 5.22602C78.7828 5.48444 78.8014 5.75733 78.9032 6.00422C79.0049 6.25112 79.1844 6.45879 79.4144 6.5964C80.0376 6.94033 80.7548 7.07594 81.4615 6.98317C82.1386 6.9743 82.8137 6.90592 83.4787 6.77886C84.6533 6.51512 85.8126 6.18544 86.9496 5.7914C88.2251 5.44315 89.4777 5.01942 90.7023 4.52248C90.4129 4.58389 90.5605 4.51485 91.1449 4.31538C91.2879 4.23874 91.4306 4.16136 91.5725 4.08319C91.865 3.91283 92.1474 3.72651 92.4191 3.52494C93.0149 3.15511 93.4903 2.6212 93.7867 1.98821C93.8723 1.67835 93.852 1.34914 93.7294 1.05185C93.6067 0.754566 93.3883 0.506038 93.1085 0.345058Z" fill="#F0F0F0"/>
<path d="M262.172 142.482C262.094 142.233 261.929 142.02 261.707 141.88C261.486 141.74 261.222 141.683 260.962 141.717C260.702 141.752 260.462 141.877 260.286 142.07C260.11 142.263 260.008 142.512 259.998 142.773C260.059 144.764 259.822 146.754 259.292 148.675C258.877 150.661 258.358 152.623 257.739 154.555C256.615 158.122 255.426 161.672 254.249 165.223C252.23 171.843 249.505 178.231 246.124 184.277C245.123 185.969 244.033 187.606 242.859 189.184C242.31 189.923 241.774 190.681 241.298 191.468C240.66 192.306 240.16 193.24 239.819 194.235C239.754 194.495 239.757 194.767 239.829 195.026C239.902 195.284 240.041 195.519 240.232 195.708C240.423 195.897 240.66 196.033 240.92 196.103C241.181 196.173 241.456 196.174 241.717 196.107C243.515 195.356 245.073 194.133 246.226 192.569C247.399 191.148 248.466 189.643 249.418 188.067C251.327 184.985 252.993 181.761 254.403 178.424C257.447 171.374 259.93 164.098 261.832 156.663C262.445 154.332 262.83 151.948 262.98 149.544C262.979 147.168 262.708 144.799 262.172 142.482Z" fill="#F0F0F0"/>
<path d="M237.573 198.77C237.342 198.646 237.077 198.597 236.815 198.63C236.554 198.664 236.31 198.778 236.117 198.956C236.016 199.045 235.911 199.129 235.807 199.214C235.53 199.409 235.249 199.606 234.961 199.779C234.831 199.839 234.706 199.91 234.587 199.99C234.456 200.08 234.321 200.167 234.185 200.249C233.9 200.422 233.603 200.579 233.308 200.737C233.02 200.889 232.721 201.014 232.438 201.178C231.945 201.508 231.518 201.927 231.179 202.413C231.038 202.64 230.955 202.899 230.94 203.166C230.924 203.433 230.976 203.699 231.09 203.941C231.186 204.183 231.338 204.4 231.534 204.573C231.73 204.745 231.964 204.87 232.217 204.935C232.827 205.058 233.457 205.04 234.059 204.882C234.672 204.656 235.237 204.316 235.723 203.882C235.994 203.67 236.247 203.436 236.478 203.182C236.587 203.063 236.694 202.941 236.797 202.816C236.944 202.65 237.082 202.476 237.208 202.295C237.279 202.175 237.336 202.048 237.383 201.917C237.695 201.343 237.945 200.737 238.126 200.109C238.193 199.857 238.176 199.589 238.076 199.348C237.976 199.106 237.8 198.903 237.573 198.77Z" fill="#F0F0F0"/>
<g clip-path="url(#clip1_25_5702)">
<path d="M138.641 184.312C152.146 178.362 161.451 166.098 166.208 152.002C169.703 141.071 171.27 129.625 170.842 118.167C170.25 102.885 165.431 88.0582 156.913 75.3083C149.429 63.8 136.12 50.1765 121.307 48.8007C107.665 47.528 95.4725 56.4125 91.1284 68.9937C84.9389 86.9232 91.4974 103.803 95.2398 121.427C96.6742 128.565 97.3414 135.834 97.2308 143.112C97.1698 154.025 93.9842 166.853 100.309 176.627C106.622 186.383 120.175 189.466 131.104 186.849C133.689 186.232 136.212 185.383 138.641 184.312Z" fill="#65CAFD"/>
<g style="mix-blend-mode:screen" opacity="0.52">
<path d="M127.215 177.758C128.751 178.035 130.324 178.048 131.865 177.797C131.884 177.782 131.906 177.771 131.929 177.763C142.354 174.573 151.133 167.512 156.433 158.056C161.987 147.828 164.155 136.126 162.629 124.608C162.003 118.053 160.674 111.582 158.665 105.306C158.395 104.524 157.006 100.137 155.58 101.319C153.95 102.67 154.548 105.718 154.74 107.536C154.983 109.828 155.464 112.136 155.524 114.442C155.578 117.708 155.339 120.972 154.81 124.195C153.624 131.264 151.258 138.088 147.811 144.387C144.667 150.258 140.539 156.071 134.858 159.781C131.283 162.115 127.1 163.771 124.131 166.926C123.335 167.634 122.722 168.521 122.343 169.512C121.965 170.504 121.832 171.571 121.956 172.624C122.213 173.903 122.852 175.076 123.79 175.992C124.727 176.907 125.921 177.522 127.215 177.758Z" fill="#65CAFD"/>
</g>
<g style="mix-blend-mode:multiply" opacity="0.5">
<path d="M100.309 176.628C106.622 186.383 120.175 189.466 131.104 186.849C133.689 186.232 136.212 185.383 138.641 184.312C152.146 178.362 161.451 166.098 166.208 152.002C169.703 141.072 171.27 129.626 170.842 118.167C170.25 102.885 165.431 88.0582 156.913 75.3083C149.429 63.8 136.12 50.1765 121.307 48.8007C107.665 47.528 95.4725 56.4125 91.1284 68.9937C84.9389 86.9232 91.4974 103.803 95.2398 121.427C96.6742 128.565 97.3414 135.834 97.2308 143.112C97.1698 154.025 93.9842 166.854 100.309 176.628ZM113.214 147.5C114.908 136.956 114.302 126.175 111.438 115.882C109.211 107.418 106.272 98.6545 106.414 89.8122C106.53 82.5737 108.599 74.0671 115.166 69.8651C121.045 66.1023 128.371 66.0615 134.806 68.4725C140.918 70.762 147.517 76.7691 151.51 81.7609C158.66 90.701 161.78 101.972 164.128 112.942C166.336 123.259 167.142 134.052 164.429 144.366C162.301 152.447 158.503 160.002 153.276 166.552C146.346 174.873 134.529 182.946 123.014 181.331C106.281 178.981 111.304 158.767 113.214 147.5Z" fill="#65CAFD"/>
</g>
<g style="mix-blend-mode:multiply" opacity="0.5">
<path d="M100.309 176.628C106.622 186.383 120.175 189.466 131.104 186.849C133.689 186.232 136.212 185.383 138.641 184.312C140.325 183.568 141.96 182.72 143.535 181.771C142.329 182.29 141.124 182.81 139.903 183.293C139.816 183.327 139.729 183.359 139.641 183.393C136.952 184.485 134.134 185.233 131.253 185.619C130.021 185.827 128.777 185.997 127.523 186.139C123.844 186.709 120.08 186.332 116.59 185.046C113.398 183.695 110.498 181.745 108.051 179.305C105.566 176.961 103.579 174.148 102.207 171.031C100.85 167.391 100.542 163.448 101.316 159.644C101.714 157.197 102.369 154.798 103.272 152.487C103.652 151.081 104.105 149.696 104.63 148.337C105.676 145.569 106.886 142.848 107.68 139.993C108.587 136.89 108.821 133.632 108.37 130.433C107.778 126.786 106.689 123.235 105.134 119.878C103.763 116.815 102.181 113.879 101.051 110.711C100.62 109.503 100.231 108.279 99.883 107.041C99.1394 105.481 98.49 103.879 97.9369 102.243C96.1007 96.8448 95.3033 91.1523 95.5876 85.4622C95.8244 79.7319 97.622 74.172 100.789 69.3726C104.421 64.0157 109.485 59.766 115.413 57.0985C120.524 54.8542 126.216 54.2504 131.69 55.3717C136.497 56.4733 141.009 58.5844 144.923 61.5626C146.038 62.3859 147.119 63.2574 148.166 64.1773C140.83 56.39 131.421 49.7395 121.307 48.8008C107.665 47.5281 95.4725 56.4126 91.1284 68.9938C84.9389 86.9232 91.4974 103.803 95.2398 121.427C96.6742 128.565 97.3414 135.834 97.2308 143.112C97.1698 154.025 93.9842 166.854 100.309 176.628Z" fill="#65CAFD"/>
</g>
<g style="mix-blend-mode:multiply" opacity="0.5">
<path d="M99.2231 141.524C100.527 140.359 102.685 140.121 103.712 138.701C104.773 137.189 105.392 135.416 105.5 133.577C105.525 129.118 104.501 124.715 102.508 120.718C100.804 117.233 98.9072 115.231 97.2532 111.723C95.6305 108.165 94.3455 104.465 93.414 100.671C91.6281 93.7554 90.3932 86.236 91.2999 79.0933C92.8108 67.1936 101.039 54.8051 113.145 51.4152C123.04 48.6442 132.994 52.2696 141.288 57.7983C135.309 53.013 128.486 49.4679 121.307 48.801C107.665 47.5284 95.4725 56.4129 91.1284 68.9941C84.9389 86.9235 91.4974 103.803 95.2398 121.427C96.6742 128.565 97.3414 135.834 97.2308 143.112C97.2212 144.814 97.136 146.563 97.0222 148.34C97.2663 146.092 97.4151 143.139 99.2231 141.524Z" fill="#65CAFD"/>
</g>
<path d="M99.481 136.284C101.446 138.337 103.289 137.431 104.5 135.064C107.243 129.702 103.699 119.166 98.9981 112.355C97.8249 111.213 96.5563 110.472 95.6558 111.347C94.9955 112.176 94.6563 113.211 94.6985 114.267C95.1304 117.031 95.4174 119.817 95.7412 122.596C95.9051 125.77 96.3601 128.922 97.0995 132.015C97.5487 133.602 98.3639 135.063 99.481 136.284Z" fill="#F1F2C4"/>
<g style="mix-blend-mode:screen" opacity="0.52">
<path d="M100.179 133.979C100.179 133.979 100.503 136.796 102.791 134.605C105.079 132.414 103.921 126.412 101.799 124.35C101.161 123.73 99.1901 129.34 100.179 133.979Z" fill="#65CAFD"/>
</g>
<path d="M172.352 111.896C172.025 111.896 171.705 111.813 171.42 111.656C171.135 111.498 170.896 111.27 170.725 110.994C170.594 110.783 170.507 110.548 170.467 110.302C170.428 110.057 170.437 109.807 170.495 109.565C170.553 109.324 170.659 109.096 170.806 108.895C170.954 108.694 171.139 108.524 171.352 108.394C181.204 102.384 191.634 97.3623 202.49 93.4029C202.726 93.3217 202.977 93.2876 203.227 93.3026C203.477 93.3176 203.722 93.3814 203.947 93.4902C204.172 93.5991 204.373 93.7509 204.539 93.9369C204.705 94.123 204.832 94.3396 204.913 94.5745C204.995 94.8092 205.028 95.0576 205.013 95.3054C204.998 95.5532 204.934 95.7956 204.824 96.0187C204.715 96.2418 204.561 96.4413 204.374 96.6058C204.186 96.7703 203.968 96.8966 203.731 96.9774C193.148 100.867 182.973 105.77 173.348 111.615C173.049 111.799 172.703 111.896 172.352 111.896Z" fill="#133441"/>
<path d="M210.704 101.527C210.542 101.527 210.381 101.506 210.224 101.466C209.988 101.405 204.403 99.9285 201.873 95.8143C200.118 93.068 199.525 89.746 200.225 86.5692C200.363 86.0871 200.689 85.6793 201.131 85.4355C201.573 85.1917 202.094 85.1318 202.58 85.2689C203.064 85.4054 203.474 85.7261 203.721 86.1611C203.967 86.596 204.03 87.11 203.896 87.5908C203.48 89.7559 203.923 91.9963 205.13 93.8466C206.837 96.6232 211.139 97.795 211.182 97.8058C211.672 97.9318 212.09 98.2454 212.347 98.6776C212.603 99.1098 212.676 99.6251 212.549 100.11C212.443 100.516 212.204 100.874 211.87 101.131C211.536 101.387 211.126 101.526 210.704 101.527Z" fill="#133441"/>
<path d="M204.984 97.3298C204.348 97.396 203.707 97.2749 203.141 96.9817C202.574 96.6885 202.107 96.2363 201.799 95.6814C200.316 92.765 204.251 89.7322 207.813 87.7017C208.03 87.5778 208.269 87.4975 208.517 87.4655C208.766 87.4335 209.018 87.4503 209.26 87.5149C209.502 87.5796 209.728 87.6908 209.926 87.8424C210.125 87.9939 210.291 88.1827 210.416 88.398C210.541 88.6132 210.622 88.8506 210.654 89.0968C210.686 89.343 210.669 89.593 210.604 89.8327C210.539 90.0724 210.427 90.297 210.274 90.4937C210.121 90.6904 209.93 90.8553 209.713 90.979C208.525 91.6581 207.403 92.4443 206.36 93.3275C207.771 92.9422 209.144 92.4312 210.463 91.8005C210.918 91.5832 211.443 91.554 211.92 91.7193C212.397 91.8847 212.788 92.2312 213.008 92.6826C213.228 93.134 213.257 93.6534 213.091 94.1266C212.924 94.5997 212.575 94.9878 212.12 95.2056C209.913 96.3891 207.484 97.112 204.984 97.3298Z" fill="#133441"/>
<path d="M90.6483 115.358C90.3367 115.357 90.0297 115.282 89.7547 115.136C74.4114 107.049 59.2745 100.449 59.1232 100.384C58.8939 100.284 58.6871 100.14 58.5137 99.9613C58.3403 99.7822 58.2044 99.571 58.1134 99.3397C58.0224 99.1085 57.9781 98.8617 57.9833 98.6135C57.9884 98.3653 58.0429 98.1205 58.1435 97.8932C58.3468 97.4342 58.7257 97.074 59.1967 96.8918C59.6678 96.7095 60.1927 96.7201 60.6558 96.9212C60.8082 96.9873 76.0702 103.641 91.5448 111.798C91.7659 111.914 91.9614 112.073 92.1207 112.264C92.28 112.456 92.4002 112.677 92.4734 112.914C92.5466 113.152 92.5717 113.401 92.5476 113.648C92.5235 113.895 92.4504 114.135 92.3328 114.355C92.1702 114.658 91.9276 114.911 91.6308 115.088C91.334 115.264 90.9945 115.358 90.6483 115.358Z" fill="#133441"/>
<path d="M52.2963 104.988C51.8742 104.988 51.4642 104.849 51.1304 104.592C50.7967 104.336 50.5577 103.977 50.4516 103.572C50.3248 103.087 50.3975 102.571 50.6538 102.139C50.9102 101.707 51.3289 101.394 51.8183 101.268C51.8573 101.257 56.152 100.104 57.8703 97.3082C59.0671 95.459 59.5099 93.2277 59.109 91.0667C59.0403 90.828 59.02 90.5782 59.0488 90.3316C59.0775 90.0849 59.1544 89.8463 59.2762 89.6294C59.398 89.4124 59.5621 89.2214 59.7584 89.0672C59.9546 88.913 60.1796 88.7987 60.4204 88.7307C60.9068 88.5934 61.4279 88.6533 61.8697 88.8972C62.3115 89.141 62.6374 89.5489 62.776 90.0311C63.475 93.2079 62.883 96.5298 61.1272 99.276C58.5976 103.39 53.0129 104.866 52.7764 104.927C52.6195 104.968 52.4584 104.988 52.2963 104.988Z" fill="#133441"/>
<path d="M58.0153 100.791C55.5155 100.574 53.0872 99.8506 50.88 98.6669C50.4248 98.4491 50.076 98.0609 49.9094 97.5877C49.7427 97.1146 49.7724 96.5952 49.992 96.1438C50.2119 95.6924 50.6029 95.3461 51.0802 95.1808C51.5574 95.0154 52.0816 95.0446 52.5372 95.2619C53.853 95.8911 55.2235 96.4015 56.6318 96.7866C55.5916 95.9043 54.4715 95.119 53.286 94.4404C53.0689 94.3167 52.8789 94.1517 52.7261 93.9551C52.5733 93.7584 52.461 93.5337 52.3958 93.2941C52.3306 93.0544 52.3138 92.8043 52.3461 92.5581C52.3784 92.3119 52.4592 92.0745 52.5841 91.8593C52.7089 91.6441 52.8748 91.4553 53.0732 91.3039C53.2716 91.1524 53.4984 91.0412 53.7401 90.9765C53.9819 90.9119 54.2343 90.895 54.4826 90.927C54.731 90.959 54.9703 91.0392 55.1873 91.163C58.7489 93.1935 62.6835 96.2264 61.2015 99.1428C60.8926 99.6976 60.4259 100.15 59.8593 100.443C59.2927 100.736 58.651 100.857 58.0153 100.791Z" fill="#133441"/>
<g style="mix-blend-mode:multiply">
<path d="M126.45 213.602C161.548 213.602 190 209.317 190 204.031C190 198.746 161.548 194.461 126.45 194.461C91.3515 194.461 62.8989 198.746 62.8989 204.031C62.8989 209.317 91.3515 213.602 126.45 213.602Z" fill="#DBDACB"/>
</g>
<path d="M146.358 204.641C146.315 204.641 146.272 204.64 146.23 204.636C144.425 204.601 142.668 204.055 141.166 203.061C140.928 202.875 140.738 202.636 140.611 202.363C140.485 202.09 140.426 201.79 140.439 201.49L141.443 179.253C141.452 179.004 141.512 178.76 141.617 178.534C141.723 178.309 141.872 178.106 142.057 177.938C142.242 177.77 142.459 177.64 142.695 177.556C142.932 177.472 143.183 177.435 143.433 177.448C143.683 177.459 143.928 177.519 144.155 177.624C144.382 177.729 144.586 177.877 144.755 178.061C144.924 178.244 145.055 178.458 145.141 178.692C145.226 178.925 145.265 179.173 145.253 179.421L144.304 200.447C145.008 200.683 145.741 200.824 146.483 200.864C146.733 200.88 146.977 200.945 147.202 201.055C147.426 201.165 147.627 201.318 147.791 201.505C147.956 201.692 148.082 201.909 148.162 202.144C148.243 202.379 148.276 202.628 148.259 202.876C148.227 203.354 148.013 203.802 147.66 204.13C147.307 204.458 146.842 204.64 146.358 204.641Z" fill="#133441"/>
<path d="M108.516 204.641C108.032 204.64 107.567 204.458 107.215 204.13C106.862 203.803 106.648 203.354 106.616 202.876C106.599 202.629 106.631 202.38 106.711 202.145C106.792 201.91 106.917 201.692 107.082 201.505C107.247 201.319 107.448 201.166 107.672 201.056C107.897 200.946 108.141 200.881 108.391 200.864C109.133 200.825 109.866 200.684 110.57 200.445L109.621 179.422C109.61 179.173 109.648 178.926 109.733 178.692C109.819 178.459 109.95 178.244 110.119 178.061C110.288 177.878 110.492 177.729 110.719 177.624C110.946 177.519 111.191 177.459 111.441 177.449C111.692 177.437 111.941 177.475 112.177 177.559C112.413 177.644 112.629 177.774 112.814 177.942C112.999 178.109 113.149 178.311 113.255 178.536C113.361 178.762 113.42 179.005 113.431 179.253L114.435 201.491C114.448 201.791 114.39 202.09 114.263 202.363C114.137 202.636 113.947 202.876 113.708 203.061C112.207 204.055 110.45 204.602 108.645 204.637C108.602 204.64 108.558 204.641 108.516 204.641Z" fill="#133441"/>
<ellipse cx="13.6167" cy="6.35719" rx="13.6167" ry="6.35719" transform="matrix(0.922916 0.385002 -0.39007 0.920785 159.802 49.0228)" fill="#FFCB7D"/>
<path d="M157.346 54.8205L158.735 52.3387L165.96 57.3023L183.745 62.8174L182.356 65.5749L175.131 66.9537L157.624 57.5781L157.346 54.8205Z" fill="#FFCB7D"/>
<ellipse cx="13.6007" cy="6.34972" rx="13.6007" ry="6.34972" transform="matrix(0.922916 0.385002 -0.39007 0.920785 161.165 46.4951)" fill="#FFA928"/>
<ellipse cx="13.5578" cy="6.38894" rx="13.5578" ry="6.38894" transform="matrix(-0.274202 -0.961164 -0.962356 0.273576 87.2841 75.2037)" fill="#FFCB7D"/>
<path d="M81.1883 76.94L83.8315 75.8649L79.7532 68.137L76.4 49.9163L73.4817 50.9585L71.2339 57.9278L78.4713 76.3358L81.1883 76.94Z" fill="#FFCB7D"/>
<ellipse cx="13.5418" cy="6.38143" rx="13.5418" ry="6.38143" transform="matrix(-0.274202 -0.961164 -0.962356 0.273576 89.9718 74.1621)" fill="#FFA928"/>
<ellipse cx="10.7549" cy="5.04472" rx="10.7549" ry="5.04472" transform="matrix(0.815446 -0.583054 0.585756 0.807469 172.755 43.8218)" fill="#FFCB7D"/>
<path d="M175.686 47.8609L174.573 45.9056L180.938 43.101L192.047 33.4352L193.347 35.5042L191.294 40.9223L177.675 48.8107L175.686 47.8609Z" fill="#FFCB7D"/>
<ellipse cx="10.7422" cy="5.03879" rx="10.7422" ry="5.03879" transform="matrix(0.815446 -0.583054 0.585756 0.807469 171.596 41.8632)" fill="#FFA928"/>
<ellipse cx="10.761" cy="5.05126" rx="10.761" ry="5.05126" transform="matrix(0.678515 -0.733346 -0.737284 -0.676935 54.5105 63.0526)" fill="#FFCB7D"/>
<path d="M50.826 59.6683L52.6473 61.0083L56.1967 55.0602L67.155 45.264L65.2423 43.7246L59.5912 45.0883L50.112 57.5843L50.826 59.6683Z" fill="#FFCB7D"/>
<ellipse cx="10.7484" cy="5.04532" rx="10.7484" ry="5.04532" transform="matrix(0.678515 -0.733346 -0.737284 -0.676935 56.3267 64.4316)" fill="#FFA928"/>
<path d="M112.92 95.9689C112.982 90.4693 108.529 85.9606 102.974 85.8991C97.4193 85.8376 92.866 90.2466 92.804 95.7462C92.7421 101.246 97.195 105.754 102.75 105.815C108.304 105.877 112.858 101.469 112.92 95.9689Z" fill="white"/>
<path d="M109.782 95.5594C109.701 93.7407 108.895 92.0284 107.541 90.799C106.187 89.5696 104.396 88.9238 102.561 89.0037C101.653 89.0418 100.761 89.257 99.9365 89.6369C99.112 90.0169 98.3716 90.5542 97.7566 91.2181C97.1415 91.882 96.664 92.6595 96.3521 93.5063C96.0401 94.353 95.8998 95.2525 95.9385 96.1531C96.0197 97.9722 96.826 99.6847 98.1807 100.914C99.5353 102.144 101.327 102.789 103.162 102.709C104.07 102.671 104.962 102.455 105.786 102.075C106.61 101.695 107.351 101.158 107.965 100.494C108.58 99.83 109.058 99.0525 109.369 98.2059C109.681 97.3592 109.821 96.4599 109.782 95.5594ZM102.013 95.1517C101.587 95.7201 100.954 96.1002 100.249 96.2105C99.5433 96.3209 98.823 96.1525 98.2415 95.7417C97.7559 95.2237 97.4946 94.5371 97.5151 93.8301C97.5357 93.1232 97.8365 92.4527 98.3514 91.9633C98.7769 91.3949 99.4097 91.0147 100.115 90.9044C100.82 90.794 101.541 90.9623 102.123 91.3732C102.609 91.891 102.869 92.5776 102.848 93.2846C102.828 93.9916 102.528 94.6623 102.013 95.1517ZM107.345 99.7148C107.098 100.044 106.732 100.264 106.324 100.327C105.916 100.391 105.498 100.294 105.162 100.056C104.881 99.7561 104.731 99.3587 104.743 98.9497C104.755 98.5407 104.928 98.1528 105.226 97.8696C105.472 97.5407 105.839 97.3206 106.247 97.2568C106.655 97.193 107.072 97.2906 107.408 97.5286C107.689 97.8282 107.84 98.2253 107.828 98.6344C107.816 99.0435 107.643 99.4315 107.345 99.7148Z" fill="#133441"/>
<path d="M156.19 95.9769C156.257 90.4774 151.808 85.9653 146.253 85.8988C140.699 85.8322 136.141 90.2364 136.074 95.736C136.007 101.236 140.456 105.748 146.011 105.815C151.566 105.881 156.123 101.476 156.19 95.9769Z" fill="white"/>
<path d="M153.05 95.5592C152.969 93.7405 152.163 92.0281 150.809 90.7988C149.454 89.5694 147.663 88.9237 145.829 89.0037C144.92 89.0419 144.029 89.2571 143.204 89.6371C142.38 90.0171 141.639 90.5544 141.024 91.2183C140.409 91.8822 139.932 92.6596 139.62 93.5063C139.308 94.353 139.168 95.2524 139.206 96.153C139.288 97.9719 140.094 99.6842 141.449 100.914C142.803 102.143 144.594 102.789 146.428 102.709C147.337 102.67 148.228 102.455 149.053 102.075C149.877 101.695 150.618 101.158 151.233 100.494C151.847 99.83 152.325 99.0525 152.636 98.2058C152.948 97.3591 153.089 96.4597 153.05 95.5592ZM145.375 94.75C144.881 95.2609 144.204 95.5591 143.491 95.5808C142.777 95.6025 142.083 95.3459 141.558 94.8659C141.141 94.2916 140.97 93.5778 141.08 92.879C141.19 92.1801 141.573 91.5522 142.146 91.1309C142.64 90.62 143.316 90.3216 144.03 90.2999C144.744 90.2783 145.438 90.5351 145.963 91.0151C146.379 91.5895 146.551 92.3031 146.441 93.002C146.331 93.7008 145.948 94.3286 145.375 94.75ZM151.077 99.4662C150.831 99.7951 150.465 100.015 150.057 100.079C149.649 100.143 149.232 100.045 148.895 99.8073C148.614 99.5075 148.463 99.1102 148.475 98.7012C148.487 98.2922 148.661 97.9042 148.959 97.621C149.205 97.2921 149.572 97.072 149.98 97.0083C150.388 96.9445 150.805 97.0421 151.141 97.28C151.422 97.5797 151.573 97.9769 151.561 98.3859C151.549 98.795 151.375 99.183 151.077 99.4662Z" fill="#133441"/>
<path d="M138.863 76.5683C138.49 78.2929 141.496 79.5581 144.927 80.2109C148 80.7954 150.941 81.6373 151.832 79.4659C153.665 74.9976 139.986 71.3763 138.863 76.5683Z" fill="#133441"/>
<path d="M97.1166 79.2995C97.9488 81.4937 100.911 80.7299 103.999 80.227C107.447 79.6651 110.486 78.4799 110.159 76.7454C109.175 71.5262 95.4039 74.7845 97.1166 79.2995Z" fill="#133441"/>
<path d="M131.441 101.858C133.351 104.149 131.492 108.417 125.208 108.417C118.924 108.417 117.381 103.805 118.982 101.858C119.9 100.741 122.015 101.299 125.208 101.299C128.401 101.299 130.493 100.721 131.441 101.858Z" fill="#AB1700"/>
<path d="M130.547 102.272C130.547 102.794 128.237 103.217 125.386 103.217C122.535 103.217 120.224 102.794 120.224 102.272C120.224 101.75 122.535 101.878 125.386 101.878C128.237 101.878 130.547 101.75 130.547 102.272Z" fill="white"/>
<path d="M120.946 106.687C122.253 107.413 123.739 107.763 125.235 107.7C126.882 107.783 128.516 107.377 129.927 106.532C126.286 103.048 122.861 104.967 120.946 106.687Z" fill="#FD6C6C"/>
</g>
</g>
<defs>
<clipPath id="clip0_25_5702">
<rect width="263" height="248" fill="white"/>
</clipPath>
<clipPath id="clip1_25_5702">
<rect width="163.396" height="185.306" fill="white" transform="translate(49.8021 28.2953)"/>
</clipPath>
</defs>
</svg>
