<svg width="220" height="208" viewBox="0 0 220 208" fill="none" xmlns="http://www.w3.org/2000/svg">
<path d="M112.056 207.606C168.152 207.606 213.627 164.13 213.627 110.5C213.627 56.8706 168.152 13.395 112.056 13.395C55.96 13.395 10.485 56.8706 10.485 110.5C10.485 164.13 55.96 207.606 112.056 207.606Z" fill="#050505"/>
<path d="M112.056 207.606C168.152 207.606 213.627 164.13 213.627 110.5C213.627 56.8706 168.152 13.395 112.056 13.395C55.96 13.395 10.485 56.8706 10.485 110.5C10.485 164.13 55.96 207.606 112.056 207.606Z" stroke="black"/>
<path d="M70.5702 12.5023C69.6822 12.5256 68.7981 12.6304 67.9288 12.8154C66.9392 12.9684 65.972 13.2439 65.0488 13.6356C63.2382 14.3577 61.4568 15.1667 59.7023 16.0156C49.5498 20.9401 40.3796 27.7111 32.6492 35.9905C31.2103 37.5846 29.8669 39.2643 28.6261 41.0204C28.0319 41.8426 27.4774 42.695 26.9248 43.5454C26.5594 44.1077 26.2827 44.6975 26.0045 45.2902C25.8161 45.6917 25.6271 46.0945 25.4095 46.491C24.9568 47.3168 26.0832 48.2823 26.7522 47.5316C27.059 47.1871 27.3983 46.8842 27.7368 46.582C28.0874 46.269 28.4372 45.9568 28.7492 45.5999C29.3625 44.8983 29.9891 44.2108 30.6275 43.5321C30.7529 43.3987 30.8781 43.2652 31.0034 43.1318C32.0995 41.9641 33.1937 40.7985 34.3208 39.6593C34.5426 39.4351 34.7641 39.2109 34.9854 38.9868C37.3407 36.6027 39.6839 34.2308 42.226 32.0364C47.7294 27.2988 53.7827 23.2564 60.2522 19.9983C62.0038 19.1143 63.782 18.2807 65.5901 17.521C66.6493 17.1093 67.6828 16.6326 68.6847 16.0936C68.8683 15.9878 69.0403 15.8789 69.2113 15.7707C69.4583 15.6143 69.7031 15.4594 69.9774 15.3173C70.4668 15.0563 70.9239 14.7376 71.339 14.3676C72.1014 13.7088 71.4413 12.5477 70.5702 12.5023Z" fill="#050505"/>
<path d="M70.5702 12.5023C69.6822 12.5256 68.7981 12.6304 67.9288 12.8154C66.9392 12.9684 65.972 13.2439 65.0488 13.6356C63.2382 14.3577 61.4568 15.1667 59.7023 16.0156C49.5498 20.9401 40.3796 27.7111 32.6492 35.9905C31.2103 37.5846 29.8669 39.2643 28.6261 41.0204C28.0319 41.8426 27.4774 42.695 26.9248 43.5454C26.5594 44.1077 26.2827 44.6975 26.0045 45.2902C25.8161 45.6917 25.6271 46.0945 25.4095 46.491C24.9568 47.3168 26.0832 48.2823 26.7522 47.5316C27.059 47.1871 27.3983 46.8842 27.7368 46.582C28.0874 46.269 28.4372 45.9568 28.7492 45.5999C29.3625 44.8983 29.9891 44.2108 30.6275 43.5321C30.7529 43.3987 30.8781 43.2652 31.0034 43.1318C32.0995 41.9641 33.1937 40.7985 34.3208 39.6593C34.5426 39.4351 34.7641 39.2109 34.9854 38.9868C37.3407 36.6027 39.6839 34.2308 42.226 32.0364C47.7294 27.2988 53.7827 23.2564 60.2522 19.9983C62.0038 19.1143 63.782 18.2807 65.5901 17.521C66.6493 17.1093 67.6828 16.6326 68.6847 16.0936C68.8683 15.9878 69.0403 15.8789 69.2113 15.7707C69.4583 15.6143 69.7031 15.4594 69.9774 15.3173C70.4668 15.0563 70.9239 14.7376 71.339 14.3676C72.1014 13.7088 71.4413 12.5477 70.5702 12.5023Z" stroke="black"/>
<path d="M84.3224 7.78348C83.7884 7.52864 83.1926 7.43656 82.6077 7.51842C82.0624 7.54868 81.5212 7.63124 80.9914 7.76514C80.3141 7.93478 79.6512 8.17158 78.9912 8.40735C78.7498 8.49357 78.5088 8.57965 78.2677 8.66225C77.2678 8.96365 76.286 9.32329 75.3273 9.73952C74.447 10.1623 73.342 10.7331 73.0143 11.7229C72.9614 11.9314 72.9765 12.1515 73.0572 12.3507C73.1379 12.5499 73.2799 12.7174 73.4622 12.8285C73.9565 13.106 74.526 13.2154 75.0865 13.1405C75.6235 13.1333 76.1588 13.0783 76.6862 12.9758C77.6176 12.7632 78.5363 12.4974 79.438 12.1796C80.4494 11.8984 81.4433 11.5563 82.4144 11.1552C82.1847 11.2046 82.3016 11.1489 82.7653 10.9881C82.8785 10.9262 82.9914 10.8638 83.1041 10.8007C83.336 10.6633 83.5603 10.5132 83.7759 10.3508C84.2484 10.0524 84.6251 9.62167 84.8601 9.11087C84.9281 8.86064 84.9122 8.59469 84.8149 8.35455C84.7176 8.11441 84.5445 7.91355 84.3224 7.78348Z" fill="#050505"/>
<path d="M84.3224 7.78348C83.7884 7.52864 83.1926 7.43656 82.6077 7.51842C82.0624 7.54868 81.5212 7.63124 80.9914 7.76514C80.3141 7.93478 79.6512 8.17158 78.9912 8.40735C78.7498 8.49357 78.5088 8.57965 78.2677 8.66225C77.2678 8.96365 76.286 9.32329 75.3273 9.73952C74.447 10.1623 73.342 10.7331 73.0143 11.7229C72.9614 11.9314 72.9765 12.1515 73.0572 12.3507C73.1379 12.5499 73.2799 12.7174 73.4622 12.8285C73.9565 13.106 74.526 13.2154 75.0865 13.1405C75.6235 13.1333 76.1588 13.0783 76.6862 12.9758C77.6176 12.7632 78.5363 12.4974 79.438 12.1796C80.4494 11.8984 81.4433 11.5563 82.4144 11.1552C82.1847 11.2046 82.3016 11.1489 82.7653 10.9881C82.8785 10.9262 82.9914 10.8638 83.1041 10.8007C83.336 10.6633 83.5603 10.5132 83.7759 10.3508C84.2484 10.0524 84.6251 9.62167 84.8601 9.11087C84.9281 8.86064 84.9122 8.59469 84.8149 8.35455C84.7176 8.11441 84.5445 7.91355 84.3224 7.78348Z" stroke="black"/>
<path d="M218.392 122.468C218.33 122.267 218.199 122.095 218.024 121.982C217.848 121.869 217.639 121.822 217.432 121.85C217.226 121.878 217.036 121.979 216.896 122.135C216.756 122.291 216.675 122.492 216.668 122.702C216.717 124.309 216.528 125.915 216.108 127.465C215.779 129.067 215.368 130.651 214.877 132.209C214.117 134.66 213.32 137.101 212.524 139.541C212.386 139.966 212.247 140.391 212.108 140.817C210.507 146.158 208.347 151.312 205.666 156.191C204.872 157.555 204.008 158.877 203.076 160.149C202.641 160.747 202.216 161.357 201.839 161.993C201.333 162.669 200.937 163.423 200.666 164.226C200.614 164.436 200.617 164.656 200.674 164.864C200.731 165.072 200.841 165.262 200.993 165.414C201.144 165.567 201.333 165.677 201.539 165.733C201.746 165.789 201.963 165.79 202.17 165.736C203.596 165.13 204.832 164.144 205.747 162.882C206.677 161.735 207.522 160.521 208.277 159.249C209.791 156.763 211.113 154.161 212.23 151.469C214.645 145.78 216.615 139.91 218.123 133.911C218.609 132.031 218.914 130.107 219.033 128.167C219.032 126.249 218.817 124.338 218.392 122.468Z" fill="#050505"/>
<path d="M218.392 122.468C218.33 122.267 218.199 122.095 218.024 121.982C217.848 121.869 217.639 121.822 217.432 121.85C217.226 121.878 217.036 121.979 216.896 122.135C216.756 122.291 216.675 122.492 216.668 122.702C216.717 124.309 216.528 125.915 216.108 127.465C215.779 129.067 215.368 130.651 214.877 132.209C214.117 134.66 213.32 137.101 212.524 139.541C212.386 139.966 212.247 140.391 212.108 140.817C210.507 146.158 208.347 151.312 205.666 156.191C204.872 157.555 204.008 158.877 203.076 160.149C202.641 160.747 202.216 161.357 201.839 161.993C201.333 162.669 200.937 163.423 200.666 164.226C200.614 164.436 200.617 164.656 200.674 164.864C200.731 165.072 200.841 165.262 200.993 165.414C201.144 165.567 201.333 165.677 201.539 165.733C201.746 165.789 201.963 165.79 202.17 165.736C203.596 165.13 204.832 164.144 205.747 162.882C206.677 161.735 207.522 160.521 208.277 159.249C209.791 156.763 211.113 154.161 212.23 151.469C214.645 145.78 216.615 139.91 218.123 133.911C218.609 132.031 218.914 130.107 219.033 128.167C219.032 126.249 218.817 124.338 218.392 122.468Z" stroke="black"/>
<path d="M198.884 167.885C198.7 167.785 198.49 167.745 198.283 167.772C198.076 167.799 197.882 167.891 197.73 168.035C197.666 168.092 197.601 168.146 197.535 168.2C197.518 168.214 197.5 168.229 197.483 168.243C197.264 168.4 197.042 168.559 196.814 168.699C196.71 168.747 196.611 168.804 196.517 168.869C196.413 168.942 196.306 169.012 196.198 169.078C195.972 169.218 195.737 169.346 195.502 169.471C195.408 169.522 195.313 169.569 195.217 169.616C195.081 169.683 194.945 169.75 194.814 169.827C194.422 170.094 194.084 170.432 193.815 170.824C193.703 171.008 193.638 171.216 193.626 171.432C193.613 171.647 193.655 171.862 193.745 172.057C193.821 172.253 193.941 172.427 194.096 172.567C194.252 172.706 194.438 172.806 194.639 172.859C195.122 172.958 195.622 172.943 196.098 172.816C196.585 172.634 197.033 172.36 197.419 172.009C197.634 171.838 197.834 171.65 198.017 171.445C198.104 171.348 198.188 171.25 198.27 171.149C198.387 171.016 198.496 170.875 198.596 170.728C198.652 170.632 198.698 170.53 198.735 170.424C198.983 169.961 199.18 169.472 199.324 168.965C199.377 168.761 199.363 168.546 199.283 168.351C199.204 168.156 199.064 167.992 198.884 167.885Z" fill="#050505"/>
<path d="M198.884 167.885C198.7 167.785 198.49 167.745 198.283 167.772C198.076 167.799 197.882 167.891 197.73 168.035C197.666 168.092 197.601 168.146 197.535 168.2C197.518 168.214 197.5 168.229 197.483 168.243C197.264 168.4 197.042 168.559 196.814 168.699C196.71 168.747 196.611 168.804 196.517 168.869C196.413 168.942 196.306 169.012 196.198 169.078C195.972 169.218 195.737 169.346 195.502 169.471C195.408 169.522 195.313 169.569 195.217 169.616C195.081 169.683 194.945 169.75 194.814 169.827C194.422 170.094 194.084 170.432 193.815 170.824C193.703 171.008 193.638 171.216 193.626 171.432C193.613 171.647 193.655 171.862 193.745 172.057C193.821 172.253 193.941 172.427 194.096 172.567C194.252 172.706 194.438 172.806 194.639 172.859C195.122 172.958 195.622 172.943 196.098 172.816C196.585 172.634 197.033 172.36 197.419 172.009C197.634 171.838 197.834 171.65 198.017 171.445C198.104 171.348 198.188 171.25 198.27 171.149C198.387 171.016 198.496 170.875 198.596 170.728C198.652 170.632 198.698 170.53 198.735 170.424C198.983 169.961 199.18 169.472 199.324 168.965C199.377 168.761 199.363 168.546 199.283 168.351C199.204 168.156 199.064 167.992 198.884 167.885Z" stroke="black"/>
<path d="M101.571 200.116C157.667 200.116 203.142 156.641 203.142 103.011C203.142 49.3812 157.667 5.90564 101.571 5.90564C45.475 5.90564 0 49.3812 0 103.011C0 156.641 45.475 200.116 101.571 200.116Z" fill="#FFCC66"/>
<path d="M101.571 200.116C157.667 200.116 203.142 156.641 203.142 103.011C203.142 49.3812 157.667 5.90564 101.571 5.90564C45.475 5.90564 0 49.3812 0 103.011C0 156.641 45.475 200.116 101.571 200.116Z" stroke="black"/>
<path d="M60.0852 5.01306C59.1972 5.03637 58.3131 5.14113 57.4439 5.32611C56.4542 5.47913 55.487 5.75461 54.5638 6.14633C52.7532 6.8684 50.9719 7.67746 49.2173 8.52632C39.0648 13.4509 29.8946 20.2218 22.1642 28.5012C20.7253 30.0954 19.3819 31.775 18.1411 33.5311C17.5469 34.3533 16.9924 35.2057 16.4398 36.0562C16.0744 36.6185 15.7977 37.2083 15.5195 37.801C15.3311 38.2025 15.1421 38.6053 14.9245 39.0018C14.4718 39.8275 15.5982 40.7931 16.2672 40.0424C16.574 39.6979 16.9133 39.395 17.2518 39.0928C17.6024 38.7798 17.9522 38.4675 18.2642 38.1106C18.8775 37.409 19.5041 36.7215 20.1426 36.0428C20.2679 35.9094 20.3932 35.776 20.5184 35.6426C21.6145 34.4749 22.7088 33.3092 23.8358 32.17C24.0576 31.9458 24.2791 31.7216 24.5005 31.4975C26.8557 29.1135 29.1989 26.7416 31.741 24.5471C37.2444 19.8095 43.2977 15.7671 49.7672 12.5091C51.5188 11.625 53.297 10.7915 55.1051 10.0318C56.1644 9.62005 57.1978 9.14331 58.1997 8.6043C58.3833 8.4985 58.5553 8.38963 58.7263 8.28145C58.9733 8.12509 59.2181 7.97017 59.4924 7.82806C59.9818 7.56708 60.4389 7.24832 60.854 6.87835C61.6164 6.21956 60.9563 5.05844 60.0852 5.01306Z" fill="#FFCC66"/>
<path d="M60.0852 5.01306C59.1972 5.03637 58.3131 5.14113 57.4439 5.32611C56.4542 5.47913 55.487 5.75461 54.5638 6.14633C52.7532 6.8684 50.9719 7.67746 49.2173 8.52632C39.0648 13.4509 29.8946 20.2218 22.1642 28.5012C20.7253 30.0954 19.3819 31.775 18.1411 33.5311C17.5469 34.3533 16.9924 35.2057 16.4398 36.0562C16.0744 36.6185 15.7977 37.2083 15.5195 37.801C15.3311 38.2025 15.1421 38.6053 14.9245 39.0018C14.4718 39.8275 15.5982 40.7931 16.2672 40.0424C16.574 39.6979 16.9133 39.395 17.2518 39.0928C17.6024 38.7798 17.9522 38.4675 18.2642 38.1106C18.8775 37.409 19.5041 36.7215 20.1426 36.0428C20.2679 35.9094 20.3932 35.776 20.5184 35.6426C21.6145 34.4749 22.7088 33.3092 23.8358 32.17C24.0576 31.9458 24.2791 31.7216 24.5005 31.4975C26.8557 29.1135 29.1989 26.7416 31.741 24.5471C37.2444 19.8095 43.2977 15.7671 49.7672 12.5091C51.5188 11.625 53.297 10.7915 55.1051 10.0318C56.1644 9.62005 57.1978 9.14331 58.1997 8.6043C58.3833 8.4985 58.5553 8.38963 58.7263 8.28145C58.9733 8.12509 59.2181 7.97017 59.4924 7.82806C59.9818 7.56708 60.4389 7.24832 60.854 6.87835C61.6164 6.21956 60.9563 5.05844 60.0852 5.01306Z" stroke="black"/>
<path d="M73.8374 0.294104C73.3034 0.0392577 72.7076 -0.0528166 72.1227 0.0290401C71.5774 0.0592964 71.0362 0.141859 70.5065 0.275761C69.8291 0.445397 69.1662 0.682202 68.5062 0.917971C68.2648 1.00419 68.0238 1.09027 67.7827 1.17287C66.7828 1.47427 65.8011 1.83391 64.8424 2.25014C63.962 2.67287 62.857 3.24373 62.5293 4.2335C62.4764 4.442 62.4915 4.66213 62.5722 4.8613C62.6529 5.06047 62.7949 5.22803 62.9772 5.33907C63.4715 5.61658 64.041 5.72599 64.6015 5.65115C65.1385 5.64396 65.6738 5.58888 66.2012 5.48642C67.1326 5.27384 68.0513 5.00799 68.953 4.69026C69.9644 4.40901 70.9584 4.06692 71.9294 3.66584C71.6997 3.7152 71.8166 3.6595 72.2803 3.49868C72.3935 3.43685 72.5065 3.37439 72.6192 3.31137C72.8511 3.17396 73.0753 3.02378 73.2909 2.86141C73.7634 2.56303 74.1401 2.13229 74.3751 1.62149C74.4431 1.37126 74.4272 1.10531 74.3299 0.865171C74.2327 0.625031 74.0595 0.424169 73.8374 0.294104Z" fill="#FFCC66"/>
<path d="M73.8374 0.294104C73.3034 0.0392577 72.7076 -0.0528166 72.1227 0.0290401C71.5774 0.0592964 71.0362 0.141859 70.5065 0.275761C69.8291 0.445397 69.1662 0.682202 68.5062 0.917971C68.2648 1.00419 68.0238 1.09027 67.7827 1.17287C66.7828 1.47427 65.8011 1.83391 64.8424 2.25014C63.962 2.67287 62.857 3.24373 62.5293 4.2335C62.4764 4.442 62.4915 4.66213 62.5722 4.8613C62.6529 5.06047 62.7949 5.22803 62.9772 5.33907C63.4715 5.61658 64.041 5.72599 64.6015 5.65115C65.1385 5.64396 65.6738 5.58888 66.2012 5.48642C67.1326 5.27384 68.0513 5.00799 68.953 4.69026C69.9644 4.40901 70.9584 4.06692 71.9294 3.66584C71.6997 3.7152 71.8166 3.6595 72.2803 3.49868C72.3935 3.43685 72.5065 3.37439 72.6192 3.31137C72.8511 3.17396 73.0753 3.02378 73.2909 2.86141C73.7634 2.56303 74.1401 2.13229 74.3751 1.62149C74.4431 1.37126 74.4272 1.10531 74.3299 0.865171C74.2327 0.625031 74.0595 0.424169 73.8374 0.294104Z" stroke="black"/>
<path d="M207.907 114.979C207.845 114.778 207.714 114.606 207.539 114.493C207.363 114.38 207.154 114.333 206.947 114.361C206.741 114.389 206.551 114.49 206.411 114.646C206.271 114.802 206.19 115.003 206.183 115.213C206.232 116.82 206.043 118.425 205.623 119.976C205.294 121.578 204.883 123.161 204.392 124.72C203.632 127.171 202.835 129.612 202.039 132.052C201.901 132.477 201.762 132.902 201.623 133.328C200.022 138.669 197.862 143.823 195.181 148.702C194.387 150.066 193.523 151.388 192.591 152.66C192.156 153.257 191.731 153.868 191.354 154.504C190.848 155.18 190.452 155.934 190.181 156.737C190.129 156.946 190.132 157.166 190.189 157.375C190.246 157.583 190.356 157.773 190.508 157.925C190.66 158.078 190.848 158.187 191.054 158.244C191.261 158.3 191.478 158.301 191.685 158.247C193.111 157.641 194.347 156.654 195.262 155.393C196.192 154.246 197.037 153.032 197.792 151.76C199.306 149.273 200.628 146.672 201.745 143.979C204.16 138.291 206.13 132.421 207.638 126.422C208.124 124.541 208.429 122.618 208.548 120.678C208.547 118.76 208.332 116.848 207.907 114.979Z" fill="#FFCC66"/>
<path d="M207.907 114.979C207.845 114.778 207.714 114.606 207.539 114.493C207.363 114.38 207.154 114.333 206.947 114.361C206.741 114.389 206.551 114.49 206.411 114.646C206.271 114.802 206.19 115.003 206.183 115.213C206.232 116.82 206.043 118.425 205.623 119.976C205.294 121.578 204.883 123.161 204.392 124.72C203.632 127.171 202.835 129.612 202.039 132.052C201.901 132.477 201.762 132.902 201.623 133.328C200.022 138.669 197.862 143.823 195.181 148.702C194.387 150.066 193.523 151.388 192.591 152.66C192.156 153.257 191.731 153.868 191.354 154.504C190.848 155.18 190.452 155.934 190.181 156.737C190.129 156.946 190.132 157.166 190.189 157.375C190.246 157.583 190.356 157.773 190.508 157.925C190.66 158.078 190.848 158.187 191.054 158.244C191.261 158.3 191.478 158.301 191.685 158.247C193.111 157.641 194.347 156.654 195.262 155.393C196.192 154.246 197.037 153.032 197.792 151.76C199.306 149.273 200.628 146.672 201.745 143.979C204.16 138.291 206.13 132.421 207.638 126.422C208.124 124.541 208.429 122.618 208.548 120.678C208.547 118.76 208.332 116.848 207.907 114.979Z" stroke="black"/>
<path d="M188.399 160.396C188.216 160.295 188.005 160.256 187.798 160.282C187.591 160.309 187.398 160.401 187.245 160.545C187.181 160.602 187.116 160.657 187.05 160.711C187.033 160.725 187.015 160.739 186.998 160.754C186.779 160.911 186.557 161.069 186.329 161.21C186.225 161.258 186.126 161.315 186.032 161.38C185.928 161.452 185.822 161.522 185.713 161.589C185.487 161.728 185.252 161.856 185.018 161.982C184.924 162.033 184.828 162.08 184.733 162.126C184.596 162.193 184.46 162.26 184.329 162.338C183.938 162.605 183.599 162.943 183.33 163.335C183.218 163.518 183.153 163.727 183.141 163.942C183.129 164.157 183.17 164.372 183.26 164.567C183.336 164.763 183.456 164.938 183.611 165.077C183.767 165.217 183.953 165.317 184.154 165.369C184.637 165.469 185.137 165.454 185.614 165.327C186.1 165.144 186.548 164.87 186.934 164.519C187.149 164.349 187.349 164.16 187.532 163.955C187.619 163.859 187.703 163.76 187.785 163.66C187.902 163.526 188.011 163.386 188.111 163.239C188.167 163.142 188.214 163.04 188.25 162.934C188.498 162.471 188.695 161.982 188.839 161.476C188.892 161.272 188.878 161.056 188.798 160.861C188.719 160.666 188.579 160.503 188.399 160.396Z" fill="#FFCC66"/>
<path d="M188.399 160.396C188.216 160.295 188.005 160.256 187.798 160.282C187.591 160.309 187.398 160.401 187.245 160.545C187.181 160.602 187.116 160.657 187.05 160.711C187.033 160.725 187.015 160.739 186.998 160.754C186.779 160.911 186.557 161.069 186.329 161.21C186.225 161.258 186.126 161.315 186.032 161.38C185.928 161.452 185.822 161.522 185.713 161.589C185.487 161.728 185.252 161.856 185.018 161.982C184.924 162.033 184.828 162.08 184.733 162.126C184.596 162.193 184.46 162.26 184.329 162.338C183.938 162.605 183.599 162.943 183.33 163.335C183.218 163.518 183.153 163.727 183.141 163.942C183.129 164.157 183.17 164.372 183.26 164.567C183.336 164.763 183.456 164.938 183.611 165.077C183.767 165.217 183.953 165.317 184.154 165.369C184.637 165.469 185.137 165.454 185.614 165.327C186.1 165.144 186.548 164.87 186.934 164.519C187.149 164.349 187.349 164.16 187.532 163.955C187.619 163.859 187.703 163.76 187.785 163.66C187.902 163.526 188.011 163.386 188.111 163.239C188.167 163.142 188.214 163.04 188.25 162.934C188.498 162.471 188.695 161.982 188.839 161.476C188.892 161.272 188.878 161.056 188.798 160.861C188.719 160.666 188.579 160.503 188.399 160.396Z" stroke="black"/>
</svg>
