<svg width="236" height="227" viewBox="0 0 236 227" fill="none" xmlns="http://www.w3.org/2000/svg">
<path d="M121.486 226.424C178.716 226.424 225.11 182.07 225.11 127.357C225.11 72.6432 178.716 28.2891 121.486 28.2891C64.2565 28.2891 17.8625 72.6432 17.8625 127.357C17.8625 182.07 64.2565 226.424 121.486 226.424Z" fill="#050505"/>
<path d="M79.1619 27.3784C78.256 27.4022 77.354 27.5091 76.4672 27.6978C75.4575 27.8539 74.4708 28.135 73.5289 28.5346C71.6817 29.2713 69.8644 30.0967 68.0744 30.9627C57.7167 35.9867 48.3612 42.8945 40.4746 51.3412C39.0066 52.9676 37.6361 54.6812 36.3702 56.4728C35.764 57.3116 35.1983 58.1812 34.6345 59.0488C34.0093 60.0111 33.6383 61.0523 33.0886 62.054C32.6268 62.8964 33.776 63.8815 34.4584 63.1156C35.0955 62.4002 35.8702 61.8605 36.4958 61.1448C37.1214 60.429 37.7608 59.7276 38.4121 59.0352C39.6592 57.7077 40.8988 56.3792 42.18 55.0841C44.8133 52.4223 47.4077 49.7564 50.245 47.3072C55.8596 42.4739 62.0352 38.3498 68.6354 35.0259C70.4224 34.124 72.2365 33.2736 74.0811 32.4986C75.1618 32.0785 76.2161 31.5921 77.2382 31.0422C77.6964 30.7783 78.0837 30.4956 78.5571 30.2503C79.0564 29.984 79.5228 29.6588 79.9462 29.2814C80.7241 28.6093 80.0506 27.4247 79.1619 27.3784Z" fill="#050505"/>
<path d="M93.192 22.5642C92.6472 22.3042 92.0394 22.2103 91.4426 22.2938C90.8864 22.3247 90.3342 22.4089 89.7937 22.5455C88.85 22.7818 87.9337 23.146 87.0149 23.4607C85.9949 23.7682 84.9933 24.1351 84.0152 24.5598C83.1171 24.991 81.9897 25.5734 81.6554 26.5832C81.6014 26.7959 81.6168 27.0205 81.6991 27.2237C81.7814 27.4269 81.9263 27.5978 82.1124 27.7111C82.6167 27.9942 83.1976 28.1059 83.7695 28.0295C84.3173 28.0222 84.8634 27.966 85.4015 27.8614C86.3517 27.6446 87.289 27.3733 88.2089 27.0492C89.2408 26.7623 90.2548 26.4133 91.2455 26.0041C91.0111 26.0544 91.1304 25.9976 91.6034 25.8335C91.7189 25.7705 91.8341 25.7067 91.9491 25.6424C92.1857 25.5023 92.4145 25.349 92.6344 25.1834C93.1165 24.879 93.5008 24.4395 93.7406 23.9184C93.8099 23.6631 93.7937 23.3918 93.6945 23.1468C93.5952 22.9018 93.4186 22.6969 93.192 22.5642Z" fill="#050505"/>
<path d="M229.971 139.567C229.907 139.362 229.774 139.186 229.595 139.07C229.416 138.955 229.202 138.908 228.992 138.936C228.781 138.965 228.588 139.068 228.445 139.227C228.302 139.386 228.22 139.591 228.212 139.805C228.262 141.445 228.069 143.083 227.641 144.664C227.305 146.299 226.886 147.914 226.384 149.505C225.474 152.44 224.512 155.363 223.56 158.286C221.927 163.735 219.723 168.993 216.988 173.971C216.178 175.363 215.296 176.711 214.346 178.009C213.901 178.618 213.468 179.242 213.083 179.89C212.567 180.58 212.163 181.349 211.887 182.168C211.834 182.382 211.836 182.606 211.895 182.819C211.953 183.032 212.065 183.225 212.22 183.381C212.375 183.536 212.567 183.648 212.778 183.706C212.988 183.763 213.21 183.764 213.421 183.709C214.876 183.091 216.137 182.084 217.07 180.797C218.019 179.627 218.882 178.388 219.652 177.091C221.196 174.554 222.544 171.9 223.685 169.153C226.148 163.35 228.158 157.361 229.697 151.24C230.193 149.322 230.503 147.36 230.625 145.381C230.624 143.424 230.404 141.474 229.971 139.567Z" fill="#050505"/>
<path d="M210.069 185.901C209.881 185.799 209.667 185.758 209.456 185.785C209.244 185.813 209.047 185.907 208.891 186.054C208.809 186.127 208.724 186.196 208.639 186.266C208.416 186.426 208.189 186.588 207.957 186.732C207.851 186.781 207.75 186.839 207.654 186.905C207.547 186.979 207.439 187.05 207.329 187.118C207.098 187.261 206.858 187.391 206.619 187.519C206.386 187.645 206.143 187.748 205.916 187.882C205.517 188.155 205.171 188.499 204.897 188.899C204.783 189.087 204.716 189.3 204.704 189.519C204.692 189.739 204.734 189.958 204.826 190.157C204.903 190.357 205.026 190.535 205.184 190.677C205.343 190.819 205.533 190.921 205.738 190.975C206.231 191.076 206.74 191.062 207.227 190.932C207.723 190.746 208.18 190.466 208.574 190.108C208.793 189.934 208.998 189.742 209.184 189.533C209.273 189.434 209.359 189.334 209.442 189.231C209.561 189.095 209.673 188.952 209.775 188.802C209.832 188.703 209.879 188.599 209.917 188.491C210.17 188.019 210.371 187.52 210.517 187.003C210.571 186.795 210.557 186.575 210.476 186.376C210.395 186.177 210.252 186.01 210.069 185.901Z" fill="#050505"/>
<path d="M115.332 225.943C178.608 225.943 229.902 176.904 229.902 116.411C229.902 55.9178 178.608 6.87842 115.332 6.87842C52.0573 6.87842 0.762634 55.9178 0.762634 116.411C0.762634 176.904 52.0573 225.943 115.332 225.943Z" fill="#9BDFFF"/>
<path d="M68.5373 5.87158C67.5356 5.89787 66.5384 6.01604 65.5579 6.22469C64.4416 6.39729 63.3506 6.70803 62.3093 7.14988C60.2669 7.96436 58.2576 8.87695 56.2786 9.83444C44.8268 15.3892 34.483 23.0267 25.7633 32.3657C24.1403 34.1638 22.625 36.0584 21.2254 38.0393C20.5552 38.9667 19.9297 39.9282 19.3064 40.8874C18.6151 41.9513 18.2049 43.1025 17.5971 44.21C17.0865 45.1414 18.3571 46.2306 19.1117 45.3837C19.816 44.5928 20.6725 43.9962 21.3642 43.2048C22.056 42.4134 22.7628 41.6379 23.483 40.8724C24.8618 39.4046 26.2323 37.9358 27.6489 36.5039C30.5603 33.561 33.4288 30.6135 36.5658 27.9055C42.7735 22.5616 49.6014 18.0019 56.8989 14.3269C58.8746 13.3297 60.8804 12.3895 62.9198 11.5326C64.1147 11.0682 65.2803 10.5304 66.4104 9.92241C66.917 9.63056 67.3452 9.31803 67.8686 9.04683C68.4207 8.75245 68.9363 8.39289 69.4044 7.97558C70.2645 7.23249 69.5198 5.92277 68.5373 5.87158Z" fill="#9BDFFF"/>
<path d="M84.0495 0.548783C83.4471 0.261323 82.775 0.157465 82.1153 0.249797C81.5002 0.283926 80.8898 0.377054 80.2922 0.528093C79.2488 0.78941 78.2357 1.19204 77.2199 1.54001C76.0921 1.87998 74.9846 2.28564 73.9032 2.75514C72.9102 3.23198 71.6638 3.87589 71.2941 4.99233C71.2345 5.2275 71.2515 5.4758 71.3425 5.70046C71.4335 5.92512 71.5937 6.11412 71.7994 6.23938C72.357 6.5524 72.9993 6.67581 73.6316 6.59139C74.2373 6.58328 74.8411 6.52116 75.4359 6.40559C76.4866 6.1658 77.5229 5.86593 78.54 5.50753C79.6808 5.1903 80.8019 4.80442 81.8973 4.35201C81.6381 4.40769 81.77 4.34486 82.293 4.16347C82.4208 4.09372 82.5481 4.02327 82.6753 3.95218C82.9369 3.79719 83.1898 3.62779 83.433 3.44464C83.966 3.10808 84.3908 2.62221 84.6559 2.04604C84.7326 1.76379 84.7147 1.4638 84.605 1.19293C84.4953 0.92206 84.2999 0.695493 84.0495 0.548783Z" fill="#9BDFFF"/>
<path d="M235.276 129.91C235.206 129.684 235.059 129.489 234.861 129.362C234.663 129.234 234.427 129.182 234.194 129.213C233.961 129.245 233.747 129.359 233.589 129.535C233.432 129.711 233.34 129.937 233.332 130.175C233.387 131.987 233.174 133.798 232.7 135.547C232.329 137.354 231.865 139.14 231.311 140.898C230.305 144.144 229.242 147.375 228.189 150.607C226.382 156.632 223.946 162.446 220.922 167.949C220.026 169.488 219.051 170.978 218.001 172.414C217.509 173.087 217.031 173.776 216.605 174.493C216.034 175.256 215.588 176.107 215.282 177.012C215.223 177.249 215.226 177.497 215.291 177.732C215.356 177.967 215.479 178.181 215.651 178.353C215.822 178.524 216.034 178.648 216.267 178.712C216.5 178.776 216.745 178.777 216.979 178.715C218.587 178.032 219.982 176.919 221.013 175.496C222.062 174.202 223.016 172.833 223.868 171.399C225.575 168.594 227.066 165.659 228.326 162.622C231.05 156.206 233.272 149.584 234.974 142.817C235.522 140.696 235.865 138.527 236 136.339C235.999 134.175 235.756 132.019 235.276 129.91Z" fill="#9BDFFF"/>
<path d="M213.272 181.139C213.065 181.026 212.828 180.981 212.594 181.012C212.361 181.042 212.142 181.146 211.97 181.308C211.88 181.389 211.786 181.465 211.692 181.543C211.445 181.72 211.194 181.899 210.937 182.058C210.82 182.112 210.708 182.176 210.602 182.249C210.485 182.331 210.365 182.41 210.243 182.485C209.987 182.643 209.722 182.787 209.458 182.928C209.2 183.067 208.932 183.181 208.681 183.33C208.24 183.631 207.858 184.012 207.554 184.454C207.428 184.661 207.354 184.897 207.341 185.14C207.327 185.382 207.373 185.625 207.476 185.845C207.561 186.066 207.697 186.263 207.872 186.42C208.047 186.577 208.257 186.69 208.484 186.749C209.029 186.861 209.592 186.845 210.13 186.702C210.679 186.496 211.184 186.187 211.62 185.791C211.862 185.599 212.088 185.386 212.294 185.154C212.392 185.046 212.487 184.935 212.579 184.821C212.711 184.671 212.834 184.512 212.947 184.346C213.01 184.237 213.063 184.122 213.104 184.003C213.384 183.481 213.606 182.929 213.768 182.358C213.828 182.128 213.812 181.884 213.722 181.664C213.633 181.445 213.475 181.26 213.272 181.139Z" fill="#9BDFFF"/>
</svg>
