<svg width="286" height="290" viewBox="0 0 286 290" fill="none" xmlns="http://www.w3.org/2000/svg">
<path d="M140.96 289.956C216.58 289.956 277.882 231.349 277.882 159.054C277.882 86.7589 216.58 28.1521 140.96 28.1521C65.3405 28.1521 4.03833 86.7589 4.03833 159.054C4.03833 231.349 65.3405 289.956 140.96 289.956Z" fill="#050505"/>
<path d="M85.0356 26.949C83.8385 26.9804 82.6467 27.1216 81.4749 27.371C80.1409 27.5773 78.837 27.9486 77.5925 28.4767C75.1517 29.45 72.7504 30.5407 70.3852 31.685C56.6993 38.3235 44.3375 47.451 33.9166 58.612C31.9769 60.7609 30.1659 63.0251 28.4933 65.3925C27.6923 66.5008 26.9448 67.6499 26.1999 68.7963C25.3737 70.0678 24.8835 71.4436 24.1571 72.7671C23.5469 73.8803 25.0654 75.1819 25.9672 74.1698C26.809 73.2246 27.8326 72.5115 28.6592 71.5658C29.4859 70.62 30.3307 69.6932 31.1913 68.7783C32.8391 67.0242 34.4771 65.2688 36.17 63.5576C39.6495 60.0405 43.0775 56.5179 46.8265 53.2817C54.2453 46.8952 62.4054 41.4459 71.1266 37.0539C73.4878 35.8621 75.8848 34.7385 78.3222 33.7144C79.7501 33.1594 81.1432 32.5167 82.4938 31.7901C83.0992 31.4413 83.6109 31.0678 84.2365 30.7437C84.8962 30.3919 85.5124 29.9622 86.0719 29.4635C87.0997 28.5754 86.2098 27.0101 85.0356 26.949Z" fill="#050505"/>
<path d="M103.574 20.5879C102.854 20.2443 102.051 20.1202 101.263 20.2306C100.528 20.2713 99.798 20.3826 99.0838 20.5631C97.8369 20.8754 96.6261 21.3566 95.4121 21.7725C94.0643 22.1788 92.7408 22.6636 91.4484 23.2247C90.2617 23.7945 88.772 24.5641 88.3303 25.8983C88.259 26.1794 88.2793 26.4761 88.3881 26.7446C88.4969 27.0131 88.6883 27.239 88.9341 27.3887C89.6005 27.7628 90.3682 27.9103 91.1237 27.8094C91.8476 27.7997 92.5692 27.7254 93.2801 27.5873C94.5358 27.3007 95.7742 26.9424 96.9898 26.5141C98.3532 26.1349 99.693 25.6738 101.002 25.1331C100.692 25.1996 100.85 25.1246 101.475 24.9078C101.628 24.8244 101.78 24.7402 101.932 24.6553C102.244 24.47 102.547 24.2676 102.837 24.0487C103.474 23.6465 103.982 23.0658 104.299 22.3772C104.391 22.0399 104.369 21.6814 104.238 21.3577C104.107 21.034 103.873 20.7632 103.574 20.5879Z" fill="#050505"/>
<path d="M284.305 175.187C284.221 174.917 284.045 174.684 283.809 174.532C283.572 174.379 283.29 174.316 283.011 174.354C282.733 174.392 282.477 174.528 282.289 174.738C282.1 174.948 281.991 175.219 281.981 175.503C282.047 177.669 281.792 179.833 281.226 181.923C280.782 184.083 280.228 186.217 279.566 188.319C278.364 192.198 277.093 196.06 275.835 199.922C273.676 207.123 270.764 214.07 267.15 220.647C266.08 222.486 264.914 224.267 263.659 225.983C263.072 226.788 262.499 227.611 261.991 228.468C261.309 229.38 260.775 230.396 260.41 231.478C260.34 231.761 260.343 232.058 260.42 232.338C260.498 232.619 260.646 232.875 260.85 233.08C261.055 233.286 261.309 233.434 261.587 233.51C261.866 233.586 262.159 233.587 262.438 233.514C264.36 232.697 266.026 231.367 267.259 229.667C268.512 228.121 269.652 226.484 270.67 224.77C272.711 221.417 274.492 217.911 275.999 214.281C279.254 206.613 281.91 198.699 283.943 190.612C284.598 188.078 285.009 185.485 285.17 182.87C285.168 180.284 284.878 177.707 284.305 175.187Z" fill="#050505"/>
<path d="M258.008 236.411C257.76 236.275 257.477 236.222 257.198 236.258C256.919 236.294 256.658 236.418 256.452 236.612C256.344 236.709 256.231 236.8 256.119 236.893C255.824 237.105 255.524 237.319 255.217 237.508C255.077 237.573 254.943 237.65 254.816 237.737C254.676 237.835 254.533 237.929 254.387 238.019C254.082 238.207 253.765 238.379 253.449 238.549C253.142 238.715 252.821 238.851 252.521 239.028C251.993 239.388 251.537 239.844 251.174 240.372C251.023 240.62 250.936 240.901 250.919 241.191C250.903 241.481 250.958 241.771 251.08 242.034C251.182 242.298 251.344 242.534 251.554 242.721C251.763 242.909 252.014 243.044 252.285 243.115C252.937 243.249 253.61 243.229 254.253 243.058C254.909 242.812 255.513 242.443 256.033 241.969C256.323 241.74 256.592 241.485 256.839 241.209C256.956 241.079 257.07 240.946 257.18 240.811C257.337 240.631 257.484 240.441 257.619 240.243C257.695 240.113 257.758 239.975 257.807 239.833C258.141 239.209 258.407 238.549 258.6 237.867C258.672 237.592 258.653 237.301 258.546 237.038C258.439 236.775 258.25 236.555 258.008 236.411Z" fill="#050505"/>
<path d="M136.922 269.764C212.542 269.764 273.844 211.158 273.844 138.863C273.844 66.5675 212.542 7.96069 136.922 7.96069C61.3021 7.96069 0 66.5675 0 138.863C0 211.158 61.3021 269.764 136.922 269.764Z" fill="#FF6D66"/>
<path d="M80.9973 6.75732C79.8002 6.78874 78.6084 6.92996 77.4366 7.17932C76.1025 7.3856 74.7987 7.75696 73.5542 8.28501C71.1134 9.2584 68.7121 10.349 66.3469 11.4933C52.6609 18.1318 40.2991 27.2593 29.8783 38.4203C27.9386 40.5692 26.1276 42.8335 24.4549 45.2008C23.654 46.3092 22.9065 47.4582 22.1615 48.6047C21.3354 49.8761 20.8452 51.2519 20.1188 52.5754C19.5086 53.6886 21.0271 54.9902 21.9288 53.9782C22.7707 53.033 23.7942 52.3199 24.6209 51.3741C25.4476 50.4284 26.2924 49.5016 27.153 48.5867C28.8008 46.8325 30.4388 45.0771 32.1317 43.3659C35.6111 39.8488 39.0392 36.3263 42.7882 33.09C50.207 26.7036 58.367 21.2542 67.0882 16.8623C69.4494 15.6705 71.8465 14.5469 74.2839 13.5228C75.7118 12.9677 77.1049 12.3251 78.4555 11.5985C79.0609 11.2497 79.5726 10.8762 80.1981 10.5521C80.8579 10.2002 81.4741 9.77053 82.0336 9.27181C83.0614 8.38374 82.1715 6.8185 80.9973 6.75732Z" fill="#FF6D66"/>
<path d="M99.5359 0.396464C98.816 0.0529209 98.0128 -0.0711989 97.2243 0.0391471C96.4893 0.0799338 95.7597 0.191231 95.0456 0.371737C93.7987 0.684037 92.5879 1.16522 91.3739 1.58108C90.026 1.98737 88.7025 2.47218 87.4102 3.03327C86.2235 3.60314 84.7338 4.37268 84.2921 5.70693C84.2208 5.98799 84.2411 6.28473 84.3499 6.55322C84.4586 6.82171 84.6501 7.04758 84.8959 7.19728C85.5622 7.57137 86.3299 7.71885 87.0855 7.61797C87.8094 7.60827 88.531 7.53403 89.2419 7.39591C90.4975 7.10934 91.736 6.75097 92.9515 6.32265C94.3149 5.94352 95.6548 5.48236 96.9638 4.94169C96.6541 5.00823 96.8117 4.93315 97.4368 4.71636C97.5894 4.63301 97.7417 4.54881 97.8936 4.46385C98.2062 4.27862 98.5085 4.07618 98.7991 3.8573C99.4361 3.45507 99.9439 2.87441 100.261 2.18583C100.352 1.84851 100.331 1.49 100.2 1.16628C100.069 0.842566 99.8352 0.571796 99.5359 0.396464Z" fill="#FF6D66"/>
<path d="M280.267 154.996C280.183 154.725 280.007 154.493 279.77 154.341C279.533 154.188 279.251 154.125 278.973 154.163C278.695 154.201 278.439 154.337 278.25 154.547C278.062 154.757 277.953 155.028 277.943 155.312C278.008 157.478 277.754 159.642 277.188 161.732C276.744 163.892 276.19 166.026 275.528 168.128C274.325 172.007 273.054 175.869 271.796 179.731C269.637 186.931 266.726 193.879 263.112 200.456C262.041 202.295 260.876 204.076 259.621 205.792C259.033 206.597 258.461 207.42 257.953 208.277C257.27 209.189 256.737 210.205 256.372 211.287C256.301 211.57 256.305 211.866 256.382 212.147C256.459 212.428 256.607 212.684 256.812 212.889C257.017 213.095 257.271 213.243 257.549 213.319C257.827 213.395 258.12 213.396 258.399 213.323C260.322 212.506 261.988 211.176 263.22 209.475C264.474 207.929 265.614 206.293 266.632 204.579C268.672 201.226 270.454 197.72 271.961 194.09C275.215 186.422 277.871 178.508 279.905 170.421C280.56 167.886 280.97 165.293 281.131 162.679C281.13 160.093 280.84 157.516 280.267 154.996Z" fill="#FF6D66"/>
<path d="M253.97 216.22C253.722 216.084 253.439 216.031 253.16 216.067C252.88 216.103 252.619 216.227 252.414 216.421C252.306 216.518 252.193 216.609 252.081 216.702C251.786 216.914 251.486 217.128 251.179 217.317C251.039 217.382 250.905 217.459 250.778 217.546C250.638 217.644 250.495 217.738 250.349 217.828C250.044 218.016 249.727 218.188 249.411 218.358C249.103 218.524 248.783 218.66 248.483 218.838C247.955 219.197 247.499 219.653 247.136 220.181C246.985 220.429 246.897 220.71 246.881 221C246.865 221.291 246.92 221.58 247.042 221.843C247.144 222.107 247.306 222.343 247.516 222.531C247.725 222.718 247.976 222.853 248.247 222.924C248.898 223.058 249.572 223.039 250.215 222.867C250.871 222.621 251.474 222.252 251.995 221.779C252.284 221.549 252.554 221.295 252.801 221.018C252.918 220.888 253.031 220.755 253.141 220.62C253.299 220.44 253.446 220.25 253.581 220.052C253.656 219.922 253.719 219.785 253.769 219.642C254.103 219.018 254.369 218.358 254.562 217.676C254.634 217.401 254.615 217.11 254.508 216.847C254.401 216.584 254.212 216.364 253.97 216.22Z" fill="#FF6D66"/>
</svg>
