<svg viewBox="0 0 25 20" fill="none" xmlns="http://www.w3.org/2000/svg">
  <path
    d="M21.676 5.047c.015.214.015.428.015.641A13.936 13.936 0 017.66 19.72a13.936 13.936 0 01-7.573-2.214c.396.044.793.064 1.191.061A9.877 9.877 0 007.4 15.46a4.94 4.94 0 01-4.613-3.42c.308.049.62.074.931.076a5.218 5.218 0 001.3-.168 4.932 4.932 0 01-3.954-4.84v-.06a4.967 4.967 0 002.229.625 4.939 4.939 0 01-1.527-6.6 14.018 14.018 0 0010.168 5.161c-.08-.371-.12-.75-.122-1.13a4.937 4.937 0 018.535-3.374 9.708 9.708 0 003.13-1.19 4.918 4.918 0 01-2.168 2.717 9.886 9.886 0 002.84-.763 10.598 10.598 0 01-2.473 2.553z"
  />
</svg>